# Blender v2.79 (sub 0) OBJ File: 'enlarged-originalstations.blend'
# www.blender.org
mtllib hull_outpostOuterGarbageContainer3posX5_818026542663574posY-21_79753875732422.mtl
o Cube.004
v 0.549999 -0.546696 0.185877
v 0.499998 -0.546696 0.235877
v 0.499999 -0.546696 0.185877
v -0.500000 1.453304 -0.814125
v 0.500001 1.453304 -0.864123
v 0.500001 1.453304 -0.814123
v 0.550001 1.503304 -0.814123
v 0.600001 1.453304 -0.864123
v 0.600001 1.553303 -0.864123
v -0.550002 -0.553303 0.192481
v -0.500002 -0.553303 0.242481
v -0.500002 -0.553303 0.192481
v 0.550001 -0.546696 -0.814123
v 0.549999 1.453304 0.185877
v 0.549999 -1.553303 0.192483
v 0.499998 -1.553303 0.242483
v 0.499998 -1.553303 0.192483
v -0.500000 -0.546696 -0.814125
v -0.500000 1.453304 -0.864125
v 0.549999 -0.546696 0.235877
v -0.550000 1.453304 -0.814125
v -0.550002 -0.546696 0.185875
v -0.550002 1.453304 0.185875
v 0.500001 -0.546696 -0.864123
v 0.600001 -0.546696 -0.864123
v -0.500002 -1.553303 0.242481
v -0.500002 -1.553303 0.192481
v -0.500002 1.503304 0.185875
v 0.499998 1.503304 0.235877
v 0.499999 1.503304 0.185877
v 0.500001 1.503304 -0.814123
v -0.500000 1.503304 -0.814125
v -0.550002 1.503304 0.185875
v -0.550002 1.453304 0.235875
v 0.550001 1.453304 -0.814123
v 0.549999 1.503304 0.185877
v -0.550000 1.503304 -0.814125
v 0.499999 1.453304 0.185877
v -0.500002 1.453304 0.185875
v -0.500002 -0.546696 0.185875
v 0.549999 -0.553303 0.192483
v 0.549999 -1.553303 0.242483
v -0.550002 -1.553303 0.242481
v -0.550002 -1.553303 0.192481
v -0.550002 -0.553303 0.242481
v 0.499998 -0.553303 0.242483
v 0.499998 -0.553303 0.192483
v 0.549999 -0.553303 0.242483
v -0.550002 1.503304 0.235875
v -0.550002 -0.546696 0.235875
v -0.500002 1.503304 0.235875
v 0.549999 1.503304 0.235877
v 0.549999 1.453304 0.235877
v 0.500000 -0.546696 -0.814123
v -0.500000 -0.546696 -0.864125
v -0.599999 1.453304 -0.864125
v -0.500000 1.553303 -0.864125
v 0.500001 1.553303 -0.864123
v -0.599999 -0.546696 -0.864125
v -0.550000 -0.546696 -0.814125
v -0.599999 1.553303 -0.864125
v -0.500002 -1.553303 0.192481
v 0.549999 -0.553303 0.192483
v 0.499998 -1.553303 0.192483
v -0.550002 -0.553303 0.192481
v -0.500002 -0.546696 0.235875
v 0.276979 1.393969 0.189716
v 0.499029 1.249197 0.189503
v 0.501602 1.118687 -0.090698
v 0.221729 1.140659 -0.002679
v 0.050282 1.377451 0.192304
v -0.144101 1.407333 0.194031
v -0.001276 1.194244 0.068528
v -0.205793 1.262571 0.076111
v -0.337718 1.470064 0.187492
v 0.161591 1.016329 -0.157009
v -0.062657 1.039974 -0.083806
v 0.393745 0.912777 -0.157562
v 0.283367 0.702358 -0.227620
v 0.069038 0.819826 -0.296536
v -0.275404 1.103043 0.005954
v -0.462483 1.181442 0.050392
v -0.399302 1.330265 0.091628
v -0.141387 0.888691 -0.183565
v -0.347411 0.950510 -0.065247
v 0.431193 0.376493 -0.318631
v 0.167191 0.483835 -0.352636
v 0.512364 0.311926 -0.362258
v 0.328121 0.200487 -0.415861
v -0.020316 0.631538 -0.371316
v -0.214111 0.717712 -0.250297
v 0.095192 0.312332 -0.439995
v -0.123616 0.441019 -0.398822
v -0.422248 0.804623 -0.128439
v -0.502802 0.907074 -0.027558
v -0.504727 1.044243 -0.004700
v -0.319770 0.555529 -0.287178
v -0.501230 0.670938 -0.157506
v 0.495848 -0.400242 0.188988
v 0.386569 -0.083349 -0.186578
v 0.499000 0.110247 -0.339782
v 0.500251 0.602150 -0.243173
v 0.162405 0.027878 -0.209180
v -0.047128 0.135139 -0.299885
v 0.235725 -0.261606 -0.091241
v 0.014332 -0.137501 -0.148407
v -0.250992 0.257160 -0.323134
v -0.501264 0.384806 -0.273021
v -0.191313 -0.021271 -0.189838
v -0.388908 0.095757 -0.260949
v -0.501140 1.385469 0.190654
v -0.106672 -0.244980 0.035881
v -0.334628 -0.131878 -0.105057
v 0.117616 -0.471073 0.189670
v -0.070171 -0.472439 0.182434
v -0.262498 -0.315218 0.187035
v -0.509032 -0.015829 -0.164199
v -0.497724 -0.331451 0.189475
v 0.314490 -0.482428 0.184540
v -0.506539 0.236897 -0.263964
v 0.549999 -1.553303 0.192483
v -0.550002 -1.553303 0.192481
vt 0.697243 0.811836
vt 0.689166 0.819913
vt 0.689166 0.811836
vt 0.164214 0.947309
vt 0.325747 0.939233
vt 0.325747 0.947309
vt 0.951567 0.846590
vt 0.959643 0.858012
vt 0.943491 0.858012
vt 0.689166 0.898829
vt 0.697243 0.890753
vt 0.697243 0.898829
vt 0.362089 0.437904
vt 0.000894 0.437904
vt 0.289850 0.293426
vt 0.697243 0.841430
vt 0.689166 0.849507
vt 0.689166 0.841430
vt 0.323964 0.909639
vt 0.000894 0.917716
vt 0.000894 0.909639
vt 0.363877 0.905783
vt 0.686947 0.897707
vt 0.686947 0.905783
vt 0.363877 0.327533
vt 0.686940 0.489064
vt 0.363877 0.489064
vt 0.908572 0.785949
vt 0.908572 0.774527
vt 0.919994 0.785949
vt 0.525409 0.956893
vt 0.363877 0.964970
vt 0.363877 0.956893
vt 0.692930 0.951139
vt 0.854462 0.943062
vt 0.854462 0.951139
vt 0.913917 0.689573
vt 0.913917 0.527839
vt 0.921984 0.528242
vt 0.229334 0.863498
vt 0.000894 0.863498
vt 0.115114 0.749278
vt 0.938665 0.000894
vt 0.946741 0.162426
vt 0.938665 0.162426
vt 0.686947 0.917435
vt 0.363877 0.925512
vt 0.363877 0.917435
vt 0.943480 0.364520
vt 0.951557 0.526051
vt 0.943480 0.526051
vt 0.933626 0.689572
vt 0.933626 0.527839
vt 0.941693 0.528242
vt 0.687150 0.882709
vt 0.363877 0.882709
vt 0.364281 0.871294
vt 0.688728 0.232910
vt 0.850260 0.394441
vt 0.688728 0.394441
vt 0.362089 0.584170
vt 0.000894 0.584170
vt 0.289850 0.439692
vt 0.363877 0.490852
vt 0.686940 0.652384
vt 0.363877 0.652384
vt 0.000894 0.976903
vt 0.162426 0.968826
vt 0.162426 0.976903
vt 0.697243 0.861159
vt 0.689166 0.869236
vt 0.689166 0.861159
vt 0.688729 0.966758
vt 0.527198 0.974835
vt 0.527198 0.966758
vt 0.000894 0.967039
vt 0.162426 0.958962
vt 0.162426 0.967039
vt 0.689166 0.839642
vt 0.697243 0.831566
vt 0.697243 0.839642
vt 0.697243 0.880888
vt 0.689166 0.888965
vt 0.689166 0.880888
vt 0.305306 0.804684
vt 0.297230 0.812761
vt 0.297230 0.804684
vt 0.239198 0.853772
vt 0.231122 0.861849
vt 0.231122 0.853772
vt 0.883565 0.750310
vt 0.894987 0.750310
vt 0.889276 0.756021
vt 0.891641 0.733892
vt 0.883565 0.741968
vt 0.883565 0.733892
vt 0.943480 0.689371
vt 0.951557 0.527839
vt 0.951557 0.689371
vt 0.941703 0.691361
vt 0.933626 0.852894
vt 0.933626 0.691361
vt 0.839447 0.887775
vt 0.855600 0.871622
vt 0.855600 0.887775
vt 0.686945 0.835524
vt 0.363877 0.851565
vt 0.363883 0.835412
vt 0.363877 0.869506
vt 0.686942 0.853353
vt 0.686942 0.869506
vt 0.953345 0.435107
vt 0.969498 0.418954
vt 0.969498 0.435107
vt 0.688728 0.756962
vt 0.850259 0.740809
vt 0.850259 0.756962
vt 0.000894 0.883227
vt 0.324165 0.883227
vt 0.323762 0.894642
vt 0.961421 0.405744
vt 0.969498 0.417166
vt 0.953345 0.417166
vt 0.363877 0.915647
vt 0.686947 0.907571
vt 0.686947 0.915647
vt 0.297230 0.763267
vt 0.297230 0.749278
vt 0.303824 0.758604
vt 0.860562 0.845202
vt 0.699031 0.856624
vt 0.699031 0.845202
vt 0.305306 0.765055
vt 0.297230 0.776477
vt 0.297230 0.765055
vt 0.297230 0.822625
vt 0.305306 0.814549
vt 0.305306 0.822625
vt 0.850260 0.396229
vt 0.688728 0.557761
vt 0.688728 0.396229
vt 0.363877 0.947029
vt 0.525410 0.955105
vt 0.363877 0.955105
vt 0.325746 0.968826
vt 0.164214 0.976903
vt 0.164214 0.968826
vt 0.162426 0.939233
vt 0.000894 0.947309
vt 0.000894 0.939233
vt 0.686940 0.000894
vt 0.363877 0.162426
vt 0.363877 0.000894
vt 0.818804 0.831863
vt 0.790404 0.799819
vt 0.818804 0.758750
vt 0.243291 0.827658
vt 0.295442 0.827658
vt 0.251402 0.863469
vt 0.948529 0.000894
vt 0.980298 0.000894
vt 0.976739 0.037394
vt 0.981286 0.071721
vt 0.981286 0.103484
vt 0.948529 0.074706
vt 0.331151 0.869871
vt 0.357277 0.897871
vt 0.331151 0.923213
vt 0.943491 0.785984
vt 0.969667 0.765152
vt 0.969667 0.817621
vt 0.852048 0.652034
vt 0.893035 0.649558
vt 0.893035 0.689573
vt 0.900467 0.845202
vt 0.900467 0.886903
vt 0.862350 0.848891
vt 0.464726 0.976622
vt 0.438181 0.997128
vt 0.420689 0.976622
vt 0.964020 0.274498
vt 0.944814 0.251046
vt 0.994761 0.251046
vt 0.944814 0.249258
vt 0.974999 0.225096
vt 0.995850 0.249258
vt 0.974107 0.137373
vt 0.994201 0.159073
vt 0.948529 0.159073
vt 0.744909 0.836735
vt 0.699031 0.843414
vt 0.699031 0.798627
vt 0.985241 0.454835
vt 0.989188 0.472577
vt 0.953345 0.472577
vt 0.897658 0.611271
vt 0.897658 0.647770
vt 0.852048 0.619582
vt 0.418901 0.976622
vt 0.386493 0.999106
vt 0.363877 0.976622
vt 0.889092 0.978405
vt 0.862350 0.954653
vt 0.919613 0.954653
vt 0.802980 0.995104
vt 0.834473 0.972656
vt 0.858925 0.995104
vt 0.899487 0.400889
vt 0.934776 0.400889
vt 0.899689 0.440332
vt 0.046448 0.978691
vt 0.021431 0.987795
vt 0.000894 0.978691
vt 0.962499 0.298487
vt 0.944814 0.276286
vt 0.997456 0.276286
vt 0.333049 0.968617
vt 0.330260 0.927300
vt 0.362089 0.927300
vt 0.578552 0.976622
vt 0.599660 0.990961
vt 0.556122 0.990961
vt 0.357277 0.868084
vt 0.338519 0.788962
vt 0.357277 0.749360
vt 0.750663 0.918222
vt 0.801374 0.918222
vt 0.788553 0.931105
vt 0.880752 0.811612
vt 0.852330 0.840812
vt 0.820592 0.811612
vt 0.820592 0.809824
vt 0.820592 0.758750
vt 0.860608 0.803041
vt 0.852048 0.698939
vt 0.891920 0.691361
vt 0.891920 0.732104
vt 0.852473 0.890770
vt 0.852473 0.927947
vt 0.812091 0.896227
vt 0.895370 0.511595
vt 0.852048 0.527349
vt 0.852048 0.487035
vt 0.897158 0.525178
vt 0.897158 0.487035
vt 0.935700 0.523965
vt 0.894599 0.293167
vt 0.933161 0.293167
vt 0.927917 0.331498
vt 0.906784 0.758750
vt 0.906784 0.794484
vt 0.862395 0.771185
vt 0.943932 0.915327
vt 0.967648 0.922707
vt 0.904133 0.922707
vt 0.921984 0.744485
vt 0.893708 0.706956
vt 0.921984 0.691361
vt 0.309177 0.777828
vt 0.336731 0.749360
vt 0.336731 0.827871
vt 0.923828 0.956361
vt 0.980955 0.956361
vt 0.961351 0.979539
vt 0.898826 0.529137
vt 0.898826 0.565994
vt 0.852048 0.533579
vt 0.948529 0.069933
vt 0.948529 0.039182
vt 0.983637 0.067999
vt 0.266715 0.749278
vt 0.295442 0.769553
vt 0.266715 0.825870
vt 0.882385 0.389726
vt 0.852048 0.399474
vt 0.852048 0.339743
vt 0.264927 0.782680
vt 0.231122 0.822391
vt 0.231122 0.749278
vt 0.960895 0.888691
vt 0.931105 0.913539
vt 0.904133 0.888691
vt 0.301911 0.861422
vt 0.301911 0.829659
vt 0.336731 0.859918
vt 0.986544 0.525186
vt 0.953345 0.526051
vt 0.953345 0.496919
vt 0.944814 0.193022
vt 0.969054 0.169967
vt 0.969054 0.223308
vt 0.852048 0.414470
vt 0.897700 0.401262
vt 0.897700 0.440332
vt 0.852048 0.609483
vt 0.852048 0.567782
vt 0.892873 0.605498
vt 0.746762 0.972656
vt 0.714333 0.996330
vt 0.692930 0.972656
vt 0.981711 0.105272
vt 0.981711 0.135585
vt 0.948529 0.106634
vt 0.943491 0.844802
vt 0.967362 0.819409
vt 0.993438 0.844802
vt 0.963495 0.323203
vt 0.944814 0.300275
vt 0.995850 0.300275
vt 0.931657 0.274186
vt 0.904948 0.290227
vt 0.885985 0.274186
vt 0.513856 0.992572
vt 0.532607 0.976622
vt 0.554334 0.992572
vt 0.921197 0.839661
vt 0.882540 0.840812
vt 0.882540 0.800796
vt 0.779594 0.890770
vt 0.810303 0.916434
vt 0.750663 0.916434
vt 0.953345 0.527839
vt 0.981285 0.545115
vt 0.953345 0.563682
vt 0.977446 0.928622
vt 0.944526 0.954573
vt 0.923828 0.928622
vt 0.932792 0.860834
vt 0.957279 0.886903
vt 0.902255 0.886903
vt 0.852048 0.297738
vt 0.892811 0.293167
vt 0.892811 0.337955
vt 0.716610 0.931420
vt 0.692930 0.905256
vt 0.748875 0.905256
vt 0.987740 0.333286
vt 0.955111 0.357916
vt 0.934949 0.333286
vt 0.491102 0.976622
vt 0.512068 0.995755
vt 0.466514 0.995755
vt 0.748550 0.996616
vt 0.780148 0.972656
vt 0.801192 0.996616
vt 0.899580 0.399048
vt 0.884173 0.378707
vt 0.934675 0.378707
vt 0.837659 0.871622
vt 0.785664 0.888982
vt 0.750663 0.871622
vt 0.358428 0.667274
vt 0.325745 0.610284
vt 0.358428 0.585958
vt 0.788616 0.758750
vt 0.779711 0.809041
vt 0.746696 0.758750
vt 0.862350 0.952865
vt 0.885538 0.928622
vt 0.922040 0.952865
vt 0.884173 0.376919
vt 0.884173 0.339743
vt 0.925743 0.370754
vt 0.933228 0.480527
vt 0.894489 0.480527
vt 0.899144 0.442120
vt 0.902345 0.888691
vt 0.902345 0.926834
vt 0.862350 0.897162
vt 0.852048 0.450655
vt 0.892701 0.442120
vt 0.892701 0.485247
vt 0.943491 0.763364
vt 0.946138 0.727728
vt 0.982324 0.763364
vt 0.651580 0.976622
vt 0.623448 0.986092
vt 0.601448 0.976622
vt 0.699031 0.903468
vt 0.724156 0.871622
vt 0.748875 0.903468
vt 0.924724 0.232910
vt 0.921521 0.272398
vt 0.885985 0.232910
vt 0.325745 0.669061
vt 0.357277 0.696842
vt 0.325745 0.747572
vt 0.943491 0.725940
vt 0.956248 0.691361
vt 0.983624 0.725940
vt 0.744908 0.758750
vt 0.744908 0.796839
vt 0.688728 0.767846
vt 0.974554 0.474365
vt 0.997236 0.495131
vt 0.953345 0.495131
vt 0.746696 0.818381
vt 0.784789 0.810829
vt 0.784789 0.843120
vt 0.884197 0.290202
vt 0.852048 0.291379
vt 0.852048 0.232910
vt 0.862830 0.756021
vt 0.852048 0.733892
vt 0.881777 0.733892
vt 0.815036 0.833651
vt 0.809325 0.839362
vt 0.803614 0.833651
vt 0.000894 0.957174
vt 0.000894 0.949097
vt 0.162426 0.949097
vt 0.790404 0.841727
vt 0.790404 0.833651
vt 0.801826 0.833651
vt 0.689166 0.879100
vt 0.689166 0.871024
vt 0.697243 0.871024
vt 0.362089 0.147160
vt 0.073133 0.291638
vt 0.000894 0.147160
vt 0.239199 0.834043
vt 0.239199 0.842120
vt 0.231122 0.842120
vt 0.323956 0.919504
vt 0.323956 0.927580
vt 0.000894 0.927580
vt 0.363877 0.935376
vt 0.363877 0.927300
vt 0.686940 0.927300
vt 0.363877 0.654172
vt 0.686940 0.654172
vt 0.686940 0.815703
vt 0.239199 0.832255
vt 0.231122 0.832255
vt 0.231122 0.824179
vt 0.688729 0.956893
vt 0.688729 0.964970
vt 0.527198 0.964970
vt 0.527198 0.955106
vt 0.527198 0.947029
vt 0.688729 0.947029
vt 0.943026 0.331498
vt 0.934949 0.331498
vt 0.934949 0.169967
vt 0.917168 0.000894
vt 0.802948 0.115114
vt 0.688728 0.000894
vt 0.928810 0.000894
vt 0.936877 0.001297
vt 0.928811 0.162627
vt 0.686940 0.937164
vt 0.686940 0.945241
vt 0.363877 0.945241
vt 0.923772 0.527839
vt 0.931838 0.528242
vt 0.923772 0.689572
vt 0.931838 0.853094
vt 0.923772 0.852691
vt 0.931838 0.691361
vt 0.686940 0.884497
vt 0.686940 0.895919
vt 0.363877 0.895919
vt 0.688728 0.231122
vt 0.802948 0.116902
vt 0.917168 0.231122
vt 0.362089 0.000894
vt 0.073133 0.145372
vt 0.000894 0.000894
vt 0.000894 0.585958
vt 0.323957 0.585958
vt 0.323957 0.747490
vt 0.692930 0.970868
vt 0.692930 0.962791
vt 0.854461 0.962791
vt 0.904851 0.747945
vt 0.904851 0.756021
vt 0.896775 0.756021
vt 0.525409 0.966758
vt 0.525409 0.974835
vt 0.363877 0.974835
vt 0.692930 0.961003
vt 0.692930 0.952927
vt 0.854461 0.952927
vt 0.231122 0.851984
vt 0.231122 0.843908
vt 0.239199 0.843908
vt 0.914716 0.747945
vt 0.914716 0.756021
vt 0.906639 0.756021
vt 0.697243 0.851295
vt 0.697243 0.859371
vt 0.689166 0.859371
vt 0.299595 0.791474
vt 0.305306 0.797185
vt 0.299595 0.802896
vt 0.689166 0.829778
vt 0.689166 0.821701
vt 0.697243 0.821701
vt 0.691532 0.798627
vt 0.697243 0.804338
vt 0.691532 0.810049
vt 0.912129 0.689573
vt 0.904063 0.528242
vt 0.912129 0.527839
vt 0.918956 0.000894
vt 0.927023 0.162225
vt 0.918956 0.162628
vt 0.902255 0.859046
vt 0.902255 0.842893
vt 0.918409 0.842893
vt 0.687344 0.817491
vt 0.686537 0.833624
vt 0.363877 0.817491
vt 0.000894 0.881439
vt 0.000894 0.865286
vt 0.323957 0.865286
vt 0.953345 0.453047
vt 0.953345 0.436895
vt 0.969498 0.436895
vt 0.688728 0.739021
vt 0.688728 0.722868
vt 0.850260 0.722868
vt 0.000894 0.907851
vt 0.000894 0.896429
vt 0.323957 0.896429
vt 0.305306 0.789686
vt 0.297230 0.789686
vt 0.297230 0.778264
vt 0.000894 0.937445
vt 0.000894 0.929368
vt 0.323956 0.929368
vt 0.908572 0.772739
vt 0.908572 0.758750
vt 0.921761 0.768076
vt 0.860562 0.858412
vt 0.860562 0.869834
vt 0.699031 0.869834
vt 0.870472 0.796272
vt 0.878549 0.807694
vt 0.862395 0.807694
vt 0.918956 0.175838
vt 0.918956 0.164416
vt 0.930378 0.175838
vt 0.850260 0.559549
vt 0.850260 0.721080
vt 0.688728 0.721080
vt 0.692930 0.941274
vt 0.854261 0.933208
vt 0.854664 0.941274
vt 0.325746 0.958962
vt 0.325746 0.967039
vt 0.164214 0.967039
vt 0.325746 0.949097
vt 0.325746 0.957174
vt 0.164214 0.957174
vt 0.686940 0.164213
vt 0.686940 0.325745
vt 0.363877 0.325745
vn 0.0000 -1.0000 -0.0000
vn 0.7071 0.0000 0.7071
vn 0.0000 1.0000 0.0000
vn 1.0000 0.0000 0.0000
vn -1.0000 0.0000 -0.0000
vn 0.0000 0.0000 -1.0000
vn -0.7071 0.0000 0.7071
vn -0.0000 0.7071 0.7071
vn 0.0622 0.6993 -0.7121
vn 0.5094 0.7818 -0.3595
vn -0.0455 0.5614 -0.8263
vn -0.0603 0.6549 -0.7533
vn -0.0108 0.5762 -0.8172
vn 0.1602 0.5627 -0.8110
vn 0.0247 0.6422 -0.7661
vn 0.0904 0.5252 -0.8462
vn -0.0089 0.5917 -0.8061
vn 0.0935 0.6195 -0.7794
vn -0.1291 0.6359 -0.7609
vn 0.0482 0.3503 -0.9354
vn 0.2399 0.3062 -0.9213
vn 0.0889 0.4519 -0.8876
vn -0.1274 0.4576 -0.8800
vn -0.2854 0.4112 -0.8657
vn -0.1980 0.4869 -0.8507
vn -0.2674 0.5292 -0.8053
vn -0.1923 0.4686 -0.8623
vn 0.0249 0.3920 -0.9196
vn 0.3056 0.3219 -0.8961
vn 0.0402 0.2868 -0.9571
vn 0.0492 -0.2230 -0.9736
vn -0.0688 0.3313 -0.9410
vn -0.3210 0.4259 -0.8459
vn -0.0242 -0.1337 -0.9907
vn -0.2944 0.0362 -0.9550
vn -0.3513 0.4292 -0.8321
vn -0.6790 0.1695 -0.7143
vn -0.2227 0.3860 -0.8952
vn -0.3313 0.2819 -0.9005
vn -0.3814 0.3875 -0.8393
vn 0.3318 -0.6811 -0.6526
vn 0.1065 -0.6322 -0.7674
vn 0.1731 -0.4868 -0.8562
vn 0.0387 0.3008 -0.9529
vn -0.0590 -0.5330 -0.8441
vn -0.0956 -0.4857 -0.8689
vn 0.0441 -0.6503 -0.7584
vn -0.1294 -0.5989 -0.7903
vn -0.1881 -0.2239 -0.9563
vn -0.2376 0.0882 -0.9674
vn -0.0701 -0.5719 -0.8173
vn -0.1559 -0.3829 -0.9105
vn -0.4102 0.5446 -0.7316
vn -0.2155 -0.7233 -0.6561
vn -0.0780 -0.7145 -0.6952
vn -0.1062 -0.7114 -0.6947
vn -0.1358 -0.5519 -0.8228
vn -0.1688 -0.7701 -0.6152
vn -0.2242 -0.5778 -0.7848
vn -0.0439 -0.8156 -0.5770
vn 0.1499 -0.7504 -0.6437
vn -0.1299 -0.1292 -0.9831
usemtl Material.012
s off
f 1/1/1 2/2/1 3/3/1
f 4/4/1 5/5/1 6/6/1
f 7/7/2 8/8/2 9/9/2
f 10/10/3 11/11/3 12/12/3
f 13/13/4 14/14/4 1/15/4
f 15/16/1 16/17/1 17/18/1
f 18/19/4 19/20/4 4/21/4
f 14/22/4 20/23/4 1/24/4
f 21/25/5 22/26/5 23/27/5
f 13/28/1 24/29/1 25/30/1
f 17/31/1 26/32/1 27/33/1
f 28/34/3 29/35/3 30/36/3
f 30/37/3 7/38/3 31/39/3
f 31/40/3 28/41/3 30/42/3
f 32/43/3 33/44/3 28/45/3
f 22/46/5 34/47/5 23/48/5
f 35/49/4 36/50/4 14/51/4
f 23/52/5 37/53/5 21/54/5
f 13/55/2 8/56/2 35/57/2
f 4/58/1 38/59/1 39/60/1
f 18/61/4 39/62/4 40/63/4
f 6/64/5 3/65/5 38/66/5
f 41/67/4 42/68/4 15/69/4
f 27/70/1 43/71/1 44/72/1
f 44/73/5 45/74/5 10/75/5
f 12/76/3 46/77/3 47/78/3
f 47/79/3 48/80/3 41/81/3
f 23/82/5 49/83/5 33/84/5
f 40/85/1 50/86/1 22/87/1
f 33/88/3 51/89/3 28/90/3
f 30/91/3 52/92/3 36/93/3
f 36/94/4 53/95/4 14/96/4
f 22/97/1 18/98/1 40/99/1
f 13/100/1 3/101/1 54/102/1
f 5/103/6 9/104/6 8/105/6
f 55/106/6 56/107/6 19/108/6
f 5/109/6 25/110/6 24/111/6
f 56/112/6 57/113/6 19/114/6
f 19/115/6 58/116/6 5/117/6
f 21/118/7 59/119/7 60/120/7
f 37/121/8 57/122/8 61/123/8
f 6/124/5 24/125/5 54/126/5
f 37/127/7 56/128/7 21/129/7
f 31/130/8 57/131/8 32/132/8
f 7/133/8 58/134/8 31/135/8
f 60/136/1 55/137/1 18/138/1
f 47/139/6 62/140/6 12/141/6
f 63/142/6 64/143/6 47/144/6
f 62/145/6 65/146/6 12/147/6
f 3/148/1 66/149/1 40/150/1
f 3/151/6 39/152/6 38/153/6
s 52
f 67/154/9 68/155/10 69/156/11
f 67/157/9 70/158/12 71/159/13
f 72/160/14 71/161/13 73/162/15
f 72/163/14 74/164/16 75/165/17
f 76/166/18 77/167/19 73/168/15
f 76/169/18 70/170/12 78/171/20
f 76/172/18 78/173/20 79/174/21
f 76/175/18 80/176/22 77/177/19
f 81/178/23 82/179/24 83/180/25
f 81/181/23 74/182/16 77/183/19
f 81/184/23 77/185/19 84/186/26
f 81/187/23 85/188/27 82/189/24
f 86/190/28 87/191/29 79/192/21
f 86/193/28 88/194/30 89/195/31
f 86/196/28 89/197/31 87/198/29
f 90/199/32 91/200/33 84/201/26
f 90/202/32 80/203/22 87/204/29
f 90/205/32 87/206/29 92/207/34
f 90/208/32 93/209/35 91/210/33
f 94/211/36 95/212/37 96/213/38
f 94/214/36 85/215/27 91/216/33
f 94/217/36 91/218/33 97/219/39
f 94/220/36 98/221/40 95/222/37
f 99/223/41 100/224/42 101/225/43
f 102/226/44 88/227/30 86/228/28
f 103/229/45 104/230/46 92/231/34
f 103/232/45 89/233/31 100/234/42
f 103/235/45 100/236/42 105/237/47
f 103/238/45 106/239/48 104/240/46
f 107/241/49 108/242/50 97/243/39
f 107/244/49 93/245/35 104/246/46
f 107/247/49 104/248/46 109/249/51
f 107/250/49 110/251/52 108/252/50
f 82/253/24 96/254/38 111/255/53
f 112/256/54 113/257/55 109/258/51
f 112/259/54 106/260/48 114/261/56
f 112/262/54 114/263/56 115/264/57
f 112/265/54 116/266/58 113/267/55
f 117/268/59 110/269/52 113/270/55
f 117/271/59 113/272/55 118/273/60
f 119/274/61 114/275/56 105/276/47
f 70/277/12 67/278/9 69/279/11
f 70/280/12 73/281/15 71/282/13
f 74/283/16 72/284/14 73/285/15
f 74/286/16 83/287/25 75/288/17
f 70/289/12 76/290/18 73/291/15
f 70/292/12 69/293/11 78/294/20
f 80/295/22 76/296/18 79/297/21
f 80/298/22 84/299/26 77/300/19
f 74/301/16 81/302/23 83/303/25
f 74/304/16 73/305/15 77/306/19
f 85/307/27 81/308/23 84/309/26
f 85/310/27 96/311/38 82/312/24
f 111/313/53 83/314/25 82/315/24
f 102/316/44 79/317/21 78/318/20
f 102/319/44 86/320/28 79/321/21
f 88/322/30 101/323/43 89/324/31
f 89/325/31 92/326/34 87/327/29
f 80/328/22 90/329/32 84/330/26
f 80/331/22 79/332/21 87/333/29
f 93/334/35 90/335/32 92/336/34
f 93/337/35 97/338/39 91/339/33
f 85/340/27 94/341/36 96/342/38
f 85/343/27 84/344/26 91/345/33
f 98/346/40 94/347/36 97/348/39
f 102/349/44 78/350/20 69/351/11
f 99/352/41 105/353/47 100/354/42
f 89/355/31 103/356/45 92/357/34
f 89/358/31 101/359/43 100/360/42
f 106/361/48 103/362/45 105/363/47
f 106/364/48 109/365/51 104/366/46
f 93/367/35 107/368/49 97/369/39
f 93/370/35 92/371/34 104/372/46
f 110/373/52 107/374/49 109/375/51
f 110/376/52 120/377/62 108/378/50
f 98/379/40 97/380/39 108/381/50
f 106/382/48 112/383/54 109/384/51
f 106/385/48 105/386/47 114/387/56
f 116/388/58 112/389/54 115/390/57
f 116/391/58 118/392/60 113/393/55
f 110/394/52 117/395/59 120/396/62
f 110/397/52 109/398/51 113/399/55
f 99/400/41 119/401/61 105/402/47
f 83/403/25 111/404/53 75/405/17
s off
f 1/406/1 20/407/1 2/408/1
f 4/409/1 19/410/1 5/411/1
f 7/412/2 35/413/2 8/414/2
f 10/415/3 45/416/3 11/417/3
f 13/418/4 35/419/4 14/420/4
f 15/421/1 42/422/1 16/423/1
f 18/424/4 55/425/4 19/426/4
f 14/427/4 53/428/4 20/429/4
f 21/430/5 60/431/5 22/432/5
f 13/433/1 54/434/1 24/435/1
f 17/436/1 16/437/1 26/438/1
f 28/439/3 51/440/3 29/441/3
f 30/442/3 36/443/3 7/444/3
f 31/445/3 32/446/3 28/447/3
f 32/448/3 37/449/3 33/450/3
f 22/451/5 50/452/5 34/453/5
f 35/454/4 7/455/4 36/456/4
f 23/457/5 33/458/5 37/459/5
f 13/460/2 25/461/2 8/462/2
f 4/463/1 6/464/1 38/465/1
f 18/466/4 4/467/4 39/468/4
f 6/469/5 54/470/5 3/471/5
f 41/472/4 48/473/4 42/474/4
f 27/475/1 26/476/1 43/477/1
f 44/478/5 43/479/5 45/480/5
f 12/481/3 11/482/3 46/483/3
f 47/484/3 46/485/3 48/486/3
f 23/487/5 34/488/5 49/489/5
f 40/490/1 66/491/1 50/492/1
f 33/493/3 49/494/3 51/495/3
f 30/496/3 29/497/3 52/498/3
f 36/499/4 52/500/4 53/501/4
f 22/502/1 60/503/1 18/504/1
f 13/505/1 1/506/1 3/507/1
f 5/508/6 58/509/6 9/510/6
f 55/511/6 59/512/6 56/513/6
f 5/514/6 8/515/6 25/516/6
f 56/517/6 61/518/6 57/519/6
f 19/520/6 57/521/6 58/522/6
f 21/523/7 56/524/7 59/525/7
f 37/526/8 32/527/8 57/528/8
f 6/529/5 5/530/5 24/531/5
f 37/532/7 61/533/7 56/534/7
f 31/535/8 58/536/8 57/537/8
f 7/538/8 9/539/8 58/540/8
f 60/541/1 59/542/1 55/543/1
f 47/544/6 64/545/6 62/546/6
f 63/547/6 121/548/6 64/549/6
f 62/550/6 122/551/6 65/552/6
f 3/553/1 2/554/1 66/555/1
f 3/556/6 40/557/6 39/558/6
l 27 12
l 47 17
