# Blender v2.79 (sub 0) OBJ File: 'droneHullV2.blend'
# www.blender.org
mtllib droneHullV2.mtl
o Cube
v 0.085201 0.078125 0.016260
v 0.046138 0.064063 -0.011165
v 0.030513 0.203125 0.031852
v -0.071049 0.156250 0.016443
v -0.071049 0.156250 -0.004751
v 0.134029 0.031212 0.010541
v -0.071049 0.156250 0.005846
v -0.071049 0.156250 0.011144
v -0.069521 0.148120 0.016832
v -0.069521 0.101880 -0.015852
v -0.071049 0.156250 0.000547
v -0.069521 0.101880 0.016832
v -0.069521 0.148120 -0.006734
v -0.069521 0.148120 0.002413
v -0.069521 0.101880 -0.001707
v -0.069521 0.101880 0.011664
v -0.069521 0.101880 -0.010977
v -0.069521 0.148120 -0.003918
v -0.069521 0.148120 0.013724
v -0.055424 0.209375 0.031120
v -0.078862 0.209688 0.031120
v -0.031987 0.064063 -0.016764
v 0.065669 0.027344 -0.021165
v 0.007840 0.090002 0.016697
v 0.139888 0.015606 0.010205
v 0.125480 0.015606 0.000684
v -0.040771 0.148120 0.016832
v -0.040771 0.101880 -0.015852
v -0.040771 0.101880 0.016832
v -0.040771 0.148120 -0.006734
v -0.040771 0.148120 0.002413
v -0.040771 0.101880 -0.001707
v -0.040771 0.101880 0.011664
v -0.040771 0.101880 -0.010977
v -0.040771 0.148120 -0.003918
v -0.040771 0.148120 0.013724
v -0.067990 0.124973 0.015485
v -0.067990 0.124973 -0.010223
v -0.067990 0.145781 0.015485
v -0.067990 0.104165 -0.013931
v -0.067990 0.104165 0.015485
v -0.067990 0.145781 -0.005724
v -0.067990 0.145781 0.002508
v -0.067990 0.104165 -0.001200
v -0.067990 0.124973 -0.006762
v -0.067990 0.124973 0.011761
v -0.067990 0.104165 0.010834
v -0.067990 0.104165 -0.009543
v -0.067990 0.145781 -0.003190
v -0.067990 0.145781 0.012688
v -0.043381 0.124973 0.005733
v -0.054952 0.138746 0.007507
v -0.052903 0.108388 0.004596
v -0.043381 0.124973 0.002299
v -0.043381 0.124973 0.010003
v -0.052903 0.108388 0.009275
v -0.052903 0.108388 0.000116
v -0.054952 0.138746 0.005104
v -0.054952 0.138746 0.010730
v -0.040990 0.124973 0.015485
v -0.040990 0.124973 -0.010223
v -0.040990 0.145781 0.015485
v -0.040990 0.104165 -0.013931
v -0.040990 0.104165 0.015485
v -0.040990 0.145781 -0.005724
v -0.040990 0.145781 0.002508
v -0.040990 0.104165 -0.001200
v -0.040990 0.104165 0.010834
v -0.040990 0.104165 -0.009543
v -0.040990 0.145781 -0.003190
v -0.040990 0.145781 0.012688
v 0.085200 -0.078125 0.016260
v 0.046138 -0.064063 -0.011165
v 0.030513 -0.203125 0.031852
v -0.071050 -0.156250 0.016443
v -0.071050 -0.156250 -0.004751
v 0.134029 -0.031212 0.010541
v -0.071050 -0.156250 0.005846
v -0.071050 -0.156250 0.011144
v -0.069521 -0.148120 0.016832
v -0.069521 -0.101880 -0.015852
v -0.071050 -0.156250 0.000547
v -0.069521 -0.101880 0.016832
v -0.069521 -0.148120 -0.006734
v -0.069521 -0.148120 0.002413
v -0.069521 -0.101880 -0.001707
v -0.069521 -0.101880 0.011664
v -0.069521 -0.101880 -0.010977
v -0.069521 -0.148120 -0.003918
v -0.069521 -0.148120 0.013724
v -0.055425 -0.209375 0.031120
v -0.078862 -0.209688 0.031120
v -0.031987 -0.064062 -0.016764
v 0.065669 -0.027344 -0.021165
v 0.007840 -0.090002 0.016697
v 0.139888 -0.015606 0.010205
v 0.125480 -0.015606 0.000684
v 0.111932 -0.000000 -0.009173
v 0.145747 -0.000000 0.009870
v 0.075200 -0.000000 -0.021165
v -0.031987 0.000000 -0.026764
v -0.039521 0.000000 0.010133
v 0.085201 -0.000000 0.015260
v 0.007840 0.000000 0.012697
v 0.131340 -0.000000 0.000348
v -0.040771 -0.148120 0.016832
v -0.040771 -0.101880 -0.015852
v -0.040771 -0.101880 0.016832
v -0.040771 -0.148120 -0.006734
v -0.040771 -0.148120 0.002413
v -0.040771 -0.101880 -0.001707
v -0.040771 -0.101880 0.011664
v -0.040771 -0.101880 -0.010977
v -0.040771 -0.148120 -0.003918
v -0.040771 -0.148120 0.013724
v -0.067990 -0.124973 0.015485
v -0.067990 -0.124973 -0.010223
v -0.067990 -0.145781 0.015485
v -0.067990 -0.104165 -0.013931
v -0.067990 -0.104165 0.015485
v -0.067990 -0.145781 -0.005724
v -0.067990 -0.145781 0.002508
v -0.067990 -0.104165 -0.001200
v -0.067990 -0.124973 -0.006762
v -0.067990 -0.124973 0.011761
v -0.067990 -0.104165 0.010834
v -0.067990 -0.104165 -0.009543
v -0.067990 -0.145781 -0.003190
v -0.067990 -0.145781 0.012688
v -0.043381 -0.124973 0.005733
v -0.054952 -0.138746 0.007507
v -0.052903 -0.108388 0.004596
v -0.043381 -0.124973 0.002299
v -0.043381 -0.124973 0.010003
v -0.052903 -0.108388 0.009275
v -0.052903 -0.108388 0.000116
v -0.054952 -0.138746 0.005104
v -0.054952 -0.138746 0.010730
v -0.040990 -0.124973 0.015485
v -0.040990 -0.124973 -0.010223
v -0.040990 -0.145781 0.015485
v -0.040990 -0.104165 -0.013931
v -0.040990 -0.104165 0.015485
v -0.040990 -0.145781 -0.005724
v -0.040990 -0.145781 0.002508
v -0.040990 -0.104165 -0.001200
v -0.040990 -0.104165 0.010834
v -0.040990 -0.104165 -0.009543
v -0.040990 -0.145781 -0.003190
v -0.040990 -0.145781 0.012688
vt 0.628983 0.426816
vt 0.613014 0.422418
vt 0.618590 0.414023
vt 0.635319 0.388838
vt 0.629743 0.397233
vt 0.511998 0.388838
vt 0.239393 0.295167
vt 0.328635 0.388672
vt 0.000517 0.189471
vt 0.640887 0.408894
vt 0.647549 0.398863
vt 0.650512 0.394402
vt 0.624166 0.405628
vt 0.111882 0.516081
vt 0.068504 0.483045
vt 0.240664 0.373878
vt 0.343982 0.785254
vt 0.002977 0.608424
vt 0.179633 0.559922
vt 0.545755 0.764440
vt 0.585617 0.744469
vt 0.618248 0.845796
vt 0.403470 0.845796
vt 0.089489 0.771687
vt 0.007500 0.629766
vt 0.207786 0.729783
vt 0.347671 0.964150
vt 0.225420 0.980365
vt 0.225420 0.935779
vt 0.306422 0.480504
vt 0.404897 0.503819
vt 0.842642 0.975383
vt 0.619281 0.960298
vt 0.848495 0.960298
vt 0.388266 0.148132
vt 0.388009 0.295363
vt 0.216900 0.147999
vt 0.388553 0.057914
vt 0.867912 0.595693
vt 0.881179 0.484134
vt 0.874510 0.599773
vt 0.978949 0.076036
vt 0.776532 0.076036
vt 0.869549 0.000517
vt 0.893148 0.413050
vt 0.882570 0.444120
vt 0.860958 0.412020
vt 0.851332 0.443450
vt 0.828683 0.412020
vt 0.869298 0.483101
vt 0.008324 0.525859
vt 0.388010 0.410987
vt 0.225420 0.890122
vt 0.329799 0.824429
vt 0.358355 0.890122
vt 0.940914 0.143116
vt 0.886227 0.117682
vt 0.940914 0.117682
vt 0.107594 0.972184
vt 0.052907 0.966272
vt 0.107594 0.966272
vt 0.996591 0.740183
vt 0.941905 0.734828
vt 0.996591 0.734828
vt 0.989792 0.894530
vt 0.935106 0.876898
vt 0.989792 0.876898
vt 0.940914 0.176528
vt 0.886227 0.166698
vt 0.940914 0.166698
vt 0.990272 0.839030
vt 0.935586 0.817515
vt 0.990272 0.817515
vt 0.987332 0.937140
vt 0.932645 0.925098
vt 0.987332 0.925098
vt 0.219032 0.964681
vt 0.164346 0.955408
vt 0.219032 0.955408
vt 0.835108 0.853156
vt 0.923069 0.835842
vt 0.923066 0.845115
vt 0.358722 0.532917
vt 0.605887 0.985398
vt 0.376673 0.985398
vt 0.560490 0.954906
vt 0.404898 0.609535
vt 0.813319 0.184120
vt 0.792126 0.142787
vt 0.815609 0.139236
vt 0.398968 0.885667
vt 0.359388 0.878583
vt 0.398968 0.876819
vt 0.810637 0.084452
vt 0.838619 0.127301
vt 0.815936 0.130464
vt 0.399282 0.904797
vt 0.360543 0.896581
vt 0.400746 0.896581
vt 0.988178 0.726579
vt 0.949075 0.720145
vt 0.989569 0.720145
vt 0.762681 0.153439
vt 0.791170 0.136963
vt 0.869199 0.123818
vt 0.866994 0.102605
vt 0.987636 0.766959
vt 0.948057 0.761638
vt 0.987636 0.759874
vt 0.838684 0.134389
vt 0.837188 0.140731
vt 0.815795 0.134346
vt 0.791200 0.133055
vt 0.864540 0.153848
vt 0.760537 0.127879
vt 0.760537 0.114329
vt 0.212375 0.974060
vt 0.161017 0.965714
vt 0.212375 0.965714
vt 0.051874 0.972600
vt 0.000517 0.967279
vt 0.051874 0.967279
vt 0.994087 0.604420
vt 0.942729 0.581530
vt 0.994087 0.581530
vt 0.915617 0.986053
vt 0.864260 0.975215
vt 0.915617 0.975215
vt 0.933570 0.524629
vt 0.882213 0.484134
vt 0.933570 0.484134
vt 0.916848 0.965569
vt 0.865490 0.949700
vt 0.916848 0.949700
vt 0.933570 0.658868
vt 0.882213 0.619289
vt 0.933570 0.619289
vt 0.985233 0.954403
vt 0.933876 0.945556
vt 0.985233 0.945556
vt 0.933570 0.618256
vt 0.882213 0.578052
vt 0.933570 0.578052
vt 0.994087 0.656288
vt 0.942729 0.636924
vt 0.994087 0.636924
vt 0.933570 0.740094
vt 0.882213 0.700515
vt 0.933570 0.700515
vt 0.992032 0.807186
vt 0.940674 0.802367
vt 0.992032 0.802367
vt 0.234489 0.928997
vt 0.250996 0.930359
vt 0.235867 0.934746
vt 0.241601 0.891155
vt 0.357399 0.933566
vt 0.243950 0.900956
vt 0.536626 0.295165
vt 0.775499 0.189467
vt 0.447384 0.388671
vt 0.229475 0.908074
vt 0.226668 0.896363
vt 0.225420 0.891155
vt 0.246299 0.910757
vt 0.248647 0.920558
vt 0.491377 0.743435
vt 0.478616 0.552010
vt 0.558951 0.559667
vt 0.827650 0.484929
vt 0.450506 0.412020
vt 0.993516 0.280278
vt 0.888306 0.251907
vt 0.993516 0.235693
vt 0.834059 0.835842
vt 0.761567 0.917198
vt 0.619281 0.835842
vt 0.752347 0.721091
vt 0.839461 0.811431
vt 0.615590 0.811431
vt 0.872311 0.209832
vt 0.994562 0.181461
vt 0.994562 0.226047
vt 0.609105 0.700617
vt 0.700799 0.743435
vt 0.843873 0.980107
vt 0.849726 0.995192
vt 0.620512 0.995192
vt 0.387750 0.148132
vt 0.559116 0.147997
vt 0.387462 0.057914
vt 0.581667 0.000839
vt 0.828683 0.604771
vt 0.881179 0.691274
vt 0.874727 0.695583
vt 0.403470 0.922349
vt 0.512870 0.846829
vt 0.605887 0.922349
vt 0.919279 0.431876
vt 0.944850 0.451571
vt 0.907727 0.462651
vt 0.424101 0.551003
vt 0.403470 0.480088
vt 0.728838 0.307152
vt 0.616332 0.377961
vt 0.605507 0.307152
vt 0.799590 0.403245
vt 0.914843 0.405257
vt 0.776532 0.405257
vt 0.844185 0.833106
vt 0.898871 0.807672
vt 0.898871 0.833106
vt 0.941499 0.672025
vt 0.996185 0.666113
vt 0.996185 0.672025
vt 0.932645 0.969404
vt 0.987332 0.964049
vt 0.987332 0.969404
vt 0.860931 0.942515
vt 0.915617 0.924883
vt 0.915617 0.942515
vt 0.052907 0.965238
vt 0.107594 0.955408
vt 0.107594 0.965238
vt 0.886227 0.165665
vt 0.940914 0.144149
vt 0.940914 0.165665
vt 0.932645 0.916683
vt 0.987332 0.904641
vt 0.987332 0.916683
vt 0.108627 0.964681
vt 0.163313 0.955408
vt 0.163313 0.964681
vt 0.844185 0.806638
vt 0.844185 0.796808
vt 0.932140 0.800726
vt 0.682641 0.691965
vt 0.605887 0.923382
vt 0.560491 0.953873
vt 0.376673 0.923382
vt 0.766393 0.660530
vt 0.825754 0.265003
vt 0.784421 0.243810
vt 0.795074 0.214365
vt 0.398968 0.888463
vt 0.359388 0.895547
vt 0.359388 0.886700
vt 0.726086 0.262322
vt 0.768935 0.290303
vt 0.744239 0.318678
vt 0.399553 0.907578
vt 0.360494 0.914103
vt 0.359388 0.905830
vt 0.983592 0.774651
vt 0.944249 0.779401
vt 0.943135 0.772913
vt 0.778597 0.242855
vt 0.769513 0.212221
vt 0.765452 0.320884
vt 0.398968 0.916899
vt 0.359388 0.922220
vt 0.359388 0.915136
vt 0.772098 0.267621
vt 0.776023 0.290368
vt 0.775980 0.267480
vt 0.782365 0.288873
vt 0.774689 0.242885
vt 0.780870 0.267293
vt 0.795482 0.316224
vt 0.755963 0.212221
vt 0.108627 0.974060
vt 0.159984 0.965714
vt 0.159984 0.974060
vt 0.943135 0.753920
vt 0.994493 0.748599
vt 0.994493 0.753920
vt 0.995037 0.679909
vt 0.943679 0.702800
vt 0.943679 0.679909
vt 0.000517 0.966246
vt 0.051874 0.955408
vt 0.051874 0.966246
vt 0.399883 0.875786
vt 0.359388 0.824429
vt 0.399883 0.824429
vt 0.828683 0.741277
vt 0.880040 0.725408
vt 0.880040 0.741277
vt 0.882213 0.699481
vt 0.933570 0.659902
vt 0.933570 0.699481
vt 0.934392 0.987321
vt 0.985749 0.978474
vt 0.985749 0.987321
vt 0.922416 0.577019
vt 0.882213 0.525662
vt 0.922416 0.525662
vt 0.941499 0.629739
vt 0.992856 0.610375
vt 0.992856 0.629739
vt 0.886227 0.116649
vt 0.937585 0.077069
vt 0.937585 0.116649
vt 0.944366 0.713976
vt 0.995723 0.709156
vt 0.995723 0.713976
vt 0.196118 0.055198
vt 0.196556 0.000517
vt 0.747991 0.054637
vt 0.695180 0.040441
vt 0.754818 0.040441
vt 0.619281 0.918231
vt 0.834060 0.918231
vt 0.788575 0.956804
vt 0.108184 0.053251
vt 0.749177 0.018007
vt 0.756004 0.032204
vt 0.696365 0.032204
vt 0.000517 0.954375
vt 0.169810 0.915802
vt 0.215295 0.954375
vt 0.579897 0.055197
vt 0.579458 0.000517
vt 0.667830 0.053249
vt 0.625712 0.431741
vt 0.194348 0.000842
vt 0.854787 0.587417
vt 0.828683 0.570637
vt 0.881179 0.603738
vt 0.886227 0.143116
vt 0.052907 0.972184
vt 0.941905 0.740183
vt 0.935106 0.894530
vt 0.886227 0.176528
vt 0.935586 0.839030
vt 0.932645 0.937140
vt 0.164346 0.964681
vt 0.923060 0.862747
vt 0.923051 0.888181
vt 0.835102 0.870553
vt 0.835095 0.892069
vt 0.923048 0.898012
vt 0.835093 0.897981
vt 0.835106 0.858511
vt 0.359388 0.885667
vt 0.359388 0.903061
vt 0.948057 0.724856
vt 0.948057 0.766959
vt 0.161017 0.974060
vt 0.000517 0.972600
vt 0.942729 0.604420
vt 0.864260 0.986053
vt 0.882213 0.524629
vt 0.865490 0.965569
vt 0.882213 0.658868
vt 0.933876 0.954403
vt 0.882213 0.618256
vt 0.942729 0.656288
vt 0.882213 0.740094
vt 0.940674 0.807186
vt 0.868201 0.699778
vt 0.855075 0.708054
vt 0.828683 0.724375
vt 0.844185 0.807672
vt 0.941499 0.666113
vt 0.932645 0.964049
vt 0.860931 0.924883
vt 0.052907 0.955408
vt 0.886227 0.144149
vt 0.932645 0.904641
vt 0.108627 0.955408
vt 0.844185 0.771374
vt 0.932140 0.779211
vt 0.844185 0.753742
vt 0.932140 0.761813
vt 0.932140 0.767168
vt 0.844185 0.744469
vt 0.932140 0.806638
vt 0.398968 0.895547
vt 0.400425 0.914103
vt 0.984408 0.779401
vt 0.398968 0.922220
vt 0.108627 0.965714
vt 0.943135 0.748599
vt 0.995037 0.702800
vt 0.000517 0.955408
vt 0.359388 0.875786
vt 0.828683 0.725408
vt 0.882213 0.659902
vt 0.934392 0.978474
vt 0.882213 0.577019
vt 0.941499 0.610375
vt 0.886227 0.077069
vt 0.944366 0.709156
vn -0.9828 -0.1848 0.0000
vn -0.9895 -0.1447 0.0000
vn -0.0046 -0.1258 0.9920
vn 0.0522 0.0182 -0.9985
vn 0.3362 0.3126 -0.8884
vn -0.0035 -0.2653 0.9642
vn -0.0271 -0.2588 0.9656
vn 0.0471 0.5494 -0.8342
vn 0.0074 0.5581 -0.8298
vn 0.0712 0.0946 -0.9930
vn 0.2141 0.2692 -0.9390
vn 0.3623 0.4194 -0.8324
vn -0.0331 -0.0128 0.9994
vn -0.0540 -0.0443 0.9976
vn -0.7098 -0.7044 0.0000
vn -0.7502 -0.1790 -0.6366
vn 0.5379 0.2195 -0.8139
vn 0.4331 0.1816 -0.8828
vn 0.3086 0.1076 -0.9451
vn 0.3913 0.2772 -0.8775
vn 0.1043 -0.0127 0.9945
vn 0.0887 0.0119 0.9960
vn -0.9793 0.0312 -0.2000
vn -0.0000 0.5340 -0.8455
vn 0.0000 1.0000 0.0000
vn 0.0000 -1.0000 0.0000
vn -1.0000 0.0000 0.0000
vn 0.0000 -0.1230 -0.9924
vn 0.0000 0.5743 -0.8187
vn 0.2549 0.3118 -0.9153
vn -0.0713 -0.0072 -0.9974
vn -0.3446 0.0746 0.9358
vn -0.4749 -0.8801 0.0000
vn -0.2695 0.9630 0.0000
vn -0.8672 0.4979 0.0000
vn -0.7657 -0.6433 0.0000
vn -0.1149 0.0442 -0.9924
vn -0.5834 -0.1374 0.8005
vn 0.0000 0.2113 -0.9774
vn 0.0000 0.0000 1.0000
vn 0.0000 0.1754 -0.9845
vn -0.9828 0.1848 0.0000
vn -0.9895 0.1447 0.0000
vn -0.0046 0.1258 0.9920
vn -0.0159 -0.2548 -0.9669
vn 0.3362 -0.3126 -0.8884
vn -0.0035 0.2653 0.9642
vn -0.0271 0.2588 0.9656
vn 0.0471 -0.5494 -0.8342
vn 0.0074 -0.5581 -0.8298
vn 0.0712 -0.0946 -0.9930
vn 0.2141 -0.2692 -0.9390
vn 0.3623 -0.4194 -0.8324
vn -0.0012 0.0444 0.9990
vn -0.0087 0.0682 0.9976
vn -0.7098 0.7044 0.0000
vn -0.7502 0.1790 -0.6366
vn 0.5379 -0.2195 -0.8139
vn 0.4331 -0.1816 -0.8828
vn 0.3086 -0.1076 -0.9451
vn 0.3913 -0.2772 -0.8775
vn 0.1043 0.0127 0.9945
vn 0.0887 -0.0119 0.9960
vn -0.9793 -0.0312 -0.2000
vn -0.0000 -0.5340 -0.8455
vn 0.0000 0.1230 -0.9924
vn 0.0000 -0.5743 -0.8187
vn 0.2549 -0.3118 -0.9153
vn -0.1250 -0.0442 -0.9912
vn -0.5129 0.1137 0.8509
vn -0.4749 0.8801 0.0000
vn -0.2695 -0.9630 0.0000
vn -0.8672 -0.4979 0.0000
vn -0.7657 0.6433 0.0000
vn -0.1149 -0.0442 -0.9924
vn -0.5834 0.1374 0.8005
vn -0.0000 -0.2113 -0.9774
vn -0.0000 -0.1754 -0.9845
vn -0.0000 -0.0241 0.9997
vn 0.0000 0.0479 0.9989
vn -0.0627 -0.1865 0.9805
vn -0.0842 -0.1595 0.9836
vn 0.0000 -0.0479 0.9989
vn -0.0627 0.1865 0.9805
vn 0.0000 0.0241 0.9997
vn -0.0842 0.1595 0.9836
vn 0.0706 0.1538 -0.9856
vn -0.0159 0.2548 -0.9669
vn -0.0012 -0.0444 0.9990
vn -0.0087 -0.0682 0.9976
vn 0.1358 0.1917 -0.9720
vn -0.1250 0.0442 -0.9912
vn -0.5129 -0.1137 0.8509
vn -0.0710 0.0844 -0.9939
vn -0.3113 -0.4337 0.8455
vn 0.0706 -0.1538 -0.9856
vn 0.0522 -0.0182 -0.9985
vn -0.0331 0.0128 0.9994
vn -0.0540 0.0443 0.9976
vn 0.1358 -0.1917 -0.9720
vn -0.0713 0.0072 -0.9974
vn -0.3446 -0.0746 0.9358
vn -0.0710 -0.0844 -0.9939
vn -0.3113 0.4337 0.8455
vn 0.0045 -0.0000 1.0000
usemtl None
s off
f 19/1/1 4/2/1 8/3/1
f 5/4/2 11/5/2 21/6/2
f 1/7/3 6/8/3 3/9/3
f 14/10/1 11/5/1 18/11/1
f 18/11/1 5/4/1 13/12/1
f 19/1/1 7/13/1 14/10/1
f 8/3/2 4/2/2 21/6/2
f 7/13/2 8/3/2 21/6/2
f 11/5/2 7/13/2 21/6/2
f 23/14/4 100/15/4 101/16/4
f 3/17/5 6/18/5 2/19/5
f 20/20/6 21/21/6 4/22/6
f 4/22/7 3/23/7 20/20/7
f 20/24/8 3/25/8 5/26/8
f 5/27/9 21/28/9 20/29/9
f 22/30/10 10/31/10 2/19/10
f 5/32/11 3/33/11 13/34/11
f 6/18/12 23/14/12 2/19/12
f 1/7/13 104/35/13 103/36/13
f 24/37/14 102/38/14 104/35/14
f 15/39/15 22/40/15 16/41/15
f 102/42/16 12/43/16 22/44/16
f 99/45/17 105/46/17 25/47/17
f 25/47/17 26/48/17 6/49/17
f 25/47/17 105/46/17 26/48/17
f 105/46/18 98/50/18 26/48/18
f 100/15/19 23/14/19 98/51/19
f 23/14/20 6/18/20 98/51/20
f 6/8/21 1/7/21 103/36/21
f 6/8/22 103/36/22 99/52/22
f 22/53/23 101/54/23 102/55/23
f 26/48/24 98/50/24 6/49/24
f 16/56/25 32/57/25 15/58/25
f 19/59/26 27/60/26 9/61/26
f 13/62/26 35/63/26 18/64/26
f 15/65/25 34/66/25 17/67/25
f 12/68/25 33/69/25 16/70/25
f 14/71/26 36/72/26 19/73/26
f 18/74/26 31/75/26 14/76/26
f 17/77/25 28/78/25 10/79/25
f 30/80/27 28/81/27 34/82/27
f 10/31/28 28/83/28 2/19/28
f 13/84/29 3/85/29 30/86/29
f 2/19/30 30/87/30 3/17/30
f 46/88/31 59/89/31 55/90/31
f 41/91/27 46/92/27 47/93/27
f 45/94/32 57/95/32 54/96/32
f 48/97/27 38/98/27 40/99/27
f 45/100/27 42/101/27 38/102/27
f 50/103/33 52/104/33 59/89/33
f 44/105/34 57/95/34 48/106/34
f 37/107/27 50/108/27 46/109/27
f 53/110/35 54/96/35 57/95/35
f 56/111/35 51/112/35 53/110/35
f 51/112/36 58/113/36 54/96/36
f 55/90/36 52/104/36 51/112/36
f 47/114/34 53/110/34 44/105/34
f 43/115/33 58/113/33 52/104/33
f 46/88/37 56/111/37 47/114/37
f 45/94/38 58/113/38 49/116/38
f 40/117/26 69/118/26 48/119/26
f 39/120/25 71/121/25 50/122/25
f 44/123/26 68/124/26 47/125/26
f 43/126/25 70/127/25 49/128/25
f 42/129/39 61/130/39 38/131/39
f 48/132/26 67/133/26 44/134/26
f 37/135/40 62/136/40 39/137/40
f 47/138/26 64/139/26 41/140/26
f 38/141/41 63/142/41 40/143/41
f 50/144/25 66/145/25 43/146/25
f 41/147/40 60/148/40 37/149/40
f 49/150/25 65/151/25 42/152/25
f 90/153/42 75/154/42 80/155/42
f 76/156/43 92/157/43 82/158/43
f 72/159/44 74/160/44 77/161/44
f 82/158/42 85/162/42 89/163/42
f 76/156/42 89/163/42 84/164/42
f 78/165/42 90/153/42 85/162/42
f 79/166/43 92/157/43 75/154/43
f 78/165/43 92/157/43 79/166/43
f 82/158/43 92/157/43 78/165/43
f 101/167/45 94/168/45 73/169/45
f 74/170/46 73/169/46 77/171/46
f 91/172/47 75/173/47 92/174/47
f 75/175/48 91/176/48 74/177/48
f 91/178/49 76/179/49 74/180/49
f 76/181/50 91/182/50 92/183/50
f 93/184/51 73/169/51 81/185/51
f 76/186/52 84/187/52 74/188/52
f 77/171/53 73/169/53 94/168/53
f 72/159/54 104/189/54 95/190/54
f 95/190/55 102/191/55 83/192/55
f 93/193/56 81/194/56 88/195/56
f 102/196/57 93/197/57 83/198/57
f 99/45/58 96/199/58 105/46/58
f 96/199/58 77/200/58 97/201/58
f 96/199/58 97/201/58 105/46/58
f 105/46/59 97/201/59 98/50/59
f 100/202/60 98/203/60 94/168/60
f 94/168/61 98/203/61 77/171/61
f 77/161/62 103/36/62 72/159/62
f 77/161/63 99/52/63 103/36/63
f 93/204/64 102/205/64 101/206/64
f 104/207/26 102/208/26 103/209/26
f 97/201/65 77/200/65 98/50/65
f 111/210/26 87/211/26 86/212/26
f 106/213/25 90/214/25 80/215/25
f 114/216/25 84/217/25 89/218/25
f 113/219/26 86/220/26 88/221/26
f 112/222/26 83/223/26 87/224/26
f 115/225/25 85/226/25 90/227/25
f 110/228/25 89/229/25 85/230/25
f 107/231/26 88/232/26 81/233/26
f 108/234/27 112/235/27 115/236/27
f 81/185/66 73/169/66 107/237/66
f 84/238/67 109/239/67 74/240/67
f 109/241/68 73/169/68 74/170/68
f 125/242/69 138/243/69 129/244/69
f 125/245/27 120/246/27 126/247/27
f 124/248/70 136/249/70 127/250/70
f 117/251/27 127/252/27 119/253/27
f 121/254/27 124/255/27 117/256/27
f 129/244/71 131/257/71 122/258/71
f 136/249/72 123/259/72 127/250/72
f 129/260/27 116/261/27 125/262/27
f 133/263/73 132/264/73 136/249/73
f 130/265/73 135/266/73 132/264/73
f 137/267/74 130/265/74 133/263/74
f 131/257/74 134/268/74 130/265/74
f 132/264/72 126/269/72 123/259/72
f 122/258/71 137/267/71 128/270/71
f 135/266/75 125/242/75 126/269/75
f 137/267/76 124/248/76 128/270/76
f 148/271/25 119/272/25 127/273/25
f 150/274/26 118/275/26 129/276/26
f 147/277/25 123/278/25 126/279/25
f 149/280/26 122/281/26 128/282/26
f 140/283/77 121/284/77 117/285/77
f 146/286/25 127/287/25 123/288/25
f 141/289/40 116/290/40 118/291/40
f 143/292/25 126/293/25 120/294/25
f 142/295/78 117/296/78 119/297/78
f 145/298/26 129/299/26 122/300/26
f 139/301/40 120/302/40 116/303/40
f 144/304/26 128/305/26 121/306/26
f 1/7/79 29/307/79 12/308/79
f 9/309/80 27/310/80 4/311/80
f 3/312/81 4/313/81 27/314/81
f 27/315/82 1/7/82 3/9/82
f 80/316/83 75/317/83 106/318/83
f 74/319/84 106/320/84 75/321/84
f 108/322/85 72/159/85 83/323/85
f 72/159/86 106/324/86 74/160/86
f 19/1/1 9/325/1 4/2/1
f 14/10/1 7/13/1 11/5/1
f 18/11/1 11/5/1 5/4/1
f 19/1/1 8/3/1 7/13/1
f 101/16/87 22/30/87 2/19/87
f 2/19/88 23/14/88 101/16/88
f 1/7/89 24/37/89 104/35/89
f 24/37/90 12/326/90 102/38/90
f 15/39/15 17/327/15 22/40/15
f 17/327/15 10/328/15 22/40/15
f 22/40/15 12/329/15 16/41/15
f 16/56/25 33/330/25 32/57/25
f 19/59/26 36/331/26 27/60/26
f 13/62/26 30/332/26 35/63/26
f 15/65/25 32/333/25 34/66/25
f 12/68/25 29/334/25 33/69/25
f 14/71/26 31/335/26 36/72/26
f 18/74/26 35/336/26 31/75/26
f 17/77/25 34/337/25 28/78/25
f 34/82/27 32/338/27 30/80/27
f 32/338/27 33/339/27 31/340/27
f 31/340/27 33/339/27 36/341/27
f 33/339/27 29/342/27 36/341/27
f 29/342/27 27/343/27 36/341/27
f 31/340/27 35/344/27 32/338/27
f 32/338/27 35/344/27 30/80/27
f 2/19/91 28/83/91 30/87/91
f 46/88/92 50/103/92 59/89/92
f 41/91/27 37/345/27 46/92/27
f 45/94/93 48/106/93 57/95/93
f 48/97/27 45/346/27 38/98/27
f 45/100/27 49/347/27 42/101/27
f 50/103/33 43/115/33 52/104/33
f 44/105/34 53/110/34 57/95/34
f 37/107/27 39/348/27 50/108/27
f 53/110/35 51/112/35 54/96/35
f 56/111/35 55/90/35 51/112/35
f 51/112/36 52/104/36 58/113/36
f 55/90/36 59/89/36 52/104/36
f 47/114/34 56/111/34 53/110/34
f 43/115/33 49/116/33 58/113/33
f 46/88/94 55/90/94 56/111/94
f 45/94/95 54/96/95 58/113/95
f 40/117/26 63/349/26 69/118/26
f 39/120/25 62/350/25 71/121/25
f 44/123/26 67/351/26 68/124/26
f 43/126/25 66/352/25 70/127/25
f 42/129/39 65/353/39 61/130/39
f 48/132/26 69/354/26 67/133/26
f 37/135/40 60/355/40 62/136/40
f 47/138/26 68/356/26 64/139/26
f 38/141/41 61/357/41 63/142/41
f 50/144/25 71/358/25 66/145/25
f 41/147/40 64/359/40 60/148/40
f 49/150/25 70/360/25 65/151/25
f 90/153/42 79/166/42 75/154/42
f 82/158/42 78/165/42 85/162/42
f 76/156/42 82/158/42 89/163/42
f 78/165/42 79/166/42 90/153/42
f 73/169/96 93/184/96 101/167/96
f 101/167/97 100/202/97 94/168/97
f 72/159/98 103/36/98 104/189/98
f 95/190/99 104/189/99 102/191/99
f 88/195/56 86/361/56 93/193/56
f 86/361/56 87/362/56 93/193/56
f 87/362/56 83/363/56 93/193/56
f 111/210/26 112/364/26 87/211/26
f 106/213/25 115/365/25 90/214/25
f 114/216/25 109/366/25 84/217/25
f 113/219/26 111/367/26 86/220/26
f 112/222/26 108/368/26 83/223/26
f 115/225/25 110/369/25 85/226/25
f 110/228/25 114/370/25 89/229/25
f 107/231/26 113/371/26 88/232/26
f 112/235/27 111/372/27 110/373/27
f 111/372/27 113/374/27 109/375/27
f 114/376/27 111/372/27 109/375/27
f 113/374/27 107/377/27 109/375/27
f 114/376/27 110/373/27 111/372/27
f 110/373/27 115/236/27 112/235/27
f 106/378/27 108/234/27 115/236/27
f 109/241/100 107/237/100 73/169/100
f 125/242/101 134/268/101 138/243/101
f 125/245/27 116/379/27 120/246/27
f 124/248/102 133/263/102 136/249/102
f 117/251/27 124/380/27 127/252/27
f 121/254/27 128/381/27 124/255/27
f 129/244/71 138/243/71 131/257/71
f 136/249/72 132/264/72 123/259/72
f 129/260/27 118/382/27 116/261/27
f 133/263/73 130/265/73 132/264/73
f 130/265/73 134/268/73 135/266/73
f 137/267/74 131/257/74 130/265/74
f 131/257/74 138/243/74 134/268/74
f 132/264/72 135/266/72 126/269/72
f 122/258/71 131/257/71 137/267/71
f 135/266/103 134/268/103 125/242/103
f 137/267/104 133/263/104 124/248/104
f 148/271/25 142/383/25 119/272/25
f 150/274/26 141/384/26 118/275/26
f 147/277/25 146/385/25 123/278/25
f 149/280/26 145/386/26 122/281/26
f 140/283/77 144/387/77 121/284/77
f 146/286/25 148/388/25 127/287/25
f 141/289/40 139/389/40 116/290/40
f 143/292/25 147/390/25 126/293/25
f 142/295/78 140/391/78 117/296/78
f 145/298/26 150/392/26 129/299/26
f 139/301/40 143/393/40 120/302/40
f 144/304/26 149/394/26 128/305/26
f 27/315/105 29/307/105 1/7/105
f 72/159/105 108/322/105 106/324/105
