# Blender v2.79 (sub 0) OBJ File: 'scrap_metal.blend'
# www.blender.org
mtllib scrap_metal_07.mtl
o Cube_Cube_asteroid_Material.007
v 0.053637 0.088058 -0.048911
v 0.046388 0.026924 -0.063139
v -0.010076 -0.076043 -0.026486
v 0.038052 -0.027483 -0.038348
v 0.026859 -0.078275 -0.026162
v 0.116697 0.089882 -0.051885
v 0.103427 0.027567 -0.074146
v 0.087417 -0.029043 -0.049719
v 0.066666 -0.080547 -0.038146
v -0.096454 0.077368 -0.040616
v -0.085058 0.021409 -0.063723
v -0.051940 0.075445 -0.026367
v -0.044914 0.022665 -0.053811
v -0.078199 -0.029839 -0.069711
v -0.076264 -0.077681 -0.049178
v -0.042016 -0.027786 -0.056380
v -0.043232 -0.075433 -0.037946
v -0.002765 0.078773 -0.032028
v -0.002948 0.023259 -0.050422
v -0.005275 -0.029219 -0.044919
v 0.053637 0.088058 -0.033911
v -0.010076 -0.076043 -0.011486
v 0.026859 -0.078275 -0.011162
v 0.116697 0.089882 -0.036885
v 0.103427 0.027567 -0.059146
v 0.087417 -0.029043 -0.034719
v 0.066666 -0.080547 -0.023146
v -0.096454 0.077368 -0.025616
v -0.085058 0.021409 -0.048723
v -0.051940 0.075445 -0.011367
v -0.078199 -0.029839 -0.054711
v -0.076264 -0.077681 -0.034178
v -0.043232 -0.075433 -0.022946
v -0.002765 0.078773 -0.017028
vt 0.920126 0.231661
vt 0.634208 0.262381
vt 0.838488 0.068444
vt 0.391855 0.254263
vt 0.402677 0.080553
vt 0.629027 0.067802
vt 0.360792 0.443787
vt 0.923016 0.476148
vt 0.631576 0.463618
vt 0.141851 0.224973
vt 0.085199 0.411399
vt 0.901272 0.741296
vt 0.640023 0.702761
vt 0.646968 0.936296
vt 0.372051 0.914306
vt 0.352527 0.666398
vt 0.851533 0.946075
vt 0.144960 0.825803
vt 0.087082 0.622463
vt 0.208387 0.075938
vt 0.000100 0.412857
vt 0.901442 0.989249
vt 0.642085 0.999900
vt 0.329250 0.982805
vt 0.058531 0.221222
vt 0.389436 0.006740
vt 0.646545 0.000100
vt 0.144565 0.032156
vt 0.075280 0.859180
vt 0.992847 0.465134
vt 0.887497 0.029465
vt 0.990602 0.221573
vt 0.962359 0.740510
vt 0.000100 0.623951
vn 0.0620 0.8746 -0.4808
vn 0.1827 0.2433 -0.9526
vn -0.5994 0.6177 -0.5091
vn 0.3118 -0.1308 -0.9411
vn -0.4932 -0.1569 -0.8557
vn -0.5816 0.1005 -0.8073
vn 0.1541 -0.2705 -0.9503
vn -0.2120 0.8060 -0.5526
vn -0.1259 0.1233 -0.9843
vn 0.2132 -0.8137 -0.5407
vn 0.0764 -0.8434 -0.5318
vn -0.1574 0.7726 -0.6151
vn -0.1702 -0.0239 -0.9851
vn 0.5504 -0.1233 -0.8258
vn 0.5827 -0.4403 -0.6830
vn -0.0492 -0.3237 -0.9449
vn 0.6395 0.5873 -0.4961
vn 0.3374 -0.7113 -0.6167
vn -0.1122 -0.7993 -0.5903
vn -0.4874 -0.6953 -0.5282
vn -0.0419 -0.9991 0.0000
vn 0.6492 0.7606 0.0000
vn 0.9706 -0.2408 -0.0000
vn 0.9427 -0.3337 0.0000
vn 0.0157 -0.9999 0.0000
vn -0.9966 -0.0830 -0.0000
vn -0.9853 -0.1711 -0.0000
vn -0.4709 -0.8822 0.0000
vn 0.4397 -0.8981 0.0000
vn -0.1087 0.9941 0.0000
vn -0.5500 0.8352 -0.0000
vn -0.0162 0.9999 0.0000
vn -0.1025 0.9947 0.0000
vn -0.0588 -0.9983 0.0000
usemtl None
s 1
f 12/1/1 13/2/2 10/3/3
f 16/4/4 14/5/5 11/6/6
f 16/4/4 13/2/2 20/7/7
f 12/1/1 18/8/8 19/9/9
f 16/4/4 17/10/10 14/5/5
f 16/4/4 20/7/7 3/11/11
f 19/9/9 18/8/8 1/12/12
f 19/9/9 2/13/13 20/7/7
f 7/14/14 8/15/15 4/16/16
f 7/14/14 2/13/13 6/17/17
f 3/11/11 20/7/7 4/16/16
f 9/18/18 5/19/19 8/15/15
f 13/2/2 11/6/6 10/3/3
f 13/2/2 16/4/4 11/6/6
f 13/2/2 19/9/9 20/7/7
f 13/2/2 12/1/1 19/9/9
f 17/10/10 15/20/20 14/5/5
f 17/10/10 16/4/4 3/11/11
f 2/13/13 19/9/9 1/12/12
f 2/13/13 4/16/16 20/7/7
f 2/13/13 7/14/14 4/16/16
f 2/13/13 1/12/12 6/17/17
f 5/19/19 3/11/11 4/16/16
f 5/19/19 4/16/16 8/15/15
f 5/19/19 22/21/21 3/11/11
f 1/12/12 24/22/22 6/17/17
f 8/15/15 25/23/23 26/24/24
f 3/11/11 33/25/25 17/10/10
f 11/6/6 31/26/26 29/27/27
f 17/10/10 32/28/28 15/20/20
f 6/17/17 25/23/23 7/14/14
f 9/18/18 26/24/24 27/29/29
f 12/1/1 34/30/30 18/8/8
f 15/20/20 31/26/26 14/5/5
f 12/1/1 28/31/31 30/32/32
f 18/8/8 21/33/33 1/12/12
f 10/3/3 29/27/27 28/31/31
f 5/19/19 27/29/29 23/34/34
f 5/19/19 23/34/34 22/21/21
f 1/12/12 21/33/33 24/22/22
f 8/15/15 7/14/14 25/23/23
f 3/11/11 22/21/21 33/25/25
f 11/6/6 14/5/5 31/26/26
f 17/10/10 33/25/25 32/28/28
f 6/17/17 24/22/22 25/23/23
f 9/18/18 8/15/15 26/24/24
f 12/1/1 30/32/32 34/30/30
f 15/20/20 32/28/28 31/26/26
f 12/1/1 10/3/3 28/31/31
f 18/8/8 34/30/30 21/33/33
f 10/3/3 11/6/6 29/27/27
f 5/19/19 9/18/18 27/29/29
