# Blender v2.68 (sub 0) OBJ File: 'laser02.blend'
# www.blender.org
o ship_10_ship_10_Mesh
v 0.066537 -0.023063 0.021449
v 0.241860 -0.009541 0.012474
v 0.066537 -0.021765 -0.021146
v 0.066537 -0.034867 0.009006
v 0.066537 -0.034867 -0.008704
v 0.066522 -0.024057 0.032905
v 0.066522 -0.026448 -0.033251
v 0.066522 -0.038752 0.015507
v 0.066522 -0.038752 -0.013125
v -0.000009 -0.033936 0.033004
v -0.000009 -0.031451 -0.039362
v -0.000009 -0.047601 0.018011
v -0.000009 -0.047601 -0.015570
v 0.057605 -0.047671 -0.015629
v 0.057605 -0.047671 0.018204
v 0.057605 -0.031533 -0.039410
v 0.057605 -0.034016 0.032962
v 0.241860 -0.009541 -0.012172
v 0.241860 -0.017710 -0.004850
v 0.241860 -0.017710 0.005152
v 0.232814 -0.009475 0.010677
v 0.232814 -0.009475 -0.010374
v 0.232814 -0.016452 -0.004121
v 0.232814 -0.016452 0.004423
v 0.273414 -0.003625 0.006300
v 0.273414 -0.003625 -0.005998
v 0.273414 -0.007701 -0.002344
v 0.273414 -0.007701 0.002646
v 0.239251 -0.021765 -0.021146
v 0.241860 -0.020723 -0.018537
v 0.239251 -0.034867 0.009006
v 0.241860 -0.032258 0.007885
v 0.241860 -0.032258 -0.007583
v 0.239251 -0.034867 -0.008704
v 0.241860 -0.020723 0.018839
v 0.239251 -0.021765 0.021449
v 0.084337 -0.023063 0.021449
v 0.120708 -0.021765 0.021449
v 0.120708 -0.021765 -0.021146
v 0.084337 -0.021765 -0.021146
v 0.120708 -0.034867 -0.008704
v 0.084337 -0.034867 -0.008704
v 0.120708 -0.034867 0.009006
v 0.084337 -0.034867 0.009006
v 0.092865 -0.019624 0.017648
v 0.112180 -0.019624 0.017648
v 0.112180 -0.017093 -0.017346
v 0.092865 -0.017093 -0.017346
v 0.112180 -0.027420 -0.007124
v 0.092865 -0.027420 -0.007124
v 0.112180 -0.027420 0.007426
v 0.092865 -0.027420 0.007426
v -0.019587 -0.031451 -0.037245
v -0.019587 -0.047601 -0.013874
v -0.036032 -0.031451 -0.029179
v -0.036032 -0.047601 -0.007038
v -0.053026 -0.033936 0.032970
v -0.053026 -0.031451 -0.007964
v -0.053026 -0.047601 0.018011
v -0.053026 -0.047601 0.007719
v -0.016301 -0.028317 0.077789
v -0.016301 -0.028317 0.033212
v 0.016383 -0.028317 0.077789
v 0.016383 -0.028317 0.033212
v 0.066537 0.023063 0.021449
v 0.241860 0.009541 0.012474
v 0.066537 0.021765 -0.021146
v 0.066537 0.034867 0.009006
v 0.066537 0.034867 -0.008704
v 0.066522 0.024057 0.032905
v 0.066522 0.026448 -0.033251
v 0.066522 0.038752 0.015507
v 0.066522 0.038752 -0.013125
v -0.000009 0.033936 0.033004
v -0.000009 0.031451 -0.039362
v -0.000009 0.047601 0.018011
v -0.000009 0.047601 -0.015570
v 0.057605 0.047671 -0.015629
v 0.057605 0.047671 0.018204
v 0.057605 0.031533 -0.039410
v 0.057605 0.034016 0.032962
v 0.241860 0.009541 -0.012172
v 0.241860 0.017710 -0.004850
v 0.241860 0.017710 0.005152
v 0.232814 0.009475 0.010677
v 0.232814 0.009475 -0.010374
v 0.232814 0.016452 -0.004121
v 0.232814 0.016452 0.004423
v 0.273414 0.003625 0.006300
v 0.273414 0.003625 -0.005998
v 0.273414 0.007701 -0.002344
v 0.273414 0.007701 0.002646
v 0.239251 0.021765 -0.021146
v 0.241860 0.020724 -0.018537
v 0.239251 0.034867 0.009006
v 0.241860 0.032258 0.007885
v 0.241860 0.032258 -0.007583
v 0.239251 0.034867 -0.008704
v 0.241860 0.020724 0.018839
v 0.239251 0.021765 0.021449
v 0.084337 0.023063 0.021449
v 0.120708 0.021765 0.021449
v 0.120708 0.021765 -0.021146
v 0.084337 0.021765 -0.021146
v 0.120708 0.034867 -0.008704
v 0.084337 0.034867 -0.008704
v 0.120708 0.034867 0.009006
v 0.084337 0.034867 0.009006
v 0.092865 0.019624 0.017648
v 0.112180 0.019624 0.017648
v 0.112180 0.017093 -0.017346
v 0.092865 0.017093 -0.017346
v 0.112180 0.027420 -0.007124
v 0.092865 0.027420 -0.007124
v 0.112180 0.027420 0.007426
v 0.092865 0.027420 0.007426
v -0.019587 0.031451 -0.037245
v -0.019587 0.047601 -0.013874
v -0.036032 0.031451 -0.029179
v -0.036032 0.047601 -0.007038
v -0.053026 0.033936 0.032970
v -0.053026 0.031451 -0.007964
v -0.053026 0.047601 0.018011
v -0.053026 0.047601 0.007719
v 0.066537 -0.000000 0.021449
v 0.066537 -0.000000 -0.021146
v 0.066522 -0.000000 0.032905
v 0.066522 -0.000000 -0.033251
v -0.000009 -0.000000 -0.039362
v 0.057605 -0.000000 -0.039410
v 0.241860 -0.000000 0.012474
v 0.241860 -0.000000 -0.012172
v 0.232814 -0.000000 0.010677
v 0.232814 -0.000000 -0.010374
v 0.273414 -0.000000 0.006300
v 0.273414 -0.000000 -0.005998
v 0.239251 -0.000000 0.021449
v 0.241860 -0.000000 0.018839
v 0.241860 -0.000000 -0.018537
v 0.239251 -0.000000 -0.021146
v 0.120708 -0.000000 0.021449
v 0.084337 -0.000000 0.021449
v 0.084337 -0.000000 -0.021146
v 0.120708 -0.000000 -0.021146
v 0.112180 -0.000000 0.017648
v 0.092865 -0.000000 0.017648
v 0.092865 -0.000000 -0.017346
v 0.112180 -0.000000 -0.017346
v -0.019587 -0.000000 -0.037245
v -0.036032 -0.000000 -0.029179
v -0.053026 -0.000000 0.032970
v -0.053026 -0.000000 -0.007964
v 0.057605 0.000078 0.032962
v -0.000009 0.000048 0.033004
v -0.032643 0.000012 0.077789
v -0.032643 0.000012 0.033212
v -0.016301 0.028317 0.077789
v -0.016301 0.028317 0.033212
v 0.016383 0.028317 0.077789
v 0.016383 0.028317 0.033212
v 0.032725 0.000012 0.077789
v 0.032725 0.000012 0.033212
v 0.057605 -0.047671 -0.015629
v -0.000009 -0.047601 -0.015570
v 0.057605 -0.031533 -0.039410
v 0.057605 -0.000000 -0.039410
v 0.232814 -0.009475 -0.010374
v 0.232814 -0.000000 -0.010374
v 0.232814 -0.000000 0.010677
v 0.232814 -0.009475 0.010677
v 0.232814 -0.016452 -0.004121
v 0.232814 -0.016452 0.004423
v 0.273414 -0.003625 -0.005998
v 0.273414 -0.000000 -0.005998
v 0.273414 -0.000000 0.006300
v 0.273414 -0.003625 0.006300
v 0.273414 -0.007701 -0.002344
v 0.273414 -0.007701 0.002646
v -0.019587 -0.047601 -0.013874
v -0.036032 -0.047601 -0.007038
v -0.053026 -0.000000 -0.007964
v -0.053026 -0.031451 -0.007964
v -0.053026 -0.047601 0.007719
v 0.057605 0.047671 -0.015629
v -0.000009 0.047601 -0.015570
v 0.057605 0.031533 -0.039410
v 0.232814 0.009475 -0.010374
v 0.232814 0.009475 0.010677
v 0.232814 0.016452 -0.004121
v 0.232814 0.016452 0.004423
v 0.273414 0.003625 -0.005998
v 0.273414 0.003625 0.006300
v 0.273414 0.007701 -0.002344
v 0.273414 0.007701 0.002646
v -0.019587 0.047601 -0.013874
v -0.036032 0.047601 -0.007038
v -0.053026 0.031451 -0.007964
v -0.053026 0.047601 0.007719
vt 0.839890 0.732100
vt 0.839889 0.808192
vt 0.823199 0.836126
vt 0.868391 0.567037
vt 0.901123 0.530386
vt 0.962846 0.539715
vt 0.968426 0.286391
vt 0.968430 0.323097
vt 0.789976 0.294043
vt 0.868563 0.448421
vt 0.826340 0.440794
vt 0.920283 0.428732
vt 0.826341 0.573867
vt 0.919255 0.587451
vt 0.684723 0.119813
vt 0.762640 0.109744
vt 0.695860 0.192960
vt 0.060525 0.932966
vt 0.107268 0.926909
vt 0.110402 0.966152
vt 0.896185 0.861653
vt 0.867036 0.910879
vt 0.900845 0.486046
vt 0.963798 0.477251
vt 0.989701 0.678639
vt 0.896185 0.678639
vt 0.876065 0.626630
vt 0.989702 0.861654
vt 0.098282 0.540003
vt 0.080022 0.454221
vt 0.337897 0.542086
vt 0.100216 0.674433
vt 0.323520 0.687377
vt 0.091764 0.781823
vt 0.056438 0.909503
vt 0.313630 0.937714
vt 0.044844 0.674539
vt 0.040406 0.543123
vt 0.030159 0.446312
vt 0.043952 0.779628
vt 0.009078 0.895213
vt 0.020918 0.943549
vt 0.031148 0.981834
vt 0.498249 0.338504
vt 0.009078 0.344229
vt 0.488911 0.266103
vt 0.686033 0.339187
vt 0.762557 0.350512
vt 0.670085 0.433888
vt 0.009078 0.263193
vt 0.490710 0.196986
vt 0.961570 0.362767
vt 0.785971 0.338659
vt 0.196987 0.932966
vt 0.236593 0.943549
vt 0.226363 0.981834
vt 0.150244 0.926909
vt 0.147109 0.966152
vt 0.917161 0.802706
vt 0.917161 0.749869
vt 0.934674 0.765566
vt 0.901587 0.802706
vt 0.950348 0.207587
vt 0.961557 0.246723
vt 0.781675 0.255898
vt 0.785964 0.270870
vt 0.950370 0.401906
vt 0.781686 0.353633
vt 0.927401 0.602084
vt 0.833654 0.618288
vt 0.830897 0.601918
vt 0.834494 0.396177
vt 0.928677 0.414135
vt 0.831429 0.412628
vt 0.978957 0.471597
vt 0.978236 0.545502
vt 0.668314 0.028693
vt 0.746926 0.014782
vt 0.013149 0.105702
vt 0.499307 0.125698
vt 0.010568 0.184022
vt 0.541814 0.194675
vt 0.771968 0.270353
vt 0.541985 0.129080
vt 0.010604 0.439492
vt 0.697518 0.264101
vt 0.643578 0.190874
vt 0.771933 0.190371
vt 0.630272 0.428424
vt 0.016648 0.015327
vt 0.508868 0.034384
vt 0.507426 0.428498
vt 0.545932 0.425464
vt 0.641826 0.124667
vt 0.641384 0.334453
vt 0.541193 0.335879
vt 0.641832 0.267162
vt 0.543118 0.269643
vt 0.547616 0.037265
vt 0.630472 0.034866
vt 0.584022 0.578729
vt 0.312961 0.805150
vt 0.403892 0.934949
vt 0.405750 0.689697
vt 0.390757 0.802305
vt 0.490319 0.922695
vt 0.482061 0.676005
vt 0.772491 0.014782
vt 0.948367 0.014782
vt 0.772490 0.160590
vt 0.461399 0.787311
vt 0.573657 0.626799
vt 0.343970 0.446312
vt 0.598278 0.481738
vt 0.619923 0.885699
vt 0.580811 0.991853
vt 0.558721 0.978289
vt 0.558771 0.907536
vt 0.723652 0.907772
vt 0.723593 0.991755
vt 0.854981 0.991847
vt 0.622292 0.452290
vt 0.813820 0.452290
vt 0.622292 0.592720
vt 0.813820 0.592720
vt 0.622292 0.733150
vt 0.813819 0.733150
vt 0.622292 0.873579
vt 0.823199 0.713102
vt 0.070478 0.971325
vt 0.989701 0.626629
vt 0.789978 0.315486
vt 0.187034 0.971325
vt 0.934674 0.787009
vt 0.571288 0.738466
vt 0.580871 0.907745
vt 0.855040 0.907746
vt 0.989702 0.910879
vt 0.748004 0.445790
vt 0.901587 0.749869
vt 0.948367 0.149917
vt 0.880980 0.219305
vt 0.836762 0.219305
vt 0.813819 0.873580
vn 0.999992 -0.004005 0.000000
vn 1.000000 -0.000000 0.000000
vn 0.210364 -0.897061 0.388562
vn 0.210364 -0.897061 -0.388562
vn 0.209235 -0.887509 0.410504
vn 0.000000 -0.725451 0.688274
vn 0.151135 0.659781 -0.736103
vn 0.999998 -0.001311 0.001244
vn 0.999999 0.000000 -0.001285
vn 0.999999 -0.000893 -0.000940
vn 0.999999 0.000000 0.001358
vn 0.358013 -0.872127 0.333384
vn 0.256020 -0.449293 0.855892
vn -0.000610 -0.932432 0.361278
vn -0.001207 -0.999999 -0.000000
vn -0.001343 -0.468429 -0.883480
vn -0.001556 -0.827448 -0.561510
vn -0.025605 -0.827113 -0.561388
vn -0.000824 0.000000 -0.999969
vn -0.054231 0.000000 -0.998505
vn 0.707164 -0.707050 0.000000
vn 0.692249 -0.551319 0.465659
vn 0.707017 -0.603372 -0.368875
vn 0.568274 0.000000 -0.822839
vn 0.194896 0.000000 -0.980824
vn 0.000000 -0.688613 -0.725129
vn 0.000000 -0.000000 -1.000000
vn 0.000000 -1.000000 0.000000
vn 0.152287 -0.371990 -0.915647
vn 0.148289 -0.332316 -0.931425
vn 0.194896 0.000000 0.980824
vn 0.151140 0.659779 0.736103
vn 0.137773 0.990464 -0.000000
vn 0.107181 0.000000 0.994232
vn 0.152287 -0.371990 0.915647
vn 0.148289 -0.332316 0.931425
vn 0.107181 0.000000 -0.994232
vn 0.707107 0.000000 -0.707107
vn 0.707099 -0.000000 0.707115
vn 0.707099 -0.707115 0.000000
vn 0.707100 -0.486926 -0.512750
vn 0.707099 -0.486928 0.512750
vn 0.000000 -0.000000 1.000000
vn 0.000000 -0.688613 0.725129
vn -0.657759 -0.753228 -0.000000
vn -0.444408 -0.616876 0.649589
vn 0.657759 -0.753229 0.000000
vn 0.407090 0.000000 -0.913388
vn -0.407090 0.000000 -0.913388
vn 0.000000 -0.795115 0.606459
vn -0.000000 -0.703480 -0.710715
vn 0.514044 -0.622265 0.590376
vn -0.407090 0.000000 0.913388
vn 0.573695 -0.564021 -0.593931
vn 0.407090 -0.000000 0.913388
vn -0.573695 -0.564021 -0.593931
vn -0.046815 -0.460219 -0.886532
vn -0.278146 0.000000 -0.960509
vn -0.152532 -0.814325 -0.559954
vn -0.240791 -0.435865 -0.867183
vn -0.625446 0.000000 -0.780236
vn -0.380688 -0.750481 -0.540178
vn -1.000000 -0.000000 -0.000000
vn -0.552293 -0.384228 -0.739799
vn -0.566271 -0.626820 -0.535142
vn -0.000122 -0.403668 0.914884
vn -0.626789 -0.314371 0.712912
vn -0.634083 -0.720908 0.279611
vn -0.780450 0.000000 -0.625172
vn 0.006310 0.000000 0.999980
vn 0.000739 0.000000 1.000000
vn -0.000652 -0.000000 1.000000
vn -0.866212 -0.499677 0.000000
vn 0.866212 -0.499676 -0.000000
vn 0.999992 0.004005 0.000000
vn 0.210364 0.897061 0.388562
vn 0.209235 0.887509 0.410504
vn 0.210364 0.897061 -0.388562
vn 0.000000 0.725451 0.688274
vn 0.151136 -0.659780 -0.736103
vn 0.999998 0.001659 0.001401
vn 0.999999 0.000893 -0.000940
vn 0.358013 0.872127 0.333384
vn -0.000610 0.932432 0.361278
vn 0.256020 0.449293 0.855892
vn -0.001207 0.999999 0.000000
vn -0.001343 0.468429 -0.883480
vn -0.046815 0.460219 -0.886532
vn -0.025605 0.827113 -0.561388
vn 0.707163 0.707050 0.000000
vn 0.692249 0.551319 0.465659
vn 0.651886 0.627482 -0.425806
vn 0.568274 0.000000 -0.822840
vn -0.000000 0.688613 -0.725129
vn -0.000000 1.000000 0.000000
vn 0.209235 0.887509 -0.410504
vn 0.148289 0.332316 -0.931425
vn 0.151140 -0.659779 0.736103
vn 0.137774 -0.990464 0.000000
vn 0.152287 0.371990 0.915647
vn 0.148289 0.332316 0.931425
vn 0.152287 0.371990 -0.915647
vn 0.707099 0.707115 0.000000
vn 0.707105 0.486924 -0.512745
vn 0.707099 0.486928 0.512750
vn -0.000000 0.688613 0.725130
vn -0.657759 0.753229 0.000000
vn -0.627877 0.618848 0.472015
vn 0.657759 0.753229 0.000000
vn -0.000000 0.795115 0.606459
vn -0.000000 0.703480 -0.710715
vn 0.514044 0.622265 0.590376
vn 0.597956 0.563860 -0.569659
vn -0.573695 0.564021 -0.593931
vn -0.240791 0.435865 -0.867183
vn -0.152532 0.814325 -0.559954
vn -0.552293 0.384228 -0.739799
vn -0.380688 0.750481 -0.540178
vn -0.741783 0.310831 -0.594195
vn -0.566271 0.626820 -0.535142
vn -0.000122 0.403668 0.914884
vn -0.634083 0.720908 0.279611
vn -0.866025 0.500000 0.000000
vn 0.866026 0.500000 -0.000000
vn 0.209235 -0.887509 -0.410504
vn 0.151136 0.659780 -0.736103
vn 0.999998 -0.001659 0.001401
vn 0.999996 -0.002361 -0.001444
vn 0.635932 -0.566457 0.524134
vn 0.651887 -0.627482 -0.425806
vn 0.151135 0.659783 0.736101
vn 0.707105 -0.486924 -0.512745
vn 0.707102 -0.486927 0.512747
vn 0.000000 -0.688612 0.725130
vn -0.627877 -0.618848 0.472015
vn 0.627877 -0.618848 0.472015
vn 0.597956 -0.563860 -0.569659
vn -0.597956 -0.563860 -0.569658
vn -0.741783 -0.310831 -0.594195
vn 0.866212 -0.499677 0.000000
vn 0.151135 -0.659781 -0.736103
vn 0.999998 0.001311 0.001244
vn 0.999996 0.002361 -0.001444
vn -0.001556 0.827448 -0.561510
vn 0.635931 0.566458 0.524135
vn 0.707017 0.603372 -0.368875
vn 0.151135 -0.659783 0.736101
vn 0.707100 0.486926 -0.512750
vn 0.707102 0.486927 0.512747
vn -0.000000 0.688613 0.725129
vn -0.444408 0.616876 0.649589
vn 0.627877 0.618848 0.472015
vn 0.573695 0.564021 -0.593931
vn -0.597956 0.563860 -0.569659
vn -0.626789 0.314371 0.712912
vn 0.866025 0.500000 0.000000
g ship_10_ship_10_Mesh_ship_10_Material
s off
f 5/1/1 4/2/1 8/3/1
f 18/4/2 19/5/2 33/6/2
s 2
f 24/7/3 23/8/4 28/9/5
s off
f 2/10/2 131/11/2 35/12/2
f 132/13/2 18/4/2 30/14/2
f 37/15/6 1/16/6 44/17/6
f 2/18/7 20/19/7 172/20/7
f 4/2/8 1/21/8 6/22/8
f 20/23/2 2/10/2 32/24/2
f 126/25/9 3/26/9 7/27/9
f 3/26/10 5/1/10 7/27/10
f 1/21/11 125/28/11 6/22/11
s 1
f 15/29/12 17/30/13 12/31/14
s off
f 14/32/15 15/29/15 13/33/15
s 3
f 16/34/16 163/32/17 164/33/18
f 130/35/19 16/34/16 129/36/20
s off
f 9/37/21 8/38/21 15/29/21
f 8/38/22 6/39/22 15/29/22
f 7/40/23 9/37/23 14/32/23
f 128/41/24 7/40/24 165/34/24
f 131/42/25 2/18/25 133/43/25
f 39/44/26 29/45/26 41/46/26
f 40/47/27 3/48/27 143/49/27
f 41/46/28 34/50/28 43/51/28
f 19/5/2 20/23/2 33/6/2
s 2
f 23/8/4 22/52/29 26/53/30
s off
f 18/54/31 132/55/31 134/56/31
f 19/57/32 18/54/32 171/58/32
f 20/19/33 19/57/33 172/20/33
f 173/59/2 25/60/2 178/61/2
f 173/59/2 136/62/2 25/60/2
s 2
f 169/63/34 170/64/35 175/65/34
f 170/64/35 24/7/3 176/66/36
f 22/52/29 168/67/37 174/68/37
s off
f 29/69/38 140/70/38 139/71/38
f 137/72/39 36/73/39 138/74/39
f 33/6/40 32/24/40 31/75/40
f 30/14/41 33/6/41 34/76/41
f 36/73/42 31/75/42 35/12/42
f 142/77/43 125/78/43 37/15/43
f 36/79/44 38/80/44 31/81/44
f 41/46/45 43/51/45 51/82/45
f 3/48/26 40/47/26 5/83/26
f 43/51/46 38/80/46 46/84/46
f 29/45/27 39/44/27 140/85/27
f 44/17/47 42/86/47 52/87/47
f 5/83/28 42/86/28 4/88/28
f 40/47/48 143/49/48 147/89/48
f 137/90/43 141/91/43 36/79/43
f 144/92/49 39/44/49 148/93/49
f 46/84/50 45/94/50 51/82/50
f 48/95/51 47/96/51 50/97/51
f 47/96/27 48/95/27 148/93/27
f 50/97/28 49/98/28 52/87/28
f 145/99/43 146/100/43 46/84/43
f 37/15/52 44/17/52 45/94/52
f 38/80/53 141/91/53 145/99/53
f 42/86/54 40/47/54 48/95/54
f 142/77/55 37/15/55 146/100/55
f 39/44/56 41/46/56 47/96/56
f 12/31/28 59/101/28 13/33/28
s 3
f 129/36/20 11/102/57 149/103/58
f 11/102/57 164/33/18 54/104/59
f 149/103/58 53/105/60 150/106/61
f 53/105/60 54/104/59 56/107/62
s off
f 151/108/63 181/109/63 57/110/63
s 3
f 55/111/64 56/107/62 183/112/65
s 1
f 10/113/66 57/114/67 59/101/68
s 3
f 150/106/61 55/111/64 152/115/69
s off
f 17/116/70 6/117/70 127/118/70
f 154/119/71 10/120/71 17/116/71
f 57/121/72 10/120/72 154/119/72
f 155/122/73 156/123/73 61/124/73
f 61/124/28 62/125/28 63/126/28
f 63/126/74 64/127/74 161/128/74
f 69/1/75 73/129/75 72/3/75
f 82/4/2 94/14/2 97/6/2
s 2
f 88/7/76 92/9/77 87/8/78
s off
f 66/10/2 99/12/2 131/11/2
f 132/13/2 139/71/2 94/14/2
f 101/15/79 108/17/79 65/16/79
f 66/18/80 85/130/80 190/20/80
f 68/2/81 72/3/81 70/22/81
f 84/23/2 96/24/2 66/10/2
f 126/25/9 128/131/9 71/27/9
f 67/26/82 71/27/82 69/1/82
f 65/21/11 70/22/11 125/28/11
s 1
f 79/29/83 76/31/84 81/30/85
s off
f 78/32/86 77/33/86 79/29/86
s 3
f 80/34/87 75/102/88 185/33/89
f 130/35/19 129/36/20 80/34/87
s off
f 73/37/90 78/32/90 79/29/90
f 72/38/91 79/29/91 70/39/91
f 71/40/92 186/34/92 78/32/92
f 128/41/93 166/35/93 186/34/93
f 131/42/25 133/43/25 66/18/25
f 103/44/94 105/46/94 93/45/94
f 104/47/27 143/49/27 67/48/27
f 105/46/95 107/51/95 98/50/95
f 83/5/2 97/6/2 84/23/2
s 2
f 87/8/78 91/132/96 90/53/97
s off
f 82/54/31 187/133/31 134/56/31
f 83/57/98 189/58/98 82/54/98
f 84/19/99 190/20/99 83/57/99
f 191/59/2 193/134/2 194/61/2
f 191/59/2 89/60/2 136/62/2
s 2
f 169/63/34 175/65/34 188/64/100
f 188/64/100 192/66/101 88/7/76
f 86/52/102 90/53/97 174/68/37
s off
f 93/69/38 94/14/38 139/71/38
f 137/72/39 138/74/39 100/73/39
f 97/6/103 98/76/103 95/75/103
f 94/14/104 93/69/104 98/76/104
f 100/73/105 99/12/105 95/75/105
f 142/77/43 101/15/43 125/78/43
f 100/79/106 95/81/106 102/80/106
f 105/46/107 113/98/107 115/82/107
f 67/48/94 69/83/94 104/47/94
f 107/51/108 115/82/108 110/84/108
f 93/45/27 140/85/27 103/44/27
f 108/17/109 116/87/109 106/86/109
f 69/83/95 68/88/95 106/86/95
f 104/47/48 112/95/48 147/89/48
f 137/90/43 100/79/43 141/91/43
f 144/92/49 148/93/49 103/44/49
f 110/84/110 115/82/110 109/94/110
f 112/95/111 114/97/111 111/96/111
f 111/96/27 148/93/27 112/95/27
f 114/97/95 116/87/95 113/98/95
f 145/99/43 110/84/43 146/100/43
f 101/15/112 109/94/112 108/17/112
f 102/80/53 110/84/53 145/99/53
f 106/86/113 114/97/113 112/95/113
f 142/77/55 146/100/55 101/15/55
f 103/44/114 111/96/114 105/46/114
f 76/31/95 77/33/95 123/101/95
s 3
f 129/36/20 149/103/58 75/102/88
f 75/102/88 117/105/115 118/104/116
f 149/103/58 150/106/61 117/105/115
f 117/105/115 119/111/117 120/107/118
s off
f 151/108/63 121/110/63 181/109/63
s 3
f 119/111/117 197/135/119 198/112/120
s 1
f 74/113/121 76/31/84 123/101/122
s 3
f 150/106/61 152/115/69 119/111/117
s off
f 81/116/70 153/136/70 127/118/70
f 154/119/71 153/136/71 81/116/71
f 121/121/72 151/137/72 74/120/72
f 155/122/123 157/124/123 156/123/123
f 157/124/95 159/126/95 158/125/95
f 159/126/124 161/128/124 160/127/124
f 9/129/1 5/1/1 8/3/1
f 30/14/2 18/4/2 33/6/2
s 2
f 23/8/4 27/132/125 28/9/5
s off
f 131/11/2 138/74/2 35/12/2
f 139/71/2 132/13/2 30/14/2
f 1/16/6 4/88/6 44/17/6
f 21/130/126 2/18/126 172/20/126
f 8/3/127 4/2/127 6/22/127
f 2/10/2 35/12/2 32/24/2
f 128/131/9 126/25/9 7/27/9
f 5/1/128 9/129/128 7/27/128
f 125/28/11 127/138/11 6/22/11
s 1
f 17/30/13 10/113/66 12/31/14
s off
f 15/29/15 12/31/15 13/33/15
s 3
f 11/102/57 16/34/16 164/33/18
f 16/34/16 11/102/57 129/36/20
s off
f 14/32/21 9/37/21 15/29/21
f 6/39/129 17/30/129 15/29/129
f 165/34/130 7/40/130 14/32/130
f 166/35/93 128/41/93 165/34/93
f 2/18/25 21/130/25 133/43/25
f 29/45/26 34/50/26 41/46/26
f 3/48/27 126/139/27 143/49/27
f 34/50/28 31/81/28 43/51/28
f 20/23/2 32/24/2 33/6/2
s 2
f 27/132/125 23/8/4 26/53/30
s off
f 167/133/31 18/54/31 134/56/31
f 18/54/131 167/133/131 171/58/131
f 19/57/33 171/58/33 172/20/33
f 177/134/2 173/59/2 178/61/2
f 136/62/2 135/140/2 25/60/2
s 2
f 170/64/35 176/66/36 175/65/34
f 24/7/3 28/9/5 176/66/36
f 26/53/30 22/52/29 174/68/37
s off
f 30/14/38 29/69/38 139/71/38
f 36/73/39 35/12/39 138/74/39
f 34/76/40 33/6/40 31/75/40
f 29/69/132 30/14/132 34/76/132
f 31/75/133 32/24/133 35/12/133
f 125/78/43 1/16/43 37/15/43
f 38/80/134 43/51/134 31/81/134
f 49/98/45 41/46/45 51/82/45
f 40/47/26 42/86/26 5/83/26
f 51/82/135 43/51/135 46/84/135
f 39/44/27 144/92/27 140/85/27
f 42/86/47 50/97/47 52/87/47
f 42/86/28 44/17/28 4/88/28
f 48/95/48 40/47/48 147/89/48
f 141/91/43 38/80/43 36/79/43
f 39/44/49 47/96/49 148/93/49
f 45/94/50 52/87/50 51/82/50
f 47/96/51 49/98/51 50/97/51
f 48/95/27 147/89/27 148/93/27
f 49/98/28 51/82/28 52/87/28
f 146/100/43 45/94/43 46/84/43
f 44/17/136 52/87/136 45/94/136
f 46/84/53 38/80/53 145/99/53
f 50/97/137 42/86/137 48/95/137
f 37/15/55 45/94/55 146/100/55
f 41/46/138 49/98/138 47/96/138
f 59/101/28 60/112/28 180/107/28
f 13/33/28 59/101/28 179/104/28
f 59/101/28 180/107/28 179/104/28
s 3
f 11/102/57 53/105/60 149/103/58
f 53/105/60 11/102/57 54/104/59
f 53/105/60 55/111/64 150/106/61
f 55/111/64 53/105/60 56/107/62
s off
f 181/109/63 58/141/63 57/110/63
f 58/141/63 60/142/63 59/143/63
f 57/110/63 58/141/63 59/143/63
s 3
f 182/135/139 55/111/64 183/112/65
s 1
f 12/31/14 10/113/66 59/101/68
s 3
f 55/111/64 182/135/139 152/115/69
s off
f 153/136/70 17/116/70 127/118/70
f 153/136/71 154/119/71 17/116/71
f 151/137/72 57/121/72 154/119/72
f 156/123/73 62/125/73 61/124/73
f 62/125/28 64/127/28 63/126/28
f 64/127/140 162/144/140 161/128/140
f 68/2/75 69/1/75 72/3/75
f 83/5/2 82/4/2 97/6/2
s 2
f 92/9/77 91/132/96 87/8/78
s off
f 99/12/2 138/74/2 131/11/2
f 82/4/2 132/13/2 94/14/2
f 108/17/79 68/88/79 65/16/79
f 84/19/141 66/18/141 190/20/141
f 65/21/142 68/2/142 70/22/142
f 96/24/2 99/12/2 66/10/2
f 67/26/9 126/25/9 71/27/9
f 71/27/143 73/129/143 69/1/143
f 70/22/11 127/138/11 125/28/11
s 1
f 76/31/84 74/113/121 81/30/85
s off
f 77/33/86 76/31/86 79/29/86
s 3
f 184/32/144 80/34/87 185/33/89
f 129/36/20 75/102/88 80/34/87
s off
f 72/38/90 73/37/90 79/29/90
f 79/29/145 81/30/145 70/39/145
f 73/37/146 71/40/146 78/32/146
f 71/40/93 128/41/93 186/34/93
f 133/43/25 85/130/25 66/18/25
f 105/46/94 98/50/94 93/45/94
f 143/49/27 126/139/27 67/48/27
f 107/51/95 95/81/95 98/50/95
f 97/6/2 96/24/2 84/23/2
s 2
f 86/52/102 87/8/78 90/53/97
s off
f 132/55/31 82/54/31 134/56/31
f 189/58/147 187/133/147 82/54/147
f 190/20/99 189/58/99 83/57/99
f 89/60/2 191/59/2 194/61/2
f 89/60/2 135/140/2 136/62/2
s 2
f 175/65/34 192/66/101 188/64/100
f 192/66/101 92/9/77 88/7/76
f 168/67/37 86/52/102 174/68/37
s off
f 140/70/38 93/69/38 139/71/38
f 138/74/39 99/12/39 100/73/39
f 96/24/103 97/6/103 95/75/103
f 97/6/148 94/14/148 98/76/148
f 99/12/149 96/24/149 95/75/149
f 101/15/43 65/16/43 125/78/43
f 95/81/150 107/51/150 102/80/150
f 107/51/107 105/46/107 115/82/107
f 69/83/94 106/86/94 104/47/94
f 102/80/151 107/51/151 110/84/151
f 140/85/27 144/92/27 103/44/27
f 116/87/109 114/97/109 106/86/109
f 68/88/95 108/17/95 106/86/95
f 143/49/48 104/47/48 147/89/48
f 100/79/43 102/80/43 141/91/43
f 148/93/49 111/96/49 103/44/49
f 115/82/110 116/87/110 109/94/110
f 114/97/111 113/98/111 111/96/111
f 148/93/27 147/89/27 112/95/27
f 116/87/95 115/82/95 113/98/95
f 110/84/43 109/94/43 146/100/43
f 109/94/152 116/87/152 108/17/152
f 141/91/53 102/80/53 145/99/53
f 104/47/153 106/86/153 112/95/153
f 146/100/55 109/94/55 101/15/55
f 111/96/154 113/98/154 105/46/154
f 123/101/95 196/107/95 124/112/95
f 77/33/95 195/104/95 123/101/95
f 195/104/95 196/107/95 123/101/95
s 3
f 149/103/58 117/105/115 75/102/88
f 185/33/89 75/102/88 118/104/116
f 150/106/61 119/111/117 117/105/115
f 118/104/116 117/105/115 120/107/118
s off
f 181/109/63 121/110/63 122/141/63
f 121/110/63 123/143/63 122/141/63
f 123/143/63 124/142/63 122/141/63
s 3
f 120/107/118 119/111/117 198/112/120
s 1
f 121/114/155 74/113/121 123/101/122
s 3
f 152/115/69 197/135/119 119/111/117
s off
f 70/117/70 81/116/70 127/118/70
f 74/120/71 154/119/71 81/116/71
f 151/137/72 154/119/72 74/120/72
f 157/124/123 158/125/123 156/123/123
f 159/126/95 160/127/95 158/125/95
f 161/128/156 162/144/156 160/127/156
