# Blender v2.79 (sub 0) OBJ File: 'FRESH_STATION_OUTPOST_EXPORT.blend'
# www.blender.org
mtllib container_crate_01.mtl
o Cube.004_Cube.005_Material.008_Cube.004_Cube.005_Material.004_Cube.004_Cube.005_Material.008_Cube.004_Cube.005_Material.005
v -0.275000 0.205652 0.334131
v -0.250000 0.205652 0.359131
v -0.250000 0.205652 0.334131
v 0.250001 -0.544348 -0.165870
v -0.249999 -0.544348 -0.190869
v -0.249999 -0.544348 -0.165870
v -0.275000 -0.563097 -0.165870
v -0.300000 -0.544348 -0.190869
v -0.300000 -0.581846 -0.190869
v -0.275000 0.205652 -0.165869
v -0.275000 -0.544348 0.334130
v 0.250000 0.205652 -0.165869
v 0.250001 -0.544348 -0.190869
v -0.275000 0.205652 0.359131
v 0.275000 -0.544348 -0.165870
v 0.275000 0.205652 0.334131
v 0.275000 -0.544348 0.334130
v -0.250000 0.205652 -0.190869
v -0.300000 0.205652 -0.190869
v 0.250001 -0.563097 0.334130
v -0.249999 -0.563097 0.359131
v -0.249999 -0.563097 0.334130
v -0.249999 -0.563097 -0.165870
v 0.250001 -0.563097 -0.165870
v 0.275000 -0.563097 0.334130
v 0.275000 -0.544348 0.359131
v -0.275000 -0.544348 -0.165870
v -0.275000 -0.563097 0.334130
v 0.275000 -0.563097 -0.165870
v -0.249999 -0.544348 0.334130
v 0.250001 -0.544348 0.334130
v 0.250000 0.205652 0.334131
v 0.250000 0.705652 0.359131
v 0.275000 0.705652 0.359131
v 0.250000 0.705652 0.334131
v 0.275000 0.705652 0.334131
v -0.275000 0.705652 0.359131
v -0.250000 0.705652 0.334131
v -0.250000 0.705652 0.359131
v -0.275000 0.705652 0.334131
v 0.275000 -0.563097 0.359131
v 0.275000 0.205652 0.359131
v 0.250001 -0.563097 0.359131
v -0.275000 -0.563097 0.359131
v -0.275000 -0.544348 0.359131
v -0.250000 0.205652 -0.165869
v 0.250000 0.205652 -0.190869
v 0.300000 -0.544348 -0.190869
v 0.250001 -0.581846 -0.190869
v -0.249999 -0.581846 -0.190869
v 0.300000 0.205652 -0.190869
v 0.275000 0.205652 -0.165869
v 0.300000 -0.581846 -0.190869
v 0.250000 0.205652 0.359131
v -0.138532 -0.505201 0.337640
v -0.249557 -0.450911 0.337533
v -0.250844 -0.401972 0.267242
v -0.110907 -0.410212 0.241443
v -0.025184 -0.499006 0.338934
v 0.072007 -0.510214 0.339798
v 0.000595 -0.430304 0.277046
v 0.102854 -0.455927 0.280838
v 0.168816 -0.533737 0.336529
v -0.080838 -0.363586 0.246779
v 0.031286 -0.372454 0.283381
v -0.196915 -0.324755 0.233810
v -0.141726 -0.245848 0.281284
v -0.034561 -0.289898 0.250000
v 0.137659 -0.396105 0.245759
v 0.231198 -0.425505 0.267979
v 0.199608 -0.481314 0.288596
v 0.070651 -0.315722 0.233501
v 0.173663 -0.338904 0.292662
v -0.215639 -0.123648 0.235778
v -0.083638 -0.163900 0.218777
v -0.256225 -0.099436 0.213965
v -0.164103 -0.057646 0.187164
v 0.010116 -0.219290 0.139627
v 0.107013 -0.251604 0.200136
v -0.047638 -0.099588 0.248079
v 0.061765 -0.147844 0.125874
v 0.211081 -0.284197 0.261066
v 0.251358 -0.322615 0.229003
v 0.252320 -0.374054 0.240433
v 0.159843 -0.190786 0.181696
v 0.250572 -0.234064 0.246532
v -0.247968 0.167627 0.337276
v -0.193327 0.048792 0.219302
v -0.249543 -0.023806 0.225203
v -0.250168 -0.208269 0.273507
v -0.081245 0.007082 0.290505
v 0.023521 -0.033140 0.245152
v -0.117906 0.115641 0.281250
v -0.007209 0.005636 0.293919
v 0.125454 -0.078898 0.238287
v 0.250589 -0.126764 0.188774
v 0.095613 0.025515 0.230366
v 0.194411 -0.018374 0.194810
v 0.250526 -0.502014 0.338109
v 0.053292 0.109404 0.260722
v 0.167271 0.066992 0.272757
v -0.058852 0.194189 0.337617
v 0.035042 0.194702 0.333999
v 0.131206 0.135744 0.336300
v 0.254473 0.023474 0.243186
v 0.248819 0.141832 0.337520
v -0.157288 0.198446 0.335052
v 0.253226 -0.071299 0.193303
vt 0.340401 0.255451
vt 0.542559 0.265657
vt 0.436377 0.361634
vt 0.462936 0.566075
vt 0.440006 0.658110
vt 0.435147 0.652594
vt 0.011229 0.686829
vt 0.016115 0.699385
vt 0.002425 0.697022
vt 0.625637 0.849592
vt 0.400929 0.699787
vt 0.625637 0.699787
vt 0.308291 0.500143
vt 0.469217 0.562564
vt 0.000201 0.252534
vt 0.181962 0.409064
vt 0.177477 0.415185
vt 0.224909 0.849592
vt 0.000201 0.699787
vt 0.224909 0.699787
vt 0.242969 0.688742
vt 0.253444 0.686665
vt 0.244221 0.699385
vt 0.303904 0.485563
vt 0.071626 0.147777
vt 0.028810 0.212914
vt 0.011981 0.205662
vt 0.387821 0.699787
vt 0.395312 0.849592
vt 0.387822 0.849592
vt 0.238016 0.699787
vt 0.238016 0.849592
vt 0.230526 0.699787
vt 0.335091 0.260250
vt 0.084471 0.148373
vt 0.082726 0.138320
vt 0.400929 0.849592
vt 0.395312 0.699787
vt 0.230526 0.849592
vt 0.017314 0.687155
vt 0.374714 0.999799
vt 0.224909 0.849994
vt 0.374714 0.849994
vt 0.599422 0.999799
vt 0.599422 0.849994
vt 0.224909 0.999799
vt 0.000201 0.849994
vt 0.431120 0.378898
vt 0.420760 0.375365
vt 0.422444 0.368282
vt 0.312488 0.480007
vt 0.076609 0.150019
vt 0.073358 0.143153
vt 0.555760 0.330174
vt 0.705566 0.180369
vt 0.705565 0.330174
vt 0.075255 0.150734
vt 0.007997 0.242793
vt 0.000201 0.241985
vt 0.008676 0.250629
vt 0.244423 0.149267
vt 0.355913 0.048489
vt 0.446583 0.159475
vt 0.350603 0.053288
vt 0.559505 0.015181
vt 0.548270 0.000201
vt 0.559505 0.000201
vt 0.784212 0.164987
vt 0.559505 0.179967
vt 0.559505 0.164987
vt 0.784213 0.000201
vt 0.784213 0.015182
vt 0.548270 0.164987
vt 0.548270 0.015181
vt 0.026236 0.498701
vt 0.296504 0.487038
vt 0.299491 0.499101
vt 0.019895 0.498587
vt 0.008139 0.505558
vt 0.011569 0.487604
vt 0.246039 0.679172
vt 0.025616 0.485965
vt 0.011188 0.678703
vt 0.019173 0.506869
vt 0.000201 0.679109
vt 0.310289 0.494296
vt 0.451892 0.154676
vt 0.431068 0.366432
vt 0.196436 0.096177
vt 0.302619 0.000201
vt 0.329479 0.267806
vt 0.000201 0.849592
vt 0.000201 0.999799
vt 0.302238 0.477243
vt 0.307969 0.472605
vt 0.548270 0.330174
vt 0.555760 0.180369
vt 0.239114 0.154066
vt 0.784212 0.179967
vt 0.548270 0.179967
vt 0.713056 0.180369
vt 0.713056 0.330174
vt 0.481217 0.521447
vt 0.496828 0.485965
vt 0.523410 0.489876
vt 0.521547 0.532451
vt 0.480834 0.558108
vt 0.476592 0.588644
vt 0.510513 0.567330
vt 0.501245 0.600170
vt 0.469619 0.619333
vt 0.534740 0.542502
vt 0.527955 0.578334
vt 0.546323 0.508991
vt 0.571519 0.525233
vt 0.557319 0.558646
vt 0.522125 0.613050
vt 0.509867 0.644009
vt 0.491204 0.630563
vt 0.549595 0.594315
vt 0.538607 0.628049
vt 0.609538 0.502958
vt 0.602118 0.546970
vt 0.619537 0.490496
vt 0.632199 0.517748
vt 0.587241 0.579919
vt 0.572517 0.605992
vt 0.625261 0.556083
vt 0.601782 0.592219
vt 0.555860 0.640001
vt 0.544413 0.656319
vt 0.528391 0.654810
vt 0.592664 0.620432
vt 0.572146 0.651958
vt 0.710616 0.491109
vt 0.662462 0.510554
vt 0.643586 0.491125
vt 0.581365 0.492205
vt 0.658376 0.548102
vt 0.643844 0.580634
vt 0.688218 0.532625
vt 0.661015 0.568400
vt 0.629275 0.611900
vt 0.610925 0.650269
vt 0.661211 0.605617
vt 0.645054 0.635676
vt 0.474361 0.646552
vt 0.688344 0.591569
vt 0.680357 0.628632
vt 0.718435 0.551962
vt 0.722168 0.582309
vt 0.711257 0.617568
vt 0.662009 0.655999
vt 0.711632 0.656319
vt 0.719148 0.520166
vt 0.628433 0.652429
vt 0.547868 0.260859
vt 0.548270 0.180369
vn 0.0000 0.0000 -1.0000
vn 0.0000 1.0000 0.0000
vn -0.7071 0.0000 0.7071
vn -1.0000 -0.0000 0.0000
vn 1.0000 0.0000 0.0000
vn 0.0000 -1.0000 0.0000
vn 0.0000 -0.0000 1.0000
vn 0.7071 -0.0000 0.7071
vn 0.0000 -0.8000 0.6000
vn -0.1059 -0.7235 -0.6821
vn -0.3733 -0.7645 -0.5255
vn -0.3273 -0.4670 -0.8214
vn 0.0445 -0.3838 -0.9224
vn 0.0132 -0.6846 -0.7288
vn -0.1428 -0.6729 -0.7258
vn 0.1087 -0.3741 -0.9210
vn -0.1620 -0.5027 -0.8492
vn 0.0055 -0.6970 -0.7171
vn 0.1733 0.0386 -0.9841
vn -0.0575 -0.2464 -0.9675
vn -0.1465 0.1019 -0.9839
vn -0.0847 -0.0378 -0.9957
vn -0.2668 -0.3507 -0.8977
vn 0.0773 -0.0820 -0.9936
vn 0.1936 -0.3798 -0.9046
vn 0.1823 -0.5880 -0.7881
vn 0.0043 -0.5309 -0.8474
vn 0.0693 -0.0793 -0.9944
vn -0.0222 -0.4950 -0.8686
vn -0.2740 -0.0963 -0.9569
vn -0.0566 -0.3263 -0.9436
vn 0.1140 0.0605 -0.9916
vn -0.2959 -0.2972 -0.9078
vn 0.2997 -0.5303 -0.7931
vn -0.0647 0.4260 -0.9024
vn 0.0532 0.2550 -0.9655
vn -0.1537 -0.3162 -0.9361
vn -0.6641 -0.0754 -0.7439
vn -0.5279 -0.2099 -0.8230
vn 0.3126 -0.1576 -0.9367
vn 0.1581 -0.3606 -0.9192
vn -0.2206 0.5634 -0.7962
vn -0.0483 0.4397 -0.8969
vn -0.4133 0.2395 -0.8785
vn -0.0421 -0.1394 -0.9893
vn 0.2646 0.2601 -0.9286
vn -0.2754 0.4676 -0.8399
vn 0.2158 0.4119 -0.8853
vn -0.1990 0.4264 -0.8824
vn -0.0424 0.2610 -0.9644
vn -0.0368 -0.0493 -0.9981
vn -0.1833 0.2526 -0.9501
vn -0.0660 0.2773 -0.9585
vn 0.3774 -0.6447 -0.6648
vn -0.1006 0.4248 -0.8997
vn 0.1185 0.6500 -0.7507
vn 0.0074 0.4475 -0.8942
vn 0.1343 0.6621 -0.7373
vn 0.2344 0.6971 -0.6776
vn 0.1539 0.6102 -0.7771
vn 0.0074 0.6497 -0.7601
vn -0.0893 0.5125 -0.8541
vn 0.1434 0.1871 -0.9718
usemtl Material.000
s off
f 32/1/1 38/2/1 35/3/1
f 4/4/2 5/5/2 6/6/2
f 7/7/3 8/8/3 9/9/3
f 10/10/4 11/11/4 1/12/4
f 12/13/4 13/14/4 4/4/4
f 11/15/4 14/16/4 1/17/4
f 15/18/5 16/19/5 17/20/5
f 10/21/2 18/22/2 19/23/2
f 14/16/4 40/24/4 1/17/4
f 20/25/6 21/26/6 22/27/6
f 22/28/6 7/29/6 23/30/6
f 23/30/6 20/31/6 22/28/6
f 24/32/6 25/33/6 20/31/6
f 16/34/5 26/35/5 17/36/5
f 27/37/4 28/38/4 11/11/4
f 17/20/5 29/39/5 15/18/5
f 10/21/3 8/8/3 27/40/3
f 4/41/2 30/42/2 31/43/2
f 12/44/4 31/43/4 32/45/4
f 6/46/5 3/47/5 30/42/5
f 35/48/2 33/49/2 34/50/2
f 38/51/2 33/49/2 35/48/2
f 17/36/5 41/52/5 25/53/5
f 54/54/7 39/55/7 2/56/7
f 25/53/6 43/57/6 20/25/6
f 22/27/6 44/58/6 28/59/6
f 28/59/4 45/60/4 11/15/4
f 16/34/2 12/61/2 32/1/2
f 10/62/2 3/63/2 46/64/2
f 5/65/1 9/66/1 8/67/1
f 47/68/1 48/69/1 13/70/1
f 5/65/1 19/71/1 18/72/1
f 48/69/1 49/73/1 13/70/1
f 13/70/1 50/74/1 5/65/1
f 15/75/8 51/76/8 52/77/8
f 29/78/9 49/79/9 53/80/9
f 6/6/5 18/22/5 46/81/5
f 29/78/8 48/82/8 15/75/8
f 23/83/9 49/79/9 24/84/9
f 7/7/9 50/85/9 23/83/9
f 52/77/2 47/86/2 12/13/2
f 1/87/1 38/2/1 3/63/1
f 32/1/1 36/88/1 16/34/1
f 3/63/1 31/89/1 30/90/1
f 16/34/5 34/50/5 42/91/5
f 4/4/2 13/14/2 5/5/2
f 7/7/3 27/40/3 8/8/3
f 10/10/4 27/37/4 11/11/4
f 12/13/4 47/86/4 13/14/4
f 11/15/4 45/60/4 14/16/4
f 15/18/5 52/92/5 16/19/5
f 10/21/2 46/81/2 18/22/2
f 20/25/6 43/57/6 21/26/6
f 22/28/6 28/38/6 7/29/6
f 23/30/6 24/32/6 20/31/6
f 24/32/6 29/39/6 25/33/6
f 16/34/5 42/91/5 26/35/5
f 27/37/4 7/29/4 28/38/4
f 17/20/5 25/33/5 29/39/5
f 10/21/3 19/23/3 8/8/3
f 4/41/2 6/46/2 30/42/2
f 12/44/4 4/41/4 31/43/4
f 6/46/5 46/93/5 3/47/5
f 40/24/2 37/94/2 39/95/2
f 38/51/2 39/95/2 33/49/2
f 35/48/2 34/50/2 36/88/2
f 40/24/2 39/95/2 38/51/2
f 17/36/5 26/35/5 41/52/5
f 42/96/7 33/97/7 54/54/7
f 25/53/6 41/52/6 43/57/6
f 22/27/6 21/26/6 44/58/6
f 28/59/4 44/58/4 45/60/4
f 16/34/2 52/98/2 12/61/2
f 10/62/2 1/87/2 3/63/2
f 5/65/1 50/74/1 9/66/1
f 47/68/1 51/99/1 48/69/1
f 5/65/1 8/67/1 19/71/1
f 48/69/1 53/100/1 49/73/1
f 13/70/1 49/73/1 50/74/1
f 15/75/8 48/82/8 51/76/8
f 29/78/9 24/84/9 49/79/9
f 6/6/5 5/5/5 18/22/5
f 29/78/8 53/80/8 48/82/8
f 23/83/9 50/85/9 49/79/9
f 7/7/9 9/9/9 50/85/9
f 52/77/2 51/76/2 47/86/2
f 2/56/7 37/101/7 14/102/7
f 3/63/1 32/1/1 31/89/1
usemtl Material.002
s 89
f 55/103/10 56/104/11 57/105/12
f 55/103/10 58/106/13 59/107/14
f 60/108/15 59/107/14 61/109/16
f 60/108/15 62/110/17 63/111/18
f 64/112/19 65/113/20 61/109/16
f 64/112/19 58/106/13 66/114/21
f 64/112/19 66/114/21 67/115/22
f 64/112/19 68/116/23 65/113/20
f 69/117/24 70/118/25 71/119/26
f 69/117/24 62/110/17 65/113/20
f 69/117/24 65/113/20 72/120/27
f 69/117/24 73/121/28 70/118/25
f 74/122/29 75/123/30 67/115/22
f 74/122/29 76/124/31 77/125/32
f 74/122/29 77/125/32 75/123/30
f 78/126/33 79/127/34 72/120/27
f 78/126/33 68/116/23 75/123/30
f 78/126/33 75/123/30 80/128/35
f 78/126/33 81/129/36 79/127/34
f 82/130/37 83/131/38 84/132/39
f 82/130/37 73/121/28 79/127/34
f 82/130/37 79/127/34 85/133/40
f 82/130/37 86/134/41 83/131/38
f 87/135/42 88/136/43 89/137/44
f 90/138/45 76/124/31 74/122/29
f 91/139/46 92/140/47 80/128/35
f 91/139/46 77/125/32 88/136/43
f 91/139/46 88/136/43 93/141/48
f 91/139/46 94/142/49 92/140/47
f 95/143/50 96/144/51 85/133/40
f 95/143/50 81/129/36 92/140/47
f 95/143/50 92/140/47 97/145/52
f 95/143/50 98/146/53 96/144/51
f 70/118/25 84/132/39 99/147/54
f 100/148/55 101/149/56 97/145/52
f 100/148/55 94/142/49 102/150/57
f 100/148/55 102/150/57 103/151/58
f 100/148/55 104/152/59 101/149/56
f 105/153/60 98/146/53 101/149/56
f 105/153/60 101/149/56 106/154/61
f 107/155/62 102/150/57 93/141/48
f 58/106/13 55/103/10 57/105/12
f 58/106/13 61/109/16 59/107/14
f 62/110/17 60/108/15 61/109/16
f 62/110/17 71/119/26 63/111/18
f 58/106/13 64/112/19 61/109/16
f 58/106/13 57/105/12 66/114/21
f 68/116/23 64/112/19 67/115/22
f 68/116/23 72/120/27 65/113/20
f 62/110/17 69/117/24 71/119/26
f 62/110/17 61/109/16 65/113/20
f 73/121/28 69/117/24 72/120/27
f 73/121/28 84/132/39 70/118/25
f 99/147/54 71/119/26 70/118/25
f 90/138/45 67/115/22 66/114/21
f 90/138/45 74/122/29 67/115/22
f 76/124/31 89/137/44 77/125/32
f 77/125/32 80/128/35 75/123/30
f 68/116/23 78/126/33 72/120/27
f 68/116/23 67/115/22 75/123/30
f 81/129/36 78/126/33 80/128/35
f 81/129/36 85/133/40 79/127/34
f 73/121/28 82/130/37 84/132/39
f 73/121/28 72/120/27 79/127/34
f 86/134/41 82/130/37 85/133/40
f 90/138/45 66/114/21 57/105/12
f 87/135/42 93/141/48 88/136/43
f 77/125/32 91/139/46 80/128/35
f 77/125/32 89/137/44 88/136/43
f 94/142/49 91/139/46 93/141/48
f 94/142/49 97/145/52 92/140/47
f 81/129/36 95/143/50 85/133/40
f 81/129/36 80/128/35 92/140/47
f 98/146/53 95/143/50 97/145/52
f 98/146/53 108/156/63 96/144/51
f 86/134/41 85/133/40 96/144/51
f 94/142/49 100/148/55 97/145/52
f 94/142/49 93/141/48 102/150/57
f 104/152/59 100/148/55 103/151/58
f 104/152/59 106/154/61 101/149/56
f 98/146/53 105/153/60 108/156/63
f 98/146/53 97/145/52 101/149/56
f 87/135/42 107/155/62 93/141/48
f 71/119/26 99/147/54 63/111/18
usemtl Material.000
s off
f 32/1/1 3/63/1 38/2/1
f 14/16/4 37/94/4 40/24/4
f 54/54/7 33/97/7 39/55/7
f 1/87/1 40/157/1 38/2/1
f 32/1/1 35/3/1 36/88/1
f 16/34/5 36/88/5 34/50/5
f 42/96/7 34/158/7 33/97/7
f 2/56/7 39/55/7 37/101/7
