# Blender v2.79 (sub 0) OBJ File: 'backgrounddeco.obj'
# www.blender.org
mtllib backgrounddeco.mtl
o Cube.001
v 1000000.000000 -1000000.000000 0.837079
v -999999.562500 -1000000.000000 -1.162921
v 1000000.000000 -1000000.000000 -1.162921
v -999999.875000 1000000.000000 -0.837079
v 999999.375000 1000000.000000 1.162922
v 1000000.500000 1000000.000000 -0.837079
v -1000000.125000 -1000000.000000 0.837079
v -1000000.375000 1000000.000000 1.162921
vt 0.003883 0.500166
vt 0.003883 0.500100
vt 0.000100 0.500165
vt 0.000653 0.500497
vt 0.004447 0.500498
vt 0.004410 0.500431
vt 0.000169 0.504352
vt 0.000169 0.500431
vt 0.000100 0.500431
vt 0.499900 0.499900
vt 0.499900 0.000100
vt 0.000100 0.000100
vt 0.000436 0.504280
vt 0.000436 0.500431
vt 0.000369 0.500431
vt 0.999900 0.499900
vt 0.999900 0.000100
vt 0.500100 0.000100
vt 0.000100 0.500231
vt 0.000637 0.500431
vt 0.000100 0.504352
vt 0.000100 0.499900
vt 0.000369 0.504280
vt 0.500100 0.499900
vn 0.0000 1.0000 0.0000
vn 0.0000 -0.9996 -0.0273
vn -1.0000 0.0000 0.0000
vn 0.0000 0.0000 -1.0000
vn 0.9627 0.0000 0.2707
vn 0.0000 -0.0000 1.0000
vn 0.0000 0.9989 0.0464
vn 0.0000 -1.0000 0.0000
vn -0.8716 -0.0000 -0.4903
vn 0.9701 0.0000 0.2425
usemtl Material.001
s 1
f 1/1/1 3/2/1 2/3/1
f 4/4/2 6/5/2 5/6/2
f 6/7/3 3/8/3 1/9/3
f 5/10/4 1/11/4 7/12/4
f 8/13/5 7/14/5 2/15/5
f 3/16/6 6/17/6 4/18/6
f 1/1/7 2/3/7 7/19/7
f 4/4/8 5/6/8 8/20/8
f 6/7/9 1/9/9 5/21/9
f 5/10/4 7/12/4 8/22/4
f 8/13/10 2/15/10 4/23/10
f 3/16/6 4/18/6 2/24/6
