# Blender v2.79 (sub 0) OBJ File: 'Outpost01-WallPY.blend'
# www.blender.org
mtllib outpostFloor11posX-1_8748970031738281posY-8_81385612487793.mtl
o Cube.004_Cube.005_Material.004_Cube.004_Cube.005_Material.0.755_Cube.004_Cube.005_Material.004_Cube.004_Cube.005_Material.0.902
v 10.259099 3.070886 1.186552
v 10.064799 1.746650 0.229389
v 9.867400 0.265650 0.235092
v 9.867400 0.265650 0.535092
v 10.064799 1.776058 0.536564
v 10.837226 3.070886 1.186553
v 7.301004 2.486530 0.535595
v 7.479523 2.616931 0.626726
v 8.256930 2.889072 0.871245
v 10.725316 4.121897 0.229389
v 5.880790 0.265650 0.535092
v 5.854683 1.391481 0.533502
v 7.769483 2.857254 0.229389
v 5.849961 1.403845 0.229759
v 10.064799 1.761354 0.532981
v 5.960706 -3.175774 0.535093
v 5.956501 -3.179476 0.235093
v 11.037412 1.746650 0.229389
v 11.025599 1.772522 0.536565
v 10.862689 2.895092 1.099470
v 9.358104 3.283316 1.186553
v 10.712119 4.149734 0.229389
v 10.726394 3.884556 1.186553
v 10.731820 3.872945 1.186553
v 6.343064 1.761354 0.532980
v 6.302677 1.746650 0.229388
vt 0.513795 0.284405
vt 0.669236 0.178944
vt 0.738834 0.284405
vt 0.881908 0.716789
vt 0.930127 0.872803
vt 0.514291 0.872803
vt 0.646319 0.713779
vt 0.802210 0.682109
vt 0.802166 0.713401
vt 0.000312 0.999688
vt 0.543373 0.968395
vt 0.543957 0.999688
vt 0.840910 0.177029
vt 0.740690 0.144877
vt 0.840910 0.144842
vt 0.797290 0.415716
vt 0.513795 0.435973
vt 0.726082 0.361296
vt 0.644843 0.541794
vt 0.836050 0.558189
vt 0.703871 0.594916
vt 0.000312 0.392627
vt 0.009432 0.000312
vt 0.163393 0.024487
vt 0.743187 0.178067
vt 0.744714 0.177656
vt 0.744714 0.265486
vt 0.340640 0.832668
vt 0.030957 0.964225
vt 0.101533 0.717541
vt 0.612503 0.905142
vt 0.495038 0.905113
vt 0.493700 0.873428
vt 0.802081 0.285029
vt 0.902002 0.360672
vt 0.513795 0.360672
vt 0.626794 0.672727
vt 0.563768 0.692983
vt 0.543998 0.541794
vt 0.543998 0.541169
vt 0.569833 0.441292
vt 0.654213 0.441292
vt 0.645479 0.595540
vt 0.794799 0.640035
vt 0.704344 0.673665
vt 0.739459 0.177656
vt 0.742562 0.280776
vt 0.739459 0.281610
vt 0.312346 0.441292
vt 0.543373 0.716164
vt 0.000312 0.716164
vt 0.663945 0.144217
vt 0.513795 0.102288
vt 0.532134 0.000312
vt 0.578900 0.144842
vt 0.493700 0.716789
vt 0.932850 0.755370
vt 0.644843 0.682109
vt 0.000312 0.968395
vt 0.739459 0.177031
vt 0.811840 0.435973
vt 0.895063 0.563288
vt 0.892738 0.594916
vt 0.829073 0.589402
vt 0.680400 0.586477
vt 0.513170 0.440668
vt 0.034963 0.440667
vt 0.493076 0.716789
vt 0.034644 0.967771
vt 0.000312 0.716789
vt 0.971909 0.873428
vt 0.971569 0.904724
vt 0.644218 0.541794
vt 0.624071 0.693182
vt 0.672744 0.450381
vt 0.791050 0.509117
vt 0.793885 0.541169
vt 0.644843 0.681484
vt 0.644843 0.597510
vt 0.855028 0.090466
vt 0.879892 0.141873
vt 0.790302 0.144217
vn 0.3967 -0.2465 0.8842
vn -0.3319 0.3519 0.8752
vn -0.3801 0.3286 0.8646
vn -0.0000 0.0014 1.0000
vn 0.9912 -0.1321 0.0000
vn 0.6610 -0.7504 -0.0000
vn -0.0037 -0.9954 0.0953
vn -0.5271 0.3415 0.7782
vn -0.6031 0.7966 0.0417
vn 0.0000 -0.0039 -1.0000
vn 0.9011 0.4211 0.1032
vn 0.0000 -0.0000 -1.0000
vn -0.9996 -0.0232 0.0146
vn -0.0000 -0.0036 1.0000
vn -0.0017 -0.4484 0.8938
vn 0.9911 0.1303 0.0271
vn 0.0000 -0.0000 1.0000
vn 0.8986 0.4260 0.1047
vn -0.3894 0.8861 0.2513
vn -0.0279 -0.2420 0.9699
vn 0.9914 -0.1308 0.0063
vn 0.0000 -0.9965 0.0839
vn -0.4888 0.5175 0.7023
vn -0.6031 0.7965 0.0418
vn -0.6032 0.7965 0.0417
vn 0.0010 -0.0011 -1.0000
vn 0.0007 -0.0021 -1.0000
vn -0.9996 -0.0232 0.0144
vn -0.9996 -0.0232 0.0143
vn -0.0000 -0.4439 0.8961
vn 0.9911 0.1302 0.0270
vn 0.9911 0.1302 0.0271
vn -0.3892 0.8861 0.2515
vn -0.3893 0.8860 0.2518
vn -0.3893 0.8860 0.2517
usemtl Material.001
s 1
f 15/1/1 21/2/2 9/3/3
usemtl Material.010
s off
f 25/4/4 11/5/4 4/6/4
f 2/7/5 4/8/5 3/9/5
f 3/10/6 16/11/6 17/12/6
usemtl Material.002
f 2/13/7 19/14/7 5/15/7
usemtl Material.001
s 1
f 8/16/8 15/17/1 9/18/3
usemtl Material.013
s off
f 13/19/9 26/20/9 7/21/9
usemtl Material.010
f 26/22/10 2/23/10 3/24/10
usemtl Material.013
f 23/25/11 24/26/11 22/27/11
usemtl Material.002
f 13/28/12 10/29/12 2/30/12
usemtl Material.013
f 11/31/13 12/32/13 14/33/13
usemtl Material.010
f 7/34/14 25/35/14 15/36/14
usemtl Material.002
f 20/37/15 1/38/15 5/39/15
usemtl Material.013
f 10/40/16 24/41/16 6/42/16
usemtl Material.002
f 23/43/17 21/44/17 1/45/17
usemtl Material.013
f 24/46/18 10/47/18 22/48/18
usemtl Material.010
f 11/49/17 16/50/17 4/51/17
usemtl Material.013
f 21/52/19 23/53/19 22/54/19
usemtl Material.001
s 1
f 15/1/1 1/55/20 21/2/2
usemtl Material.010
s off
f 4/6/4 15/56/4 25/4/4
f 25/4/4 12/57/4 11/5/4
f 2/7/21 15/58/21 4/8/21
f 3/10/6 4/59/6 16/11/6
usemtl Material.002
f 2/13/22 18/60/22 19/14/22
usemtl Material.001
s 1
f 8/16/8 7/61/23 15/17/1
usemtl Material.013
s off
f 14/62/24 12/63/24 26/20/24
f 12/63/25 25/64/25 26/20/25
f 7/21/9 8/65/9 13/19/9
f 25/64/9 7/21/9 26/20/9
usemtl Material.010
f 3/24/26 17/66/26 14/67/26
f 14/67/27 26/22/27 3/24/27
usemtl Material.002
f 2/30/12 26/68/12 13/28/12
f 13/28/12 22/69/12 10/29/12
f 10/29/12 18/70/12 2/30/12
usemtl Material.013
f 14/33/28 17/71/28 11/31/28
f 17/71/29 16/72/29 11/31/29
usemtl Material.002
f 5/39/15 19/73/15 20/37/15
f 20/37/30 6/74/30 1/38/30
usemtl Material.013
f 6/42/31 20/75/31 10/40/31
f 20/75/32 19/76/32 18/77/32
f 10/40/32 20/75/32 18/77/32
usemtl Material.002
f 1/45/17 6/78/17 24/79/17
f 24/79/17 23/43/17 1/45/17
usemtl Material.013
f 22/54/33 13/80/33 21/52/33
f 13/80/34 8/81/34 9/82/34
f 21/52/35 13/80/35 9/82/35
