# Blender v2.79 (sub 0) OBJ File: 'Outpost01-WallPY.blend'
# www.blender.org
mtllib outpostFloor25posX-13_711389541625977posY5_66185188293457.mtl
o Cube.004_Cube.005_Material.004_Cube.004_Cube.005_Material.0.741_Cube.004_Cube.005_Material.004_Cube.004_Cube.005_Material.0.888
v -4.786448 11.002728 1.186552
v -4.888489 11.198346 1.186552
v -3.818682 12.253493 1.186552
v -4.766199 11.076522 0.229386
v -3.817640 12.385093 0.229386
v -6.872959 16.590099 0.229386
v -6.783789 15.213655 1.186552
v -4.725821 10.998895 1.186552
v -4.796434 11.003470 1.186552
v -6.689587 16.625851 1.186552
v -6.478271 16.435959 0.229386
v -4.967094 11.091456 0.229386
v -6.912046 15.208970 0.229386
v -6.818794 15.011407 0.229386
v -6.743467 16.646969 1.186552
v -6.723879 16.639320 1.186552
vt 0.984843 0.965443
vt 0.741576 0.810619
vt 0.991170 0.810619
vt 0.835882 0.809417
vt 0.826090 0.654772
vt 0.835882 0.654613
vt 0.909881 0.269644
vt 0.217786 0.172228
vt 0.837295 0.000264
vt 0.724754 0.809765
vt 0.744255 0.654613
vt 0.793064 0.809765
vt 0.793591 0.806985
vt 0.797517 0.654613
vt 0.825562 0.806985
vt 0.044552 0.654077
vt 0.843524 0.499326
vt 0.825881 0.654086
vt 0.008407 0.810091
vt 0.035484 0.654613
vt 0.724226 0.810091
vt 0.922617 0.270312
vt 0.957351 0.270329
vt 0.960156 0.275293
vt 0.930201 0.000264
vt 0.935866 0.002047
vt 0.930201 0.162911
vt 0.699181 0.810619
vt 0.689012 0.966072
vt 0.000264 0.810619
vt 0.844051 0.730491
vt 0.999736 0.509082
vt 0.999736 0.731830
vt 0.724285 0.965418
vt 0.000264 0.039806
vt 0.055966 0.000264
vt 0.182911 0.167309
vt 0.929673 0.243896
vt 0.740865 0.654613
vt 0.794857 0.654613
vt 0.000264 0.499326
vt 0.000264 0.654613
vt 0.962874 0.280306
vt 0.842388 0.498799
vt 0.007676 0.381011
vt 0.207033 0.270172
vt 0.003354 0.376939
vt 0.000264 0.373994
vt 0.723758 0.966072
vt 0.844056 0.499326
vn 0.8077 -0.5840 -0.0814
vn -0.0629 -0.9950 -0.0780
vn 0.0000 -0.0000 -1.0000
vn 0.3618 0.9264 -0.1040
vn -0.0739 -0.9942 -0.0782
vn 0.8334 0.5474 0.0762
vn -0.8975 -0.4236 0.1223
vn 0.0000 0.0000 1.0000
vn 0.3636 0.9258 -0.1034
vn -0.8975 -0.4240 0.1211
vn -0.9908 0.0280 0.1326
vn 0.8071 -0.5850 -0.0796
vn 0.3617 0.9265 -0.1040
vn 0.8335 0.5473 0.0754
vn -0.9908 0.0279 0.1324
usemtl Material.013
s off
f 4/1/1 3/2/1 8/3/1
f 4/4/2 8/5/2 1/6/2
usemtl Material.002
f 12/7/3 14/8/3 5/9/3
usemtl Material.013
f 6/10/4 16/11/4 11/12/4
f 4/13/5 9/14/5 12/15/5
f 11/16/6 3/17/6 5/18/6
f 7/19/7 14/20/7 2/21/7
usemtl Material.002
f 2/22/8 9/23/8 1/24/8
usemtl Material.013
f 16/25/9 10/26/9 11/27/9
f 12/28/10 2/29/10 14/30/10
f 7/31/11 6/32/11 13/33/11
f 4/1/12 5/34/12 3/2/12
usemtl Material.002
f 6/35/3 11/36/3 13/37/3
f 11/36/3 5/9/3 14/8/3
f 13/37/3 11/36/3 14/8/3
f 5/9/3 4/38/3 12/7/3
usemtl Material.013
f 6/10/13 15/39/13 16/11/13
f 4/13/5 1/40/5 9/14/5
f 11/16/14 10/41/14 3/17/14
f 7/19/7 13/42/7 14/20/7
usemtl Material.002
f 1/24/8 8/43/8 2/22/8
f 8/43/8 3/44/8 2/22/8
f 3/44/8 10/45/8 7/46/8
f 10/45/8 16/47/8 7/46/8
f 16/47/8 15/48/8 7/46/8
f 7/46/8 2/22/8 3/44/8
usemtl Material.013
f 12/28/10 9/49/10 2/29/10
f 7/31/15 15/50/15 6/32/15
