# Blender v2.79 (sub 0) OBJ File: 'Outpost01-WallPY.blend'
# www.blender.org
mtllib outpostFloor12posX-20_429014205932617posY-15_405335426330566.mtl
o Cube.004_Cube.005_Material.004_Cube.004_Cube.005_Material.0.754_Cube.004_Cube.005_Material.004_Cube.004_Cube.005_Material.0.901
v 13.633579 20.171438 0.229389
v 18.266844 20.163870 0.229389
v 13.525734 20.491205 0.229389
v 13.423635 21.285746 0.229389
v 16.907896 19.961508 1.186556
v 14.934387 19.572401 1.186555
v 14.222099 19.961508 1.186555
v 18.261301 21.286505 0.536569
v 13.549395 20.504171 0.920370
v 13.429283 21.283014 0.387245
v 13.611874 20.276945 1.032864
v 18.011267 20.195635 1.072483
v 18.216791 20.347380 0.998548
v 18.273027 21.290098 0.365775
v 15.002779 19.424498 0.229389
v 13.567741 20.207403 0.229389
v 18.255571 20.154360 0.229389
v 18.282206 21.285746 0.229389
v 13.555780 20.257883 0.229389
v 15.002930 19.535009 1.186555
v 13.546904 20.513254 0.915808
v 13.436344 21.268744 0.536567
vt 0.844269 0.466841
vt 0.886584 0.342837
vt 0.853282 0.466197
vt 0.821840 0.188390
vt 0.839476 0.325629
vt 0.569565 0.000264
vt 0.232620 0.807168
vt 0.312268 0.923755
vt 0.301390 0.931080
vt 0.792384 0.848034
vt 0.970895 0.945680
vt 0.784841 0.877005
vt 0.003920 0.806535
vt 0.001869 0.776671
vt 0.848633 0.780419
vt 0.583572 0.752088
vt 0.606450 0.583902
vt 0.856230 0.752088
vt 0.645143 0.883640
vt 0.312797 0.807168
vt 0.779518 0.807168
vt 0.851545 0.112456
vt 0.961171 0.014549
vt 0.999736 0.128306
vt 0.819498 0.497114
vt 0.813694 0.520134
vt 0.707220 0.581825
vt 0.313396 0.911779
vt 0.312797 0.884168
vt 0.452837 0.884168
vt 0.840004 0.149978
vt 0.881412 0.282453
vt 0.878876 0.282923
vt 0.237525 0.583920
vt 0.583043 0.752288
vt 0.000264 0.752288
vt 0.844269 0.326158
vt 0.888677 0.343629
vt 0.000264 0.325629
vt 0.002918 0.131850
vt 0.005865 0.117725
vt 0.804059 0.132880
vt 0.815335 0.139265
vt 0.817267 0.148014
vt 0.000264 0.931080
vt 0.117953 0.851826
vt 0.970895 0.807168
vt 0.780046 0.900426
vt 0.000264 0.752816
vt 0.849619 0.752816
vt 0.847404 0.806639
vt 0.592800 0.583902
vt 0.643830 0.881282
vt 0.840004 0.088877
vt 0.999736 0.000264
vt 0.237709 0.583374
vt 0.843740 0.326158
vt 0.044674 0.538482
vt 0.000264 0.326158
vt 0.824899 0.473996
vt 0.008649 0.509092
vt 0.881411 0.128834
vt 0.040357 0.603993
vt 0.578788 0.583902
vn -0.9705 -0.2299 0.0730
vn -0.0000 -0.0000 -1.0000
vn -0.4769 -0.8730 0.1018
vn 0.9976 -0.0137 0.0682
vn -0.0014 0.9998 0.0210
vn -0.4765 -0.8734 0.1009
vn -0.0000 0.0000 1.0000
vn -0.9912 -0.1277 0.0347
vn 0.0042 0.4446 0.8957
vn -0.9913 -0.1274 0.0333
vn 0.6292 -0.7458 0.2189
vn 0.2176 -0.9697 0.1110
vn -0.9703 -0.2305 0.0732
vn -0.9705 -0.2299 0.0729
vn 0.9976 -0.0137 0.0676
vn -0.0000 0.9995 -0.0319
vn -0.0014 0.9998 0.0173
vn -0.0037 0.9954 0.0953
vn -0.9912 -0.1276 0.0347
vn -0.0000 0.4452 0.8954
vn -0.0008 0.4411 0.8975
vn 0.0093 0.4497 0.8931
vn -0.0032 0.4415 0.8972
vn -0.0016 0.4418 0.8971
vn 0.0108 0.4512 0.8924
vn 0.6293 -0.7457 0.2189
vn 0.2172 -0.9699 0.1104
vn 0.2171 -0.9697 0.1119
usemtl Material.013
s off
f 16/1/1 9/2/1 19/3/1
usemtl Material.002
f 3/4/2 4/5/2 15/6/2
usemtl Material.013
f 11/7/3 16/8/3 1/9/3
f 8/10/4 2/11/4 14/12/4
usemtl Material.002
f 8/13/5 14/14/5 10/15/5
usemtl Material.013
f 15/16/6 6/17/6 1/18/6
usemtl Material.002
f 6/19/7 5/20/7 7/21/7
usemtl Material.013
f 22/22/8 3/23/8 21/24/8
usemtl Material.002
f 9/25/9 11/26/9 7/27/9
usemtl Material.013
f 10/28/10 4/29/10 3/30/10
f 13/31/11 17/32/11 2/33/11
f 5/34/12 15/35/12 17/36/12
f 11/37/13 9/2/13 16/1/13
f 9/2/14 21/38/14 19/3/14
usemtl Material.002
f 4/5/2 18/39/2 15/6/2
f 18/39/2 2/40/2 17/41/2
f 15/6/2 18/39/2 17/41/2
f 15/6/2 1/42/2 3/4/2
f 1/42/2 16/43/2 19/44/2
f 3/4/2 1/42/2 19/44/2
usemtl Material.013
f 1/9/3 6/45/3 7/46/3
f 7/46/3 11/7/3 1/9/3
f 13/47/4 2/11/4 8/10/4
f 2/11/15 18/48/15 14/12/15
usemtl Material.002
f 18/49/16 4/50/16 14/14/16
f 4/50/17 10/15/17 14/14/17
f 10/15/18 22/51/18 8/13/18
usemtl Material.013
f 15/16/6 20/52/6 6/17/6
usemtl Material.002
f 6/19/7 20/53/7 5/20/7
usemtl Material.013
f 10/54/19 3/23/19 22/22/19
f 3/23/19 19/55/19 21/24/19
usemtl Material.002
f 7/27/20 5/56/20 22/57/20
f 5/56/21 12/58/21 8/59/21
f 7/27/22 22/57/22 21/60/22
f 12/58/23 13/61/23 8/59/23
f 8/59/24 22/57/24 5/56/24
f 21/60/25 9/25/25 7/27/25
usemtl Material.013
f 13/31/26 12/62/26 17/32/26
f 17/36/27 12/63/27 5/34/27
f 5/34/28 20/64/28 15/35/28
