# Blender v2.79 (sub 0) OBJ File: 'Outpost01-WallPY.blend'
# www.blender.org
mtllib outpostFloor19posX-20_434946060180664posY-19_602272033691406.mtl
o Cube.004_Cube.005_Material.004_Cube.004_Cube.005_Material.0.747_Cube.004_Cube.005_Material.004_Cube.004_Cube.005_Material.0.894
v 20.718224 21.295547 0.536571
v 20.718241 19.961506 1.186557
v 20.718216 21.285744 0.229389
v 18.268614 20.164116 0.229389
v 18.283997 21.285744 0.229389
v 19.397230 19.961506 1.186557
v 20.718216 19.277809 0.229389
v 20.718241 19.483364 1.186557
v 18.263058 21.286510 0.536570
v 18.218683 20.347603 0.998438
vt 0.526695 0.527664
vt 0.536213 0.752044
vt 0.283489 0.844144
vt 0.431219 0.292233
vt 0.458181 0.232095
vt 0.776399 0.232095
vt 0.240734 0.525502
vt 0.000214 0.000214
vt 0.430791 0.000214
vt 0.522209 0.844608
vt 0.000214 0.910480
vt 0.000220 0.844575
vt 0.837901 0.792647
vt 0.536641 0.792647
vt 0.571537 0.696237
vt 0.551775 0.645696
vt 0.770693 0.525929
vt 0.770693 0.695809
vt 0.731709 0.000214
vt 0.999786 0.022277
vt 0.988406 0.191775
vt 0.000214 0.844148
vt 0.000214 0.525929
vt 0.868573 0.277005
vt 0.818296 0.480829
vt 0.000214 0.522203
vt 0.526699 0.910480
vt 0.536641 0.581429
vt 0.431219 0.231668
vt 0.431219 0.021735
vn 0.0014 0.4414 0.8973
vn 1.0000 0.0000 -0.0000
vn -0.0000 0.0000 -1.0000
vn -0.0000 0.9995 -0.0319
vn -0.0000 0.0000 1.0000
vn -0.9976 0.0137 -0.0680
vn -0.3336 -0.9216 0.1982
vn -0.0000 0.4380 0.8990
vn -0.0016 0.4393 0.8983
vn -0.0037 1.0000 -0.0027
vn -0.3335 -0.9217 0.1981
vn -0.3336 -0.9217 0.1979
usemtl Material.002
s off
f 9/1/1 10/2/1 6/3/1
f 3/4/2 1/5/2 2/6/2
f 4/7/3 3/8/3 7/9/3
f 5/10/4 1/11/4 3/12/4
f 6/13/5 8/14/5 2/15/5
usemtl Material.013
f 9/16/6 4/17/6 10/18/6
f 6/19/7 10/20/7 4/21/7
usemtl Material.002
f 2/22/8 1/23/8 6/3/8
f 1/23/9 9/1/9 6/3/9
f 2/6/2 8/24/2 7/25/2
f 7/25/2 3/4/2 2/6/2
f 4/7/3 5/26/3 3/8/3
f 5/10/10 9/27/10 1/11/10
usemtl Material.013
f 9/16/6 5/28/6 4/17/6
f 4/21/11 7/29/11 6/19/11
f 7/29/12 8/30/12 6/19/12
