# Blender v2.79 (sub 0) OBJ File: 'Outpost01-WallPY.blend'
# www.blender.org
mtllib outpostFloor70posX-9_524576187133789posY-15_874092102050781.mtl
o Cube.004_Cube.005_Material.004_Cube.004_Cube.005_Material.0.696_Cube.004_Cube.005_Material.004_Cube.004_Cube.005_Material.0.843
v 16.167366 7.496069 0.389054
v 13.085533 9.673769 0.229388
v 13.188065 9.846466 0.229388
v 13.088329 9.725252 0.229388
v 16.158302 7.478933 0.229388
v 16.195988 7.492333 0.229388
v 15.256285 12.358625 0.229388
v 19.424435 10.761431 0.229388
v 17.835991 8.937853 0.229388
v 13.098089 8.414948 1.186553
v 15.167015 11.961161 1.186554
v 15.269621 12.085791 1.186554
v 13.013531 8.320927 0.229388
v 18.379326 9.416855 0.229388
v 18.400394 9.443884 0.229388
v 13.101681 8.482428 1.186553
v 13.158001 9.519478 1.186553
v 16.123867 7.604670 1.186555
v 18.781261 9.946667 1.186556
v 19.257053 10.557253 1.186556
v 19.205803 10.491316 1.186556
vt 0.678086 0.400446
vt 0.679693 0.315590
vt 0.679693 0.417302
vt 0.793855 0.872670
vt 0.790624 0.889444
vt 0.561070 0.872670
vt 0.458626 0.999729
vt 0.000257 0.895572
vt 0.470216 0.895572
vt 0.714666 0.000257
vt 0.678086 0.101035
vt 0.705874 0.000257
vt 0.577405 0.387072
vt 0.573588 0.390887
vt 0.557346 0.393358
vt 0.933012 0.479062
vt 0.930948 0.563901
vt 0.698162 0.563901
vt 0.893976 0.872157
vt 0.865380 0.769526
vt 0.881907 0.769526
vt 0.736964 0.272422
vt 0.849864 0.315077
vt 0.678086 0.315077
vt 0.820722 0.101548
vt 0.803249 0.202669
vt 0.678086 0.101548
vt 0.455102 0.467997
vt 0.560557 0.783644
vt 0.196943 0.860094
vt 0.758166 0.271909
vt 0.682308 0.203182
vt 0.843216 0.203182
vt 0.682280 0.434749
vt 0.678086 0.434375
vt 0.682280 0.417815
vt 0.561070 0.564414
vt 0.599350 0.667028
vt 0.582354 0.667028
vt 0.567996 0.667543
vt 0.903830 0.769013
vt 0.561070 0.769013
vt 0.009020 0.999743
vt 0.853776 0.101035
vt 0.221773 0.451372
vt 0.255443 0.000275
vt 0.000257 0.040078
vt 0.171442 0.005508
vt 0.179638 0.000257
vt 0.484234 0.000354
vt 0.491473 0.001332
vt 0.677573 0.286729
vt 0.622104 0.558342
vt 0.561070 0.451885
vt 0.561070 0.872157
vt 0.852786 0.312960
vt 0.810364 0.202669
vt 0.524834 0.894452
vt 0.526773 0.895059
vt 0.024013 0.529817
vt 0.002809 0.460296
vt 0.449714 0.451885
vt 0.000257 0.451885
vt 0.678086 0.206594
vt 0.903667 0.564414
vt 0.897790 0.667542
vn -0.2492 -0.9613 0.1173
vn 0.6552 -0.7433 0.1348
vn 0.3462 0.9035 0.2527
vn 0.7895 -0.6137 0.0072
vn 0.0000 0.0000 -1.0000
vn 0.6551 -0.7430 0.1369
vn -0.7582 0.6239 0.1893
vn 0.7887 -0.6147 0.0091
vn -0.9952 0.0530 0.0827
vn -0.0000 0.0000 1.0000
vn -0.9950 0.0540 0.0840
vn 0.3339 -0.9391 0.0818
vn -0.7582 0.6242 0.1885
vn -0.2569 -0.9594 0.1168
vn 0.3463 0.9033 0.2532
vn 0.6551 -0.7431 0.1362
vn 0.6550 -0.7432 0.1365
vn 0.7886 -0.6148 0.0091
vn -0.2569 -0.9593 0.1169
usemtl Material.013
s off
f 1/1/1 18/2/1 5/3/1
f 1/4/2 6/5/2 9/6/2
f 12/7/3 8/8/3 7/9/3
f 21/10/4 8/11/4 20/12/4
usemtl Material.002
f 2/13/5 4/14/5 3/15/5
usemtl Material.013
f 18/16/6 1/17/6 9/18/6
f 17/19/7 3/20/7 4/21/7
f 19/22/8 15/23/8 21/24/8
f 13/25/9 16/26/9 2/27/9
usemtl Material.002
f 11/28/10 17/29/10 18/30/10
usemtl Material.013
f 17/31/11 2/32/11 16/33/11
f 5/34/12 6/35/12 1/36/12
f 7/37/13 11/38/13 12/39/13
f 18/40/14 13/41/14 5/42/14
f 12/7/15 20/43/15 8/8/15
f 21/10/4 15/44/4 8/11/4
usemtl Material.002
f 3/15/5 7/45/5 9/46/5
f 7/45/5 8/47/5 15/48/5
f 9/46/5 15/48/5 14/49/5
f 7/45/5 15/48/5 9/46/5
f 9/46/5 6/50/5 3/15/5
f 3/15/5 6/50/5 5/51/5
f 5/51/5 13/52/5 3/15/5
f 13/52/5 2/13/5 3/15/5
usemtl Material.013
f 14/53/16 19/54/16 9/18/16
f 19/54/17 18/16/17 9/18/17
f 17/19/7 11/55/7 3/20/7
f 19/22/18 14/56/18 15/23/18
f 13/25/9 10/57/9 16/26/9
usemtl Material.002
f 10/58/10 18/30/10 16/59/10
f 18/30/10 19/60/10 11/28/10
f 16/59/10 18/30/10 17/29/10
f 19/60/10 21/61/10 12/62/10
f 21/61/10 20/63/10 12/62/10
f 12/62/10 11/28/10 19/60/10
usemtl Material.013
f 17/31/11 4/64/11 2/32/11
f 7/37/13 3/65/13 11/38/13
f 18/40/19 10/66/19 13/41/19
