# Blender v2.79 (sub 0) OBJ File: 'Outpost01-WallPY.blend'
# www.blender.org
mtllib outpostFloor20posX-25_756183624267578posY-5_245388031005859.mtl
o Cube.004_Cube.005_Material.004_Cube.004_Cube.005_Material.0.746_Cube.004_Cube.005_Material.004_Cube.004_Cube.005_Material.0.893
v 5.129558 26.554165 0.235091
v 5.129558 26.554165 0.535092
v 6.422413 24.822464 0.233217
v 3.494158 26.554165 0.535091
v 6.763002 25.068977 0.234319
v 5.413078 26.555122 0.535093
v 3.499254 26.554165 0.235091
v 3.664558 25.457783 0.233905
v 6.440737 24.835716 0.233232
v 3.661739 25.441738 0.535092
v 6.391369 24.812851 0.535092
v 6.738275 25.063835 0.535092
v 5.442344 26.555222 0.235093
vt 0.754078 0.124562
vt 0.420151 0.186010
vt 0.420151 0.124562
vt 0.481598 0.368698
vt 0.420151 0.310625
vt 0.481598 0.310626
vt 0.501636 0.310273
vt 0.420151 0.310050
vt 0.424872 0.248408
vt 0.420151 0.248059
vt 0.647411 0.186359
vt 0.650575 0.248059
vt 0.828780 0.062444
vt 0.424117 0.124055
vt 0.420151 0.062444
vt 0.636247 0.670087
vt 0.719991 0.881135
vt 0.394784 0.956630
vt 0.043714 0.222680
vt 0.087437 0.660967
vt 0.000175 0.261109
vt 0.999825 0.062094
vt 0.425920 0.000175
vt 0.999665 0.000313
vt 0.755122 0.186010
vt 0.420151 0.374692
vt 0.512573 0.248408
vt 0.506268 0.310276
vt 0.420306 0.186602
vt 0.831357 0.124213
vt 0.332439 0.971325
vt 0.056699 0.671064
vt 0.000175 0.736010
vt 0.055557 0.670087
vt 0.294108 0.000175
vt 0.419802 0.193297
vt 0.000175 0.669738
vt 0.420151 0.062095
vn 0.0000 1.0000 0.0000
vn -0.0034 1.0000 0.0000
vn 0.5859 -0.8096 0.0343
vn -0.9887 -0.1489 -0.0172
vn 0.7455 0.6625 0.0729
vn 0.0000 0.0011 -1.0000
vn -0.0000 -0.0000 1.0000
vn -0.2242 -0.9731 -0.0539
vn 0.5858 -0.8097 0.0345
vn 0.5856 -0.8098 0.0344
vn -0.9887 -0.1490 -0.0168
vn 0.7456 0.6625 0.0726
vn 0.0018 0.0021 -1.0000
vn -0.2242 -0.9731 -0.0540
usemtl Material.010
s off
f 7/1/1 2/2/1 1/3/1
f 6/4/2 1/5/2 2/6/2
usemtl Material.013
f 9/7/3 5/8/3 12/9/3
f 4/10/4 8/11/4 10/12/4
f 12/13/5 13/14/5 6/15/5
usemtl Material.010
f 8/16/6 7/17/6 1/18/6
f 2/19/7 11/20/7 6/21/7
usemtl Material.013
f 8/22/8 11/23/8 10/24/8
usemtl Material.010
f 7/1/1 4/25/1 2/2/1
f 6/4/2 13/26/2 1/5/2
usemtl Material.013
f 12/9/9 11/27/9 9/7/9
f 11/27/10 3/28/10 9/7/10
f 4/10/11 7/29/11 8/11/11
f 12/13/12 5/30/12 13/14/12
usemtl Material.010
f 1/18/6 13/31/6 3/32/6
f 13/31/13 5/33/13 9/34/13
f 3/32/6 13/31/6 9/34/6
f 3/32/6 8/16/6 1/18/6
f 2/19/7 4/35/7 10/36/7
f 10/36/7 11/20/7 2/19/7
f 11/20/7 12/37/7 6/21/7
usemtl Material.013
f 8/22/14 3/38/14 11/23/14
