# Blender v2.79 (sub 0) OBJ File: 'Outpost01-WallPY.blend'
# www.blender.org
mtllib outpostFloor99posX-3_689469337463379posY8_71827507019043.mtl
o Cube.004_Cube.005_Material.004_Cube.004_Cube.005_Material.0.667_Cube.004_Cube.005_Material.004_Cube.004_Cube.005_Material.0.814
v -7.067387 2.724637 0.229386
v -10.551716 2.486443 0.229385
v -11.578606 5.344963 0.229385
v -6.942106 4.586123 0.229386
v -8.959923 6.649443 0.229385
v -6.972881 2.859618 0.229386
v -10.551624 2.407492 0.854257
v -10.714607 2.833753 1.068418
v -10.805431 3.070887 1.186549
v -11.620636 5.335613 1.186549
v -6.921261 4.411091 1.186551
v -9.072468 6.608720 1.186549
v -8.822437 2.536318 0.765432
v -10.163136 2.431372 0.865520
v -7.063114 2.678841 0.602726
v -7.011097 2.749966 0.632382
v -6.962830 2.815477 0.659650
v -6.935127 3.713591 1.118561
v -6.930864 3.855591 1.186551
vt 0.565610 0.398675
vt 0.613932 0.399518
vt 0.558063 0.399518
vt 0.629612 0.366100
vt 0.638513 0.322052
vt 0.647224 0.364859
vt 0.775579 0.205794
vt 0.740232 0.235788
vt 0.740232 0.103626
vt 0.752831 0.241945
vt 0.768801 0.236491
vt 0.768801 0.369978
vt 0.691491 0.235788
vt 0.558063 0.107603
vt 0.691491 0.103626
vt 0.692194 0.139727
vt 0.739529 0.103626
vt 0.739529 0.232651
vt 0.828802 0.510391
vt 0.514249 0.407184
vt 0.843767 0.407184
vt 0.871544 0.000356
vt 0.570801 0.102923
vt 0.558063 0.000351
vt 0.514831 0.511110
vt 0.772159 0.613773
vt 0.514249 0.613773
vt 0.558063 0.331657
vt 0.593057 0.290509
vt 0.593057 0.389363
vt 0.785164 0.236491
vt 0.785164 0.359696
vt 0.769504 0.262090
vt 0.628909 0.312988
vt 0.593759 0.370600
vt 0.593760 0.290509
vt 0.692362 0.236491
vt 0.752128 0.289806
vt 0.558063 0.289806
vt 0.888469 0.759050
vt 0.514249 0.759050
vt 0.703242 0.701149
vt 0.711913 0.654303
vt 0.514249 0.654303
vt 0.525939 0.615729
vt 0.103753 0.406482
vt 0.000351 0.253045
vt 0.000351 0.235389
vt 0.249433 0.999649
vt 0.000351 0.816387
vt 0.503767 0.816387
vt 0.513546 0.407184
vt 0.380996 0.628427
vt 0.000351 0.407184
vt 0.534636 0.815684
vt 0.514249 0.759752
vt 0.954520 0.759752
vt 0.507937 0.941714
vt 0.504469 0.925199
vt 0.928062 0.925199
vt 0.908720 0.913873
vt 0.504471 0.816387
vt 0.919160 0.885738
vt 0.660056 0.319039
vt 0.629612 0.290509
vt 0.705923 0.290509
vt 0.564124 0.397972
vt 0.558063 0.390066
vt 0.898446 0.390066
vt 0.514249 0.655006
vt 0.857326 0.700446
vt 0.519033 0.662861
vt 0.000351 0.815684
vt 0.271975 0.629129
vt 0.513546 0.815684
vt 0.629612 0.319742
vt 0.648153 0.324564
vt 0.519566 0.510407
vt 0.876021 0.102923
vt 0.840289 0.511119
vt 0.291553 0.000351
vt 0.557360 0.188153
vt 0.504469 0.924496
vt 0.918631 0.655006
vn 0.9995 -0.0177 -0.0256
vn 0.8167 -0.5718 -0.0781
vn 0.9995 -0.0180 -0.0252
vn 0.9995 -0.0179 -0.0254
vn 0.9995 -0.0178 -0.0253
vn 0.9995 -0.0173 -0.0249
vn 0.7101 0.6951 0.1117
vn -0.4458 0.8950 -0.0143
vn -0.9400 -0.3383 -0.0446
vn -0.9402 -0.3381 -0.0426
vn -0.9398 -0.3390 -0.0421
vn 0.0645 -0.9900 -0.1251
vn 0.0680 -0.9895 -0.1272
vn 0.0677 -0.9897 -0.1262
vn 0.0689 -0.9901 -0.1222
vn 0.0000 -0.0000 -1.0000
vn -0.0000 -0.0000 1.0000
vn 0.0876 -0.4323 0.8975
vn 0.0853 -0.4179 0.9045
vn 0.0017 -0.4484 0.8938
vn 0.1111 -0.4506 0.8858
vn 0.1111 -0.4505 0.8858
vn 0.8178 -0.5702 -0.0776
vn 0.8200 -0.5668 -0.0789
vn 0.7104 0.6947 0.1131
vn -0.4469 0.8945 -0.0109
vn -0.9402 -0.3378 -0.0430
vn 0.0942 -0.4553 0.8853
vn 0.1005 -0.3348 0.9369
usemtl Material.014
s off
f 18/1/1 17/2/1 19/3/1
f 6/4/2 16/5/2 1/6/2
f 17/7/3 6/8/3 18/9/3
f 19/10/4 18/11/4 4/12/4
f 6/13/5 4/14/5 18/15/5
f 11/16/6 19/17/6 4/18/6
f 4/19/7 12/20/7 11/21/7
f 3/22/8 12/23/8 5/24/8
f 3/25/9 9/26/9 10/27/9
f 7/28/10 8/29/10 2/30/10
f 9/31/11 2/32/11 8/33/11
f 7/34/12 2/35/12 14/36/12
f 14/37/13 2/38/13 13/39/13
f 2/40/14 1/41/14 13/42/14
f 13/43/15 1/44/15 15/45/15
f 4/46/16 6/47/16 1/48/16
f 5/49/16 4/50/16 3/51/16
f 10/52/17 9/53/17 11/54/17
f 19/55/17 11/56/17 9/57/17
f 18/58/18 19/59/18 9/60/18
f 8/61/19 18/62/19 9/63/19
f 7/64/20 14/65/20 8/66/20
f 15/67/21 16/68/21 14/69/21
f 17/70/22 14/71/22 16/72/22
f 11/73/17 12/74/17 10/75/17
f 17/76/23 16/5/23 6/4/23
f 16/5/24 15/77/24 1/6/24
f 4/19/25 5/78/25 12/20/25
f 3/22/26 10/79/26 12/23/26
f 3/25/27 2/80/27 9/26/27
f 1/48/16 2/81/16 4/46/16
f 2/81/16 3/82/16 4/46/16
f 8/61/28 17/83/28 18/62/28
f 17/70/29 8/84/29 14/71/29
