# Blender v2.79 (sub 0) OBJ File: 'Outpost01-WallPY.blend'
# www.blender.org
mtllib outpostFloor80posX-9_066957473754883posY-6_535307884216309.mtl
o Cube.004_Cube.005_Material.004_Cube.004_Cube.005_Material.0.686_Cube.004_Cube.005_Material.004_Cube.004_Cube.005_Material.0.833
v 6.535738 6.682447 1.186557
v 3.431555 8.967919 1.186555
v 7.400049 10.996512 1.186556
v 7.414834 10.978681 1.186556
v 3.167509 8.819463 0.229390
v 7.145677 10.856051 0.229391
v 7.340870 10.955831 0.229391
v 9.329350 7.210404 0.229391
v 3.235254 8.867425 1.186555
v 9.264600 7.272586 1.186556
v 6.517614 6.601916 0.229391
v 7.640655 10.594247 0.229391
vt 0.773667 0.392456
vt 0.474611 0.010899
vt 0.975148 0.011743
vt 0.929577 0.643490
vt 0.613604 0.536173
vt 0.925693 0.536169
vt 0.032681 0.643604
vt 0.000217 0.750603
vt 0.008177 0.643604
vt 0.463226 0.751037
vt 0.049939 0.858084
vt 0.000217 0.751037
vt 0.608000 0.751215
vt 0.611311 0.643923
vt 0.660504 0.751215
vt 0.082711 0.220832
vt 0.474177 0.499790
vt 0.422936 0.535735
vt 0.499790 0.536169
vt 0.465955 0.643171
vt 0.000217 0.536169
vt 0.607566 0.985259
vt 0.500223 0.539524
vt 0.607566 0.536169
vt 0.999783 0.012328
vt 0.474611 0.468805
vt 0.477257 0.000217
vt 0.608000 0.643490
vt 0.498420 0.750603
vt 0.472677 0.858084
vt 0.608721 0.643923
vt 0.474177 0.524294
vt 0.000217 0.531648
vt 0.473877 0.000217
vt 0.490606 0.643171
vt 0.500226 0.981979
vn -0.0000 0.0000 1.0000
vn 0.2107 -0.9744 0.0780
vn -0.4551 0.8904 -0.0097
vn 0.8943 0.4464 0.0317
vn 0.7677 0.6365 -0.0745
vn 0.0000 -0.0000 -1.0000
vn -0.4557 0.8901 -0.0123
vn -0.5502 -0.8312 0.0806
vn 0.2109 -0.9744 0.0776
vn 0.8943 0.4463 0.0315
vn -0.4557 0.8901 -0.0124
vn -0.5502 -0.8311 0.0803
usemtl Material.002
s off
f 1/1/1 4/2/1 2/3/1
usemtl Material.013
f 11/4/2 10/5/2 1/6/2
f 6/7/3 3/8/3 7/9/3
f 10/10/4 12/11/4 4/12/4
f 7/13/5 4/14/5 12/15/5
usemtl Material.002
f 11/16/6 6/17/6 12/18/6
usemtl Material.013
f 5/19/7 2/20/7 6/21/7
f 11/22/8 9/23/8 5/24/8
usemtl Material.002
f 9/25/1 1/1/1 2/3/1
f 1/1/1 10/26/1 4/2/1
f 2/3/1 4/2/1 3/27/1
usemtl Material.013
f 11/4/9 8/28/9 10/5/9
f 6/7/3 2/29/3 3/8/3
f 10/10/10 8/30/10 12/11/10
f 7/13/5 3/31/5 4/14/5
usemtl Material.002
f 7/32/6 12/18/6 6/17/6
f 12/18/6 8/33/6 11/16/6
f 11/16/6 5/34/6 6/17/6
usemtl Material.013
f 5/19/11 9/35/11 2/20/11
f 11/22/12 1/36/12 9/23/12
