# Blender v2.79 (sub 0) OBJ File: 'Outpost01-WallPY.blend'
# www.blender.org
mtllib outpostFloor49posX-10_702958106994629posY1_0720157623291016.mtl
o Cube.004_Cube.005_Material.004_Cube.004_Cube.005_Material.0.717_Cube.004_Cube.005_Material.004_Cube.004_Cube.005_Material.0.864
v 0.338863 8.354288 1.186552
v 1.199301 12.996434 1.186552
v 0.834776 8.566106 1.186552
v 1.471088 9.325049 1.186552
v 1.696764 12.399710 1.186552
v -3.817202 12.253478 1.186552
v -3.891939 9.683289 1.186552
v 0.390072 8.250510 0.229388
v -3.815506 12.383861 0.229387
v -4.761637 11.075150 0.229387
v -1.859682 13.985568 0.229387
v 0.801046 8.525921 1.186552
v -1.838226 13.873532 1.186552
v -4.724428 10.997890 1.186552
v -3.937296 9.754821 1.186552
v -3.806654 9.568984 0.229387
v 0.810610 8.406785 0.229388
v 1.484442 9.209577 0.229388
v 1.515867 9.247057 0.229388
v 1.755373 12.519196 0.229388
v -4.722204 11.012878 0.229387
v 1.292269 13.074994 0.229388
vt 0.713273 0.358293
vt 0.692253 0.446968
vt 0.554891 0.358293
vt 0.789078 0.268660
vt 0.559928 0.357811
vt 0.554891 0.268656
vt 0.566327 0.179385
vt 0.858825 0.268174
vt 0.554891 0.268174
vt 0.508384 0.546496
vt 0.506396 0.553026
vt 0.357373 0.565694
vt 0.684560 0.710910
vt 0.751578 0.800235
vt 0.684560 0.800293
vt 0.561145 0.178895
vt 0.858820 0.089731
vt 0.854030 0.178899
vt 0.747709 0.536758
vt 0.790370 0.447451
vt 0.789270 0.536759
vt 0.773234 0.702476
vt 0.684560 0.703539
vt 0.773234 0.566176
vt 0.651985 0.536460
vt 0.639241 0.447451
vt 0.644101 0.447451
vt 0.595133 0.569957
vt 0.684074 0.709677
vt 0.595133 0.719557
vt 0.659870 0.536464
vt 0.652467 0.447451
vt 0.744215 0.447451
vt 0.491019 0.993430
vt 0.483527 0.999759
vt 0.548911 0.769356
vt 0.962400 0.089248
vt 0.562298 0.000241
vt 0.973111 0.000242
vt 0.700100 0.446968
vt 0.796850 0.357811
vt 0.851922 0.179382
vt 0.126777 0.525197
vt 0.260188 0.000241
vt 0.000241 0.248949
vt 0.393375 0.020767
vt 0.011270 0.182862
vt 0.255406 0.001963
vt 0.357252 0.000241
vt 0.554409 0.394992
vt 0.756528 0.710850
vt 0.554891 0.089731
vt 0.744698 0.447451
vt 0.684560 0.710367
vt 0.554891 0.536460
vt 0.684077 0.566176
vt 0.655339 0.536464
vt 0.073259 0.999759
vt 0.037224 0.971796
vt 0.035362 0.967314
vt 0.418463 0.571952
vt 0.000241 0.882686
vt 0.065569 0.605052
vt 0.126020 0.566176
vt 0.594651 0.905172
vt 0.554891 0.089249
vn -0.8445 -0.5355 -0.0113
vn -0.6301 0.7695 0.1042
vn 0.9960 -0.0729 0.0519
vn 0.0000 0.0000 -1.0000
vn 0.7621 0.6350 0.1261
vn 0.2759 0.9554 0.1056
vn 0.3458 -0.9307 0.1194
vn -0.8448 -0.5350 -0.0103
vn 0.7630 -0.6404 0.0873
vn -0.8079 0.5841 0.0781
vn 0.7633 -0.6400 0.0879
vn 0.0000 -0.0000 1.0000
vn -0.2986 -0.9504 0.0869
vn -0.6300 0.7696 0.1037
vn 0.9959 -0.0731 0.0525
vn 0.7620 0.6352 0.1260
vn 0.2760 0.9554 0.1052
vn 0.3456 -0.9308 0.1193
vn -0.8080 0.5839 0.0785
vn -0.2986 -0.9504 0.0871
usemtl Material.013
s off
f 16/1/1 15/2/1 21/3/1
f 9/4/2 13/5/2 11/6/2
f 5/7/3 19/8/3 20/9/3
usemtl Material.002
f 21/10/4 10/11/4 9/12/4
usemtl Material.013
f 2/13/5 20/14/5 22/15/5
f 2/16/6 11/17/6 13/18/6
f 17/19/7 1/20/7 8/21/7
f 14/22/8 21/23/8 15/24/8
f 17/25/9 3/26/9 12/27/9
f 10/28/10 6/29/10 9/30/10
f 18/31/11 4/32/11 3/33/11
usemtl Material.002
f 15/34/12 7/35/12 6/36/12
usemtl Material.013
f 16/37/13 1/38/13 7/39/13
f 16/1/1 7/40/1 15/2/1
f 9/4/14 6/41/14 13/5/14
f 5/7/15 4/42/15 19/8/15
usemtl Material.002
f 9/12/4 11/43/4 18/44/4
f 11/43/4 22/45/4 18/44/4
f 9/12/4 18/44/4 8/46/4
f 22/45/4 20/47/4 19/48/4
f 19/48/4 18/44/4 22/45/4
f 18/44/4 17/49/4 8/46/4
f 8/46/4 16/50/4 9/12/4
f 16/50/4 21/10/4 9/12/4
usemtl Material.013
f 2/13/16 5/51/16 20/14/16
f 2/16/17 22/52/17 11/17/17
f 17/19/18 12/53/18 1/20/18
f 14/22/8 10/54/8 21/23/8
f 17/25/9 18/55/9 3/26/9
f 10/28/19 14/56/19 6/29/19
f 18/31/11 19/57/11 4/32/11
usemtl Material.002
f 7/35/12 1/58/12 6/36/12
f 1/58/12 12/59/12 3/60/12
f 6/36/12 1/58/12 13/61/12
f 3/60/12 4/62/12 1/58/12
f 4/62/12 5/63/12 2/64/12
f 2/64/12 13/61/12 1/58/12
f 2/64/12 1/58/12 4/62/12
f 6/36/12 14/65/12 15/34/12
usemtl Material.013
f 16/37/20 8/66/20 1/38/20
