# Blender v2.79 (sub 0) OBJ File: 'Outpost01-WallPY.blend'
# www.blender.org
mtllib outpostFloor59posX-8_29305362701416posY14_286827087402344.mtl
o Cube.004_Cube.005_Material.004_Cube.004_Cube.005_Material.0.707_Cube.004_Cube.005_Material.004_Cube.004_Cube.005_Material.0.854
v -16.899738 9.466611 0.229382
v -13.601402 5.817838 0.229383
v -12.878326 5.942380 0.229384
v -12.855217 6.084996 0.229384
v -13.120998 10.629418 0.229384
v -13.441319 5.842346 1.186548
v -12.424789 8.957804 1.186548
v -16.066845 10.025510 1.186549
v -15.618916 10.209400 0.229383
v -16.999287 8.013157 0.229382
v -12.429623 8.717202 0.229384
v -16.995350 8.137683 1.186549
v -12.914768 5.933415 1.186548
v -12.445992 8.826656 1.186548
v -16.899090 9.543027 1.186548
v -12.997562 10.541414 1.186548
vt 0.642423 0.319668
vt 0.705748 0.213665
vt 0.723681 0.319668
vt 0.535954 0.369666
vt 0.641958 0.222113
vt 0.641958 0.383455
vt 0.065542 0.363902
vt 0.206277 0.000233
vt 0.318646 0.499797
vt 0.522265 0.714062
vt 0.814649 0.607397
vt 0.866945 0.714062
vt 0.736266 0.106766
vt 0.535954 0.213199
vt 0.549767 0.106768
vt 0.829234 0.820599
vt 0.846860 0.714527
vt 0.845234 0.820599
vt 0.550667 0.000233
vt 0.562344 0.106301
vt 0.535954 0.000233
vt 0.110996 0.582698
vt 0.178482 0.500262
vt 0.333820 0.514630
vt 0.535685 0.606930
vt 0.990811 0.500262
vt 0.983696 0.606922
vt 0.589083 0.490172
vt 0.699928 0.383920
vt 0.695620 0.490173
vt 0.646569 0.213665
vt 0.535954 0.213665
vt 0.000233 0.091092
vt 0.500324 0.027337
vt 0.535489 0.107759
vt 0.516256 0.028811
vt 0.157304 0.499797
vt 0.534130 0.607396
vt 0.761142 0.213199
vt 0.522265 0.714527
vt 0.857637 0.106301
vt 0.521799 0.943816
vt 0.177922 0.999767
vt 0.502517 0.999766
vt 0.163209 0.999762
vt 0.000233 0.909097
vt 0.522265 0.500262
vt 0.535954 0.383920
vn 0.1697 -0.9855 -0.0032
vn -0.9977 0.0683 -0.0048
vn 0.0000 0.0000 -1.0000
vn -0.1647 0.9801 0.1112
vn 0.9366 0.3388 -0.0896
vn 0.9865 -0.1598 0.0361
vn 0.9866 -0.1595 0.0351
vn -0.0000 0.0000 1.0000
vn -0.5393 -0.8348 0.1108
vn -0.5004 0.8631 -0.0686
vn 0.1704 -0.9854 -0.0027
vn -0.1648 0.9800 0.1114
vn 0.9366 0.3386 -0.0899
vn -0.5391 -0.8348 0.1115
vn -0.5005 0.8630 -0.0684
usemtl Material.013
s off
f 3/1/1 6/2/1 2/3/1
f 12/4/2 1/5/2 10/6/2
usemtl Material.002
f 9/7/3 11/8/3 10/9/3
usemtl Material.013
f 16/10/4 9/11/4 8/12/4
f 7/13/5 5/14/5 16/15/5
f 4/16/6 13/17/6 3/18/6
f 14/19/7 11/20/7 7/21/7
usemtl Material.002
f 8/22/8 15/23/8 12/24/8
usemtl Material.013
f 2/25/9 12/26/9 10/27/9
f 8/28/10 1/29/10 15/30/10
f 3/1/11 13/31/11 6/2/11
f 12/4/2 15/32/2 1/5/2
usemtl Material.002
f 9/7/3 5/33/3 11/8/3
f 11/8/3 4/34/3 2/35/3
f 4/34/3 3/36/3 2/35/3
f 2/35/3 10/9/3 11/8/3
f 10/9/3 1/37/3 9/7/3
usemtl Material.013
f 16/10/12 5/38/12 9/11/12
f 7/13/13 11/39/13 5/14/13
f 4/16/6 14/40/6 13/17/6
f 14/19/7 4/41/7 11/20/7
usemtl Material.002
f 12/24/8 6/42/8 14/43/8
f 6/42/8 13/44/8 14/43/8
f 12/24/8 14/43/8 8/22/8
f 14/43/8 7/45/8 16/46/8
f 16/46/8 8/22/8 14/43/8
usemtl Material.013
f 2/25/14 6/47/14 12/26/14
f 8/28/15 9/48/15 1/29/15
