# Blender v2.79 (sub 0) OBJ File: 'Outpost01-WallPY.blend'
# www.blender.org
mtllib outpostFloor79posX-15_457808494567871posY0_39525794982910156.mtl
o Cube.004_Cube.005_Material.004_Cube.004_Cube.005_Material.0.687_Cube.004_Cube.005_Material.004_Cube.004_Cube.005_Material.0.834
v 1.831581 16.394468 1.186552
v -1.837782 13.875599 1.186552
v -0.754011 17.992476 1.186552
v 1.908489 16.387003 0.229388
v -0.620705 17.949978 0.229388
v 1.199369 12.998240 1.186552
v -2.586067 16.018839 1.186552
v 1.292015 13.077293 0.229388
v -1.859022 13.986652 0.229387
v -2.526430 15.897533 0.229387
vt 0.849625 0.711372
vt 0.482575 0.601396
vt 0.843776 0.601406
vt 0.269955 0.490880
vt 0.144099 0.000200
vt 0.403472 0.000200
vt 0.490240 0.711774
vt 0.734282 0.821151
vt 0.474909 0.821151
vt 0.722329 0.347487
vt 0.612899 0.015709
vt 0.722329 0.000200
vt 0.722730 0.007006
vt 0.833044 0.320205
vt 0.722735 0.314684
vt 0.091652 0.528459
vt 0.474508 0.865997
vt 0.285883 0.999800
vt 0.475679 0.491281
vt 0.859566 0.600995
vt 0.474909 0.600995
vt 0.474909 0.711372
vt 0.612497 0.294776
vt 0.000200 0.272155
vt 0.721503 0.711773
vt 0.612898 0.355411
vt 0.833044 0.000200
vt 0.000200 0.855619
vt 0.474508 0.491281
vt 0.870384 0.491284
vn -0.2760 -0.9554 -0.1047
vn -0.0000 -0.0000 1.0000
vn -0.9440 -0.3296 -0.0170
vn 0.5254 0.8501 0.0354
vn -0.7266 0.6745 -0.1308
vn 0.0000 -0.0000 -1.0000
vn 0.9799 -0.1825 0.0802
vn -0.2757 -0.9554 -0.1056
vn -0.9439 -0.3297 -0.0173
vn 0.5254 0.8501 0.0356
vn -0.7265 0.6746 -0.1311
vn 0.9800 -0.1824 0.0798
usemtl Material.012
s off
f 9/1/1 6/2/1 2/3/1
f 1/4/2 7/5/2 2/6/2
f 10/7/3 2/8/3 7/9/3
f 1/10/4 5/11/4 3/12/4
f 3/13/5 10/14/5 7/15/5
f 4/16/6 9/17/6 10/18/6
f 1/19/7 8/20/7 4/21/7
f 9/1/8 8/22/8 6/2/8
f 2/6/2 6/23/2 1/4/2
f 1/4/2 3/24/2 7/5/2
f 10/7/9 9/25/9 2/8/9
f 1/10/10 4/26/10 5/11/10
f 3/13/11 5/27/11 10/14/11
f 10/18/6 5/28/6 4/16/6
f 4/16/6 8/29/6 9/17/6
f 1/19/12 6/30/12 8/20/12
