# Blender v2.79 (sub 0) OBJ File: 'Outpost01-WallPY.blend'
# www.blender.org
mtllib outpostFloor85posX-2_5858516693115234posY15_344558715820312.mtl
o Cube.004_Cube.005_Material.004_Cube.004_Cube.005_Material.0.681_Cube.004_Cube.005_Material.004_Cube.004_Cube.005_Material.0.828
v -14.190456 1.760873 0.536565
v -17.499203 1.748693 0.536565
v -14.183659 1.746650 0.229386
v -17.690151 1.746650 0.229385
v -14.537590 3.976954 0.229386
v -14.395763 2.997341 1.150718
v -15.231571 3.070886 1.186552
v -14.491077 3.594639 1.186552
v -16.818157 2.144947 0.734112
v -14.407974 3.070886 1.186552
vt 0.000203 0.937810
vt 0.199257 0.751795
vt 0.450823 0.937810
vt 0.000203 0.746383
vt 0.040405 0.469772
vt 0.207728 0.452837
vt 0.693732 0.110261
vt 0.000203 0.452431
vt 0.000203 0.000203
vt 0.451230 0.851670
vt 0.467908 0.746789
vt 0.616162 0.851727
vt 0.000203 0.999797
vt 0.664168 0.938279
vt 0.702408 0.999797
vt 0.897486 0.000203
vt 0.897486 0.773550
vt 0.790280 0.584930
vt 0.077005 0.746789
vt 0.182826 0.746789
vt 0.448327 0.876481
vt 0.042796 0.453381
vt 0.526138 0.658165
vt 0.662815 0.746383
vt 0.001560 0.938216
vt 0.832240 0.742098
vt 0.694146 0.218454
vt 0.694139 0.036818
vn 0.9875 0.1567 0.0146
vn -0.0008 -0.4449 0.8956
vn 0.0000 -0.0000 -1.0000
vn 0.0000 0.0000 1.0000
vn -0.0000 -1.0000 0.0067
vn -0.5445 0.7697 0.3334
vn 0.9875 0.1567 0.0149
vn 0.0000 -0.4380 0.8990
vn 0.0027 -0.4427 0.8966
vn 0.0017 -0.4484 0.8938
vn 0.0037 -0.9989 0.0463
vn -0.5443 0.7696 0.3338
usemtl Material.013
s off
f 5/1/1 6/2/1 3/3/1
usemtl Material.002
f 1/4/2 6/5/2 7/6/2
f 4/7/3 5/8/3 3/9/3
f 10/10/4 8/11/4 7/12/4
f 3/13/5 2/14/5 4/15/5
usemtl Material.013
f 5/16/6 4/17/6 9/18/6
f 5/1/1 8/19/1 6/2/1
f 8/19/7 10/20/7 6/2/7
f 6/2/1 1/21/1 3/3/1
usemtl Material.002
f 10/22/8 7/6/8 6/5/8
f 7/6/9 9/23/9 1/4/9
f 9/23/10 2/24/10 1/4/10
f 3/13/11 1/25/11 2/14/11
usemtl Material.013
f 2/26/6 9/18/6 4/17/6
f 9/18/12 7/27/12 5/16/12
f 7/27/12 8/28/12 5/16/12
