# Blender v2.79 (sub 0) OBJ File: 'Outpost01-WallPY.blend'
# www.blender.org
mtllib outpostFloor64posX-9_78273868560791posY-19_767166137695312.mtl
o Cube.004_Cube.005_Material.004_Cube.004_Cube.005_Material.0.702_Cube.004_Cube.005_Material.004_Cube.004_Cube.005_Material.0.849
v 18.381813 9.416793 0.229390
v 19.426846 10.760713 0.229389
v 19.498314 10.814176 0.229389
v 20.718239 11.648295 1.186558
v 19.259033 10.556766 1.186558
v 20.718212 6.261531 0.229389
v 20.675571 6.319065 0.229389
v 19.405849 10.733748 0.229389
v 20.718212 11.725509 0.229389
v 20.718239 7.334867 1.186558
v 18.897499 9.791545 1.186557
v 18.783325 9.945741 1.186557
v 18.834297 10.011294 1.186557
v 20.704865 11.638305 1.186558
vt 0.258915 0.340145
vt 0.597445 0.591043
vt 0.152610 0.388245
vt 0.827538 0.658004
vt 0.758459 0.775752
vt 0.758459 0.591524
vt 0.848323 0.457080
vt 0.800369 0.324056
vt 0.812747 0.324056
vt 0.609128 0.591524
vt 0.000241 0.724263
vt 0.010949 0.591525
vt 0.557304 0.878259
vt 0.406518 0.999759
vt 0.000241 0.878259
vt 0.070634 0.724745
vt 0.025735 0.877777
vt 0.000241 0.870159
vt 0.725673 0.590305
vt 0.829275 0.457562
vt 0.737189 0.590305
vt 0.741375 0.013177
vt 0.134484 0.181459
vt 0.121569 0.170145
vt 0.749829 0.008961
vt 0.882840 0.000241
vt 0.882840 0.211402
vt 0.003055 0.591043
vt 0.000241 0.585094
vt 0.228766 0.330934
vt 0.237918 0.324056
vt 0.761873 0.779038
vt 0.597927 0.457080
vt 0.757977 0.724263
vt 0.566819 0.881104
vt 0.582798 0.877777
vt 0.597927 0.457562
vt 0.000241 0.000241
vt 0.749346 0.000241
vt 0.313687 0.323575
vt 0.130343 0.179054
vt 0.749828 0.006632
vn -0.0000 -0.0000 1.0000
vn -0.7890 0.6144 -0.0074
vn -0.5977 0.7990 0.0655
vn 1.0000 0.0000 -0.0000
vn -0.6681 -0.4952 0.5553
vn -0.6689 -0.4953 0.5543
vn -0.7894 0.6138 -0.0081
vn -0.0000 -0.0000 -1.0000
vn -0.5972 0.7995 0.0645
vn -0.7889 0.6144 -0.0074
vn -0.6682 -0.4952 0.5553
usemtl Material.002
s off
f 11/1/1 10/2/1 5/3/1
usemtl Material.013
f 5/4/2 8/5/2 13/6/2
f 5/7/3 3/8/3 2/9/3
usemtl Material.002
f 10/10/4 9/11/4 4/12/4
usemtl Material.013
f 7/13/5 10/14/5 11/15/5
f 1/16/6 11/17/6 12/18/6
f 13/19/7 1/20/7 12/21/7
usemtl Material.002
f 7/22/8 8/23/8 3/24/8
usemtl Material.013
f 14/25/9 9/26/9 3/27/9
usemtl Material.002
f 10/2/1 4/28/1 14/29/1
f 14/29/1 5/3/1 10/2/1
f 5/3/1 13/30/1 11/1/1
f 13/30/1 12/31/1 11/1/1
usemtl Material.013
f 5/4/10 2/32/10 8/5/10
f 5/7/3 14/33/3 3/8/3
usemtl Material.002
f 10/10/4 6/34/4 9/11/4
usemtl Material.013
f 7/13/11 6/35/11 10/14/11
f 1/16/6 7/36/6 11/17/6
f 13/19/7 8/37/7 1/20/7
usemtl Material.002
f 9/38/8 6/39/8 7/22/8
f 7/22/8 1/40/8 8/23/8
f 8/23/8 2/41/8 3/24/8
f 3/24/8 9/38/8 7/22/8
usemtl Material.013
f 14/25/9 4/42/9 9/26/9
