# Blender v2.79 (sub 0) OBJ File: 'Outpost01-WallPY.blend'
# www.blender.org
mtllib outpostFloor1posX-6_407010078430176posY6_615571975708008.mtl
o Cube.004_Cube.005_Material.004_Cube.004_Cube.005_Material.0.765_Cube.004_Cube.005_Material.004_Cube.004_Cube.005_Material.0.912
v -6.942106 4.586124 0.229388
v -4.835323 6.311777 0.229388
v -6.921261 4.411092 1.186553
v -4.699974 6.241749 1.186554
v -4.872252 6.940451 1.186554
v -4.890688 6.535316 0.229388
v -8.406948 7.658875 0.229388
v -4.882162 6.500740 0.229388
v -8.959923 6.649444 0.229388
v -9.070105 6.608581 1.186552
v -8.290522 8.032974 1.186553
vt 0.408781 0.000201
vt 0.346990 0.513961
vt 0.000201 0.251321
vt 0.520216 0.652567
vt 0.999403 0.514363
vt 0.999799 0.652580
vt 0.737007 0.257771
vt 0.781201 0.128937
vt 0.741766 0.257771
vt 0.709906 0.385288
vt 0.685030 0.392907
vt 0.685030 0.258173
vt 0.878032 0.782424
vt 0.506084 0.652982
vt 0.890759 0.652982
vt 0.902031 0.128535
vt 0.736356 0.000201
vt 0.890171 0.000206
vt 0.021435 0.874521
vt 0.000201 0.852243
vt 0.136718 0.514363
vt 0.555908 0.018873
vt 0.684627 0.410945
vt 0.555910 0.404555
vt 0.555506 0.160080
vt 0.000201 0.347492
vt 0.506084 0.514363
vt 0.685030 0.128937
vt 0.514089 0.782261
vt 0.685030 0.128535
vt 0.505682 0.626636
vt 0.505682 0.780446
vt 0.000593 0.851876
vt 0.684627 0.000201
vn -0.0000 0.0000 1.0000
vn 0.2818 0.8815 -0.3788
vn 0.9640 0.2377 -0.1192
vn 0.9638 0.2389 -0.1188
vn 0.6285 -0.7626 -0.1531
vn -0.8742 0.4789 -0.0802
vn 0.0000 -0.0000 -1.0000
vn -0.7105 -0.6948 -0.1114
vn 0.2817 0.8816 -0.3786
vn 0.6270 -0.7655 -0.1447
vn -0.8744 0.4785 -0.0807
vn -0.7105 -0.6948 -0.1116
usemtl Material.002
s off
f 11/1/1 3/2/1 5/3/1
usemtl Material.013
f 5/4/2 7/5/2 11/6/2
f 6/7/3 4/8/3 8/9/3
f 2/10/4 8/11/4 4/12/4
f 1/13/5 4/14/5 3/15/5
f 10/16/6 7/17/6 9/18/6
usemtl Material.002
f 6/19/7 8/20/7 1/21/7
usemtl Material.013
f 1/22/8 10/23/8 9/24/8
usemtl Material.002
f 10/25/1 3/2/1 11/1/1
f 3/2/1 4/26/1 5/3/1
usemtl Material.013
f 5/4/9 6/27/9 7/5/9
f 6/7/3 5/28/3 4/8/3
f 1/13/10 2/29/10 4/14/10
f 10/16/11 11/30/11 7/17/11
usemtl Material.002
f 9/31/7 7/32/7 1/21/7
f 7/32/7 6/19/7 1/21/7
f 8/20/7 2/33/7 1/21/7
usemtl Material.013
f 1/22/12 3/34/12 10/23/12
