# Blender v2.79 (sub 0) OBJ File: 'Outpost01-WallPY.blend'
# www.blender.org
mtllib outpostFloor89posX-2_7602977752685547posY-1_873250961303711.mtl
o Cube.004_Cube.005_Material.004_Cube.004_Cube.005_Material.0.677_Cube.004_Cube.005_Material.004_Cube.004_Cube.005_Material.0.824
v 0.665480 2.988970 0.663973
v 1.869249 3.940258 1.186553
v 0.530048 2.757047 0.536568
v 2.715937 4.758888 1.186553
v 1.468737 0.929908 0.534154
v 0.086992 1.761351 0.532980
v 2.773954 1.746647 0.229389
v 3.916733 2.468216 0.229389
v 0.026829 1.800305 0.229388
v 0.242395 2.111128 0.534240
v 0.002907 1.746349 0.229388
v 3.796637 2.757050 0.536570
v 3.880680 2.452956 0.535473
v 3.384520 3.940257 1.186553
v 3.206972 4.583500 1.186553
v 2.785456 1.761351 0.532980
v 0.071093 1.725461 0.533031
v 0.609730 3.111893 0.229388
v 2.548538 4.987182 0.229389
v 3.295315 4.720508 0.229389
v 1.460033 0.917024 0.230286
vt 0.483876 0.908330
vt 0.596221 0.763773
vt 0.782671 0.857578
vt 0.656541 0.180102
vt 0.804029 0.000282
vt 0.804007 0.399139
vt 0.399304 0.840740
vt 0.194985 0.963686
vt 0.000282 0.840740
vt 0.483876 0.763210
vt 0.678179 0.640554
vt 0.893632 0.763210
vt 0.621526 0.577479
vt 0.582054 0.596819
vt 0.568792 0.530849
vt 0.000282 0.303555
vt 0.165779 0.000282
vt 0.361421 0.041071
vt 0.793419 0.491825
vt 0.936888 0.409234
vt 0.936888 0.526490
vt 0.463287 0.801048
vt 0.483313 0.840177
vt 0.000282 0.840177
vt 0.183624 0.639990
vt 0.000282 0.584559
vt 0.000282 0.537906
vt 0.681127 0.909262
vt 0.911399 0.909088
vt 0.683726 0.954164
vt 0.568792 0.530285
vt 0.667655 0.409234
vt 0.792855 0.530285
vt 0.838161 0.577121
vt 0.835239 0.531087
vt 0.843963 0.530849
vt 0.721682 0.954765
vt 0.484076 0.999718
vt 0.483876 0.954727
vt 0.829319 0.856967
vt 0.829319 0.902596
vt 0.497562 0.765409
vt 0.737052 0.405847
vt 0.656541 0.005951
vt 0.401655 0.846047
vt 0.781027 0.530849
vt 0.726081 0.577125
vt 0.655978 0.325916
vt 0.647888 0.329191
vt 0.451096 0.408671
vt 0.052239 0.408671
vt 0.793418 0.414723
vt 0.061221 0.640554
vt 0.285285 0.640554
vt 0.465859 0.409234
vt 0.532301 0.489965
vt 0.568228 0.533696
vt 0.913504 0.954031
vt 0.483876 0.954164
vt 0.489589 0.908893
vt 0.595046 0.435169
vt 0.843963 0.576970
vt 0.781590 0.578862
vt 0.731996 0.999718
vn 0.9563 0.2639 0.1260
vn -0.6672 0.6898 0.2810
vn -0.0000 0.0014 1.0000
vn 0.0000 -0.0011 -1.0000
vn -0.8902 0.3956 0.2261
vn 0.0000 0.0000 -1.0000
vn 0.3318 0.9291 0.1636
vn -0.5884 0.1072 0.8014
vn -0.6374 0.1765 0.7500
vn 0.7105 0.0688 0.7003
vn 0.0000 -0.0036 1.0000
vn 0.5338 -0.8453 0.0207
vn -0.0000 -0.0000 1.0000
vn -0.8903 0.3947 0.2271
vn -0.4941 -0.8679 0.0510
vn 0.9563 0.2638 0.1258
vn 0.9563 0.2639 0.1258
vn -0.6672 0.6900 0.2808
vn -0.6670 0.6899 0.2812
vn 0.3318 0.9290 0.1636
vn 0.6128 -0.0475 0.7888
vn -0.4462 0.1843 0.8758
vn 0.5338 -0.8454 0.0206
vn 0.5338 -0.8454 0.0207
vn -0.4940 -0.8679 0.0512
usemtl Material.013
s off
f 20/1/1 14/2/1 12/3/1
f 2/4/2 19/5/2 18/6/2
usemtl Material.010
f 6/7/3 5/8/3 16/9/3
f 7/10/4 21/11/4 11/12/4
usemtl Material.013
f 3/13/5 1/14/5 18/15/5
usemtl Material.002
f 20/16/6 8/17/6 7/18/6
usemtl Material.013
f 4/19/7 20/20/7 19/21/7
usemtl Material.001
s 8
f 1/22/8 3/23/9 12/24/10
usemtl Material.010
s off
f 16/25/11 13/26/11 12/27/11
usemtl Material.013
f 16/28/12 5/29/12 7/30/12
usemtl Material.002
f 14/31/13 4/32/13 2/33/13
usemtl Material.013
f 6/34/14 9/35/14 11/36/14
f 17/37/15 21/38/15 5/39/15
f 13/40/16 8/41/16 12/3/16
f 8/41/17 20/1/17 12/3/17
f 20/1/1 15/42/1 14/2/1
f 18/6/18 1/43/18 2/4/18
f 2/4/19 4/44/19 19/5/19
usemtl Material.010
f 6/7/3 17/45/3 5/8/3
usemtl Material.013
f 9/46/5 10/47/5 18/15/5
f 10/47/5 3/13/5 18/15/5
usemtl Material.002
f 7/18/6 11/48/6 9/49/6
f 9/49/6 18/50/6 7/18/6
f 18/50/6 19/51/6 7/18/6
f 7/18/6 19/51/6 20/16/6
usemtl Material.013
f 4/19/20 15/52/20 20/20/20
usemtl Material.001
s 8
f 14/53/21 2/54/22 12/24/10
f 2/54/22 1/22/8 12/24/10
usemtl Material.010
s off
f 12/27/11 3/55/11 16/25/11
f 3/55/11 10/56/11 16/25/11
f 10/56/11 6/57/11 16/25/11
usemtl Material.013
f 21/58/23 7/30/23 5/29/23
f 7/30/24 8/59/24 13/60/24
f 16/28/24 7/30/24 13/60/24
usemtl Material.002
f 14/31/13 15/61/13 4/32/13
usemtl Material.013
f 11/36/14 17/62/14 6/34/14
f 6/34/14 10/63/14 9/35/14
f 17/37/25 11/64/25 21/38/25
