# Blender v2.79 (sub 0) OBJ File: 'Outpost01-WallPY.blend'
# www.blender.org
mtllib outpostFloor44posX-22_01568603515625posY-6_453605651855469.mtl
o Cube.004_Cube.005_Material.004_Cube.004_Cube.005_Material.0.722_Cube.004_Cube.005_Material.004_Cube.004_Cube.005_Material.0.869
v 8.757582 22.614559 0.230827
v 5.757195 21.008545 0.229388
v 5.481609 21.271034 0.532980
v 7.370863 21.271034 0.532980
v 7.256725 21.158859 0.533384
v 7.405918 21.285740 0.229388
v 6.426468 24.195595 0.232537
v 5.547598 22.766739 0.535092
v 6.395376 24.159946 0.535091
v 8.449423 22.766739 0.535092
v 5.418156 21.285740 0.229388
v 7.240036 21.122673 0.229388
v 5.383814 22.497566 0.534712
v 4.918192 21.731762 0.533630
v 8.711472 22.589016 0.534841
v 5.759722 21.043751 0.533799
v 4.975576 21.811127 0.229956
v 4.909182 21.701931 0.229838
vt 0.077633 0.848371
vt 0.000241 0.791255
vt 0.519748 0.793708
vt 0.751687 0.719617
vt 0.695667 0.715893
vt 0.695818 0.650091
vt 0.521252 0.842038
vt 0.823304 0.791255
vt 0.885418 0.842038
vt 0.549145 0.355565
vt 0.820674 0.299524
vt 0.821611 0.355659
vt 0.511600 0.848856
vt 0.365238 0.904573
vt 0.307511 0.904589
vt 0.840774 0.397781
vt 0.545607 0.356141
vt 0.891725 0.356141
vt 0.699077 0.456635
vt 0.702215 0.398263
vt 0.724096 0.406593
vt 0.000241 0.516271
vt 0.000241 0.000241
vt 0.340715 0.068534
vt 0.545607 0.022669
vt 0.999759 0.000241
vt 0.999759 0.299024
vt 0.609881 0.566067
vt 0.695185 0.706365
vt 0.591964 0.790772
vt 0.865766 0.848951
vt 0.859337 0.904635
vt 0.521348 0.848856
vt 0.520769 0.848373
vt 0.004401 0.848012
vt 0.695698 0.516753
vt 0.751687 0.639386
vt 0.751604 0.518934
vt 0.551642 0.812164
vt 0.545607 0.299507
vt 0.008730 0.904312
vt 0.000241 0.848856
vt 0.566518 0.376692
vt 0.545607 0.398263
vt 0.545124 0.369919
vt 0.534361 0.489889
vt 0.510977 0.491051
vt 0.245846 0.790772
vt 0.000241 0.549313
vt 0.048249 0.516753
vt 0.579875 0.516753
vt 0.895085 0.848856
vt 0.901952 0.904604
vt 0.512083 0.904619
vn 0.5548 0.8178 0.1528
vn -0.6301 -0.7707 0.0944
vn 0.0000 -0.0000 -1.0000
vn 0.0762 -0.9906 0.1139
vn -0.8540 0.5197 -0.0266
vn -0.0000 0.0036 1.0000
vn -0.8542 0.5194 -0.0257
vn 0.0000 0.0011 -1.0000
vn -0.0000 0.0000 1.0000
vn -0.0000 -0.0014 1.0000
vn 0.7003 -0.7124 0.0464
vn 0.5547 0.8178 0.1534
vn 0.5548 0.8178 0.1529
vn 0.0762 -0.9906 0.1137
vn -0.8540 0.5196 -0.0265
usemtl Material.013
s off
f 10/1/1 1/2/1 7/3/1
f 2/4/2 16/5/2 3/6/2
usemtl Material.002
f 6/7/3 2/8/3 11/9/3
usemtl Material.013
f 12/10/4 16/11/4 2/12/4
f 17/13/5 13/14/5 8/15/5
usemtl Material.010
f 16/16/6 4/17/6 3/18/6
usemtl Material.013
f 14/19/7 17/20/7 18/21/7
usemtl Material.010
f 7/22/8 1/23/8 6/24/8
f 10/25/9 9/26/9 8/27/9
f 13/28/10 14/29/10 3/30/10
usemtl Material.013
f 4/31/11 6/32/11 15/33/11
f 7/3/12 9/34/12 10/1/12
f 10/1/13 15/35/13 1/2/13
f 3/6/2 14/36/2 11/37/2
f 14/36/2 18/38/2 11/37/2
f 11/37/2 2/4/2 3/6/2
usemtl Material.002
f 6/7/3 12/39/3 2/8/3
usemtl Material.013
f 12/10/14 5/40/14 16/11/14
f 9/41/15 7/42/15 8/15/15
f 7/42/15 17/13/15 8/15/15
usemtl Material.010
f 16/16/6 5/43/6 4/17/6
usemtl Material.013
f 14/19/7 13/44/7 17/20/7
usemtl Material.010
f 6/24/8 11/45/8 7/22/8
f 11/45/8 18/46/8 17/47/8
f 17/47/8 7/22/8 11/45/8
f 3/30/10 4/48/10 13/28/10
f 4/48/10 15/49/10 10/50/10
f 8/51/10 4/48/10 10/50/10
f 8/51/10 13/28/10 4/48/10
usemtl Material.013
f 4/31/11 5/52/11 6/32/11
f 5/52/11 12/53/11 6/32/11
f 6/32/11 1/54/11 15/33/11
