# Blender v2.79 (sub 0) OBJ File: 'Outpost01-WallPY.blend'
# www.blender.org
mtllib outpostFloor97posX-20_539098739624023posY6_445884704589844.mtl
o Cube.004_Cube.005_Material.004_Cube.004_Cube.005_Material.0.669_Cube.004_Cube.005_Material.004_Cube.004_Cube.005_Material.0.816
v -6.269981 20.275335 0.536570
v -5.285919 20.275335 0.536570
v -8.347908 20.820551 0.534603
v -5.197441 21.271036 0.532979
v -4.401701 21.176725 0.533319
v -5.638388 21.285742 0.229388
v -8.757853 21.655703 0.229788
v -8.579107 21.285742 0.229387
v -7.581417 19.220911 0.229387
v -4.055794 20.938429 0.229388
v -4.286476 21.106150 0.229388
v -7.487516 19.068277 1.186553
v -6.430452 19.646147 0.882209
v -7.906628 19.924807 0.936788
v -6.965525 19.337763 1.112875
v -4.014130 20.895369 0.534333
v -8.565588 21.271036 0.532979
v -4.175098 21.012423 0.533911
v -8.770300 21.694780 0.533577
v -4.318270 21.129202 0.229388
v -7.618254 19.338869 1.186552
v -7.155790 19.229830 1.186553
vt 0.203228 0.831639
vt 0.037323 0.831639
vt 0.000243 0.741588
vt 0.585526 0.198365
vt 0.625790 0.169510
vt 0.633792 0.210876
vt 0.579881 0.252709
vt 0.624848 0.232904
vt 0.624836 0.238705
vt 0.020141 0.039227
vt 0.000243 0.002104
vt 0.188367 0.149967
vt 0.569735 0.638833
vt 0.211475 0.524991
vt 0.410438 0.509299
vt 0.659060 0.134066
vt 0.579881 0.077970
vt 0.745786 0.077970
vt 0.057496 0.353322
vt 0.175046 0.339390
vt 0.188116 0.486480
vt 0.768211 0.887187
vt 0.800869 0.938349
vt 0.336820 0.938349
vt 0.779462 0.077485
vt 0.579881 0.077485
vt 0.703031 0.000243
vt 0.396975 0.684186
vt 0.479006 0.718722
vt 0.405716 0.728273
vt 0.336820 0.782370
vt 0.868316 0.782370
vt 0.830914 0.840970
vt 0.650071 0.134551
vt 0.622100 0.169025
vt 0.579881 0.134551
vt 0.533199 0.841455
vt 0.999757 0.886702
vt 0.468261 0.886644
vt 0.036968 0.639318
vt 0.336335 0.744627
vt 0.579881 0.169510
vt 0.579881 0.211361
vt 0.579396 0.338905
vt 0.579396 0.000243
vt 0.023555 0.045576
vt 0.000243 0.532518
vt 0.005952 0.486965
vt 0.539998 0.486965
vt 0.593578 0.496969
vt 0.506263 0.491930
vt 0.593393 0.109277
vt 0.672601 0.339390
vt 0.333486 0.486480
vt 0.640445 0.405938
vt 0.000243 0.394886
vt 0.024022 0.377594
vt 0.336820 0.737568
vt 0.336820 0.692284
vt 0.732755 0.639318
vt 0.777590 0.776005
vt 0.733588 0.781885
vt 0.633081 0.758084
vt 0.349889 0.886702
vt 0.336820 0.841467
vt 0.997249 0.841487
vn -0.6537 0.0145 0.7566
vn 0.5467 -0.4379 0.7136
vn 0.5397 -0.4465 0.7137
vn 0.5877 0.8084 0.0338
vn 0.5866 0.8091 0.0345
vn 0.0000 0.0000 -1.0000
vn 0.4305 -0.8838 -0.1833
vn -0.6132 -0.0685 0.7869
vn 0.0000 0.0036 1.0000
vn 0.0000 0.0011 -1.0000
vn 0.3650 -0.6796 0.6363
vn 0.0308 0.2622 0.9645
vn -0.9003 -0.4349 0.0190
vn -0.0000 -0.0014 1.0000
vn -0.0000 0.0000 1.0000
vn 0.1169 0.9856 -0.1220
vn -0.6754 -0.2441 0.6959
vn 0.5877 0.8083 0.0338
vn 0.4305 -0.8837 -0.1836
vn 0.4304 -0.8838 -0.1832
vn 0.4723 -0.4805 0.7389
vn -0.9003 -0.4349 0.0191
vn -0.9002 -0.4350 0.0190
vn -0.9003 -0.4350 0.0190
usemtl Material.001
s 1
f 14/1/1 15/2/2 13/3/3
usemtl Material.013
s off
f 18/4/4 10/5/4 11/6/4
f 5/7/5 11/8/5 20/9/5
usemtl Material.002
f 11/10/6 10/11/6 6/12/6
usemtl Material.013
f 9/13/7 2/14/7 13/15/7
usemtl Material.001
s 1
f 21/16/8 15/17/2 14/18/1
usemtl Material.010
s off
f 5/19/9 4/20/9 2/21/9
f 8/22/10 7/23/10 6/24/10
usemtl Material.001
s 1
f 13/25/3 2/26/11 1/27/12
usemtl Material.013
s off
f 8/28/13 3/29/13 17/30/13
usemtl Material.010
f 4/31/14 19/32/14 17/33/14
usemtl Material.002
f 21/34/15 12/35/15 22/36/15
usemtl Material.013
f 6/37/16 19/38/16 4/39/16
usemtl Material.001
s 1
f 13/3/3 1/40/12 14/1/1
f 1/40/12 3/41/17 14/1/1
usemtl Material.013
s off
f 18/4/18 16/42/18 10/5/18
f 5/7/5 18/43/5 11/8/5
usemtl Material.002
f 8/44/6 6/12/6 9/45/6
f 6/12/6 20/46/6 11/10/6
f 9/45/6 6/12/6 10/11/6
usemtl Material.013
f 9/13/19 10/47/19 2/14/19
f 10/47/19 16/48/19 2/14/19
f 22/49/20 12/50/20 9/13/20
f 13/15/20 15/51/20 9/13/20
f 15/51/20 22/49/20 9/13/20
usemtl Material.001
s 1
f 21/16/8 22/52/21 15/17/2
usemtl Material.010
s off
f 4/20/9 17/53/9 1/54/9
f 17/53/9 3/55/9 1/54/9
f 1/54/9 2/21/9 4/20/9
f 2/21/9 16/56/9 18/57/9
f 18/57/9 5/19/9 2/21/9
usemtl Material.013
f 19/58/22 7/59/22 17/30/22
f 7/59/23 8/28/23 17/30/23
f 8/28/23 9/60/23 3/29/23
f 9/60/24 12/61/24 21/62/24
f 3/29/23 9/60/23 14/63/23
f 21/62/23 14/63/23 9/60/23
f 5/64/16 20/65/16 4/39/16
f 20/65/16 6/37/16 4/39/16
f 6/37/16 7/66/16 19/38/16
