# Blender v2.79 (sub 0) OBJ File: 'Outpost01-WallPY.blend'
# www.blender.org
mtllib outpostFloor26posX-15_313133239746094posY-3_1174488067626953.mtl
o Cube.004_Cube.005_Material.004_Cube.004_Cube.005_Material.0.740_Cube.004_Cube.005_Material.004_Cube.004_Cube.005_Material.0.887
v 1.200775 12.997230 1.186551
v 6.372162 13.563753 1.186553
v 1.834106 16.394211 1.186551
v 3.074152 17.581615 1.186552
v 5.829971 16.030033 0.229387
v 1.910341 16.386560 0.229387
v 3.056833 17.486034 0.229387
v 1.698849 12.401486 1.186551
v 1.230104 13.154819 1.186551
v 5.884990 16.298275 1.186553
v 3.484747 17.591923 1.186552
v 6.255937 13.639440 0.229387
v 1.757494 12.521114 0.229387
v 1.294176 13.076116 0.229387
v 1.880247 16.225157 0.229387
v 3.105711 17.487495 0.229387
v 3.126064 17.488007 0.229387
vt 0.540903 0.281961
vt 0.632076 0.350218
vt 0.540897 0.350276
vt 0.004174 0.599670
vt 0.004265 0.599740
vt 0.010543 0.754624
vt 0.584757 0.441519
vt 0.580138 0.441616
vt 0.580137 0.350707
vt 0.482324 0.582844
vt 0.928434 0.491892
vt 0.920328 0.582848
vt 0.500528 0.674400
vt 0.488227 0.583279
vt 0.798268 0.583278
vt 0.540897 0.000215
vt 0.805999 0.093979
vt 0.548351 0.093992
vt 0.545579 0.441594
vt 0.540897 0.350707
vt 0.579707 0.350707
vt 0.564939 0.185371
vt 0.803356 0.094423
vt 0.794389 0.185371
vt 0.517327 0.199680
vt 0.540467 0.218796
vt 0.540467 0.292253
vt 0.776061 0.674830
vt 0.769857 0.765569
vt 0.473392 0.674830
vt 0.703128 0.276413
vt 0.548326 0.185808
vt 0.698425 0.185801
vt 0.632076 0.276843
vt 0.273759 0.491892
vt 0.020429 0.766582
vt 0.472962 0.605756
vt 0.281679 0.999785
vt 0.213364 0.999785
vt 0.000215 0.604882
vt 0.473392 0.491892
vt 0.473392 0.587819
vt 0.831170 0.000215
vt 0.543655 0.441594
vt 0.540897 0.094423
vt 0.130780 0.491462
vt 0.000215 0.263445
vt 0.282445 0.009376
vt 0.095918 0.023920
vt 0.125207 0.000215
vt 0.785004 0.765569
vt 0.540897 0.276413
vn -0.7615 -0.6357 -0.1267
vn 0.0000 0.0000 -1.0000
vn -0.0297 0.9947 -0.0988
vn 0.2399 -0.9650 -0.1059
vn -0.9799 0.1827 -0.0795
vn 0.4576 0.8490 -0.2642
vn -0.0250 0.9948 -0.0986
vn 0.9790 0.1744 -0.1051
vn -0.0000 0.0000 1.0000
vn -0.9799 0.1824 -0.0806
vn -0.6909 0.7204 -0.0608
vn -0.7611 -0.6363 -0.1262
vn 0.2400 -0.9650 -0.1055
vn 0.4578 0.8490 -0.2637
vn 0.9790 0.1744 -0.1052
vn -0.6904 0.7210 -0.0595
usemtl Material.013
s off
f 13/1/1 1/2/1 14/3/1
usemtl Material.002
f 16/4/2 17/5/2 6/6/2
usemtl Material.013
f 16/7/3 7/8/3 4/9/3
f 12/10/4 8/11/4 13/12/4
f 3/13/5 15/14/5 9/15/5
f 5/16/6 11/17/6 10/18/6
f 17/19/7 4/20/7 11/21/7
f 5/22/8 2/23/8 12/24/8
usemtl Material.002
f 9/25/9 1/26/9 8/27/9
usemtl Material.013
f 14/28/10 9/29/10 15/30/10
f 3/31/11 7/32/11 6/33/11
f 13/1/12 8/34/12 1/2/12
usemtl Material.002
f 17/5/2 5/35/2 15/36/2
f 5/35/2 12/37/2 15/36/2
f 12/37/2 13/38/2 15/36/2
f 13/38/2 14/39/2 15/36/2
f 15/36/2 6/6/2 17/5/2
f 6/6/2 7/40/2 16/4/2
usemtl Material.013
f 12/10/13 2/41/13 8/11/13
f 3/13/5 6/42/5 15/14/5
f 5/16/14 17/43/14 11/17/14
f 17/19/7 16/44/7 4/20/7
f 5/22/15 10/45/15 2/23/15
usemtl Material.002
f 8/27/9 2/46/9 9/25/9
f 2/46/9 10/47/9 3/48/9
f 9/25/9 2/46/9 3/48/9
f 10/47/9 11/49/9 3/48/9
f 11/49/9 4/50/9 3/48/9
usemtl Material.013
f 14/28/10 1/51/10 9/29/10
f 3/31/16 4/52/16 7/32/16
