# Blender v2.79 (sub 0) OBJ File: 'Outpost01-WallPY.blend'
# www.blender.org
mtllib outpostFloor45posX-4_912168502807617posY-7_49957275390625.mtl
o Cube.004_Cube.005_Material.004_Cube.004_Cube.005_Material.0.721_Cube.004_Cube.005_Material.004_Cube.004_Cube.005_Material.0.868
v 6.571751 3.940257 1.186556
v 5.494125 5.424585 0.480534
v 5.793381 3.940257 1.186556
v 6.453688 3.477341 0.932257
v 7.479015 2.619066 0.627761
v 10.577782 6.669146 0.229391
v 5.597626 4.194469 1.186556
v 5.351768 5.303475 1.186556
v 5.609104 4.179510 1.186556
v 6.536308 6.680851 1.186556
v 9.265532 7.271188 1.186555
v 10.725584 3.885897 1.186555
v 10.576420 6.704322 1.186555
v 6.517899 6.600066 0.229391
v 5.658218 5.600309 0.229391
v 7.769564 2.860118 0.229391
v 8.254843 2.890373 0.871638
v 9.355215 3.283995 1.186555
v 10.710766 4.152336 0.229391
v 5.674189 5.618980 0.229391
v 5.687075 5.562700 0.229391
v 9.330746 7.208471 0.229391
vt 0.614720 0.307317
vt 0.779707 0.307317
vt 0.666338 0.374512
vt 0.806618 0.401043
vt 0.644558 0.404118
vt 0.618623 0.375070
vt 0.848302 0.233413
vt 0.959409 0.389275
vt 0.848302 0.391040
vt 0.698677 0.930192
vt 0.584902 0.847893
vt 0.916684 0.847894
vt 0.669256 0.306759
vt 0.847744 0.223580
vt 0.826523 0.282674
vt 0.847744 0.430079
vt 0.832317 0.390633
vt 0.847744 0.307317
vt 0.582075 0.827549
vt 0.462340 0.918105
vt 0.581994 0.820851
vt 0.769407 0.620625
vt 0.904654 0.658386
vt 0.957611 0.735389
vt 0.773341 0.111884
vt 0.614720 0.223022
vt 0.623219 0.111884
vt 0.918785 0.735947
vt 0.590759 0.847335
vt 0.584902 0.735947
vt 0.827972 0.581681
vt 0.737693 0.620062
vt 0.584902 0.463317
vt 0.914171 0.131584
vt 0.826042 0.174672
vt 0.826042 0.111884
vt 0.582052 0.349656
vt 0.571358 0.364889
vt 0.481182 0.369662
vt 0.911202 0.111326
vt 0.614720 0.000279
vt 0.942161 0.000279
vt 0.804834 0.404117
vt 0.614720 0.378718
vt 0.959409 0.223580
vt 0.614720 0.223580
vt 0.845163 0.428868
vt 0.128458 0.918105
vt 0.000279 0.826363
vt 0.046928 0.537710
vt 0.412137 0.463317
vt 0.584344 0.825823
vt 0.999721 0.687628
vt 0.584902 0.735389
vt 0.595762 0.620620
vt 0.825484 0.223022
vt 0.914716 0.847335
vt 0.702668 0.619189
vt 0.980611 0.473126
vt 0.980611 0.536799
vt 0.162732 0.462759
vt 0.148674 0.000279
vt 0.000279 0.401429
vt 0.000279 0.073990
vt 0.468484 0.051937
vt 0.614162 0.204248
vt 0.592479 0.334238
vt 0.618804 0.111326
vn -0.9506 -0.2107 -0.2278
vn -0.5768 -0.4426 -0.6866
vn 0.3967 0.9173 -0.0331
vn 0.1867 -0.8831 0.4305
vn 0.2769 -0.7396 0.6135
vn -0.0297 -0.2228 0.9744
vn -0.2975 -0.9522 0.0688
vn -0.5801 -0.7998 0.1543
vn -0.7593 0.6494 -0.0417
vn 0.0000 0.0000 -1.0000
vn 0.3891 -0.8860 -0.2523
vn -0.7576 0.6515 -0.0404
vn -0.2108 0.9744 -0.0782
vn -0.5754 -0.4432 -0.6873
vn -0.6553 -0.6410 0.3996
vn -0.0000 -0.0000 1.0000
vn 0.9986 0.0529 -0.0007
vn 0.3967 0.9174 -0.0331
vn 0.3892 -0.8859 -0.2525
vn 0.3891 -0.8859 -0.2526
vn -0.5752 -0.4432 -0.6876
vn -0.5751 -0.4431 -0.6876
vn 0.9986 0.0528 -0.0005
usemtl Material.013
s off
f 2/1/1 7/2/1 8/3/1
f 9/4/2 2/5/2 21/6/2
f 22/7/3 13/8/3 6/9/3
usemtl Material.001
s 4
f 17/10/4 18/11/5 1/12/6
f 5/13/7 1/14/6 4/15/8
usemtl Material.013
s off
f 20/16/9 2/17/9 8/18/9
usemtl Material.002
f 20/19/10 14/20/10 21/21/10
usemtl Material.013
f 18/22/11 17/23/11 16/24/11
f 20/25/12 10/26/12 14/27/12
f 14/28/13 11/29/13 22/30/13
f 4/31/14 3/32/14 21/33/14
usemtl Material.001
s 4
f 3/34/15 4/35/8 1/36/6
usemtl Material.002
s off
f 9/37/16 3/38/16 1/39/16
usemtl Material.013
f 19/40/17 13/41/17 12/42/17
f 7/43/2 2/5/2 9/4/2
f 2/5/2 15/44/2 21/6/2
f 22/7/18 11/45/18 13/8/18
usemtl Material.001
s 4
f 5/13/7 17/46/4 1/14/6
usemtl Material.013
s off
f 20/16/9 15/47/9 2/17/9
usemtl Material.002
f 22/48/10 6/49/10 19/50/10
f 19/50/10 16/51/10 22/48/10
f 16/51/10 21/21/10 14/20/10
f 22/48/10 16/51/10 14/20/10
f 21/21/10 15/52/10 20/19/10
usemtl Material.013
f 5/53/11 16/24/11 17/23/11
f 16/24/19 19/54/19 18/22/19
f 19/54/20 12/55/20 18/22/20
f 20/25/12 8/56/12 10/26/12
f 14/28/13 10/57/13 11/29/13
f 9/58/14 21/33/14 3/32/14
f 21/33/21 16/59/21 4/31/21
f 16/59/22 5/60/22 4/31/22
usemtl Material.002
f 1/39/16 18/61/16 11/62/16
f 18/61/16 12/63/16 13/64/16
f 11/62/16 18/61/16 13/64/16
f 11/62/16 10/65/16 1/39/16
f 10/65/16 8/66/16 1/39/16
f 8/66/16 7/67/16 1/39/16
f 7/67/16 9/37/16 1/39/16
usemtl Material.013
f 19/40/23 6/68/23 13/41/23
