# Blender v2.79 (sub 0) OBJ File: 'Outpost01-WallPY.blend'
# www.blender.org
mtllib outpostFloor93posX-6_100576400756836posY16_004852294921875.mtl
o Cube.004_Cube.005_Material.004_Cube.004_Cube.005_Material.0.673_Cube.004_Cube.005_Material.004_Cube.004_Cube.005_Material.0.820
v -17.475025 7.654461 0.229382
v -17.734261 7.075365 0.229382
v -17.000946 8.010759 0.229382
v -13.602661 5.816745 0.229384
v -17.759056 7.562374 1.186549
v -18.059448 6.890885 1.186549
v -18.003815 3.927863 1.186549
v -14.192474 4.872190 1.186549
v -16.996983 8.135445 1.186549
v -13.443401 5.841156 1.186549
v -17.676918 4.051805 0.229382
v -14.326572 4.881718 0.229383
v -13.638313 5.770622 0.229384
v -14.158028 4.916677 1.186549
vt 0.033106 0.748165
vt 0.351859 0.498871
vt 0.502830 0.819663
vt 0.676922 0.226878
vt 0.661565 0.113755
vt 0.668170 0.113755
vt 0.544955 0.460288
vt 0.627514 0.364972
vt 0.616161 0.482122
vt 0.657890 0.306090
vt 0.544955 0.227306
vt 0.657892 0.236474
vt 0.858247 0.725249
vt 0.524186 0.844046
vt 0.503258 0.725249
vt 0.544527 0.184174
vt 0.034313 0.215064
vt 0.490435 0.000214
vt 0.565499 0.113326
vt 0.544955 0.000214
vt 0.682119 0.000214
vt 0.999786 0.611928
vt 0.517410 0.498871
vt 0.992238 0.498871
vt 0.503258 0.612356
vt 0.923440 0.724821
vt 0.518268 0.724820
vt 0.502830 0.894048
vt 0.469168 0.954884
vt 0.000214 0.884338
vt 0.002039 0.876252
vt 0.544955 0.226878
vt 0.544955 0.339662
vt 0.544955 0.339234
vt 0.872066 0.844067
vt 0.000214 0.073319
vt 0.031802 0.206544
vt 0.544527 0.097976
vt 0.396796 0.498443
vt 0.558656 0.113326
vt 0.503258 0.611928
vt 0.964186 0.612356
vn 0.0000 -0.0000 -1.0000
vn 0.7853 -0.6081 -0.1161
vn -0.8892 0.3981 -0.2256
vn -0.5977 0.7953 -0.1011
vn -0.9456 -0.0179 -0.3247
vn 0.0000 -0.0000 1.0000
vn 0.7859 -0.6075 -0.1153
vn 0.5391 0.8349 -0.1110
vn 0.2402 -0.9698 -0.0433
vn -0.8893 0.3978 -0.2255
vn -0.5979 0.7952 -0.1009
vn -0.9455 -0.0178 -0.3252
vn 0.2403 -0.9697 -0.0435
usemtl Material.002
s off
f 12/1/1 11/2/1 2/3/1
usemtl Material.013
f 12/4/2 14/5/2 8/6/2
f 2/7/3 5/8/3 1/9/3
f 1/10/4 9/11/4 3/12/4
f 11/13/5 6/14/5 2/15/5
usemtl Material.002
f 6/16/6 8/17/6 9/18/6
usemtl Material.013
f 13/19/7 10/20/7 14/21/7
f 9/22/8 4/23/8 3/24/8
f 8/25/9 11/26/9 12/27/9
usemtl Material.002
f 1/28/1 3/29/1 2/3/1
f 3/29/1 4/30/1 13/31/1
f 2/3/1 3/29/1 12/1/1
f 13/31/1 12/1/1 3/29/1
usemtl Material.013
f 12/4/2 13/32/2 14/5/2
f 2/7/10 6/33/10 5/8/10
f 1/10/11 5/34/11 9/11/11
f 11/13/12 7/35/12 6/14/12
usemtl Material.002
f 10/36/6 9/18/6 14/37/6
f 9/18/6 5/38/6 6/16/6
f 14/37/6 9/18/6 8/17/6
f 6/16/6 7/39/6 8/17/6
usemtl Material.013
f 13/19/7 4/40/7 10/20/7
f 9/22/8 10/41/8 4/23/8
f 8/25/13 7/42/13 11/26/13
