# Blender v2.79 (sub 0) OBJ File: 'Outpost01-WallPY.blend'
# www.blender.org
mtllib outpostFloor88posX-4_659006118774414posY-18_51079559326172.mtl
o Cube.004_Cube.005_Material.004_Cube.004_Cube.005_Material.0.678_Cube.004_Cube.005_Material.004_Cube.004_Cube.005_Material.0.825
v 20.718224 1.736845 0.536572
v 20.718241 3.070885 1.186558
v 20.718216 1.746649 0.229390
v 16.168234 7.493992 0.386084
v 19.651779 1.739353 0.457997
v 19.695816 1.746649 0.229390
v 16.399351 5.863262 0.229390
v 16.338297 6.274276 0.229390
v 20.718216 5.494306 0.229390
v 16.236956 7.416902 1.186557
v 19.633488 1.740838 0.536571
v 18.426807 3.070885 1.186557
v 16.196438 7.490081 0.229390
v 16.159765 7.476994 0.229390
v 19.655107 5.963663 0.229390
v 20.718241 5.438657 1.186558
v 16.530344 5.438867 1.186557
vt 0.350584 0.658284
vt 0.466708 0.816759
vt 0.350586 0.817144
vt 0.350584 0.657837
vt 0.353270 0.555233
vt 0.606613 0.547148
vt 0.712901 0.658284
vt 0.717054 0.674820
vt 0.712901 0.675181
vt 0.350584 0.546701
vt 0.350584 0.444062
vt 0.474955 0.441143
vt 0.360476 0.057632
vt 0.470794 0.000224
vt 0.715455 0.336308
vt 0.838401 0.759494
vt 0.752017 0.624897
vt 0.865484 0.547148
vt 0.600112 0.691632
vt 0.729229 0.708101
vt 0.596331 0.708101
vt 0.705781 0.691183
vt 0.596333 0.691185
vt 0.596331 0.658284
vt 0.350137 0.846436
vt 0.000224 0.801933
vt 0.350137 0.521666
vt 0.350584 0.834251
vt 0.754938 0.817591
vt 0.758559 0.834251
vt 0.915148 0.336755
vt 0.912918 0.360899
vt 0.719581 0.440692
vt 0.595884 0.658284
vt 0.751570 0.612139
vt 0.751570 0.645039
vt 0.882875 0.448370
vt 0.874828 0.534397
vt 0.783843 0.250905
vt 0.151086 0.336307
vt 0.112034 0.314988
vt 0.000224 0.248366
vt 0.001621 0.244439
vt 0.752017 0.757794
vt 0.757645 0.580772
vt 0.712454 0.658285
vt 0.710495 0.666698
vt 0.158672 0.999776
vt 0.242284 0.336755
vt 0.911463 0.370112
vt 0.394812 0.440695
vt 0.350584 0.336755
vn -0.0016 -0.4380 0.8990
vn 1.0000 0.0000 -0.0000
vn -0.3349 0.9385 -0.0837
vn 0.4033 0.9135 0.0531
vn -0.0000 -0.0000 -1.0000
vn -0.9867 -0.1464 0.0702
vn -0.9868 -0.1465 0.0692
vn -0.0000 -0.9995 -0.0319
vn -0.0000 0.0000 1.0000
vn 0.4033 0.9137 0.0498
vn -0.7696 -0.6161 -0.1679
vn -0.0000 -0.4391 0.8985
vn 0.4033 0.9135 0.0533
vn 0.4033 0.9135 0.0532
vn -0.9867 -0.1466 0.0706
vn -0.9867 -0.1466 0.0700
vn -0.0037 -0.9998 0.0180
vn -0.7695 -0.6163 -0.1675
vn -0.7695 -0.6162 -0.1679
vn -0.7695 -0.6162 -0.1677
usemtl Material.002
s off
f 2/1/1 11/2/1 1/3/1
f 9/4/2 16/5/2 2/6/2
usemtl Material.013
f 4/7/3 13/8/3 14/9/3
f 16/10/4 9/11/4 15/12/4
usemtl Material.002
f 15/13/5 9/14/5 6/15/5
usemtl Material.013
f 10/16/6 8/17/6 17/18/6
f 14/19/7 8/20/7 4/21/7
usemtl Material.002
f 6/22/8 3/23/8 1/24/8
f 12/25/9 16/26/9 17/27/9
usemtl Material.013
f 15/28/10 13/29/10 4/30/10
f 6/31/11 5/32/11 12/33/11
usemtl Material.002
f 2/1/12 12/34/12 11/2/12
f 1/35/2 3/36/2 2/6/2
f 3/36/2 9/4/2 2/6/2
usemtl Material.013
f 4/37/13 10/38/13 15/12/13
f 10/38/14 16/10/14 15/12/14
usemtl Material.002
f 3/39/5 6/15/5 9/14/5
f 6/15/5 7/40/5 15/13/5
f 7/40/5 8/41/5 15/13/5
f 8/41/5 14/42/5 13/43/5
f 15/13/5 8/41/5 13/43/5
usemtl Material.013
f 4/44/15 8/17/15 10/16/15
f 8/17/16 7/45/16 17/18/16
usemtl Material.002
f 1/24/17 11/46/17 5/47/17
f 5/47/8 6/22/8 1/24/8
f 2/48/9 16/26/9 12/25/9
f 16/26/9 10/49/9 17/27/9
usemtl Material.013
f 11/50/18 12/33/18 5/32/18
f 12/33/19 17/51/19 7/52/19
f 6/31/20 12/33/20 7/52/20
