# Blender v2.79 (sub 0) OBJ File: 'Outpost01-WallPY.blend'
# www.blender.org
mtllib outpostFloor22posX-18_719758987426758posY-18_910614013671875.mtl
o Cube.004_Cube.005_Material.004_Cube.004_Cube.005_Material.0.744_Cube.004_Cube.005_Material.004_Cube.004_Cube.005_Material.0.891
v 18.274704 17.403465 0.229388
v 18.704235 17.357744 0.229388
v 18.267643 20.162317 0.229388
v 20.718216 19.275331 0.229388
v 20.718239 17.898565 1.186557
v 20.718239 19.480967 1.186557
v 18.923897 17.182928 1.186556
v 17.987629 20.008648 1.163588
v 18.012520 20.194355 1.073106
v 18.319740 17.398581 0.229388
v 20.718216 18.160664 0.229388
v 18.273613 17.542559 0.229388
v 18.256351 20.152807 0.229388
v 18.002445 17.282820 1.186556
v 18.904678 17.184969 1.186556
v 17.981445 19.961510 1.186556
v 19.391121 19.961510 1.186556
v 18.218124 20.345922 0.999257
vt 0.745934 0.490933
vt 0.523191 0.329453
vt 0.790152 0.329453
vt 0.379420 0.000278
vt 0.407859 0.466543
vt 0.000278 0.228858
vt 0.512377 0.883177
vt 0.919655 0.715736
vt 0.962988 0.883177
vt 0.943813 0.329453
vt 0.892702 0.492885
vt 0.790709 0.329453
vt 0.739056 0.715180
vt 0.503201 0.682428
vt 0.514164 0.517628
vt 0.929493 0.182629
vt 0.889525 0.310594
vt 0.889525 0.162262
vt 0.502644 0.680274
vt 0.467772 0.944454
vt 0.235622 0.995434
vt 0.584273 0.000278
vt 0.546490 0.161705
vt 0.523191 0.135449
vt 0.700916 0.883734
vt 0.741571 0.955713
vt 0.740810 0.955811
vt 0.944370 0.458369
vt 0.999722 0.300238
vt 0.999722 0.492885
vt 0.523191 0.328889
vt 0.865470 0.162262
vt 0.888968 0.328896
vt 0.557883 0.490933
vt 0.522634 0.120898
vt 0.361958 0.511783
vt 0.338526 0.502511
vt 0.356569 0.517071
vt 0.000278 0.219150
vt 0.503201 0.878495
vt 0.943054 0.715736
vt 0.900344 0.492885
vt 0.949661 0.578090
vt 0.949661 0.711876
vt 0.891974 0.311046
vt 0.000278 0.964369
vt 0.215598 0.521174
vt 0.062815 0.517628
vt 0.220911 0.517628
vt 0.993994 0.161705
vt 0.503201 0.955811
vt 0.735572 0.912153
vt 0.996955 0.298513
vt 0.539566 0.162267
vn 1.0000 0.0000 -0.0000
vn -0.0000 -0.0000 -1.0000
vn -0.9616 -0.0075 -0.2745
vn -0.1065 -0.9823 -0.1541
vn 0.3337 0.9216 -0.1980
vn -0.6287 0.7464 -0.2184
vn -0.0000 0.0000 1.0000
vn -0.9608 -0.0064 -0.2773
vn -0.0000 0.4381 0.8989
vn -0.1043 -0.9823 -0.1555
vn 0.3589 -0.9002 -0.2468
vn -0.9616 -0.0076 -0.2744
vn 0.3336 0.9216 -0.1982
vn 0.3337 0.9216 -0.1983
vn -0.0000 0.4380 0.8990
vn -0.1043 -0.9823 -0.1554
vn 0.3590 -0.9002 -0.2465
usemtl Material.002
s off
f 11/1/1 6/2/1 5/3/1
f 4/4/2 2/5/2 13/6/2
usemtl Material.013
f 16/7/3 12/8/3 14/9/3
f 14/10/4 10/11/4 15/12/4
f 17/13/5 6/14/5 4/15/5
f 18/16/6 13/17/6 9/18/6
usemtl Material.002
f 5/19/7 6/20/7 17/21/7
usemtl Material.013
f 13/22/8 8/23/8 9/24/8
usemtl Material.002
f 18/25/9 8/26/9 16/27/9
usemtl Material.013
f 2/28/10 15/29/10 10/30/10
f 11/31/11 7/32/11 2/33/11
usemtl Material.002
f 11/1/1 4/34/1 6/2/1
f 4/4/2 11/35/2 2/5/2
f 2/5/2 10/36/2 12/37/2
f 10/36/2 1/38/2 12/37/2
f 12/37/2 13/6/2 2/5/2
f 13/6/2 3/39/2 4/4/2
usemtl Material.013
f 8/40/12 12/8/12 16/7/12
f 12/8/3 1/41/3 14/9/3
f 14/10/4 1/42/4 10/11/4
f 4/15/13 3/43/13 17/13/13
f 3/43/14 18/44/14 17/13/14
f 18/16/6 3/45/6 13/17/6
usemtl Material.002
f 17/21/7 16/46/7 15/47/7
f 16/46/7 14/48/7 15/47/7
f 17/21/7 15/47/7 7/49/7
f 7/49/7 5/19/7 17/21/7
usemtl Material.013
f 13/22/8 12/50/8 8/23/8
usemtl Material.002
f 16/27/15 17/51/15 18/25/15
f 18/25/15 9/52/15 8/26/15
usemtl Material.013
f 2/28/16 7/53/16 15/29/16
f 11/31/17 5/54/17 7/32/17
