# Blender v2.79 (sub 0) OBJ File: 'Outpost01-WallPY.blend'
# www.blender.org
mtllib outpostFloor18posX-19_704561233520508posY5_065099716186523.mtl
o Cube.004_Cube.005_Material.004_Cube.004_Cube.005_Material.0.748_Cube.004_Cube.005_Material.004_Cube.004_Cube.005_Material.0.895
v -6.571751 19.092133 1.186553
v -3.821817 19.258566 1.095123
v -5.282555 20.275337 0.536569
v -3.177202 20.210814 0.572015
v -3.220636 20.302097 0.536472
v -4.012390 20.894423 0.534336
v -7.580854 19.219604 0.229386
v -7.561096 19.169331 0.229386
v -7.103981 18.008379 0.229386
v -4.054131 20.937500 0.229387
v -3.165483 20.207212 0.229387
v -3.339275 20.561903 0.229387
v -7.064323 17.993465 1.186552
v -7.153063 19.229189 1.186552
v -4.241901 19.092131 1.186552
v -6.431036 19.643854 0.883469
v -3.207603 20.275339 0.536568
v -6.963737 19.336647 1.113209
v -3.337084 20.539755 0.535614
v -3.815924 20.791433 0.534707
v -3.750216 19.314016 0.229387
v -3.171753 20.220079 0.229387
v -4.026430 20.922983 0.229387
v -7.086958 18.050947 1.186552
v -7.486261 19.066896 1.186552
vt 0.424713 0.801797
vt 0.220597 0.746771
vt 0.614865 0.698045
vt 0.701842 0.022073
vt 0.728694 0.061628
vt 0.724903 0.064695
vt 0.715336 0.258277
vt 0.566007 0.253073
vt 0.715336 0.248644
vt 0.143547 0.000271
vt 0.686876 0.237446
vt 0.076428 0.248102
vt 0.647675 0.651185
vt 0.672563 0.676946
vt 0.579435 0.676946
vt 0.600795 0.521740
vt 0.631426 0.505683
vt 0.829454 0.602204
vt 0.694216 0.453422
vt 0.705469 0.501625
vt 0.703238 0.501571
vt 0.729520 0.803450
vt 0.622020 0.698045
vt 0.863167 0.698045
vt 0.544902 0.697405
vt 0.505953 0.602746
vt 0.578893 0.602746
vt 0.650357 0.496000
vt 0.567997 0.448166
vt 0.689035 0.448370
vt 0.638038 0.803992
vt 0.766911 0.921393
vt 0.615407 0.852424
vt 0.431821 0.697503
vt 0.000271 0.505683
vt 0.363157 0.522768
vt 0.000271 0.372134
vt 0.299319 0.248644
vt 0.157836 0.502775
vt 0.579435 0.650644
vt 0.623953 0.602746
vt 0.638791 0.650644
vt 0.084268 0.850415
vt 0.561446 0.999729
vt 0.000271 0.999729
vt 0.612032 0.849873
vt 0.554242 0.849873
vt 0.520365 0.838239
vt 0.000271 0.746419
vt 0.003181 0.698045
vt 0.728694 0.000271
vt 0.566007 0.447624
vt 0.071662 0.245034
vt 0.000992 0.147225
vt 0.000271 0.085829
vt 0.001342 0.085826
vt 0.701300 0.044024
vt 0.686250 0.248101
vt 0.505953 0.602204
vt 0.515867 0.581504
vt 0.526140 0.560979
vt 0.689577 0.453324
vt 0.705469 0.448166
vt 0.615407 0.703261
vt 0.566007 0.496000
vt 0.835023 0.803992
vt 0.454704 0.505684
vt 0.435768 0.688716
vt 0.505411 0.533405
vt 0.565466 0.366481
vt 0.229681 0.505142
vt 0.507722 0.284132
vt 0.000271 0.384554
vt 0.582686 0.602879
vt 0.013812 0.864677
vt 0.556528 0.850416
vn -0.4305 0.8837 0.1835
vn 0.4633 0.8841 0.0615
vn -0.9300 -0.3662 0.0328
vn 0.0000 0.0000 -1.0000
vn -0.1833 0.7609 0.6224
vn -0.2357 0.5913 0.7712
vn 0.0297 0.2228 0.9744
vn 0.0000 0.0036 1.0000
vn 0.8986 0.4379 0.0261
vn -0.9302 -0.3656 0.0336
vn -0.2336 0.7730 0.5898
vn 0.4643 0.8836 0.0606
vn 0.8362 -0.5474 0.0343
vn 0.0000 -0.0000 1.0000
vn 0.6414 0.5006 0.5813
vn -0.2615 0.7590 0.5963
vn 0.5342 -0.3771 0.7566
vn 0.8977 0.4399 0.0254
vn 0.3626 -0.9315 -0.0297
vn -0.4305 0.8838 0.1835
vn -0.4305 0.8837 0.1836
vn -0.4304 0.8837 0.1837
vn 0.8987 0.4378 0.0261
vn 0.8362 -0.5473 0.0341
vn 0.3325 -0.4464 0.8308
vn 0.7903 0.1358 0.5974
vn 0.3626 -0.9315 -0.0295
usemtl Material.013
s off
f 16/1/1 3/2/1 7/3/1
f 6/4/2 23/5/2 10/6/2
f 24/7/3 9/8/3 13/9/3
usemtl Material.002
f 21/10/4 8/11/4 10/12/4
usemtl Material.001
s 5
f 18/13/5 14/14/6 1/15/7
usemtl Material.010
s off
f 20/16/8 6/17/8 3/18/8
usemtl Material.013
f 17/19/9 11/20/9 22/21/9
f 25/22/10 8/23/10 24/24/10
usemtl Material.001
s 5
f 16/25/11 18/26/5 1/27/7
usemtl Material.013
s off
f 20/28/12 12/29/12 23/30/12
f 4/31/13 21/32/13 11/33/13
usemtl Material.002
f 13/34/14 15/35/14 1/36/14
usemtl Material.001
s 5
f 17/37/15 3/38/16 2/39/17
usemtl Material.013
s off
f 12/40/18 5/41/18 22/42/18
f 15/43/19 9/44/19 21/45/19
f 7/3/20 25/46/20 14/47/20
f 14/47/21 18/48/21 7/3/21
f 18/48/1 16/1/1 7/3/1
f 3/2/22 6/49/22 10/50/22
f 3/2/1 10/50/1 7/3/1
f 6/4/2 20/51/2 23/5/2
f 24/7/3 8/52/3 9/8/3
usemtl Material.002
f 10/12/4 23/53/4 21/10/4
f 23/53/4 12/54/4 21/10/4
f 12/54/4 22/55/4 21/10/4
f 22/55/4 11/56/4 21/10/4
f 21/10/4 9/57/4 8/11/4
f 8/11/4 7/58/4 10/12/4
usemtl Material.010
f 3/18/8 17/59/8 20/16/8
f 17/59/8 5/60/8 20/16/8
f 5/60/8 19/61/8 20/16/8
usemtl Material.013
f 22/21/23 5/62/23 17/19/23
f 17/19/23 4/63/23 11/20/23
f 25/22/10 7/64/10 8/23/10
f 20/28/12 19/65/12 12/29/12
f 4/31/24 2/66/24 21/32/24
usemtl Material.002
f 1/36/14 14/67/14 24/68/14
f 14/67/14 25/69/14 24/68/14
f 24/68/14 13/34/14 1/36/14
usemtl Material.001
s 5
f 1/70/7 15/71/25 16/72/11
f 15/71/25 2/39/17 3/38/16
f 16/72/11 15/71/25 3/38/16
f 2/39/17 4/73/26 17/37/15
usemtl Material.013
s off
f 12/40/18 19/74/18 5/41/18
f 21/45/19 2/75/19 15/43/19
f 15/43/27 13/76/27 9/44/27
