# Blender v2.79 (sub 0) OBJ File: 'Outpost01-WallPY.blend'
# www.blender.org
mtllib outpostFloor17posX-12_697489738464355posY17_77835464477539.mtl
o Cube.004_Cube.005_Material.004_Cube.004_Cube.005_Material.0.749_Cube.004_Cube.005_Material.004_Cube.004_Cube.005_Material.0.896
v -18.951389 11.689498 0.229382
v -18.550594 13.307290 0.229382
v -15.415295 13.174506 0.229383
v -18.862415 11.722081 1.186549
v -17.597485 13.988502 1.186549
v -15.928009 13.000474 1.186549
v -18.304100 11.189271 0.229382
v -18.481716 13.260964 1.186549
v -17.335308 14.310472 0.229382
v -18.357201 11.331838 1.186549
vt 0.331277 0.644115
vt 0.517624 0.490945
vt 0.513856 0.644091
vt 0.520417 0.371182
vt 0.467815 0.490543
vt 0.202061 0.490543
vt 0.520818 0.999799
vt 0.675226 0.523992
vt 0.675241 0.993902
vt 0.841730 0.750221
vt 0.675660 0.450728
vt 0.841730 0.440899
vt 0.257500 0.644077
vt 0.000201 0.490945
vt 0.265955 0.490945
vt 0.926063 0.146669
vt 0.832922 0.440498
vt 0.520818 0.089205
vt 0.020801 0.644479
vt 0.130639 0.797635
vt 0.000201 0.797635
vt 0.266356 0.490945
vt 0.000201 0.340918
vt 0.102395 0.000201
vt 0.520818 0.440899
vt 0.675642 0.806442
vt 0.004729 0.644070
vt 0.817058 0.000201
vt 0.926064 0.399440
vt 0.122590 0.644481
vn -0.6332 0.7696 0.0828
vn 0.0000 -0.0000 -1.0000
vn 0.5596 -0.8146 0.1524
vn 0.4681 0.7909 0.3942
vn -0.9674 0.2397 0.0818
vn 0.0000 0.0000 1.0000
vn -0.6093 -0.7885 0.0836
vn -0.6343 0.7684 0.0847
vn 0.5598 -0.8146 0.1518
vn 0.4679 0.7909 0.3944
vn -0.9675 0.2394 0.0812
vn -0.6092 -0.7886 0.0835
usemtl Material.013
s off
f 5/1/1 2/2/1 8/3/1
usemtl Material.002
f 7/4/2 1/5/2 2/6/2
usemtl Material.013
f 7/7/3 6/8/3 10/9/3
f 6/10/4 9/11/4 5/12/4
f 4/13/5 2/14/5 1/15/5
usemtl Material.002
f 8/16/6 10/17/6 6/18/6
usemtl Material.013
f 10/19/7 1/20/7 7/21/7
f 5/1/8 9/22/8 2/2/8
usemtl Material.002
f 2/6/2 9/23/2 3/24/2
f 3/24/2 7/4/2 2/6/2
usemtl Material.013
f 7/7/9 3/25/9 6/8/9
f 6/10/10 3/26/10 9/11/10
f 4/13/11 8/27/11 2/14/11
usemtl Material.002
f 6/18/6 5/28/6 8/16/6
f 8/16/6 4/29/6 10/17/6
usemtl Material.013
f 10/19/12 4/30/12 1/20/12
