# Blender v2.79 (sub 0) OBJ File: 'Outpost01-WallPY.blend'
# www.blender.org
mtllib outpostFloor96posX-12_441198348999023posY13_540359497070312.mtl
o Cube.004_Cube.005_Material.004_Cube.004_Cube.005_Material.0.670_Cube.004_Cube.005_Material.004_Cube.004_Cube.005_Material.0.817
v -14.988922 13.143728 0.229386
v -15.617939 10.211514 0.229386
v -13.121872 10.631422 0.229387
v -12.876831 14.185038 0.229387
v -16.065639 10.027927 1.186552
v -12.998528 10.543631 1.186552
v -11.891045 13.092953 1.186552
v -15.435745 12.965094 1.186552
v -12.004311 13.063093 0.229388
v -12.831238 14.126476 0.229387
v -11.850342 13.040611 1.186552
v -12.801895 14.262897 1.186552
vt 0.303300 0.424995
vt 0.000215 0.167832
vt 0.361375 0.000215
vt 0.396692 0.916872
vt 0.734256 0.795954
vt 0.730732 0.916861
vt 0.720514 0.675528
vt 0.391213 0.555314
vt 0.779422 0.555314
vt 0.391213 0.795524
vt 0.697828 0.675961
vt 0.757712 0.795524
vt 0.646873 0.000215
vt 0.658059 0.120431
vt 0.648795 0.120431
vt 0.390783 0.720441
vt 0.243362 0.999785
vt 0.000215 0.715305
vt 0.858268 0.120862
vt 0.785172 0.216488
vt 0.646873 0.120861
vt 0.424709 0.554883
vt 0.765537 0.425434
vt 0.799660 0.554883
vt 0.646443 0.243645
vt 0.000215 0.264486
vt 0.001902 0.071193
vt 0.391213 0.795954
vt 0.404578 0.675531
vt 0.403898 0.675964
vt 0.831944 0.000215
vt 0.056927 0.426973
vt 0.145596 0.425425
vt 0.234280 0.425425
vt 0.865075 0.125568
vt 0.391213 0.425425
vn 0.0000 0.0000 1.0000
vn 0.8979 -0.4126 -0.1535
vn 0.1648 -0.9801 -0.1109
vn -0.4417 0.8963 -0.0389
vn 0.7842 0.6105 -0.1111
vn 0.0000 -0.0000 -1.0000
vn 0.7845 0.6100 -0.1119
vn -0.9024 0.1935 -0.3850
vn 0.8977 -0.4128 -0.1541
vn 0.1649 -0.9800 -0.1111
vn -0.4419 0.8963 -0.0383
vn 0.7844 0.6100 -0.1119
vn -0.9023 0.1936 -0.3851
usemtl Material.002
s off
f 6/1/1 7/2/1 8/3/1
usemtl Material.013
f 9/4/2 6/5/2 3/6/2
f 2/7/3 6/8/3 5/9/3
f 12/10/4 1/11/4 8/12/4
f 12/13/5 10/14/5 4/15/5
usemtl Material.002
f 3/16/6 2/17/6 1/18/6
usemtl Material.013
f 7/19/7 9/20/7 10/21/7
f 8/22/8 2/23/8 5/24/8
usemtl Material.002
f 8/3/1 5/25/1 6/1/1
f 6/1/1 11/26/1 7/2/1
f 7/2/1 12/27/1 8/3/1
usemtl Material.013
f 9/4/9 11/28/9 6/5/9
f 2/7/10 3/29/10 6/8/10
f 12/10/11 4/30/11 1/11/11
f 12/13/5 7/31/5 10/14/5
usemtl Material.002
f 4/32/6 10/33/6 1/18/6
f 10/33/6 9/34/6 1/18/6
f 9/34/6 3/16/6 1/18/6
usemtl Material.013
f 7/19/12 11/35/12 9/20/12
f 8/22/13 1/36/13 2/23/13
