# Blender v2.79 (sub 0) OBJ File: 'Outpost01-WallPY.blend'
# www.blender.org
mtllib outpostFloor92posX-14_952336311340332posY3_4940719604492188.mtl
o Cube.004_Cube.005_Material.004_Cube.004_Cube.005_Material.0.674_Cube.004_Cube.005_Material.004_Cube.004_Cube.005_Material.0.821
v -1.839582 13.874838 1.186552
v -2.587835 16.018375 1.186552
v -2.579969 15.928446 0.229387
v -2.742252 16.111523 1.186552
v -6.686428 16.624847 1.186553
v -3.817268 12.255198 1.186552
v -3.815907 12.386584 0.229387
v -6.474314 16.434898 0.229387
v -1.861210 13.986515 0.229387
v -2.535955 15.902136 0.229387
vt 0.010014 0.326816
vt 0.389681 0.000199
vt 0.389681 0.658416
vt 0.023435 0.902294
vt 0.494689 0.780086
vt 0.524259 0.902303
vt 0.034851 0.658815
vt 0.658417 0.779689
vt 0.000199 0.779689
vt 0.708142 0.499819
vt 0.396881 0.378630
vt 0.718756 0.378630
vt 0.677393 0.375016
vt 0.423368 0.316459
vt 0.390078 0.000199
vt 0.704711 0.626294
vt 0.698521 0.624459
vt 0.704711 0.500216
vt 0.676354 0.500216
vt 0.698123 0.506675
vt 0.676354 0.626294
vt 0.406050 0.620746
vt 0.675956 0.500216
vt 0.661784 0.620757
vt 0.069584 0.624622
vt 0.000199 0.347292
vt 0.000199 0.780086
vt 0.644682 0.658814
vt 0.390078 0.499809
vt 0.999801 0.000199
vt 0.671479 0.378232
vt 0.390078 0.500216
vn 0.0000 -0.0000 1.0000
vn 0.1273 0.9779 -0.1659
vn -0.8335 -0.5473 -0.0761
vn 0.6301 -0.7694 -0.1047
vn 0.0000 0.0000 -1.0000
vn 0.5116 0.8558 -0.0769
vn 0.5150 0.8538 -0.0758
vn 0.9431 0.3322 0.0174
vn 0.1272 0.9780 -0.1655
vn -0.8334 -0.5473 -0.0763
vn 0.6300 -0.7696 -0.1040
vn 0.9441 0.3296 0.0111
usemtl Material.002
s off
f 4/1/1 5/2/1 6/3/1
usemtl Material.013
f 4/4/2 8/5/2 5/6/2
f 8/7/3 6/8/3 5/9/3
f 7/10/4 1/11/4 6/12/4
usemtl Material.002
f 3/13/5 9/14/5 7/15/5
usemtl Material.013
f 10/16/6 3/17/6 4/18/6
f 4/19/7 2/20/7 10/21/7
f 10/22/8 1/23/8 9/24/8
usemtl Material.002
f 6/3/1 1/25/1 4/1/1
f 1/25/1 2/26/1 4/1/1
usemtl Material.013
f 4/4/9 3/27/9 8/5/9
f 8/7/10 7/28/10 6/8/10
f 7/10/11 9/29/11 1/11/11
usemtl Material.002
f 7/15/5 8/30/5 3/13/5
f 3/13/5 10/31/5 9/14/5
usemtl Material.013
f 10/22/12 2/32/12 1/23/12
