# Blender v2.79 (sub 0) OBJ File: 'Outpost01-WallPY.blend'
# www.blender.org
mtllib outpostFloor66posX-15_080702781677246posY7_827838897705078.mtl
o Cube.004_Cube.005_Material.004_Cube.004_Cube.005_Material.0.700_Cube.004_Cube.005_Material.004_Cube.004_Cube.005_Material.0.847
v -6.913628 15.208619 0.229386
v -7.343248 16.868460 0.229386
v -7.314293 16.881800 0.229386
v -6.785734 15.213595 1.186551
v -10.642298 12.802736 1.186549
v -8.376024 11.252190 0.229385
v -10.345198 12.736961 0.229385
v -6.874260 16.591169 0.229386
v -7.202473 16.932573 0.229386
v -8.322889 11.054667 1.186550
v -6.745440 16.647718 1.186551
v -7.741844 16.794016 1.186550
v -7.154539 17.064627 1.186551
vt 0.758467 0.520580
vt 0.792554 0.391178
vt 0.762754 0.520580
vt 0.721692 0.729121
vt 0.705597 0.732818
vt 0.705597 0.600028
vt 0.705146 0.722816
vt 0.018506 0.734974
vt 0.161944 0.554466
vt 0.686974 0.735425
vt 0.039831 0.869484
vt 0.000225 0.735425
vt 0.711842 0.865270
vt 0.896681 0.735425
vt 0.897833 0.865279
vt 0.000225 0.869946
vt 0.574030 0.999639
vt 0.006815 0.999638
vt 0.950250 0.999775
vt 0.596918 0.869946
vt 0.987479 0.869946
vt 0.076091 0.000225
vt 0.739563 0.000225
vt 0.172432 0.229170
vt 0.705597 0.521031
vt 0.835432 0.591417
vt 0.705597 0.599577
vt 0.705597 0.391178
vt 0.000225 0.725049
vt 0.010311 0.662169
vt 0.009323 0.730092
vt 0.705146 0.391178
vt 0.703303 0.869495
vt 0.703754 0.735425
vt 0.596467 0.869946
vt 0.618611 0.999765
vt 0.746368 0.390727
vt 0.013238 0.120183
vt 0.000225 0.042722
vt 0.835520 0.527733
vn -0.4162 0.9034 -0.1031
vn -0.4112 0.9056 -0.1043
vn 0.0000 0.0000 -1.0000
vn -0.7767 0.5644 -0.2796
vn 0.9908 -0.0282 -0.1322
vn 0.9309 -0.3441 -0.1226
vn -0.5967 -0.7917 -0.1308
vn -0.0000 -0.0000 1.0000
vn 0.7076 0.6943 -0.1312
vn -0.4163 0.9034 -0.1031
vn -0.7766 0.5644 -0.2798
vn 0.9909 -0.0278 -0.1317
vn 0.9309 -0.3441 -0.1227
vn -0.5969 -0.7917 -0.1302
vn 0.7141 0.6865 -0.1367
usemtl Material.013
s off
f 2/1/1 13/2/1 3/3/1
f 9/4/2 3/5/2 13/6/2
usemtl Material.002
f 7/7/3 2/8/3 1/9/3
usemtl Material.013
f 7/10/4 12/11/4 2/12/4
f 8/13/5 4/14/5 1/15/5
f 4/16/6 6/17/6 1/18/6
f 7/19/7 10/20/7 5/21/7
usemtl Material.002
f 12/22/8 5/23/8 4/24/8
usemtl Material.013
f 11/25/9 9/26/9 13/27/9
f 2/1/10 12/28/10 13/2/10
usemtl Material.002
f 9/29/3 8/30/3 3/31/3
f 8/30/3 1/9/3 2/8/3
f 3/31/3 8/30/3 2/8/3
f 1/9/3 6/32/3 7/7/3
usemtl Material.013
f 7/10/11 5/33/11 12/11/11
f 8/13/12 11/34/12 4/14/12
f 4/16/13 10/35/13 6/17/13
f 7/19/14 6/36/14 10/20/14
usemtl Material.002
f 10/37/8 4/24/8 5/23/8
f 4/24/8 11/38/8 12/22/8
f 11/38/8 13/39/8 12/22/8
usemtl Material.013
f 11/25/15 8/40/15 9/26/15
