# Blender v2.79 (sub 0) OBJ File: 'Outpost01-WallPY.blend'
# www.blender.org
mtllib outpostFloor37posX-4_250021934509277posY4_8414459228515625.mtl
o Cube.004_Cube.005_Material.004_Cube.004_Cube.005_Material.0.729_Cube.004_Cube.005_Material.004_Cube.004_Cube.005_Material.0.876
v -6.571751 3.940258 1.186551
v -2.923592 3.547379 0.970726
v -4.695728 6.231255 1.186551
v -2.956161 4.832384 1.186551
v -6.972881 2.859616 0.229385
v -2.863180 3.262251 0.229386
v -6.941496 4.584122 0.229385
v -4.834190 6.310057 0.229386
v -2.962870 4.806556 0.229386
v -6.930864 3.855589 1.186551
v -2.945208 3.940259 1.186551
v -2.904831 3.200050 0.779925
v -6.302752 2.885536 0.607149
v -4.602987 6.156742 1.186551
v -6.962830 2.815475 0.659650
v -6.935129 3.713589 1.118561
v -2.880556 4.740360 0.229386
v -2.879568 4.659943 0.229386
v -6.920902 4.408979 1.186551
vt 0.860338 0.288227
vt 0.837690 0.388383
vt 0.687904 0.288227
vt 0.788113 0.589153
vt 0.823726 0.465723
vt 0.803449 0.589153
vt 0.119258 0.000259
vt 0.561999 0.295786
vt 0.418012 0.465204
vt 0.562518 0.000259
vt 0.687382 0.358765
vt 0.562518 0.371015
vt 0.963710 0.149126
vt 0.963710 0.169429
vt 0.811849 0.200800
vt 0.811330 0.272679
vt 0.687904 0.274092
vt 0.811330 0.000259
vt 0.748466 0.608564
vt 0.695855 0.748627
vt 0.695855 0.589672
vt 0.668718 0.653594
vt 0.695336 0.704958
vt 0.522901 0.704976
vt 0.607015 0.371534
vt 0.618418 0.388332
vt 0.562518 0.388332
vt 0.467429 0.848981
vt 0.473554 0.777622
vt 0.913441 0.800019
vt 0.513764 0.705755
vt 0.513764 0.777103
vt 0.467675 0.765357
vt 0.000259 0.804015
vt 0.466910 0.777622
vt 0.441054 0.934427
vt 0.883867 0.333635
vt 0.514283 0.465723
vt 0.066879 0.465204
vt 0.003062 0.162413
vt 0.000259 0.149088
vt 0.006729 0.140987
vt 0.687385 0.007632
vt 0.932899 0.233782
vt 0.907861 0.000259
vt 0.960351 0.019108
vt 0.687904 0.287708
vt 0.780537 0.734609
vt 0.514283 0.699214
vt 0.573107 0.589672
vt 0.999006 0.793215
vt 0.999740 0.848981
vt 0.000259 0.756942
vt 0.219069 0.475112
vt 0.003741 0.641984
vt 0.231196 0.465723
vt 0.001210 0.912982
vt 0.000259 0.858503
vn 0.9970 0.0117 0.0767
vn 0.6261 0.7793 -0.0264
vn 0.0000 0.0000 -1.0000
vn -0.6261 0.7645 0.1534
vn -0.9995 0.0181 0.0249
vn 0.6265 0.7790 -0.0254
vn -0.6572 -0.3213 0.6818
vn 0.0916 -0.8881 0.4504
vn 0.0297 -0.2228 0.9744
vn 0.9969 0.0122 0.0776
vn -0.6299 -0.1837 0.7546
vn 0.0969 -0.9898 -0.1045
vn -0.0000 0.0000 1.0000
vn 0.6269 -0.1781 0.7584
vn -0.6261 0.7645 0.1535
vn -0.9995 0.0180 0.0248
vn -0.9995 0.0182 0.0250
vn -0.9995 0.0180 0.0252
vn -0.5517 -0.7260 0.4104
vn 0.0968 -0.9899 -0.1038
vn 0.0970 -0.9898 -0.1041
vn 0.6104 -0.6792 0.4075
vn 0.6842 -0.3222 0.6542
usemtl Material.013
s off
f 2/1/1 6/2/1 18/3/1
f 14/4/2 8/5/2 3/6/2
usemtl Material.002
f 6/7/3 5/8/3 7/9/3
usemtl Material.013
f 3/10/4 7/11/4 19/12/4
f 16/13/5 10/14/5 7/15/5
f 4/16/6 9/17/6 14/18/6
usemtl Material.001
s 7
f 16/19/7 13/20/8 1/21/9
usemtl Material.013
s off
f 11/22/10 2/23/10 18/24/10
usemtl Material.001
s 7
f 10/25/11 16/26/7 1/27/9
usemtl Material.013
s off
f 6/28/12 12/29/12 13/30/12
usemtl Material.002
f 19/31/13 10/32/13 1/33/13
usemtl Material.001
s 7
f 11/34/14 1/35/9 13/36/8
usemtl Material.013
s off
f 2/1/1 12/37/1 6/2/1
f 14/4/2 9/38/2 8/5/2
usemtl Material.002
f 8/39/3 9/40/3 7/9/3
f 9/40/3 17/41/3 18/42/3
f 7/9/3 9/40/3 6/7/3
f 18/42/3 6/7/3 9/40/3
usemtl Material.013
f 3/10/15 8/43/15 7/11/15
f 19/44/16 7/15/16 10/14/16
f 7/15/17 5/45/17 16/13/17
f 5/45/18 15/46/18 16/13/18
f 4/16/6 17/47/6 9/17/6
usemtl Material.001
s 7
f 16/19/7 15/48/19 13/20/8
usemtl Material.013
s off
f 17/49/10 4/50/10 18/24/10
f 4/50/10 11/22/10 18/24/10
f 13/30/20 15/51/20 5/52/20
f 5/52/21 6/28/21 13/30/21
usemtl Material.002
f 1/33/13 11/53/13 14/54/13
f 11/53/13 4/55/13 14/54/13
f 14/54/13 3/56/13 1/33/13
f 3/56/13 19/31/13 1/33/13
usemtl Material.001
s 7
f 12/57/22 2/58/23 13/36/8
f 2/58/23 11/34/14 13/36/8
