# Blender v2.79 (sub 0) OBJ File: 'Outpost01-WallPY.blend'
# www.blender.org
mtllib outpostFloor7posX0_3339710235595703posY-4_377552032470703.mtl
o Cube.004_Cube.005_Material.004_Cube.004_Cube.005_Material.0.759_Cube.004_Cube.005_Material.004_Cube.004_Cube.005_Material.0.906
v 5.129557 -3.521774 0.235092
v 5.566254 -3.523249 0.235094
v 5.129557 -3.521774 0.535092
v 5.566254 -3.523249 0.535095
v 4.667776 -3.521774 0.235092
v 5.954620 -3.181133 0.235094
v 3.881775 2.451358 0.535468
v 2.412586 -0.620312 0.535093
v 5.878937 0.265651 0.535094
v 2.788944 1.761355 0.532981
v 5.435101 1.761355 0.532982
v 5.517529 1.724717 0.533033
v 5.503256 1.746651 0.229390
v 1.461721 0.915853 0.230288
v 4.665306 -3.521774 0.535092
v 5.958933 -3.177336 0.535095
v 1.873655 0.265651 0.535093
v 1.470238 0.928806 0.534157
v 5.852684 1.391533 0.533504
v 2.777689 1.746651 0.229389
v 3.917976 2.466554 0.229390
v 5.475245 1.774492 0.229390
v 2.327631 -0.507509 0.231829
v 5.848047 1.403952 0.229761
vt 0.706808 0.218299
vt 0.758676 0.182667
vt 0.758676 0.218299
vt 0.154799 0.932913
vt 0.099673 0.934194
vt 0.000242 0.895583
vt 0.706808 0.146552
vt 0.761655 0.182184
vt 0.706808 0.182184
vt 0.229338 0.000242
vt 0.696589 0.280258
vt 0.198098 0.475005
vt 0.843267 0.475688
vt 0.999758 0.574626
vt 0.951816 0.653324
vt 0.929561 0.821679
vt 0.493118 0.857684
vt 0.476317 0.821679
vt 0.480899 0.894532
vt 0.476317 0.858167
vt 0.636485 0.858241
vt 0.135523 0.936057
vt 0.544973 0.972168
vt 0.000242 0.972170
vt 0.797798 0.653845
vt 0.483454 0.660939
vt 0.476317 0.653845
vt 0.905447 0.000242
vt 0.799002 0.036398
vt 0.707563 0.000242
vt 0.476317 0.821195
vt 0.660810 0.739241
vt 0.790609 0.821195
vt 0.711499 0.109940
vt 0.714573 0.073872
vt 0.769238 0.109953
vt 0.707490 0.146068
vt 0.768963 0.110437
vt 0.768963 0.146068
vt 0.717522 0.073368
vt 0.713749 0.037158
vt 0.916152 0.036881
vt 0.706808 0.182667
vt 0.047823 0.935574
vt 0.000242 0.486539
vt 0.475833 0.475488
vt 0.414284 0.582175
vt 0.761948 0.146552
vt 0.706325 0.340955
vt 0.678487 0.384720
vt 0.649208 0.431098
vt 0.000242 0.471722
vt 0.000242 0.286878
vt 0.173058 0.013141
vt 0.476317 0.653362
vt 0.479423 0.519699
vt 0.529122 0.475488
vt 0.519208 0.480141
vt 0.929411 0.857312
vt 0.821329 0.858433
vt 0.819635 0.894532
vt 0.634406 0.894307
vt 0.001771 0.936091
vt 0.544575 0.936531
vt 0.663301 0.738758
vt 0.922170 0.036284
vt 0.706808 0.036372
vt 0.706808 0.109935
vt 0.770704 0.073872
vt 0.706808 0.110437
vt 0.919399 0.073389
vt 0.706808 0.073389
vn -0.0034 -1.0000 0.0000
vn 0.0000 -0.0000 1.0000
vn 0.0000 -1.0000 0.0000
vn 0.0000 -0.0012 -1.0000
vn -0.0000 0.0014 1.0000
vn -0.7899 -0.6132 -0.0068
vn -0.5337 0.8454 -0.0212
vn 0.9996 0.0232 -0.0146
vn 0.0000 0.0000 -1.0000
vn -0.8534 -0.5191 0.0460
vn -0.0000 -0.0036 1.0000
vn 0.7048 0.7091 0.0181
vn 0.6610 -0.7504 0.0000
vn 0.4044 0.9099 0.0928
vn 0.0002 -0.0009 -1.0000
vn 0.0000 -0.0011 -1.0000
vn -0.7899 -0.6133 -0.0065
vn -0.5337 0.8454 -0.0211
vn 0.9996 0.0233 -0.0143
vn 0.9996 0.0232 -0.0147
vn -0.8534 -0.5192 0.0460
vn -0.8535 -0.5191 0.0460
vn 0.7049 0.7091 0.0182
vn 0.4043 0.9099 0.0930
usemtl Material.010
s off
f 2/1/1 3/2/1 1/3/1
f 15/4/2 3/5/2 16/6/2
f 3/7/3 5/8/3 1/9/3
f 24/10/4 6/11/4 23/12/4
f 10/13/5 18/14/5 17/15/5
usemtl Material.013
f 5/16/6 8/17/6 23/18/6
f 7/19/7 21/20/7 20/21/7
f 9/22/8 6/23/8 24/24/8
usemtl Material.002
f 20/25/9 22/26/9 13/27/9
usemtl Material.013
f 23/28/10 17/29/10 14/30/10
usemtl Material.010
f 11/31/11 7/32/11 10/33/11
usemtl Material.013
f 13/34/12 12/35/12 24/36/12
usemtl Material.010
f 6/37/13 4/38/13 2/39/13
usemtl Material.013
f 11/40/14 22/41/14 21/42/14
usemtl Material.010
f 2/1/1 4/43/1 3/2/1
f 3/5/2 4/44/2 16/6/2
f 16/6/2 9/45/2 15/4/2
f 9/45/2 17/46/2 8/47/2
f 15/4/2 9/45/2 8/47/2
f 3/7/3 15/48/3 5/8/3
f 6/11/9 2/49/9 1/50/9
f 1/50/9 5/51/9 6/11/9
f 5/51/15 23/12/15 6/11/15
f 23/12/16 14/52/16 20/53/16
f 20/53/16 13/54/16 23/12/16
f 13/54/16 24/10/16 23/12/16
f 17/15/5 9/55/5 10/13/5
f 9/55/5 19/56/5 11/57/5
f 19/56/5 12/58/5 11/57/5
f 11/57/5 10/13/5 9/55/5
usemtl Material.013
f 5/16/17 15/59/17 8/17/17
f 14/60/18 18/61/18 20/21/18
f 18/61/7 10/62/7 20/21/7
f 10/62/7 7/19/7 20/21/7
f 24/24/19 19/63/19 9/22/19
f 9/22/20 16/64/20 6/23/20
usemtl Material.002
f 20/25/9 21/65/9 22/26/9
usemtl Material.013
f 8/66/21 17/29/21 23/28/21
f 17/29/22 18/67/22 14/30/22
f 22/68/12 12/35/12 13/34/12
f 12/35/23 19/69/23 24/36/23
usemtl Material.010
f 6/37/13 16/70/13 4/38/13
usemtl Material.013
f 21/42/24 7/71/24 11/40/24
f 11/40/14 12/72/14 22/41/14
