# Blender v2.79 (sub 0) OBJ File: 'Outpost01-WallPY.blend'
# www.blender.org
mtllib outpostFloor28posX-25_089550018310547posY2_8000049591064453.mtl
o Cube.004_Cube.005_Material.004_Cube.004_Cube.005_Material.0.738_Cube.004_Cube.005_Material.004_Cube.004_Cube.005_Material.0.885
v -5.129557 26.554169 0.235089
v -5.566254 26.555641 0.235092
v -5.129557 26.554169 0.535090
v -5.566254 26.555641 0.535092
v -1.941919 26.554169 0.235090
v -5.906614 26.255816 0.235092
v -5.564878 25.868658 0.535090
v -0.234829 23.898268 0.535091
v -0.215584 24.588459 0.535091
v -2.613506 23.486774 0.231770
v -0.558941 23.389336 0.231665
v -1.939247 26.554169 0.535090
v -5.473482 25.785917 0.234258
v -5.914946 26.248478 0.535092
v -2.605301 23.489756 0.535091
v -0.553474 23.392498 0.535092
v -0.347450 23.719236 0.535091
v -0.263956 23.857149 0.232171
v -0.247108 23.883930 0.232200
v -0.227270 24.598764 0.232974
vt 0.972072 0.045706
vt 0.904303 0.090528
vt 0.904303 0.045706
vt 0.904303 0.090961
vt 0.949125 0.156207
vt 0.904303 0.156207
vt 0.876506 0.970698
vt 0.981107 0.925411
vt 0.983348 0.970698
vt 0.874872 0.925427
vt 0.568762 0.970749
vt 0.567970 0.925411
vt 0.830310 0.182481
vt 0.811475 0.058144
vt 0.885314 0.147389
vt 0.429687 0.440412
vt 0.830732 0.697993
vt 0.265998 0.879407
vt 0.981477 0.045209
vt 0.904303 0.000421
vt 0.999784 0.000216
vt 0.568234 0.879839
vt 0.956532 0.924979
vt 0.567970 0.924663
vt 0.559933 0.970940
vt 0.501345 0.925657
vt 0.559056 0.925604
vt 0.000615 0.925604
vt 0.476871 0.970427
vt 0.000216 0.970427
vt 0.911820 0.201900
vt 0.904303 0.156639
vt 0.935903 0.156639
vt 0.000216 0.879839
vt 0.549150 0.924798
vt 0.000893 0.925172
vt 0.973731 0.090528
vt 0.949125 0.090961
vt 0.877948 0.925523
vt 0.876073 0.970748
vt 0.429686 0.439979
vt 0.056230 0.332733
vt 0.266306 0.000216
vt 0.000979 0.241290
vt 0.000216 0.197617
vt 0.000216 0.153939
vt 0.903870 0.082213
vt 0.885747 0.733066
vt 0.904781 0.799832
vt 0.830108 0.819314
vt 0.000216 0.725971
vt 0.000216 0.681315
vt 0.054301 0.548349
vt 0.000996 0.636665
vt 0.904303 0.045274
vt 0.958841 0.879840
vt 0.477303 0.970940
vt 0.476870 0.925604
vt 0.907093 0.201895
vt 0.567538 0.879839
vn -0.6610 0.7504 0.0000
vn 0.0034 1.0000 0.0000
vn 0.9988 -0.0277 -0.0392
vn -0.0473 -0.9988 0.0113
vn -0.0000 0.0011 -1.0000
vn -0.0000 0.0000 1.0000
vn -0.7348 -0.6773 -0.0370
vn 0.7519 0.6593 -0.0067
vn 0.8458 -0.5333 -0.0097
vn 0.0000 1.0000 0.0000
vn 0.8464 -0.5324 -0.0091
vn -0.6263 -0.7792 0.0246
vn 0.9988 -0.0279 -0.0396
vn -0.0474 -0.9988 0.0111
vn -0.0009 0.0010 -1.0000
vn 0.7519 0.6593 -0.0066
vn 0.8464 -0.5325 -0.0091
vn -0.6263 -0.7792 0.0240
usemtl Material.010
s off
f 6/1/1 4/2/1 2/3/1
f 2/4/2 3/5/2 1/6/2
usemtl Material.013
f 20/7/3 8/8/3 19/9/3
f 15/10/4 11/11/4 16/12/4
usemtl Material.010
f 1/13/5 13/14/5 2/15/5
f 12/16/6 3/17/6 15/18/6
usemtl Material.013
f 7/19/7 6/20/7 13/21/7
f 12/22/8 20/23/8 5/24/8
f 11/25/9 17/26/9 16/27/9
usemtl Material.010
f 5/28/10 3/29/10 12/30/10
usemtl Material.013
f 18/31/11 8/32/11 17/33/11
f 15/34/12 13/35/12 10/36/12
usemtl Material.010
f 6/1/1 14/37/1 4/2/1
f 2/4/2 4/38/2 3/5/2
usemtl Material.013
f 20/7/13 9/39/13 8/8/13
f 15/10/14 10/40/14 11/11/14
usemtl Material.010
f 1/13/5 5/41/5 13/14/5
f 5/41/5 20/42/5 10/43/5
f 20/42/5 19/44/5 18/45/5
f 18/45/5 11/46/5 20/42/5
f 11/46/5 10/43/5 20/42/5
f 10/43/5 13/14/5 5/41/5
f 13/14/15 6/47/15 2/15/15
f 4/48/6 14/49/6 7/50/6
f 7/50/6 15/18/6 3/17/6
f 15/18/6 16/51/6 17/52/6
f 9/53/6 17/52/6 8/54/6
f 15/18/6 17/52/6 9/53/6
f 9/53/6 12/16/6 15/18/6
f 3/17/6 4/48/6 7/50/6
usemtl Material.013
f 7/19/7 14/55/7 6/20/7
f 12/22/16 9/56/16 20/23/16
f 11/25/9 18/57/9 17/26/9
usemtl Material.010
f 5/28/10 1/58/10 3/29/10
usemtl Material.013
f 18/31/17 19/59/17 8/32/17
f 15/34/18 7/60/18 13/35/18
