# Blender v2.79 (sub 0) OBJ File: 'Outpost01-WallPY.blend'
# www.blender.org
mtllib outpostFloor40posX-9_266874313354492posY6_21183967590332.mtl
o Cube.004_Cube.005_Material.004_Cube.004_Cube.005_Material.0.726_Cube.004_Cube.005_Material.004_Cube.004_Cube.005_Material.0.873
v -4.871704 6.942243 1.186553
v -3.893847 9.681780 1.186553
v -4.726730 10.996777 1.186553
v -4.786604 11.001341 1.186553
v -4.890020 6.538000 0.229387
v -8.406450 7.661073 0.229387
v -8.397196 9.679564 0.229387
v -8.289762 8.035276 1.186551
v -8.280817 9.947401 1.186551
v -8.020124 10.671743 1.186552
v -5.038774 6.995598 1.186553
v -8.246035 7.609772 0.229387
v -8.001810 10.778044 0.229387
v -4.967764 11.089039 0.229387
v -3.808599 9.567387 0.229388
v -4.763178 11.074955 0.229387
vt 0.524665 0.331750
vt 0.635665 0.142490
vt 0.635663 0.374897
vt 0.839396 0.768163
vt 0.513584 0.879213
vt 0.504480 0.768162
vt 0.544392 0.000238
vt 0.898895 0.111113
vt 0.524665 0.111113
vt 0.174824 0.000238
vt 0.402560 0.510117
vt 0.164331 0.528614
vt 0.659794 0.222597
vt 0.666701 0.222292
vt 0.666701 0.332945
vt 0.897467 0.648598
vt 0.877749 0.767686
vt 0.504480 0.648597
vt 0.713735 0.375373
vt 0.524665 0.485587
vt 0.534515 0.375373
vt 0.000238 0.684738
vt 0.104883 0.529090
vt 0.504004 0.656604
vt 0.636141 0.222292
vt 0.659318 0.330400
vt 0.636141 0.334909
vt 0.536823 0.529090
vt 0.504480 0.648121
vt 0.516630 0.529090
vt 0.636141 0.111589
vt 0.737008 0.221816
vt 0.648372 0.221816
vt 0.524665 0.111589
vt 0.883940 0.879213
vt 0.895557 0.000260
vt 0.000238 0.134504
vt 0.001752 0.110941
vt 0.524189 0.123150
vt 0.396738 0.528614
vt 0.037646 0.483670
vt 0.897140 0.767686
vt 0.730114 0.485587
vt 0.130231 0.993727
vt 0.111023 0.999762
vt 0.096560 0.534225
vt 0.475434 0.572971
vt 0.504003 0.876120
vt 0.910111 0.648121
vt 0.770562 0.111589
vn -0.9929 0.0046 0.1193
vn 0.9346 -0.3336 0.1231
vn -0.1008 0.9888 0.1097
vn 0.0000 -0.0000 -1.0000
vn 0.0758 0.9940 0.0783
vn -0.2819 -0.8814 0.3790
vn 0.8447 0.5350 0.0115
vn -0.0000 -0.0000 1.0000
vn 0.0685 0.9946 0.0782
vn -0.2817 -0.8820 0.3779
vn -0.9407 0.3386 0.0196
vn -0.9928 0.0046 0.1194
vn 0.9346 -0.3336 0.1230
vn -0.1014 0.9890 0.1079
vn 0.8448 0.5349 0.0113
usemtl Material.013
s off
f 8/1/1 7/2/1 6/3/1
f 1/4/2 15/5/2 2/6/2
f 14/7/3 10/8/3 4/9/3
usemtl Material.002
f 15/10/4 12/11/4 7/12/4
usemtl Material.013
f 4/13/5 3/14/5 16/15/5
f 8/16/6 12/17/6 11/18/6
f 2/19/7 16/20/7 3/21/7
usemtl Material.002
f 2/22/8 4/23/8 9/24/8
usemtl Material.013
f 4/25/9 16/26/9 14/27/9
f 11/28/10 5/29/10 1/30/10
f 13/31/11 9/32/11 10/33/11
f 8/1/12 9/34/12 7/2/12
f 1/4/13 5/35/13 15/5/13
f 14/7/14 13/36/14 10/8/14
usemtl Material.002
f 14/37/4 16/38/4 15/10/4
f 15/10/4 5/39/4 12/11/4
f 12/11/4 6/40/4 7/12/4
f 7/12/4 13/41/4 14/37/4
f 14/37/4 15/10/4 7/12/4
usemtl Material.013
f 8/16/6 6/42/6 12/17/6
f 2/19/15 15/43/15 16/20/15
usemtl Material.002
f 11/44/8 1/45/8 2/22/8
f 2/22/8 3/46/8 4/23/8
f 4/23/8 10/47/8 9/24/8
f 9/24/8 8/48/8 11/44/8
f 11/44/8 2/22/8 9/24/8
usemtl Material.013
f 11/28/10 12/49/10 5/29/10
f 13/31/11 7/50/11 9/32/11
