# Blender v2.79 (sub 0) OBJ File: 'Outpost01-WallPY.blend'
# www.blender.org
mtllib outpostFloor57posX-15_978533744812012posY-7_57855224609375.mtl
o Cube.004_Cube.005_Material.004_Cube.004_Cube.005_Material.0.709_Cube.004_Cube.005_Material.004_Cube.004_Cube.005_Material.0.856
v 6.375036 13.563197 1.186557
v 5.886307 16.298515 1.186556
v 6.348608 16.987595 1.186557
v 9.354607 14.450995 1.186555
v 6.321327 13.603925 0.229391
v 6.258121 13.639182 0.229391
v 9.449547 14.578511 0.229391
v 5.832125 16.030640 0.229391
v 9.546038 17.778645 0.229391
v 6.578642 17.143486 0.229391
v 8.939545 18.176197 0.229391
v 9.523582 17.793427 0.229391
v 6.420900 13.537637 1.186557
v 5.906118 16.187275 1.186556
v 8.976755 18.136734 1.186556
v 9.005886 18.117641 1.186555
v 9.455788 17.821445 1.186555
v 6.235001 13.768573 0.229391
vt 0.988678 0.680496
vt 0.623061 0.568797
vt 0.979927 0.568804
vt 0.390789 0.906017
vt 0.236812 0.893352
vt 0.336866 0.456649
vt 0.917729 0.904563
vt 0.891386 0.792767
vt 0.906652 0.792767
vt 0.670964 0.323490
vt 0.662645 0.434624
vt 0.664928 0.322613
vt 0.608128 0.456649
vt 0.984630 0.568320
vt 0.612783 0.568325
vt 0.609430 0.322141
vt 0.619603 0.210962
vt 0.690533 0.322141
vt 0.608128 0.792295
vt 0.909544 0.680970
vt 0.941277 0.792295
vt 0.677926 0.000236
vt 0.621638 0.098191
vt 0.609430 0.093374
vt 0.350174 0.456176
vt 0.265516 0.007219
vt 0.371006 0.008575
vt 0.662173 0.356260
vt 0.609430 0.454491
vt 0.609430 0.322613
vt 0.639350 0.210489
vt 0.765069 0.098663
vt 0.735726 0.210490
vt 0.608128 0.680496
vt 0.000236 0.713636
vt 0.005976 0.633333
vt 0.006888 0.622723
vt 0.607656 0.720470
vt 0.595925 0.738412
vt 0.607656 0.728815
vt 0.608128 0.904563
vt 0.670963 0.435833
vt 0.999764 0.456649
vt 0.615557 0.210962
vt 0.610252 0.680968
vt 0.926159 0.098191
vt 0.608958 0.203364
vt 0.608958 0.213953
vt 0.006333 0.274270
vt 0.002259 0.212264
vt 0.000236 0.205016
vt 0.360987 0.000236
vt 0.612063 0.456171
vt 0.609430 0.098663
vn 0.2959 -0.9503 -0.0966
vn 0.0000 0.0000 -1.0000
vn -0.9789 -0.1749 0.1057
vn -0.4868 -0.8735 -0.0099
vn 0.9950 -0.0300 0.0952
vn 0.5481 0.8363 0.0132
vn -0.4001 0.9150 0.0529
vn -0.9791 -0.1744 0.1042
vn 0.0000 -0.0000 1.0000
vn 0.5498 0.8352 0.0145
vn -0.8255 0.5539 -0.1083
vn 0.2960 -0.9502 -0.0972
vn -0.4871 -0.8733 -0.0098
vn 0.9951 -0.0299 0.0947
vn -0.4002 0.9149 0.0533
vn -0.8256 0.5538 -0.1082
usemtl Material.013
s off
f 5/1/1 4/2/1 13/3/1
usemtl Material.002
f 8/4/2 10/5/2 7/6/2
usemtl Material.013
f 1/7/3 18/8/3 6/9/3
f 1/10/4 5/11/4 13/12/4
f 17/13/5 7/14/5 9/15/5
f 11/16/6 16/17/6 12/18/6
f 15/19/7 10/20/7 3/21/7
f 8/22/8 14/23/8 2/24/8
usemtl Material.002
f 4/25/9 3/26/9 14/27/9
usemtl Material.013
f 17/28/10 12/29/10 16/30/10
f 3/31/11 8/32/11 2/33/11
f 5/1/12 7/34/12 4/2/12
usemtl Material.002
f 11/35/2 12/36/2 10/5/2
f 12/36/2 9/37/2 7/6/2
f 10/5/2 12/36/2 7/6/2
f 7/6/2 5/38/2 18/39/2
f 5/38/2 6/40/2 18/39/2
f 18/39/2 8/4/2 7/6/2
usemtl Material.013
f 1/7/3 14/41/3 18/8/3
f 1/10/13 6/42/13 5/11/13
f 17/13/14 4/43/14 7/14/14
f 11/16/6 15/44/6 16/17/6
f 15/19/15 11/45/15 10/20/15
f 8/22/8 18/46/8 14/23/8
usemtl Material.002
f 1/47/9 13/48/9 14/27/9
f 13/48/9 4/25/9 14/27/9
f 4/25/9 17/49/9 3/26/9
f 17/49/9 16/50/9 3/26/9
f 16/50/9 15/51/9 3/26/9
f 3/26/9 2/52/9 14/27/9
usemtl Material.013
f 17/28/10 9/53/10 12/29/10
f 3/31/16 10/54/16 8/32/16
