# Blender v2.79 (sub 0) OBJ File: 'Outpost01-WallPY.blend'
# www.blender.org
mtllib outpostFloor78posX-6_008746147155762posY-13_849576950073242.mtl
o Cube.004_Cube.005_Material.004_Cube.004_Cube.005_Material.0.688_Cube.004_Cube.005_Material.004_Cube.004_Cube.005_Material.0.835
v 16.166046 7.494794 0.393085
v 10.713454 4.151964 0.229389
v 13.012044 8.318983 0.229389
v 16.396706 5.863236 0.229388
v 16.172802 7.374884 0.229388
v 10.578708 6.704189 1.186553
v 10.727567 3.886148 1.186553
v 10.733708 3.873842 1.186553
v 16.528717 5.438068 1.186555
v 16.234299 7.418406 1.186555
v 16.123901 7.601983 1.186555
v 10.580165 6.669912 0.229389
v 12.855945 3.650673 0.229389
v 10.727057 4.122501 0.229389
v 15.654771 4.237198 0.229388
v 13.744031 8.123064 0.229389
v 16.157532 7.476730 0.229388
v 16.517685 5.512537 1.186555
v 13.097760 8.412933 1.186554
v 13.284520 8.362946 1.186554
v 12.775886 3.421021 1.186554
v 15.907397 4.076375 1.186555
vt 0.299385 0.589295
vt 0.288227 0.677093
vt 0.270544 0.675928
vt 0.299871 0.762752
vt 0.534132 0.675019
vt 0.558531 0.762752
vt 0.749528 0.547678
vt 0.746647 0.546938
vt 0.749528 0.456616
vt 0.026853 0.752893
vt 0.163926 0.839151
vt 0.000243 0.845921
vt 0.753098 0.456616
vt 0.754489 0.456874
vt 0.753098 0.536584
vt 0.096538 0.139961
vt 0.444899 0.119243
vt 0.392564 0.432911
vt 0.494384 0.763238
vt 0.424802 0.826576
vt 0.299871 0.763240
vt 0.285515 0.677579
vt 0.025102 0.746738
vt 0.000243 0.677579
vt 0.639015 0.584730
vt 0.602027 0.664584
vt 0.593607 0.660316
vt 0.446703 0.544877
vt 0.675224 0.559934
vt 0.445385 0.559934
vt 0.319516 0.674533
vt 0.593121 0.584730
vt 0.581627 0.674518
vt 0.726527 0.456616
vt 0.746162 0.456616
vt 0.736937 0.529366
vt 0.456721 0.456616
vt 0.724388 0.544391
vt 0.445385 0.544391
vt 0.788745 0.001273
vt 0.999757 0.199017
vt 0.739438 0.456130
vt 0.752612 0.456616
vt 0.752612 0.544794
vt 0.750014 0.529903
vt 0.559016 0.765502
vt 0.753357 0.675024
vt 0.758884 0.765502
vt 0.000243 0.584730
vt 0.230080 0.584730
vt 0.303015 0.675019
vt 0.163926 0.747224
vt 0.444898 0.387619
vt 0.221745 0.584244
vt 0.213216 0.580277
vt 0.086761 0.521192
vt 0.000243 0.382755
vt 0.239725 0.001524
vt 0.247719 0.000243
vt 0.500539 0.766358
vt 0.796540 0.664587
vt 0.299871 0.584730
vt 0.726041 0.456617
vt 0.930036 0.456130
vt 0.934705 0.447782
vt 0.473796 0.336063
vt 0.447835 0.196269
vt 0.445385 0.202675
vt 0.508137 0.031383
vt 0.521362 0.017027
vt 0.806330 0.000243
vt 0.561626 0.675019
vn 0.2568 0.9593 -0.1172
vn -0.9986 -0.0528 0.0001
vn -0.9031 -0.4170 -0.1025
vn 0.8690 -0.3965 -0.2960
vn -0.8894 -0.4439 -0.1091
vn -0.0000 -0.0000 -1.0000
vn 0.9867 0.1461 -0.0712
vn 0.2571 0.9594 -0.1159
vn 0.9865 0.1479 -0.0701
vn 0.2568 0.9591 -0.1192
vn 0.2004 -0.9563 -0.2127
vn 0.8567 0.5152 -0.0241
vn -0.5611 0.8272 -0.0309
vn -0.0000 -0.0000 1.0000
vn 0.9844 0.1620 -0.0691
vn -0.2098 -0.9467 -0.2445
vn -0.9986 -0.0529 0.0004
vn 0.9867 0.1462 -0.0712
vn 0.9867 0.1467 -0.0701
vn 0.2001 -0.9562 -0.2135
vn -0.5610 0.8273 -0.0305
vn -0.2099 -0.9466 -0.2447
usemtl Material.013
s off
f 3/1/1 19/2/1 20/3/1
f 6/4/2 2/5/2 7/6/2
f 2/7/3 14/8/3 7/9/3
f 9/10/4 15/11/4 4/12/4
f 8/13/5 7/14/5 14/15/5
usemtl Material.002
f 13/16/6 12/17/6 16/18/6
usemtl Material.013
f 18/19/7 4/20/7 5/21/7
f 20/22/8 11/23/8 1/24/8
f 10/25/9 5/26/9 17/27/9
f 17/28/10 16/29/10 1/30/10
f 15/31/11 21/32/11 13/33/11
f 11/34/12 10/35/12 1/36/12
f 3/37/13 6/38/13 19/39/13
usemtl Material.002
f 20/40/14 6/41/14 21/42/14
usemtl Material.013
f 10/43/15 17/44/15 1/45/15
f 13/46/16 8/47/16 14/48/16
f 20/3/1 1/49/1 16/50/1
f 16/50/1 3/1/1 20/3/1
f 6/4/17 12/51/17 2/5/17
f 9/10/4 22/52/4 15/11/4
usemtl Material.002
f 3/53/6 16/18/6 12/17/6
f 16/18/6 17/54/6 5/55/6
f 4/56/6 16/18/6 5/55/6
f 4/56/6 15/57/6 16/18/6
f 15/57/6 13/16/6 16/18/6
f 13/16/6 14/58/6 2/59/6
f 2/59/6 12/17/6 13/16/6
usemtl Material.013
f 18/19/18 9/60/18 4/20/18
f 10/25/19 18/61/19 5/26/19
f 15/31/20 22/62/20 21/32/20
f 3/37/21 12/63/21 6/38/21
usemtl Material.002
f 8/64/14 21/42/14 7/65/14
f 21/42/14 22/66/14 18/67/14
f 7/65/14 21/42/14 6/41/14
f 22/66/14 9/68/14 18/67/14
f 18/67/14 10/69/14 20/40/14
f 10/69/14 11/70/14 20/40/14
f 20/40/14 19/71/14 6/41/14
f 18/67/14 20/40/14 21/42/14
usemtl Material.013
f 13/46/22 21/72/22 8/47/22
