# Blender v2.79 (sub 0) OBJ File: 'Outpost01-WallPY.blend'
# www.blender.org
mtllib outpostFloor32posX-19_705049514770508posY1_3555583953857422.mtl
o Cube.004_Cube.005_Material.004_Cube.004_Cube.005_Material.0.734_Cube.004_Cube.005_Material.004_Cube.004_Cube.005_Material.0.881
v -1.683741 19.092133 1.186551
v -0.130690 19.092133 1.186551
v -3.006067 20.184738 0.586340
v -2.951559 20.174458 0.229387
v -0.744677 18.355034 1.186551
v -2.806490 20.275341 0.536568
v -0.610548 18.337250 0.229387
v 0.571703 19.856716 0.766534
v -2.224047 20.524300 0.229387
v -1.065998 20.275341 0.536567
v -2.135338 20.598007 0.535404
v 0.520773 19.695145 0.229387
vt 0.000319 0.545594
vt 0.253918 0.359864
vt 0.576276 0.545594
vt 0.300903 0.808298
vt 0.119104 0.950896
vt 0.000319 0.808194
vt 0.301935 0.856028
vt 0.301542 0.747019
vt 0.628395 0.793707
vt 0.950532 0.747019
vt 0.950532 0.999681
vt 0.857528 0.942819
vt 0.828378 0.253875
vt 0.576669 0.022236
vt 0.828378 0.000319
vt 0.965638 0.126050
vt 0.829017 0.253875
vt 0.829017 0.000319
vt 0.632802 0.314853
vt 0.645257 0.356533
vt 0.576669 0.356533
vt 0.699143 0.314214
vt 0.576669 0.254514
vt 0.732909 0.254514
vt 0.979375 0.359655
vt 0.979375 0.495905
vt 0.916424 0.366249
vt 0.653270 0.897721
vt 0.301542 0.897721
vt 0.638888 0.856666
vt 0.632353 0.546233
vt 0.958222 0.642655
vt 0.632353 0.690362
vt 0.586443 0.359655
vt 0.915786 0.359655
vt 0.696720 0.545594
vt 0.300903 0.807555
vt 0.000319 0.807452
vt 0.181433 0.546233
vt 0.631714 0.546233
vt 0.384776 0.746381
vt 0.301542 0.546233
vt 0.511191 0.142470
vt 0.000319 0.017151
vt 0.576030 0.000319
vt 0.022866 0.359862
vt 0.585804 0.476331
vt 0.844579 0.793941
vt 0.856889 0.856028
vt 0.000319 0.359224
vn -0.6158 -0.7847 -0.0716
vn 0.0000 -0.0000 1.0000
vn -0.2756 -0.9130 0.3008
vn 0.7629 -0.6355 0.1188
vn 0.7629 -0.6356 0.1188
vn 0.7629 -0.6355 0.1187
vn -0.4305 0.8979 -0.0916
vn -0.4316 0.8975 -0.0909
vn -0.4316 0.8974 -0.0910
vn 0.0000 0.4815 0.8765
vn -0.1662 0.3490 0.9223
vn 0.1274 0.4256 0.8959
vn 0.0000 -0.0000 -1.0000
vn -0.6158 -0.7846 -0.0717
vn -0.6159 -0.7846 -0.0714
vn -0.2759 -0.9132 0.2999
usemtl Material.013
s off
f 7/1/1 1/2/1 4/3/1
usemtl Material.002
f 1/4/2 5/5/2 2/6/2
usemtl Material.013
f 12/7/3 8/8/3 10/9/3
f 2/10/4 12/11/4 8/12/4
f 7/13/5 12/14/5 2/15/5
usemtl Material.002
f 5/16/6 7/17/6 2/18/6
usemtl Material.013
f 3/19/7 6/20/7 4/21/7
f 6/22/8 9/23/8 4/24/8
f 9/25/9 6/26/9 11/27/9
f 3/28/10 1/29/10 6/30/10
f 6/31/11 1/32/11 11/33/11
f 11/34/12 1/35/12 10/36/12
usemtl Material.002
f 1/37/10 2/38/10 10/39/10
usemtl Material.013
f 10/40/10 2/41/10 8/42/10
f 9/43/13 7/44/13 4/45/13
f 5/46/14 1/2/14 7/1/14
f 1/2/15 3/47/15 4/3/15
f 11/48/16 9/49/16 10/9/16
f 9/49/16 12/7/16 10/9/16
f 9/43/13 12/50/13 7/44/13
