# Blender v2.79 (sub 0) OBJ File: 'Outpost01-WallPY.blend'
# www.blender.org
mtllib outpostFloor90posX-2_7094125747680664posY-12_910231590270996.mtl
o Cube.004_Cube.005_Material.004_Cube.004_Cube.005_Material.0.676_Cube.004_Cube.005_Material.004_Cube.004_Cube.005_Material.0.823
v 11.039528 1.746648 0.229389
v 15.969014 1.746648 0.229388
v 11.027688 1.772512 0.536565
v 15.971921 1.754313 0.536568
v 10.839313 3.070884 1.186553
v 12.855207 3.648012 0.229389
v 10.734113 3.871317 1.186553
v 10.864624 2.895965 1.099913
v 13.440141 3.070884 1.186554
v 15.851156 1.964778 0.641937
v 10.727698 4.120359 0.229389
v 15.737824 2.141262 0.229388
v 12.774796 3.418791 1.186554
vt 0.410117 0.577996
vt 0.648330 0.677610
vt 0.314939 0.603680
vt 0.000197 0.447979
vt 0.314544 0.447979
vt 0.161933 0.562322
vt 0.476847 0.314434
vt 0.509381 0.368614
vt 0.449331 0.368614
vt 0.593174 0.577601
vt 0.314939 0.447979
vt 0.601083 0.447979
vt 0.739947 0.658028
vt 0.688134 0.041141
vt 0.937783 0.279540
vt 0.683000 0.718494
vt 0.035386 0.678005
vt 0.684568 0.678019
vt 0.578958 0.314040
vt 0.383805 0.000198
vt 0.634040 0.235303
vt 0.448936 0.314434
vt 0.350416 0.447584
vt 0.022129 0.329537
vt 0.684568 0.577996
vt 0.310975 0.488326
vt 0.138729 0.573702
vt 0.032728 0.573702
vt 0.508706 0.328272
vt 0.318723 0.577584
vt 0.688134 0.688384
vt 0.999803 0.000197
vt 0.035759 0.718351
vt 0.000197 0.020488
vt 0.028377 0.000197
vt 0.687739 0.155617
vt 0.448936 0.444095
vt 0.000197 0.386207
vn -0.0000 -0.0000 1.0000
vn -0.9911 -0.1302 -0.0272
vn 0.8626 0.5054 -0.0208
vn 0.2101 0.9465 0.2449
vn -0.0000 -0.0000 -1.0000
vn -0.0037 -0.9965 0.0838
vn 0.0004 -0.4482 0.8939
vn 0.4493 0.8595 0.2437
vn -0.9911 -0.1300 -0.0270
vn -0.9911 -0.1303 -0.0273
vn 0.2099 0.9467 0.2443
vn 0.0000 -0.9997 0.0249
vn -0.0016 -0.4452 0.8954
vn -0.0046 -0.4498 0.8931
vn -0.0000 -0.4439 0.8961
vn 0.4494 0.8595 0.2436
vn 0.4494 0.8593 0.2442
usemtl Material.002
s off
f 13/1/1 5/2/1 9/3/1
usemtl Material.013
f 11/4/2 1/5/2 8/6/2
f 10/7/3 2/8/3 12/9/3
f 7/10/4 6/11/4 11/12/4
usemtl Material.002
f 12/13/5 1/14/5 6/15/5
f 1/16/6 4/17/6 3/18/6
f 3/19/7 9/20/7 8/21/7
usemtl Material.013
f 6/22/8 9/23/8 12/24/8
usemtl Material.002
f 13/1/1 7/25/1 5/2/1
usemtl Material.013
f 3/26/2 8/6/2 1/5/2
f 8/6/9 5/27/9 11/4/9
f 5/27/10 7/28/10 11/4/10
f 10/7/3 4/29/3 2/8/3
f 7/10/11 13/30/11 6/11/11
usemtl Material.002
f 2/31/5 1/14/5 12/13/5
f 1/14/5 11/32/5 6/15/5
f 1/16/12 2/33/12 4/17/12
f 3/19/13 4/34/13 9/20/13
f 4/34/14 10/35/14 9/20/14
f 9/20/15 5/36/15 8/21/15
usemtl Material.013
f 13/37/16 9/23/16 6/22/16
f 9/23/17 10/38/17 12/24/17
