# Blender v2.79 (sub 0) OBJ File: 'Outpost01-WallPY.blend'
# www.blender.org
mtllib outpostFloor82posX-18_9835205078125posY13_563987731933594.mtl
o Cube.004_Cube.005_Material.004_Cube.004_Cube.005_Material.0.684_Cube.004_Cube.005_Material.004_Cube.004_Cube.005_Material.0.831
v -14.411297 16.718075 0.229385
v -10.699503 21.285740 0.229387
v -16.246288 21.285740 0.229384
v -12.305893 16.904182 0.229386
v -10.687679 21.258625 0.536563
v -16.265251 21.279156 0.536564
v -10.688801 21.261723 0.504234
v -14.574932 16.829121 1.186551
v -13.289124 16.112560 0.229386
v -16.408867 20.447525 0.229384
v -11.117636 19.961506 1.186550
v -16.461784 20.395947 0.974877
v -13.191399 16.083057 1.186550
v -12.266060 16.827522 1.186550
v -12.157242 17.124332 1.186550
v -16.252052 19.961506 1.186551
vt 0.497589 0.097661
vt 0.497589 0.485283
vt 0.319495 0.021614
vt 0.858676 0.772310
vt 0.842629 0.860408
vt 0.517092 0.860403
vt 0.526202 0.259684
vt 0.498013 0.182378
vt 0.566425 0.176815
vt 0.471476 0.917985
vt 0.980314 0.903962
vt 0.982049 0.932111
vt 0.471055 0.706076
vt 0.476647 0.681405
vt 0.883714 0.681405
vt 0.095461 0.806316
vt 0.000212 0.546372
vt 0.316972 0.833363
vt 0.471055 0.903439
vt 0.604574 0.860833
vt 0.878120 0.903439
vt 0.510010 0.679430
vt 0.982078 0.546373
vt 0.980425 0.680981
vt 0.624004 0.087928
vt 0.498013 0.000212
vt 0.642029 0.000212
vt 0.498013 0.176391
vt 0.608387 0.088356
vt 0.613666 0.176391
vt 0.448197 0.545948
vt 0.000212 0.305998
vt 0.433150 0.000212
vt 0.472931 0.840921
vt 0.471055 0.772310
vt 0.498013 0.260607
vt 0.471055 0.932116
vt 0.472143 0.903864
vt 0.912332 0.685863
vt 0.893530 0.771885
vt 0.470630 0.546372
vt 0.190211 0.901718
vt 0.105431 0.833510
vt 0.471740 0.900542
vt 0.471055 0.546372
vt 0.999788 0.636768
vt 0.507177 0.087928
vt 0.499575 0.088353
vn 0.0000 0.0000 -1.0000
vn -0.8776 -0.4699 -0.0955
vn -0.9801 0.1901 -0.0564
vn 0.0033 0.9998 0.0216
vn 0.9368 -0.3435 -0.0665
vn 0.0000 -0.0000 1.0000
vn 0.9369 -0.3433 -0.0654
vn 0.0000 0.4424 0.8968
vn -0.4745 -0.8800 0.0210
vn 0.6247 -0.7759 -0.0877
vn -0.8776 -0.4699 -0.0948
vn -0.8775 -0.4700 -0.0949
vn 0.0037 0.9954 0.0953
vn -0.0000 0.9962 0.0871
vn 0.0016 0.4476 0.8943
vn 0.0115 0.4425 0.8967
vn -0.4748 -0.8799 0.0214
vn 0.6244 -0.7761 -0.0881
usemtl Material.002
s off
f 1/1/1 10/2/1 4/3/1
usemtl Material.013
f 1/4/2 8/5/2 16/6/2
f 6/7/3 10/8/3 12/9/3
usemtl Material.002
f 7/10/4 3/11/4 6/12/4
usemtl Material.013
f 2/13/5 7/14/5 15/15/5
usemtl Material.002
f 15/16/6 11/17/6 8/18/6
usemtl Material.013
f 7/19/7 11/20/7 15/21/7
usemtl Material.002
f 11/22/8 6/23/8 16/24/8
usemtl Material.013
f 1/25/9 13/26/9 8/27/9
f 4/28/10 13/29/10 9/30/10
usemtl Material.002
f 3/31/1 2/32/1 10/2/1
f 2/32/1 4/3/1 10/2/1
f 4/3/1 9/33/1 1/1/1
usemtl Material.013
f 12/34/11 10/35/11 16/6/11
f 10/35/12 1/4/12 16/6/12
f 6/7/3 3/36/3 10/8/3
usemtl Material.002
f 6/12/13 5/37/13 7/10/13
f 7/10/14 2/38/14 3/11/14
usemtl Material.013
f 14/39/5 4/40/5 15/15/5
f 4/40/5 2/13/5 15/15/5
usemtl Material.002
f 11/17/6 16/41/6 8/18/6
f 8/18/6 13/42/6 14/43/6
f 14/43/6 15/16/6 8/18/6
usemtl Material.013
f 7/19/7 5/44/7 11/20/7
usemtl Material.002
f 5/45/15 6/23/15 11/22/15
f 6/23/16 12/46/16 16/24/16
usemtl Material.013
f 1/25/17 9/47/17 13/26/17
f 4/28/18 14/48/18 13/29/18
