# Blender v2.79 (sub 0) OBJ File: 'Outpost01-WallPY.blend'
# www.blender.org
mtllib outpostFloor56posX-21_955886840820312posY3_9280433654785156.mtl
o Cube.004_Cube.005_Material.004_Cube.004_Cube.005_Material.0.710_Cube.004_Cube.005_Material.004_Cube.004_Cube.005_Material.0.857
v -2.785400 22.766743 0.535093
v -4.799618 22.782497 0.535093
v -3.336782 20.541492 0.535610
v -4.011848 20.896622 0.534330
v -4.400757 21.178032 0.533316
v -4.423775 21.271038 0.532981
v -3.338587 20.563683 0.229389
v -4.317482 21.130276 0.229389
v -4.356089 21.285740 0.229389
v -2.614889 23.486156 0.231771
v -2.606552 23.489105 0.535093
v -4.795704 22.766743 0.535093
v -5.564257 25.864853 0.535091
v -3.155899 21.271038 0.532981
v -4.173904 21.013508 0.533909
v -3.087267 21.547703 0.533372
v -3.303549 20.704945 0.229389
v -4.053406 20.939713 0.229389
v -3.159750 21.285740 0.229389
v -4.285656 21.107201 0.229389
v -4.373245 21.354763 0.229464
v -5.472616 25.781906 0.234255
vt 0.115132 0.809804
vt 0.309016 0.809866
vt 0.351012 0.856766
vt 0.792129 0.480180
vt 0.744961 0.364261
vt 0.792129 0.355485
vt 0.780887 0.630256
vt 0.792515 0.634987
vt 0.804049 0.656909
vt 0.788027 0.530102
vt 0.767322 0.577094
vt 0.744764 0.530102
vt 0.016131 0.713826
vt 0.490534 0.761986
vt 0.000244 0.761458
vt 0.548269 0.674791
vt 0.433919 0.702926
vt 0.433919 0.586885
vt 0.880903 0.713826
vt 0.877543 0.761106
vt 0.855074 0.761058
vt 0.698918 0.811811
vt 0.703825 0.860138
vt 0.689798 0.857374
vt 0.426783 0.152969
vt 0.000244 0.147420
vt 0.317760 0.000244
vt 0.898313 0.354998
vt 0.433919 0.000244
vt 0.923123 0.000939
vt 0.480522 0.543685
vt 0.744277 0.355485
vt 0.686857 0.586398
vt 0.753859 0.529615
vt 0.775611 0.482574
vt 0.798066 0.529615
vt 0.000244 0.809316
vt 0.566879 0.762858
vt 0.585929 0.809316
vt 0.443384 0.856668
vt 0.001044 0.856766
vt 0.000244 0.809924
vt 0.744764 0.482021
vt 0.624393 0.701055
vt 0.741248 0.614693
vt 0.624556 0.608529
vt 0.624393 0.586885
vt 0.773391 0.577081
vt 0.720368 0.713826
vt 0.623905 0.633990
vt 0.576895 0.663297
vt 0.617001 0.647072
vt 0.720856 0.713826
vt 0.764863 0.713981
vt 0.443872 0.809804
vt 0.688496 0.809808
vt 0.463933 0.814029
vt 0.722386 0.816349
vt 0.433431 0.144231
vt 0.000244 0.713338
vt 0.928523 0.000244
vt 0.999756 0.301611
vt 0.491118 0.586398
vt 0.433919 0.355485
vt 0.744764 0.482508
vt 0.000962 0.762474
vn 0.9704 -0.2403 -0.0243
vn -0.4647 -0.8833 -0.0615
vn -0.0000 -0.0000 -1.0000
vn -0.5867 -0.8091 -0.0336
vn -0.9460 -0.2347 -0.2235
vn -0.0000 0.0036 1.0000
vn 0.9703 -0.2407 -0.0232
vn -0.9462 -0.2350 -0.2223
vn 0.0000 0.0011 -1.0000
vn -0.0000 0.0000 1.0000
vn -0.0000 -0.0014 1.0000
vn -0.5846 -0.8106 -0.0349
vn 0.6261 0.7794 -0.0242
vn -0.4646 -0.8834 -0.0613
vn 0.9703 -0.2407 -0.0231
vn -0.9463 -0.2351 -0.2219
vn -0.9462 -0.2349 -0.2223
vn 0.6261 0.7794 -0.0248
usemtl Material.013
s off
f 1/1/1 16/2/1 19/3/1
f 7/4/2 4/5/2 18/6/2
usemtl Material.002
f 20/7/3 8/8/3 9/9/3
usemtl Material.013
f 5/10/4 20/11/4 15/12/4
f 22/13/5 2/14/5 13/15/5
usemtl Material.010
f 4/16/6 3/17/6 14/18/6
usemtl Material.013
f 3/19/7 7/20/7 17/21/7
f 9/22/8 5/23/8 6/24/8
usemtl Material.010
f 21/25/9 10/26/9 19/27/9
f 11/28/10 13/29/10 2/30/10
f 16/31/11 12/32/11 6/33/11
usemtl Material.013
f 18/34/12 15/35/12 20/36/12
f 11/37/13 22/38/13 13/39/13
f 16/2/1 17/40/1 19/3/1
f 19/3/1 10/41/1 1/1/1
f 10/41/1 11/42/1 1/1/1
f 7/4/14 3/43/14 4/5/14
usemtl Material.002
f 9/9/3 19/44/3 18/45/3
f 19/44/3 17/46/3 18/45/3
f 17/46/3 7/47/3 18/45/3
f 18/45/3 20/7/3 9/9/3
usemtl Material.013
f 5/10/4 8/48/4 20/11/4
f 22/13/5 21/49/5 2/14/5
usemtl Material.010
f 14/18/6 6/50/6 15/51/6
f 6/50/6 5/52/6 15/51/6
f 15/51/6 4/16/6 14/18/6
usemtl Material.013
f 17/21/15 16/53/15 14/54/15
f 14/54/7 3/19/7 17/21/7
f 2/55/16 21/56/16 12/57/16
f 21/56/17 9/22/17 6/24/17
f 9/22/8 8/58/8 5/23/8
f 6/24/8 12/57/8 21/56/8
usemtl Material.010
f 19/27/9 9/59/9 21/25/9
f 21/25/9 22/60/9 10/26/9
f 12/61/10 1/62/10 2/30/10
f 1/62/10 11/28/10 2/30/10
f 6/33/11 14/63/11 16/31/11
f 16/31/11 1/64/11 12/32/11
usemtl Material.013
f 18/34/12 4/65/12 15/35/12
f 11/37/18 10/66/18 22/38/18
