# Blender v2.79 (sub 0) OBJ File: 'Outpost01-WallPY.blend'
# www.blender.org
mtllib outpostFloor10posX-15_578968048095703posY19_026100158691406.mtl
o Cube.004_Cube.005_Material.004_Cube.004_Cube.005_Material.0.756_Cube.004_Cube.005_Material.004_Cube.004_Cube.005_Material.0.903
v -16.895538 15.509651 0.229385
v -20.563194 17.619408 0.229383
v -20.718246 17.166950 1.186552
v -20.718246 17.604511 1.186552
v -17.598083 13.990358 1.186552
v -17.577667 14.045788 1.186552
v -18.482208 13.263092 1.186552
v -18.817513 13.702841 1.186552
v -18.560921 13.327399 0.229384
v -18.566078 13.336432 0.229384
v -17.336288 14.313118 0.229385
v -18.549370 13.314525 0.229384
v -20.718224 17.257668 0.229383
v -16.924690 15.430372 0.229385
v -20.718224 17.583183 0.229383
v -20.577522 17.616096 0.229383
v -20.718239 17.599854 0.973427
v -16.984970 15.657411 1.186552
v -20.470665 17.661720 1.186552
vt 0.020920 0.999766
vt 0.579115 0.868315
vt 0.571028 0.999758
vt 0.673527 0.364903
vt 0.653758 0.365003
vt 0.653758 0.263182
vt 0.626486 0.735833
vt 0.033006 0.590464
vt 0.641701 0.521846
vt 0.675524 0.262704
vt 0.653758 0.160991
vt 0.688522 0.131656
vt 0.857134 0.498442
vt 0.697886 0.366999
vt 0.854512 0.367004
vt 0.638977 0.869003
vt 0.612671 0.736754
vt 0.847601 0.736754
vt 0.530437 0.366531
vt 0.015708 0.172437
vt 0.046467 0.103275
vt 0.712985 0.029393
vt 0.666169 0.131188
vt 0.653758 0.000234
vt 0.779760 0.586115
vt 0.889178 0.498910
vt 0.896004 0.503237
vt 0.690791 0.234394
vt 0.688990 0.235246
vt 0.688990 0.131656
vt 0.655695 0.717577
vt 0.642169 0.586584
vt 0.717827 0.586584
vt 0.551706 0.867847
vt 0.000234 0.736754
vt 0.612202 0.736754
vt 0.000234 0.868315
vt 0.000234 0.560409
vt 0.010569 0.541273
vt 0.010901 0.541457
vt 0.561931 0.366999
vt 0.567221 0.377254
vt 0.633962 0.736286
vt 0.630211 0.736286
vt 0.673512 0.262714
vt 0.653758 0.131826
vt 0.642169 0.498442
vt 0.627421 0.869002
vt 0.000234 0.141305
vt 0.577683 0.003026
vt 0.653289 0.000234
vt 0.653289 0.156860
vt 0.649207 0.163834
vt 0.713622 0.000234
vt 0.710704 0.131188
vt 0.642169 0.498911
vt 0.653328 0.717573
vt 0.011113 0.867844
vn 0.4966 0.8637 -0.0862
vn -0.2277 0.9735 -0.0218
vn 0.0000 -0.0000 -1.0000
vn -0.2251 0.9741 -0.0213
vn 0.6329 -0.7694 -0.0858
vn 0.9294 -0.3418 0.1396
vn 0.0000 0.0000 1.0000
vn -1.0000 0.0000 -0.0000
vn 0.9293 -0.3423 0.1387
vn -0.8676 -0.4957 -0.0383
vn -0.7950 -0.6062 0.0246
vn -0.8757 -0.4806 -0.0461
vn 0.4967 0.8635 -0.0869
vn -0.0001 -0.0001 -1.0000
vn 0.6332 -0.7692 -0.0862
vn 0.9294 -0.3417 0.1396
vn -0.7443 -0.6677 0.0163
vn -0.8758 -0.4805 -0.0456
usemtl Material.013
s off
f 18/1/1 2/2/1 19/3/1
f 16/4/2 15/5/2 17/6/2
usemtl Material.002
f 10/7/3 13/8/3 11/9/3
usemtl Material.013
f 2/10/4 17/11/4 19/12/4
f 12/13/5 5/14/5 7/15/5
f 14/16/6 18/17/6 6/18/6
usemtl Material.002
f 18/19/7 19/20/7 3/21/7
f 17/22/8 13/23/8 3/24/8
usemtl Material.013
f 11/25/9 6/26/9 5/27/9
f 10/28/10 9/29/10 8/30/10
f 9/31/11 7/32/11 8/33/11
f 8/34/12 13/35/12 10/36/12
f 18/1/13 1/37/13 2/2/13
usemtl Material.002
f 13/8/3 15/38/3 16/39/3
f 16/39/3 2/40/3 13/8/3
f 2/40/3 1/41/3 13/8/3
f 1/41/3 14/42/3 13/8/3
f 14/42/3 11/9/3 13/8/3
f 11/9/3 12/43/3 10/7/3
f 12/43/14 9/44/14 10/7/14
usemtl Material.013
f 16/45/4 17/11/4 2/10/4
f 17/11/4 4/46/4 19/12/4
f 12/13/15 11/47/15 5/14/15
f 14/16/16 1/48/16 18/17/16
usemtl Material.002
f 4/49/7 3/21/7 19/20/7
f 3/21/7 8/50/7 18/19/7
f 8/50/7 7/51/7 5/52/7
f 5/52/7 6/53/7 8/50/7
f 6/53/7 18/19/7 8/50/7
f 3/24/8 4/54/8 17/22/8
f 17/22/8 15/55/8 13/23/8
usemtl Material.013
f 11/25/9 14/56/9 6/26/9
f 9/31/17 12/57/17 7/32/17
f 8/34/18 3/58/18 13/35/18
