# Blender v2.79 (sub 0) OBJ File: 'Outpost01-WallPY.blend'
# www.blender.org
mtllib outpostFloor60posX-22_822906494140625posY6_550411224365234.mtl
o Cube.004_Cube.005_Material.004_Cube.004_Cube.005_Material.0.706_Cube.004_Cube.005_Material.004_Cube.004_Cube.005_Material.0.853
v -9.603861 22.766743 0.535089
v -4.797209 22.766743 0.535090
v -5.566687 25.867283 0.535088
v -5.908110 26.254501 0.235090
v -4.425707 21.271038 0.532978
v -4.402847 21.178574 0.533311
v -4.357876 21.285744 0.229386
v -5.474932 25.784241 0.234255
v -4.319498 21.131020 0.229386
v -9.711025 22.904495 0.535089
v -5.916513 26.247097 0.535090
v -9.721643 22.895142 0.235089
v -8.812542 21.726135 0.229862
v -5.183344 21.271038 0.532978
v -8.771328 21.696590 0.533578
v -8.758974 21.657295 0.229788
v -5.624893 21.285744 0.229386
vt 0.975156 0.488599
vt 0.981661 0.519225
vt 0.966001 0.519225
vt 0.500574 0.519573
vt 0.998436 0.549044
vt 0.501674 0.549044
vt 0.506107 0.624924
vt 0.500574 0.610274
vt 0.629709 0.610274
vt 0.500574 0.579469
vt 0.509273 0.549392
vt 0.586483 0.549471
vt 0.604715 0.038851
vt 0.527505 0.038851
vt 0.530804 0.030095
vt 0.527530 0.029665
vt 0.578232 0.000174
vt 0.590339 0.029747
vt 0.109845 0.441833
vt 0.124568 0.000174
vt 0.438054 0.043842
vt 0.004388 0.488406
vt 0.500227 0.518696
vt 0.500227 0.535842
vt 0.053720 0.826125
vt 0.429026 0.976504
vt 0.074083 0.976504
vt 0.646242 0.580040
vt 0.654811 0.580063
vt 0.650913 0.609927
vt 0.500574 0.488406
vt 0.814402 0.488418
vt 0.510662 0.518728
vt 0.965799 0.488633
vt 0.999826 0.519573
vt 0.941426 0.549622
vt 0.629710 0.579546
vt 0.939748 0.579691
vt 0.527505 0.000174
vt 0.527158 0.158733
vt 0.152314 0.488059
vt 0.000174 0.000174
vt 0.432270 0.036652
vt 0.127535 0.825778
vt 0.000174 0.538958
vt 0.000174 0.967738
vt 0.522624 0.881739
vt 0.517719 0.609603
vt 0.500574 0.609542
vt 0.500763 0.580039
vn 0.9462 0.2347 0.2228
vn -0.6610 0.7504 0.0000
vn 0.0000 -0.0000 -1.0000
vn -0.1168 -0.9856 0.1222
vn -0.0000 0.0036 1.0000
vn 0.7350 0.6770 0.0373
vn 0.0000 0.0011 -1.0000
vn 0.0000 -0.0000 1.0000
vn -0.0000 -0.0014 1.0000
vn -0.7883 -0.6135 0.0473
vn 0.9460 0.2348 0.2237
vn 0.9462 0.2347 0.2227
vn -0.1169 -0.9856 0.1223
vn -0.1168 -0.9855 0.1227
vn -0.0009 0.0010 -1.0000
vn -0.0021 0.0028 -1.0000
vn -0.7884 -0.6134 0.0473
vn -0.7884 -0.6133 0.0470
usemtl Material.013
s off
f 6/1/1 9/2/1 7/3/1
usemtl Material.010
f 4/4/2 10/5/2 11/6/2
usemtl Material.002
f 7/7/3 9/8/3 17/9/3
usemtl Material.013
f 9/10/4 6/11/4 14/12/4
usemtl Material.010
f 14/13/5 6/14/5 5/15/5
usemtl Material.013
f 4/16/6 3/17/6 8/18/6
usemtl Material.010
f 8/19/7 17/20/7 13/21/7
f 11/22/8 10/23/8 1/24/8
f 2/25/9 15/26/9 14/27/9
usemtl Material.013
f 13/28/10 16/29/10 15/30/10
f 3/31/11 2/32/11 8/33/11
f 2/32/1 5/34/1 7/3/1
f 8/33/12 2/32/12 7/3/12
f 5/34/1 6/1/1 7/3/1
usemtl Material.010
f 4/4/2 12/35/2 10/5/2
usemtl Material.013
f 14/12/13 15/36/13 17/37/13
f 15/36/14 16/38/14 17/37/14
f 17/37/4 9/10/4 14/12/4
f 4/16/6 11/39/6 3/17/6
usemtl Material.010
f 12/40/15 4/41/15 8/19/15
f 8/19/7 7/42/7 17/20/7
f 17/20/7 16/43/7 13/21/7
f 13/21/16 12/40/16 8/19/16
f 1/24/8 2/44/8 3/45/8
f 3/45/8 11/22/8 1/24/8
f 14/27/9 5/46/9 2/25/9
f 2/25/9 1/47/9 15/26/9
usemtl Material.013
f 15/30/17 1/48/17 13/28/17
f 1/48/18 10/49/18 12/50/18
f 13/28/18 1/48/18 12/50/18
