# Blender v2.79 (sub 0) OBJ File: 'Outpost01-WallPY.blend'
# www.blender.org
mtllib outpostFloor55posX1_4811782836914062posY5_663873672485352.mtl
o Cube.004_Cube.005_Material.004_Cube.004_Cube.005_Material.0.711_Cube.004_Cube.005_Material.004_Cube.004_Cube.005_Material.0.858
v -5.566256 -3.523249 0.235092
v -5.566256 -3.523249 0.535092
v -5.500853 -3.523027 0.535091
v -5.523739 -3.523106 0.235091
v -4.295727 0.263785 0.535091
v -7.806723 -1.549612 0.535091
v -4.116835 -0.570944 0.231896
v -6.535095 0.693508 0.534487
v -4.109903 -0.605523 0.535091
v -5.061190 -2.601349 0.535090
v -6.777664 0.265649 0.535091
v -5.475121 -3.421185 0.235090
v -7.800627 -1.554981 0.235091
v -6.526703 0.691950 0.230529
v -4.295391 0.263690 0.230993
vt 0.000184 0.625324
vt 0.410076 0.666621
vt 0.000184 0.666621
vt 0.000184 0.582748
vt 0.308490 0.523832
vt 0.341836 0.582755
vt 0.602021 0.607331
vt 0.484507 0.565594
vt 0.606875 0.565594
vt 0.577592 0.257099
vt 0.595991 0.271257
vt 0.594191 0.279811
vt 0.482773 0.523832
vt 0.468595 0.565226
vt 0.342203 0.523832
vt 0.000184 0.624957
vt 0.308461 0.583432
vt 0.434809 0.624957
vt 0.355740 0.666989
vt 0.355584 0.708300
vt 0.068345 0.708808
vt 0.487657 0.565129
vt 0.493510 0.523832
vt 0.493510 0.565129
vt 0.596359 0.112732
vt 0.991659 0.000184
vt 0.999816 0.144630
vt 0.356145 0.708850
vt 0.668866 0.667008
vt 0.670030 0.708850
vt 0.411194 0.625324
vt 0.484530 0.607455
vt 0.265485 0.523464
vt 0.000184 0.287695
vt 0.239155 0.000184
vt 0.121872 0.000184
vt 0.484139 0.565226
vt 0.004113 0.583123
vt 0.000641 0.708844
vt 0.000184 0.666989
vt 0.484507 0.523832
vt 0.999772 0.004084
vt 0.999816 0.449003
vt 0.616717 0.399250
vt 0.925237 0.546019
vt 0.356108 0.666989
vn -0.6610 -0.7504 0.0000
vn 0.0000 0.0014 1.0000
vn 0.9779 0.2090 0.0015
vn -0.0000 -0.0000 -1.0000
vn 0.9004 -0.4295 -0.0686
vn 0.9005 -0.4292 -0.0695
vn -0.8696 0.4930 -0.0265
vn 0.0034 -1.0000 0.0000
vn 0.0000 0.0000 1.0000
vn 0.1885 0.9821 0.0002
vn 0.9779 0.2092 0.0010
vn -0.0004 -0.0018 -1.0000
vn -0.0007 -0.0008 -1.0000
vn 0.0000 -0.0011 -1.0000
vn 0.1885 0.9821 -0.0001
usemtl Material.010
s off
f 2/1/1 13/2/1 1/3/1
f 5/4/2 8/5/2 11/6/2
usemtl Material.013
f 7/7/3 5/8/3 9/9/3
usemtl Material.010
f 12/10/4 4/11/4 1/12/4
usemtl Material.013
f 3/13/5 12/14/5 10/15/5
f 7/16/6 10/17/6 12/18/6
f 13/19/7 6/20/7 11/21/7
usemtl Material.010
f 4/22/8 2/23/8 1/24/8
f 6/25/9 2/26/9 10/27/9
usemtl Material.013
f 5/28/10 14/29/10 8/30/10
usemtl Material.010
f 2/1/1 6/31/1 13/2/1
usemtl Material.013
f 7/7/11 15/32/11 5/8/11
usemtl Material.010
f 1/12/4 13/33/4 12/10/4
f 13/33/12 14/34/12 7/35/12
f 12/10/13 13/33/13 7/35/13
f 14/34/14 15/36/14 7/35/14
usemtl Material.013
f 3/13/5 4/37/5 12/14/5
f 7/16/6 9/38/6 10/17/6
f 8/39/7 14/40/7 11/21/7
f 14/40/7 13/19/7 11/21/7
usemtl Material.010
f 4/22/8 3/41/8 2/23/8
f 2/26/9 3/42/9 10/27/9
f 10/27/9 9/43/9 11/44/9
f 9/43/9 5/45/9 11/44/9
f 11/44/9 6/25/9 10/27/9
usemtl Material.013
f 5/28/15 15/46/15 14/29/15
