# Blender v2.79 (sub 0) OBJ File: 'Outpost01-WallPY.blend'
# www.blender.org
mtllib outpostFloor76posX-14_761327743530273posY-20_23800277709961.mtl
o Cube.004_Cube.005_Material.004_Cube.004_Cube.005_Material.0.690_Cube.004_Cube.005_Material.004_Cube.004_Cube.005_Material.0.837
v 20.718216 12.671852 0.229388
v 20.718216 18.157803 0.229388
v 20.718241 12.756140 1.186557
v 20.718220 12.681734 0.342161
v 20.435211 12.962936 1.186556
v 20.262964 13.005136 0.229388
v 18.705603 17.355591 0.229388
v 20.718241 17.895741 1.186557
v 20.459650 12.945045 1.186557
v 18.925467 17.181301 1.186556
vt 0.844588 0.437016
vt 0.874561 0.585119
vt 0.788379 0.567669
vt 0.758155 0.545520
vt 0.000208 0.584847
vt 0.748838 0.532784
vt 0.846270 0.733431
vt 0.000208 0.733139
vt 0.040675 0.585535
vt 0.999792 0.000208
vt 0.847359 0.313050
vt 0.847354 0.015181
vt 0.774319 0.876079
vt 0.728914 0.753377
vt 0.774319 0.733847
vt 0.795497 0.070474
vt 0.000208 0.000208
vt 0.846938 0.000208
vt 0.713407 0.733855
vt 0.036971 0.883344
vt 0.000208 0.733847
vt 0.849262 0.437016
vt 0.787478 0.585119
vt 0.787062 0.585119
vt 0.105411 0.311261
vt 0.833322 0.585809
vt 0.848844 0.733184
vt 0.999792 0.334612
vt 0.124026 0.310845
vt 0.728497 0.883344
vn -0.5892 -0.8049 0.0706
vn -0.0000 0.0000 1.0000
vn 1.0000 0.0000 -0.0000
vn -0.3588 0.9003 0.2465
vn -0.5884 -0.8055 0.0710
vn -0.0000 0.0000 -1.0000
vn -0.9304 -0.3331 0.1531
vn -0.5892 -0.8049 0.0705
vn -0.3589 0.9003 0.2464
vn -0.9305 -0.3330 0.1528
usemtl Material.013
s off
f 9/1/1 6/2/1 4/3/1
usemtl Material.002
f 9/4/2 8/5/2 5/6/2
f 1/7/3 2/8/3 8/9/3
usemtl Material.013
f 2/10/4 10/11/4 8/12/4
f 4/13/5 3/14/5 9/15/5
usemtl Material.002
f 6/16/6 2/17/6 1/18/6
usemtl Material.013
f 6/19/7 10/20/7 7/21/7
f 5/22/1 6/2/1 9/1/1
f 6/2/8 1/23/8 4/3/8
usemtl Material.002
f 3/24/2 8/5/2 9/4/2
f 8/5/2 10/25/2 5/6/2
f 8/9/3 3/26/3 4/27/3
f 4/27/3 1/7/3 8/9/3
usemtl Material.013
f 2/10/9 7/28/9 10/11/9
usemtl Material.002
f 6/16/6 7/29/6 2/17/6
usemtl Material.013
f 6/19/10 5/30/10 10/20/10
