# Blender v2.79 (sub 0) OBJ File: 'Outpost01-WallPY.blend'
# www.blender.org
mtllib outpostFloor61posX-0_7322883605957031posY2_317485809326172.mtl
o Cube.004_Cube.005_Material.004_Cube.004_Cube.005_Material.0.705_Cube.004_Cube.005_Material.004_Cube.004_Cube.005_Material.0.852
v -4.107771 -0.605133 0.535092
v -4.292402 0.265648 0.535092
v -1.083809 1.761353 0.532981
v -2.331995 2.376904 0.229389
v -2.358969 2.348742 0.535097
v -4.114649 -0.570713 0.231897
v -0.688910 1.619550 0.229527
v -4.292706 0.264766 0.230992
v -1.501219 -1.804293 0.535092
v -1.011730 0.265648 0.535093
v -0.700010 1.584414 0.533231
v -2.904255 1.761353 0.532981
v -2.917078 1.746648 0.229389
v -0.964613 1.746648 0.229389
v -1.492161 -1.777182 0.233203
vt 0.795368 0.551904
vt 0.516697 0.772144
vt 0.527310 0.551904
vt 0.476538 0.817618
vt 0.470796 0.772603
vt 0.597425 0.772603
vt 0.560809 0.254468
vt 0.560809 0.380254
vt 0.317216 0.551445
vt 0.000229 0.972471
vt 0.198290 0.903184
vt 0.510401 0.910200
vt 0.848765 0.000229
vt 0.762612 0.093034
vt 0.561267 0.000229
vt 0.893276 0.818077
vt 0.471253 0.862726
vt 0.470796 0.818077
vt 0.561267 0.179985
vt 0.749033 0.093492
vt 0.829325 0.179985
vt 0.687171 0.226375
vt 0.561267 0.271020
vt 0.561385 0.226242
vt 0.414373 0.781596
vt 0.000229 0.551904
vt 0.470338 0.663073
vt 0.606605 0.180673
vt 0.828308 0.180444
vt 0.623497 0.225681
vt 0.999771 0.772144
vt 0.470796 0.577958
vt 0.895156 0.772840
vt 0.895030 0.817618
vt 0.594554 0.817307
vt 0.036034 0.491519
vt 0.220162 0.000229
vt 0.000229 0.464753
vt 0.000229 0.927423
vt 0.509223 0.865564
vt 0.896315 0.862917
vt 0.692339 0.271020
vt 0.000229 0.865105
vt 0.830226 0.225783
vt 0.561267 0.225783
vt 0.561902 0.180740
vn -0.0000 0.0014 1.0000
vn -0.7329 0.6804 -0.0020
vn 0.0000 -0.0011 -1.0000
vn 0.9731 -0.2301 0.0085
vn 0.0000 0.0000 -1.0000
vn -0.4161 -0.9045 -0.0937
vn -0.0000 -0.0036 1.0000
vn -0.9780 -0.2084 0.0016
vn -0.0000 -0.0000 1.0000
vn 0.4156 0.9017 0.1195
vn -0.7329 0.6803 -0.0012
vn -0.7330 0.6803 -0.0020
vn 0.9731 -0.2300 0.0090
vn -0.4161 -0.9045 -0.0932
vn -0.9783 -0.2074 -0.0014
vn 0.4155 0.9017 0.1197
usemtl Material.010
s off
f 12/1/1 10/2/1 3/3/1
usemtl Material.013
f 5/4/2 4/5/2 13/6/2
usemtl Material.010
f 6/7/3 8/8/3 13/9/3
usemtl Material.013
f 7/10/4 10/11/4 15/12/4
usemtl Material.002
f 13/13/5 4/14/5 14/15/5
usemtl Material.013
f 1/16/6 15/17/6 9/18/6
usemtl Material.010
f 3/19/7 5/20/7 12/21/7
usemtl Material.013
f 6/22/8 2/23/8 8/24/8
usemtl Material.010
f 1/25/9 10/26/9 2/27/9
usemtl Material.013
f 14/28/10 4/29/10 3/30/10
usemtl Material.010
f 2/31/1 10/2/1 12/1/1
f 10/2/1 11/32/1 3/3/1
usemtl Material.013
f 8/33/11 2/34/11 13/6/11
f 2/34/12 12/35/12 13/6/12
f 12/35/2 5/4/2 13/6/2
usemtl Material.010
f 13/9/3 14/36/3 15/37/3
f 14/36/3 7/38/3 15/37/3
f 15/37/3 6/7/3 13/9/3
usemtl Material.013
f 11/39/13 10/11/13 7/10/13
f 10/11/4 9/40/4 15/12/4
f 1/16/14 6/41/14 15/17/14
f 6/22/15 1/42/15 2/23/15
usemtl Material.010
f 1/25/9 9/43/9 10/26/9
usemtl Material.013
f 4/29/16 5/44/16 3/30/16
f 3/30/10 11/45/10 14/28/10
f 11/45/10 7/46/10 14/28/10
