# Blender v2.79 (sub 0) OBJ File: 'Outpost01-WallPY.blend'
# www.blender.org
mtllib outpostFloor31posX-21_624835968017578posY2_0634403228759766.mtl
o Cube.004_Cube.005_Material.004_Cube.004_Cube.005_Material.0.735_Cube.004_Cube.005_Material.004_Cube.004_Cube.005_Material.0.882
v -3.008102 20.186409 0.585421
v -2.604557 23.487949 0.535092
v -1.242247 23.423683 0.535092
v -2.138268 20.598019 0.535405
v -0.060373 22.116398 0.534174
v -3.337261 20.562706 0.229388
v -1.185062 21.285740 0.229389
v -3.158009 21.285740 0.229388
v -0.660997 23.392738 0.231669
v -0.559071 23.387867 0.231664
v -2.811991 20.275337 0.536569
v -3.175470 20.212132 0.571290
v -3.205421 20.275337 0.536569
v -2.783411 22.766739 0.535092
v -0.553772 23.390800 0.535092
v -0.312073 22.766739 0.535092
v -3.335163 20.540325 0.535613
v -3.154280 21.271034 0.532980
v -1.216953 21.271034 0.532980
v -2.953699 20.175999 0.229388
v -2.227106 20.524166 0.229389
v -3.163721 20.208389 0.229388
v -0.062901 22.105938 0.230276
v -2.612606 23.484806 0.231768
vt 0.782745 0.578429
vt 0.776773 0.630887
vt 0.535256 0.578104
vt 0.706426 0.066846
vt 0.733100 0.121604
vt 0.594099 0.114348
vt 0.633449 0.228453
vt 0.582489 0.229558
vt 0.577540 0.176745
vt 0.389530 0.800783
vt 0.307627 0.900046
vt 0.219452 0.711903
vt 0.872784 0.631504
vt 0.635813 0.683921
vt 0.535256 0.631504
vt 0.713162 0.892396
vt 0.584116 0.893510
vt 0.690630 0.711903
vt 0.910995 0.894020
vt 0.914670 0.946937
vt 0.784625 0.946503
vt 0.301858 0.000255
vt 0.013974 0.240699
vt 0.061735 0.000255
vt 0.645507 0.297002
vt 0.611413 0.314519
vt 0.577540 0.296979
vt 0.695949 0.464103
vt 0.931297 0.453000
vt 0.962195 0.577594
vt 0.694487 0.003616
vt 0.814903 0.059811
vt 0.577540 0.052666
vt 0.470677 0.453000
vt 0.200061 0.711393
vt 0.043738 0.453000
vt 0.577540 0.174536
vt 0.596058 0.122115
vt 0.696613 0.174536
vt 0.614228 0.295162
vt 0.584906 0.234660
vt 0.614228 0.236058
vt 0.979851 0.578104
vt 0.999745 0.630994
vt 0.536650 0.630618
vt 0.577540 0.060321
vt 0.744009 0.060321
vt 0.645676 0.175046
vt 0.645676 0.234150
vt 0.000255 0.752759
vt 0.358643 0.711903
vt 0.388945 0.732628
vt 0.871423 0.683909
vt 0.390040 0.859075
vt 0.774205 0.811537
vt 0.774206 0.862508
vt 0.518408 0.946914
vt 0.782305 0.894042
vt 0.390040 0.946937
vt 0.390893 0.894522
vt 0.577030 0.201380
vt 0.276784 0.452491
vt 0.000255 0.229629
vt 0.640329 0.309458
vt 0.535256 0.577594
vt 0.577011 0.469783
vt 0.578922 0.000255
vt 0.814903 0.007278
vt 0.534746 0.711393
vt 0.000255 0.565351
vt 0.578430 0.122114
vt 0.577540 0.296469
vn 0.5899 -0.8071 0.0229
vn 0.4303 -0.8980 0.0919
vn -0.8978 -0.4397 -0.0260
vn 0.0000 0.0000 -1.0000
vn 0.0471 0.9988 -0.0116
vn 0.0000 0.0036 1.0000
vn -0.9704 0.2403 0.0242
vn 0.0000 0.0011 -1.0000
vn -0.7182 -0.2241 0.6588
vn 0.0994 -0.5482 0.8304
vn 0.3118 -0.5992 0.7373
vn -0.0000 0.0000 1.0000
vn 0.9324 0.3609 -0.0202
vn -0.0000 -0.0014 1.0000
vn 0.0477 0.9988 -0.0105
vn -0.1524 -0.9883 0.0056
vn 0.5898 -0.8073 0.0229
vn 0.5899 -0.8071 0.0235
vn 0.4303 -0.8980 0.0918
vn 0.4301 -0.8981 0.0920
vn -0.9703 0.2406 0.0236
vn -0.9703 0.2406 0.0233
vn -0.5090 -0.4301 0.7456
vn 0.9323 0.3611 -0.0198
usemtl Material.013
s off
f 19/1/1 7/2/1 5/3/1
f 11/4/2 20/5/2 21/6/2
f 13/7/3 17/8/3 6/9/3
usemtl Material.002
f 6/10/4 8/11/4 21/12/4
usemtl Material.013
f 24/13/5 3/14/5 9/15/5
usemtl Material.010
f 11/16/6 4/17/6 18/18/6
usemtl Material.013
f 6/19/7 17/20/7 18/21/7
usemtl Material.010
f 7/22/8 9/23/8 23/24/8
usemtl Material.001
s 9
f 13/25/9 1/26/10 11/27/11
usemtl Material.010
s off
f 3/28/12 2/29/12 14/30/12
usemtl Material.013
f 16/31/13 23/32/13 10/33/13
usemtl Material.010
f 14/34/14 19/35/14 16/36/14
usemtl Material.013
f 15/37/15 9/38/15 3/39/15
f 22/40/16 1/41/16 12/42/16
f 19/1/17 4/43/17 7/2/17
f 4/43/18 21/44/18 7/2/18
f 7/2/1 23/45/1 5/3/1
f 21/6/19 4/46/19 11/4/19
f 11/4/20 1/47/20 20/5/20
f 6/9/3 22/48/3 13/7/3
f 22/48/3 12/49/3 13/7/3
usemtl Material.002
f 8/11/4 7/50/4 21/12/4
f 21/12/4 20/51/4 6/10/4
f 20/51/4 22/52/4 6/10/4
usemtl Material.013
f 24/13/5 2/53/5 3/14/5
usemtl Material.010
f 19/54/6 18/18/6 4/17/6
f 18/18/6 17/55/6 11/16/6
f 17/55/6 13/56/6 11/16/6
usemtl Material.013
f 18/21/21 14/57/21 8/58/21
f 14/57/22 2/59/22 24/60/22
f 8/58/22 14/57/22 24/60/22
f 8/58/21 6/19/21 18/21/21
usemtl Material.010
f 7/22/8 8/61/8 24/62/8
f 24/62/8 9/23/8 7/22/8
f 9/23/8 10/63/8 23/24/8
usemtl Material.001
s 9
f 13/25/9 12/64/23 1/26/10
usemtl Material.010
s off
f 14/30/12 16/65/12 3/28/12
f 16/65/12 15/66/12 3/28/12
usemtl Material.013
f 10/33/24 15/67/24 16/31/24
f 16/31/13 5/68/13 23/32/13
usemtl Material.010
f 18/69/14 19/35/14 14/34/14
f 19/35/14 5/70/14 16/36/14
usemtl Material.013
f 15/37/15 10/71/15 9/38/15
f 22/40/16 20/72/16 1/41/16
