# Blender v2.79 (sub 0) OBJ File: 'Outpost01-WallPY.blend'
# www.blender.org
mtllib outpostFloor39posX-24_04131507873535posY-7_591139793395996.mtl
o Cube.004_Cube.005_Material.004_Cube.004_Cube.005_Material.0.727_Cube.004_Cube.005_Material.004_Cube.004_Cube.005_Material.0.874
v 6.423399 24.820730 0.233215
v 6.426437 24.197687 0.232541
v 6.764717 25.068880 0.234324
v 7.054892 25.244295 0.235094
v 8.453324 22.766741 0.535093
v 8.977488 22.766741 0.535093
v 8.713394 22.590464 0.534844
v 6.746142 25.055391 0.234202
v 8.759621 22.616102 0.230829
v 9.487103 23.101751 0.235093
v 7.048523 25.249903 0.535094
v 6.739999 25.063421 0.535092
v 9.483779 23.104677 0.535093
v 6.392600 24.811007 0.535092
v 6.395687 24.161924 0.535092
vt 0.134339 0.699230
vt 0.067661 0.624310
vt 0.134521 0.619135
vt 0.251335 0.619135
vt 0.193553 0.658299
vt 0.134878 0.619135
vt 0.075017 0.548911
vt 0.621788 0.618777
vt 0.000179 0.618777
vt 0.067067 0.714540
vt 0.000179 0.714430
vt 0.000179 0.625774
vt 0.745893 0.480135
vt 0.714403 0.548553
vt 0.699509 0.277795
vt 0.122342 0.207851
vt 0.034956 0.130872
vt 0.000179 0.000179
vt 0.623832 0.548911
vt 0.690491 0.548911
vt 0.691005 0.684151
vt 0.844730 0.998837
vt 0.778078 0.279680
vt 0.844730 0.277795
vt 0.758997 0.693122
vt 0.691576 0.556750
vt 0.759154 0.548911
vt 0.067661 0.699645
vt 0.005485 0.550935
vt 0.623265 0.551265
vt 0.067304 0.619135
vt 0.000193 0.719530
vt 0.000179 0.457759
vt 0.073407 0.277795
vt 0.777720 0.391970
vt 0.747436 0.480678
vt 0.721221 0.000179
vt 0.745270 0.076578
vt 0.670278 0.277437
vt 0.766117 0.169678
vt 0.691218 0.754696
vt 0.623623 0.743248
vt 0.778078 0.999821
vt 0.691576 0.695177
vn -0.5171 0.8555 -0.0270
vn -0.0000 -0.0014 1.0000
vn -0.5545 -0.8179 -0.1533
vn -0.5877 0.8084 -0.0336
vn 0.0018 0.0013 -1.0000
vn -0.0000 -0.0000 1.0000
vn 0.5551 -0.8317 0.0143
vn 0.6610 0.7504 0.0000
vn -0.9948 -0.0047 -0.1017
vn -0.5546 -0.8179 -0.1531
vn -0.5875 0.8085 -0.0339
vn -0.5871 0.8088 -0.0336
vn 0.0033 0.0038 -1.0000
vn 0.0007 0.0020 -1.0000
vn 0.0023 0.0011 -1.0000
vn 0.0071 -0.0007 -1.0000
vn -0.9948 -0.0047 -0.1016
usemtl Material.013
s off
f 11/1/1 3/2/1 12/3/1
usemtl Material.010
f 5/4/2 7/5/2 6/6/2
usemtl Material.013
f 5/7/3 2/8/3 9/9/3
f 12/10/4 8/11/4 1/12/4
usemtl Material.010
f 3/13/5 4/14/5 2/15/5
f 5/16/6 6/17/6 13/18/6
usemtl Material.013
f 10/19/7 13/20/7 6/21/7
usemtl Material.010
f 13/22/8 4/23/8 11/24/8
usemtl Material.013
f 14/25/9 2/26/9 15/27/9
f 11/1/1 4/28/1 3/2/1
f 9/9/3 7/29/3 5/7/3
f 5/7/10 15/30/10 2/8/10
f 1/12/11 14/31/11 12/10/11
f 12/10/12 3/32/12 8/11/12
usemtl Material.010
f 4/14/13 10/33/13 9/34/13
f 9/34/14 2/15/14 4/14/14
f 2/15/15 1/35/15 8/36/15
f 3/13/16 2/15/16 8/36/16
f 13/18/6 11/37/6 5/16/6
f 11/37/6 12/38/6 15/39/6
f 5/16/6 11/37/6 15/39/6
f 12/38/6 14/40/6 15/39/6
usemtl Material.013
f 7/41/7 9/42/7 6/21/7
f 9/42/7 10/19/7 6/21/7
usemtl Material.010
f 13/22/8 10/43/8 4/23/8
usemtl Material.013
f 14/25/17 1/44/17 2/26/17
