# Blender v2.79 (sub 0) OBJ File: 'Outpost01-WallPY.blend'
# www.blender.org
mtllib outpostFloor46posX-23_630718231201172posY-4_580819129943848.mtl
o Cube.004_Cube.005_Material.004_Cube.004_Cube.005_Material.0.720_Cube.004_Cube.005_Material.004_Cube.004_Cube.005_Material.0.867
v 3.661224 25.440092 0.535093
v 6.424656 24.197416 0.232542
v 3.663633 25.456316 0.233904
v 3.812996 22.766745 0.535094
v 3.416948 24.303942 0.535093
v 4.916903 21.733023 0.533635
v 4.294483 22.016008 0.534034
v 4.016665 22.108595 0.230281
v 5.545517 22.766745 0.535094
v 6.393831 24.161768 0.535094
v 3.583855 25.081114 0.535093
v 6.391003 24.810698 0.535094
v 3.651812 25.401457 0.233845
v 3.413239 24.290606 0.232643
v 6.421909 24.820410 0.233217
v 3.968119 22.164740 0.534244
v 4.908072 21.703325 0.229843
v 3.969866 22.129919 0.230304
vt 0.788335 0.791335
vt 0.999782 0.843205
vt 0.502066 0.843205
vt 0.709440 0.199423
vt 0.679652 0.157031
vt 0.755522 0.157031
vt 0.728399 0.051643
vt 0.866347 0.000218
vt 0.863936 0.051786
vt 0.733771 0.199860
vt 0.722239 0.251949
vt 0.672617 0.199860
vt 0.008789 0.433682
vt 0.000218 0.429442
vt 0.220272 0.000218
vt 0.501623 0.582460
vt 0.501508 0.717996
vt 0.000218 0.634694
vt 0.715379 0.647853
vt 0.609251 0.696105
vt 0.502066 0.519845
vt 0.880090 0.696541
vt 0.880090 0.748705
vt 0.774768 0.760683
vt 0.674250 0.104738
vt 0.778844 0.156595
vt 0.672617 0.156480
vt 0.672617 0.104301
vt 0.789948 0.052223
vt 0.839581 0.104301
vt 0.506842 0.895189
vt 0.984713 0.843642
vt 0.984505 0.895073
vt 0.509943 0.791593
vt 0.994625 0.791393
vt 0.672617 0.163517
vt 0.672617 0.000218
vt 0.731008 0.251951
vt 0.323320 0.025736
vt 0.182383 0.519409
vt 0.672181 0.380286
vt 0.564996 0.519409
vt 0.562585 0.517516
vt 0.380244 0.959978
vt 0.091471 0.897705
vt 0.024014 0.526634
vt 0.501630 0.519845
vt 0.797477 0.519845
vt 0.771028 0.622493
vt 0.505794 0.790899
vt 0.502066 0.739409
vt 0.784900 0.104738
vt 0.673365 0.052239
vt 0.502066 0.843642
vn 0.8541 -0.5194 0.0258
vn -0.9775 0.2107 0.0035
vn -0.9777 0.2100 0.0027
vn -0.4125 -0.9053 0.1013
vn 0.0000 0.0011 -1.0000
vn -0.0000 0.0000 1.0000
vn -0.0000 -0.0014 1.0000
vn -0.9681 -0.2495 0.0230
vn 0.9948 0.0043 0.1020
vn -0.4117 -0.9057 0.1005
vn 0.2243 0.9730 0.0542
vn 0.8541 -0.5194 0.0259
vn -0.9776 0.2106 0.0035
vn -0.4125 -0.9053 0.1014
vn -0.9681 -0.2494 0.0229
vn 0.9948 0.0043 0.1019
vn 0.2243 0.9730 0.0543
usemtl Material.013
s off
f 9/1/1 17/2/1 2/3/1
f 1/4/2 13/5/2 11/6/2
f 11/7/3 14/8/3 5/9/3
f 16/10/4 8/11/4 7/12/4
usemtl Material.010
f 13/13/5 3/14/5 15/15/5
f 11/16/6 5/17/6 10/18/6
f 7/19/7 6/20/7 9/21/7
usemtl Material.013
f 18/22/8 16/23/8 4/24/8
f 12/25/9 2/26/9 15/27/9
f 17/28/10 7/29/10 8/30/10
f 12/31/11 3/32/11 1/33/11
f 2/3/1 10/34/1 9/1/1
f 9/1/12 6/35/12 17/2/12
f 1/4/13 3/36/13 13/5/13
f 11/7/3 13/37/3 14/8/3
f 16/10/14 18/38/14 8/11/14
usemtl Material.010
f 15/15/5 2/39/5 14/40/5
f 2/39/5 17/41/5 8/42/5
f 14/40/5 8/42/5 18/43/5
f 2/39/5 8/42/5 14/40/5
f 14/40/5 13/13/5 15/15/5
f 4/44/6 9/45/6 5/17/6
f 9/45/6 10/18/6 5/17/6
f 10/18/6 12/46/6 11/16/6
f 12/46/6 1/47/6 11/16/6
f 9/21/7 4/48/7 7/19/7
f 4/48/7 16/49/7 7/19/7
usemtl Material.013
f 5/50/15 14/51/15 4/24/15
f 14/51/15 18/22/15 4/24/15
f 12/25/16 10/52/16 2/26/16
f 17/28/10 6/53/10 7/29/10
f 12/31/17 15/54/17 3/32/17
