# Blender v2.79 (sub 0) OBJ File: 'Outpost01-WallPY.blend'
# www.blender.org
mtllib outpostFloor98posX-19_433216094970703posY-11_068521499633789.mtl
o Cube.004_Cube.005_Material.004_Cube.004_Cube.005_Material.0.668_Cube.004_Cube.005_Material.004_Cube.004_Cube.005_Material.0.815
v 10.259103 19.961508 1.186552
v 9.251924 19.724043 1.186553
v 8.688848 19.300451 1.186553
v 8.978057 18.138063 1.186553
v 9.457170 17.823450 1.186553
v 12.343297 18.184023 1.186553
v 13.419732 19.961508 1.186553
v 9.622910 19.981783 1.104444
v 9.723266 20.051348 1.082309
v 10.234244 20.129042 1.102938
v 13.545192 20.511908 0.916480
v 13.547601 20.502989 0.920958
v 13.609757 20.275904 1.033369
v 12.305398 18.125242 0.229388
v 13.554076 20.256357 0.229388
v 13.565759 20.206472 0.229388
v 13.561948 20.222582 0.229388
v 8.717797 19.073370 0.229388
v 8.940305 18.177656 0.229388
v 9.566037 19.710333 0.229388
v 9.546544 17.779509 0.229388
vt 0.629050 0.658925
vt 0.683305 0.688880
vt 0.544189 0.676345
vt 0.174207 0.566827
vt 0.000284 0.346761
vt 0.423623 0.293872
vt 0.552903 0.567541
vt 0.999717 0.625010
vt 0.569834 0.650278
vt 0.000284 0.248335
vt 0.000284 0.238926
vt 0.230266 0.000284
vt 0.381654 0.823145
vt 0.000284 0.693734
vt 0.392890 0.693734
vt 0.763047 0.129495
vt 0.678485 0.000284
vt 0.755854 0.000284
vt 0.676263 0.293873
vt 0.807260 0.423124
vt 0.645574 0.423124
vt 0.755967 0.423691
vt 0.645574 0.555671
vt 0.660855 0.423708
vt 0.431951 0.790439
vt 0.721885 0.919640
vt 0.393457 0.919640
vt 0.807827 0.402587
vt 0.812503 0.293872
vt 0.812503 0.402825
vt 0.813070 0.402802
vt 0.815298 0.293872
vt 0.815299 0.402961
vt 0.789327 0.457667
vt 0.830946 0.423691
vt 0.830946 0.558505
vt 0.795491 0.000284
vt 0.795491 0.109099
vt 0.763614 0.015253
vt 0.720672 0.192540
vt 0.720672 0.281016
vt 0.719131 0.192721
vt 0.416922 0.789872
vt 0.393457 0.693734
vt 0.857149 0.693734
vt 0.000284 0.567394
vt 0.543622 0.567394
vt 0.446593 0.693167
vt 0.718564 0.130062
vt 0.718564 0.288913
vt 0.665146 0.175024
vt 0.812541 0.000284
vt 0.812541 0.126078
vt 0.796058 0.003270
vt 0.843039 0.191973
vt 0.719131 0.191973
vt 0.840214 0.130062
vt 0.544555 0.650852
vt 0.614377 0.650845
vt 0.562500 0.308824
vt 0.566813 0.566827
vt 0.645007 0.356138
vt 0.625721 0.516670
vt 0.996362 0.650278
vt 0.544189 0.603082
vt 0.552282 0.567394
vt 0.000379 0.229490
vt 0.598669 0.043845
vt 0.534317 0.293305
vt 0.664441 0.114826
vt 0.664579 0.237966
vt 0.006343 0.823137
vt 0.665146 0.129495
vt 0.800844 0.293872
vt 0.788760 0.555671
vt 0.712448 0.790439
vn -0.4428 0.7792 0.4435
vn -0.4509 0.6308 0.6315
vn -0.0275 0.2416 0.9700
vn -0.0000 -0.0000 1.0000
vn -0.0004 0.4406 0.8977
vn 0.0000 -0.0000 -1.0000
vn 0.1238 -0.9907 0.0570
vn -0.5488 -0.8358 -0.0129
vn -0.9700 -0.2414 0.0279
vn -0.5886 0.7824 -0.2034
vn 0.8554 -0.5180 -0.0021
vn 0.9713 0.2264 -0.0728
vn 0.9706 0.2295 -0.0729
vn 0.9706 0.2296 -0.0728
vn 0.9714 0.2265 -0.0716
vn -0.1270 0.9291 -0.3472
vn -0.1272 0.9289 -0.3479
vn -0.1193 0.9155 0.3842
vn -0.2814 0.5955 -0.7524
vn -0.3006 0.8954 0.3284
vn -0.0000 0.4466 0.8948
vn -0.0079 0.4419 0.8970
vn -0.0205 0.4441 0.8957
vn 0.1242 -0.9907 0.0559
vn -0.5489 -0.8358 -0.0129
vn -0.9701 -0.2410 0.0283
vn -0.5878 0.7828 -0.2041
usemtl Material.001
s 1
f 8/1/1 2/2/2 1/3/3
usemtl Material.002
s off
f 6/4/4 7/5/4 1/6/4
f 11/7/5 10/8/5 7/9/5
f 15/10/6 17/11/6 14/12/6
f 21/13/7 6/14/7 5/15/7
f 19/16/8 5/17/8 4/18/8
f 18/19/9 4/20/9 3/21/9
f 2/22/10 18/23/10 3/24/10
f 7/25/11 14/26/11 16/27/11
usemtl Material.013
f 15/28/12 13/29/12 17/30/12
usemtl Material.002
f 17/31/13 13/32/13 16/33/13
f 13/34/11 7/35/11 16/36/11
f 13/37/14 15/38/14 12/39/14
f 12/40/15 15/41/15 11/42/15
f 11/43/16 15/44/16 10/45/16
f 15/46/17 20/47/17 10/48/17
usemtl Material.001
s 1
f 10/49/18 20/50/19 9/51/20
f 9/52/20 20/53/19 8/54/1
f 8/55/1 20/56/19 2/57/2
f 1/3/3 10/58/18 9/59/20
f 9/59/20 8/1/1 1/3/3
usemtl Material.002
s off
f 1/6/4 2/60/4 5/61/4
f 2/60/4 3/62/4 4/63/4
f 5/61/4 2/60/4 4/63/4
f 5/61/4 6/4/4 1/6/4
f 1/64/21 7/9/21 10/8/21
f 7/9/22 13/65/22 12/66/22
f 12/66/23 11/7/23 7/9/23
f 17/11/6 16/67/6 14/12/6
f 14/12/6 21/68/6 20/69/6
f 21/68/6 19/70/6 20/69/6
f 19/70/6 18/71/6 20/69/6
f 20/69/6 15/10/6 14/12/6
f 21/13/24 14/72/24 6/14/24
f 19/16/25 21/73/25 5/17/25
f 18/19/26 19/74/26 4/20/26
f 2/22/27 20/75/27 18/23/27
f 7/25/11 6/76/11 14/26/11
