# Blender v2.79 (sub 0) OBJ File: 'Outpost01-WallPY.blend'
# www.blender.org
mtllib outpostFloor53posX-2_9237146377563477posY-16_913496017456055.mtl
o Cube.004_Cube.005_Material.004_Cube.004_Cube.005_Material.0.713_Cube.004_Cube.005_Material.004_Cube.004_Cube.005_Material.0.860
v 15.971704 1.746648 0.229388
v 15.853386 1.965464 0.642284
v 18.423765 3.070884 1.186555
v 15.948638 3.070884 1.186554
v 15.740321 2.141655 0.229388
v 16.529495 5.436180 1.186554
v 15.972840 1.745793 0.256161
v 15.974551 1.754304 0.536567
v 19.693296 1.746648 0.229387
v 19.630938 1.740846 0.536569
v 19.087049 2.340049 0.830470
v 16.398455 5.861566 0.229388
v 15.656271 4.235304 0.229388
v 15.908237 4.075794 1.186554
vt 0.418193 0.655409
vt 0.565525 0.395364
vt 0.631355 0.484696
vt 0.999827 0.762897
vt 0.418193 0.762897
vt 0.798221 0.655761
vt 0.110715 0.668766
vt 0.000188 0.508215
vt 0.110715 0.503755
vt 0.738215 0.140166
vt 0.582155 0.206088
vt 0.687266 0.000173
vt 0.089057 0.176249
vt 0.000173 0.000173
vt 0.581808 0.000173
vt 0.410713 0.739697
vt 0.000173 0.739697
vt 0.007052 0.705805
vt 0.417846 0.342105
vt 0.417846 0.478461
vt 0.402508 0.503408
vt 0.162051 0.503755
vt 0.139160 0.549039
vt 0.111062 0.506770
vt 0.418193 0.321055
vt 0.463867 0.655756
vt 0.906910 0.695622
vt 0.996026 0.728516
vt 0.000173 0.705454
vt 0.738215 0.003810
vt 0.687762 0.239000
vt 0.325154 0.320708
vt 0.275176 0.313395
vt 0.410402 0.705800
vt 0.411178 0.731491
vt 0.000173 0.473639
vt 0.065682 0.404846
vt 0.145563 0.321055
vt 0.141928 0.550084
vt 0.111062 0.536055
vn -0.0000 -0.0000 1.0000
vn 0.7695 0.6161 0.1682
vn -0.8692 0.3969 0.2949
vn -0.9679 -0.0389 0.2484
vn -0.0000 0.0000 -1.0000
vn -0.0000 -0.9998 -0.0189
vn 0.0113 -0.4425 0.8967
vn -0.8627 -0.5053 0.0206
vn 0.7694 0.6162 0.1685
vn 0.7692 0.6168 0.1669
vn 0.7695 0.6162 0.1679
vn -0.8692 0.3967 0.2953
vn -0.9679 -0.0389 0.2483
vn -0.0037 -0.9995 0.0304
vn 0.0011 -0.9995 -0.0319
vn -0.0016 -0.4416 0.8972
vn -0.0021 -0.4395 0.8982
vn -0.0000 -0.4427 0.8967
vn -0.8627 -0.5053 0.0205
usemtl Material.002
s off
f 3/1/1 14/2/1 4/3/1
usemtl Material.013
f 9/4/2 12/5/2 3/6/2
f 6/7/3 13/8/3 14/9/3
f 4/10/4 13/11/4 5/12/4
usemtl Material.002
f 13/13/5 12/14/5 9/15/5
f 1/16/6 9/17/6 10/18/6
f 4/19/7 2/20/7 8/21/7
usemtl Material.013
f 5/22/8 7/23/8 2/24/8
usemtl Material.002
f 3/1/1 6/25/1 14/2/1
usemtl Material.013
f 12/5/9 6/26/9 3/6/9
f 3/6/10 11/27/10 9/4/10
f 11/27/11 10/28/11 9/4/11
f 6/7/12 12/29/12 13/8/12
f 5/12/4 2/30/4 4/10/4
f 4/10/13 14/31/13 13/11/13
usemtl Material.002
f 9/15/5 1/32/5 5/33/5
f 5/33/5 13/13/5 9/15/5
f 10/18/14 8/34/14 7/35/14
f 7/35/15 1/16/15 10/18/15
f 8/21/16 10/36/16 11/37/16
f 11/37/17 3/38/17 8/21/17
f 3/38/18 4/19/18 8/21/18
usemtl Material.013
f 1/39/19 7/23/19 5/22/19
f 7/23/8 8/40/8 2/24/8
