# Blender v2.79 (sub 0) OBJ File: 'Outpost01-WallPY.blend'
# www.blender.org
mtllib outpostFloor16posX-19_734207153320312posY18_69576644897461.mtl
o Cube.004_Cube.005_Material.004_Cube.004_Cube.005_Material.0.750_Cube.004_Cube.005_Material.004_Cube.004_Cube.005_Material.0.897
v -20.718227 21.295551 0.536563
v -20.718243 19.961510 1.186549
v -20.718220 21.285748 0.229380
v -20.563526 17.621441 0.229380
v -16.248394 21.285748 0.229382
v -20.470699 17.663616 1.186549
v -16.463963 20.396244 0.974732
v -20.718220 17.585922 0.229380
v -16.410793 20.448284 0.229382
v -16.353436 20.743870 0.229382
v -16.267315 21.279167 0.536562
v -16.253124 21.288734 0.323040
v -20.718220 17.588627 0.353646
v -20.718243 17.607128 1.186549
v -17.095829 19.961510 1.186549
vt 0.097579 0.886879
vt 0.023310 0.830037
vt 0.000197 0.714181
vt 0.425976 0.435331
vt 0.396880 0.705426
vt 0.000197 0.435331
vt 0.019279 0.336533
vt 0.507237 0.004371
vt 0.525414 0.434937
vt 0.862081 0.449938
vt 0.859906 0.547837
vt 0.583173 0.547837
vt 0.591852 0.296178
vt 0.527885 0.307009
vt 0.525808 0.296178
vt 0.656203 0.000197
vt 0.611414 0.075997
vt 0.579575 0.060544
vt 0.547883 0.281807
vt 0.525808 0.290264
vt 0.547883 0.179296
vt 0.525808 0.076392
vt 0.554317 0.085220
vt 0.525808 0.178902
vt 0.426926 0.559246
vt 0.426370 0.548232
vt 0.951754 0.548244
vt 0.098954 0.887279
vt 0.590668 0.999803
vt 0.000197 0.999801
vt 0.523358 0.712460
vt 0.523358 0.886884
vt 0.425976 0.712065
vt 0.525414 0.000197
vt 0.000197 0.434937
vt 0.017559 0.336214
vt 0.426370 0.471437
vt 0.427522 0.435331
vt 0.862399 0.435331
vt 0.525808 0.022191
vt 0.538064 0.000197
vt 0.543629 0.295784
vt 0.951759 0.584368
vt 0.428595 0.584369
vt 0.008805 0.912180
vt 0.578859 0.887279
vn -0.0066 0.4457 0.8952
vn 0.0000 0.0000 1.0000
vn 0.0000 0.0000 -1.0000
vn -1.0000 0.0000 -0.0000
vn 0.9802 -0.1900 0.0556
vn 0.9801 -0.1902 0.0566
vn 0.2238 -0.9744 0.0212
vn 0.2224 -0.9747 0.0217
vn 0.0000 0.9995 -0.0318
vn 0.5626 -0.8265 -0.0177
vn 0.0016 0.4416 0.8972
vn 0.0000 0.4380 0.8990
vn 0.2237 -0.9744 0.0212
vn 0.0037 0.9995 -0.0319
vn -0.0016 0.9990 0.0446
vn 0.5627 -0.8265 -0.0176
vn 0.5627 -0.8265 -0.0182
usemtl Material.002
s off
f 15/1/1 7/2/1 11/3/1
f 2/4/2 6/5/2 15/6/2
f 9/7/3 4/8/3 3/9/3
f 13/10/4 14/11/4 2/12/4
usemtl Material.013
f 10/13/5 5/14/5 12/15/5
f 7/16/6 9/17/6 10/18/6
f 13/19/7 4/20/7 6/21/7
f 6/22/8 14/23/8 13/24/8
usemtl Material.002
f 12/25/9 5/26/9 3/27/9
usemtl Material.013
f 15/28/10 4/29/10 9/30/10
usemtl Material.002
f 11/3/11 1/31/11 15/1/11
f 1/31/12 2/32/12 15/1/12
f 2/4/2 14/33/2 6/5/2
f 8/34/3 3/9/3 4/8/3
f 3/9/3 5/35/3 10/36/3
f 9/7/3 3/9/3 10/36/3
f 1/37/4 3/38/4 2/12/4
f 3/38/4 8/39/4 2/12/4
f 8/39/4 13/10/4 2/12/4
usemtl Material.013
f 10/18/6 12/40/6 11/41/6
f 11/41/6 7/16/6 10/18/6
f 13/19/13 8/42/13 4/20/13
usemtl Material.002
f 1/43/14 11/44/14 3/27/14
f 11/44/15 12/25/15 3/27/15
usemtl Material.013
f 9/30/16 7/45/16 15/28/16
f 15/28/17 6/46/17 4/29/17
