# Blender v2.79 (sub 0) OBJ File: 'Outpost01-WallPY.blend'
# www.blender.org
mtllib outpostFloor0posX-7_401025772094727posY10_43775749206543.mtl
o Cube.004_Cube.005_Material.004_Cube.004_Cube.005_Material.0.766_Cube.004_Cube.005_Material.004_Cube.004_Cube.005_Material.0.913
v -8.398783 9.678989 0.229388
v -8.282797 9.946131 1.186553
v -9.072464 6.608719 1.186552
v -8.291290 8.034758 1.186553
v -12.876390 5.942564 0.229387
v -12.912291 5.932695 1.186551
v -12.423006 8.957428 1.186551
v -12.427423 8.716608 0.229387
v -8.407965 7.661170 0.229388
v -8.962442 6.650309 0.229388
v -11.619654 5.337973 1.186551
v -11.578602 5.344963 0.229387
vt 0.635591 0.110284
vt 0.956908 0.219870
vt 0.622195 0.219870
vt 0.610302 0.190936
vt 0.621771 0.354101
vt 0.318613 0.461766
vt 0.487516 0.999788
vt 0.020233 0.887005
vt 0.494414 0.887005
vt 0.626789 0.462191
vt 0.786421 0.571803
vt 0.622854 0.571802
vt 0.652835 0.330658
vt 0.841014 0.220297
vt 0.883840 0.330664
vt 0.487517 0.462191
vt 0.622429 0.785985
vt 0.494308 0.886580
vt 0.666122 0.441021
vt 0.808340 0.331088
vt 0.798113 0.441015
vt 0.972972 0.109859
vt 0.649491 0.000212
vt 0.971200 0.000213
vt 0.961471 0.110284
vt 0.000212 0.110385
vt 0.203252 0.000212
vt 0.335243 0.000212
vt 0.000212 0.999779
vt 0.789683 0.462191
vt 0.622195 0.220295
vt 0.176887 0.812815
vt 0.051983 0.674797
vt 0.000212 0.462191
vt 0.622195 0.331088
vt 0.622195 0.109859
vn 0.4464 -0.8947 0.0124
vn 0.0000 0.0000 -1.0000
vn -0.2257 0.9450 -0.2367
vn -0.4181 -0.9081 -0.0246
vn 0.9929 -0.0045 -0.1193
vn 0.0000 0.0000 1.0000
vn 0.8740 -0.4794 0.0796
vn -0.9865 0.1597 -0.0354
vn 0.4464 -0.8948 0.0126
vn -0.2257 0.9451 -0.2364
vn -0.4178 -0.9082 -0.0250
vn 0.9929 -0.0044 -0.1191
vn 0.8742 -0.4789 0.0803
vn -0.9865 0.1596 -0.0356
usemtl Material.013
s off
f 3/1/1 12/2/1 10/3/1
usemtl Material.002
f 12/4/2 5/5/2 8/6/2
usemtl Material.013
f 7/7/3 1/8/3 8/9/3
f 11/10/4 5/11/4 12/12/4
f 1/13/5 4/14/5 9/15/5
usemtl Material.002
f 7/16/6 6/17/6 11/18/6
usemtl Material.013
f 9/19/7 3/20/7 10/21/7
f 6/22/8 8/23/8 5/24/8
f 3/1/9 11/25/9 12/2/9
usemtl Material.002
f 8/6/2 1/26/2 9/27/2
f 9/27/2 10/28/2 8/6/2
f 10/28/2 12/4/2 8/6/2
usemtl Material.013
f 7/7/10 2/29/10 1/8/10
f 11/10/11 6/30/11 5/11/11
f 1/13/12 2/31/12 4/14/12
usemtl Material.002
f 11/18/6 3/32/6 7/16/6
f 3/32/6 4/33/6 7/16/6
f 4/33/6 2/34/6 7/16/6
usemtl Material.013
f 9/19/13 4/35/13 3/20/13
f 6/22/14 7/36/14 8/23/14
