# Blender v2.79 (sub 0) OBJ File: 'Outpost01-WallPY.blend'
# www.blender.org
mtllib outpostFloor48posX-11_092073440551758posY10_638395309448242.mtl
o Cube.004_Cube.005_Material.004_Cube.004_Cube.005_Material.0.718_Cube.004_Cube.005_Material.004_Cube.004_Cube.005_Material.0.865
v -8.398287 9.681172 0.229388
v -8.003733 10.778901 0.229388
v -8.282366 9.947834 1.186553
v -8.323179 11.052488 1.186553
v -12.427382 8.719018 0.229387
v -12.002470 13.061820 0.229387
v -12.422857 8.958672 1.186552
v -12.943895 10.656916 1.186552
v -11.848249 13.039247 1.186552
v -10.644064 12.801887 1.186551
v -8.375696 11.249944 0.229388
v -8.022207 10.671895 1.186553
v -13.119623 10.630379 0.229386
v -12.056398 12.944563 0.229387
v -10.347479 12.735836 0.229388
v -12.996416 10.542604 1.186552
vt 0.529849 0.219892
vt 0.734099 0.328393
vt 0.543904 0.328394
vt 0.564145 0.436926
vt 0.720294 0.328855
vt 0.702718 0.436926
vt 0.529389 0.163743
vt 0.529303 0.451279
vt 0.344123 0.510361
vt 0.512356 0.731492
vt 0.809266 0.622495
vt 0.840494 0.731492
vt 0.532079 0.622030
vt 0.992988 0.510832
vt 0.999770 0.622030
vt 0.817386 0.110069
vt 0.806381 0.219431
vt 0.529849 0.110069
vt 0.788327 0.437616
vt 0.733700 0.332976
vt 0.788327 0.328855
vt 0.056487 0.580899
vt 0.511896 0.839288
vt 0.378391 0.988957
vt 0.529849 0.109609
vt 0.549381 0.000230
vt 0.825906 0.109609
vt 0.611297 0.731952
vt 0.512356 0.840041
vt 0.524431 0.731952
vt 0.759366 0.219892
vt 0.529849 0.328855
vt 0.529293 0.465851
vt 0.071809 0.450778
vt 0.000230 0.288746
vt 0.011455 0.419967
vt 0.368324 0.000230
vt 0.530510 0.622491
vt 0.512356 0.510822
vt 0.820584 0.219431
vt 0.720755 0.442718
vt 0.511896 0.853491
vt 0.000230 0.692305
vt 0.007670 0.605758
vt 0.377056 0.510822
vt 0.511785 0.543232
vt 0.534809 0.000230
vt 0.644056 0.840041
vn -0.9365 -0.3391 0.0894
vn 0.1934 0.9811 -0.0080
vn 0.0000 -0.0000 -1.0000
vn 0.5968 0.7917 0.1303
vn 0.2257 -0.9453 0.2356
vn -0.8979 0.4125 0.1534
vn 0.7816 0.6181 0.0842
vn -0.0000 -0.0000 1.0000
vn -0.8976 0.4128 0.1544
vn 0.9409 -0.3381 -0.0196
vn -0.9365 -0.3392 0.0893
vn 0.1933 0.9811 -0.0078
vn 0.5967 0.7918 0.1306
vn 0.2258 -0.9452 0.2360
vn -0.8979 0.4126 0.1534
vn 0.7820 0.6175 0.0845
vn 0.9409 -0.3382 -0.0197
usemtl Material.013
s off
f 13/1/1 7/2/1 16/3/1
f 10/4/2 6/5/2 9/6/2
usemtl Material.002
f 13/7/3 14/8/3 15/9/3
usemtl Material.013
f 4/10/4 15/11/4 10/12/4
f 1/13/5 7/14/5 5/15/5
f 13/16/6 8/17/6 14/18/6
f 2/19/7 4/20/7 12/21/7
usemtl Material.002
f 4/22/8 8/23/8 7/24/8
usemtl Material.013
f 9/25/9 14/26/9 8/27/9
f 3/28/10 2/29/10 12/30/10
f 13/1/11 5/31/11 7/2/11
f 10/4/12 15/32/12 6/5/12
usemtl Material.002
f 14/8/3 6/33/3 15/9/3
f 15/9/3 11/34/3 1/35/3
f 11/34/3 2/36/3 1/35/3
f 1/35/3 5/37/3 15/9/3
f 5/37/3 13/7/3 15/9/3
usemtl Material.013
f 4/10/13 11/38/13 15/11/13
f 1/13/14 3/39/14 7/14/14
f 13/16/15 16/40/15 8/17/15
f 2/19/16 11/41/16 4/20/16
usemtl Material.002
f 16/42/8 7/24/8 8/23/8
f 7/24/8 3/43/8 4/22/8
f 3/43/8 12/44/8 4/22/8
f 4/22/8 10/45/8 8/23/8
f 10/45/8 9/46/8 8/23/8
usemtl Material.013
f 9/25/9 6/47/9 14/26/9
f 3/28/17 1/48/17 2/29/17
