# Blender v2.79 (sub 0) OBJ File: 'Outpost01-WallPY.blend'
# www.blender.org
mtllib outpostFloor71posX-6_508034706115723posY-3_9072189331054688.mtl
o Cube.004_Cube.005_Material.004_Cube.004_Cube.005_Material.0.695_Cube.004_Cube.005_Material.004_Cube.004_Cube.005_Material.0.842
v 5.491963 5.426437 0.478983
v 0.803144 8.525175 1.186553
v 2.716360 4.761278 1.186553
v 1.472221 9.322989 1.186553
v 3.232729 8.866695 1.186553
v 5.350488 5.304691 1.186554
v 6.534320 6.681206 1.186555
v 0.812494 8.406097 0.229388
v 2.549416 4.989939 0.229389
v 1.517097 9.245880 0.229388
v 3.165440 8.818213 0.229389
v 3.296839 4.721550 0.229389
v 5.672231 5.619259 0.229389
v 3.208363 4.584871 1.186554
v 5.339333 5.295801 1.186554
v 6.515513 6.600784 0.229389
v 5.445374 5.438475 0.229389
v 5.656042 5.600647 0.229389
v 5.457790 5.442684 0.229389
vt 0.494971 0.524732
vt 0.496779 0.552151
vt 0.469187 0.552151
vt 0.717449 0.658166
vt 0.702974 0.694964
vt 0.702974 0.579839
vt 0.431306 0.939622
vt 0.000221 0.860226
vt 0.007725 0.818169
vt 0.702531 0.583131
vt 0.597945 0.693176
vt 0.597945 0.579839
vt 0.660314 0.315159
vt 0.469187 0.419574
vt 0.474953 0.315156
vt 0.618013 0.524289
vt 0.469187 0.420017
vt 0.666808 0.420017
vt 0.469187 0.104969
vt 0.903288 0.209497
vt 0.472311 0.209496
vt 0.667251 0.525627
vt 0.728180 0.420017
vt 0.753694 0.525627
vt 0.717892 0.658297
vt 0.724480 0.580165
vt 0.726297 0.579839
vt 0.898352 0.000223
vt 0.469187 0.104526
vt 0.481202 0.000221
vt 0.468744 0.502202
vt 0.188991 0.579396
vt 0.217162 0.130804
vt 0.715729 0.314713
vt 0.485051 0.209940
vt 0.729573 0.209941
vt 0.705405 0.693825
vt 0.597502 0.742033
vt 0.597502 0.860519
vt 0.002203 0.999779
vt 0.000248 0.852410
vt 0.005304 0.825482
vt 0.135820 0.609542
vt 0.216353 0.579839
vt 0.702529 0.702454
vt 0.667148 0.419574
vt 0.477158 0.524286
vt 0.906483 0.104969
vt 0.671287 0.420021
vt 0.726298 0.684204
vt 0.724910 0.684420
vt 0.928774 0.104526
vt 0.429861 0.543420
vt 0.181183 0.578624
vt 0.000221 0.501199
vt 0.364889 0.000221
vt 0.468744 0.044457
vt 0.469187 0.314714
vn 0.6175 -0.7749 -0.1350
vn 0.7540 -0.6558 0.0379
vn 0.0000 -0.0000 -1.0000
vn -0.7633 0.6401 -0.0874
vn 0.2506 0.9658 -0.0665
vn 0.7576 -0.6515 0.0405
vn 0.5502 0.8311 -0.0806
vn -0.3334 -0.9285 -0.1637
vn 0.6232 -0.7820 -0.0099
vn -0.8904 -0.4527 0.0476
vn -0.0000 -0.0000 1.0000
vn 0.3147 -0.9433 -0.1056
vn -0.7632 0.6403 -0.0871
vn 0.2503 0.9659 -0.0661
vn 0.7579 -0.6512 0.0398
vn 0.5501 0.8312 -0.0808
vn -0.3330 -0.9287 -0.1634
vn 0.3193 -0.9418 -0.1050
vn -0.8905 -0.4526 0.0472
vn 0.3147 -0.9433 -0.1057
usemtl Material.013
s off
f 1/1/1 19/2/1 18/3/1
f 1/4/2 13/5/2 6/6/2
usemtl Material.002
f 11/7/3 13/8/3 17/9/3
usemtl Material.013
f 10/10/4 2/11/4 4/12/4
f 10/13/5 5/14/5 11/15/5
f 13/16/6 7/17/6 6/18/6
f 16/19/7 5/20/7 7/21/7
f 12/22/8 3/23/8 9/24/8
f 1/25/9 6/26/9 15/27/9
f 9/28/10 2/29/10 8/30/10
usemtl Material.002
f 3/31/11 15/32/11 5/33/11
usemtl Material.013
f 12/34/12 15/35/12 14/36/12
f 1/4/2 18/37/2 13/5/2
usemtl Material.002
f 8/38/3 10/39/3 11/7/3
f 11/7/3 16/40/3 13/8/3
f 13/8/3 18/41/3 17/9/3
f 18/41/3 19/42/3 17/9/3
f 17/9/3 12/43/3 11/7/3
f 12/43/3 9/44/3 11/7/3
f 9/44/3 8/38/3 11/7/3
usemtl Material.013
f 10/10/13 8/45/13 2/11/13
f 10/13/14 4/46/14 5/14/14
f 13/16/15 16/47/15 7/17/15
f 16/19/16 11/48/16 5/20/16
f 12/22/17 14/49/17 3/23/17
f 15/27/18 17/50/18 1/25/18
f 17/50/18 19/51/18 1/25/18
f 9/28/19 3/52/19 2/29/19
usemtl Material.002
f 3/31/11 14/53/11 15/32/11
f 15/32/11 6/54/11 5/33/11
f 6/54/11 7/55/11 5/33/11
f 5/33/11 4/56/11 2/57/11
f 3/31/11 5/33/11 2/57/11
usemtl Material.013
f 12/34/20 17/58/20 15/35/20
