# Blender v2.79 (sub 0) OBJ File: 'Outpost01-WallPY.blend'
# www.blender.org
mtllib outpostFloor51posX-3_1281795501708984posY16_75423812866211.mtl
o Cube.004_Cube.005_Material.004_Cube.004_Cube.005_Material.0.715_Cube.004_Cube.005_Material.004_Cube.004_Cube.005_Material.0.862
v -17.544914 1.743149 0.480415
v -17.693710 1.746649 0.229385
v -14.538284 3.980000 0.229387
v -14.341331 4.818795 0.229387
v -15.236629 3.070885 1.186552
v -18.513336 3.070885 1.186552
v -14.491577 3.598146 1.186552
v -18.003922 3.925622 1.186552
v -14.193710 4.869898 1.186552
v -17.502747 1.748680 0.536565
v -18.674118 1.744369 0.536566
v -18.661400 1.746649 0.229385
v -18.662971 1.836916 0.582977
v -18.526627 2.704554 0.229385
v -17.677467 4.049685 0.229385
v -14.327080 4.879631 0.229387
v -18.504585 3.133039 1.186552
v -14.481827 3.639680 1.186552
vt 0.681960 0.637165
vt 0.503883 0.493732
vt 0.736715 0.493732
vt 0.101720 0.000250
vt 0.667237 0.000250
vt 0.470663 0.273870
vt 0.501753 0.694793
vt 0.503384 0.709947
vt 0.331934 0.709380
vt 0.524062 0.859519
vt 0.000250 0.999750
vt 0.018855 0.859521
vt 0.677775 0.274369
vt 0.689985 0.415794
vt 0.680839 0.415793
vt 0.798546 0.859519
vt 0.672878 0.939420
vt 0.575308 0.859519
vt 0.160267 0.710446
vt 0.542476 0.810952
vt 0.565704 0.859020
vt 0.000250 0.274369
vt 0.574809 0.274369
vt 0.211757 0.493233
vt 0.510058 0.645920
vt 0.503883 0.637664
vt 0.675335 0.637664
vt 0.569947 0.718836
vt 0.566203 0.710446
vt 0.719732 0.710446
vt 0.544745 0.637157
vt 0.782783 0.082031
vt 0.685736 0.185019
vt 0.000250 0.090387
vt 0.007315 0.083760
vt 0.000250 0.493732
vt 0.479851 0.493733
vt 0.574809 0.999750
vt 0.862710 0.274369
vt 0.803378 0.863475
vt 0.548235 0.820071
vt 0.000250 0.859020
vt 0.026813 0.710549
vt 0.677276 0.377865
vt 0.087344 0.444558
vt 0.084496 0.439001
vt 0.673844 0.369343
vt 0.673484 0.682627
vt 0.531846 0.682661
vt 0.777420 0.839748
vt 0.724801 0.848933
vt 0.736568 0.858620
vn -0.8259 0.5214 -0.2144
vn 0.0000 -0.0000 -1.0000
vn 0.0017 -0.4484 0.8938
vn -0.2402 0.9698 0.0433
vn 0.9645 -0.2260 -0.1367
vn 0.9643 -0.2264 -0.1374
vn 0.5446 -0.7695 -0.3335
vn 0.0000 0.0000 1.0000
vn 0.0037 -0.9954 0.0953
vn -0.9895 0.1393 -0.0396
vn -0.8259 0.5217 -0.2141
vn 0.0000 -0.4412 0.8974
vn 0.0025 -0.4396 0.8982
vn -0.2403 0.9697 0.0437
vn 0.9645 -0.2259 -0.1367
vn 0.9643 -0.2263 -0.1374
vn 0.5459 -0.7683 -0.3343
vn 0.5446 -0.7695 -0.3336
vn 0.0000 -1.0000 -0.0074
vn -0.0017 -0.9999 -0.0129
vn -0.9895 0.1392 -0.0399
usemtl Material.013
s off
f 17/1/1 15/2/1 14/3/1
usemtl Material.002
f 3/4/2 2/5/2 15/6/2
f 13/7/3 11/8/3 10/9/3
usemtl Material.013
f 15/10/4 9/11/4 16/12/4
f 9/13/5 4/14/5 16/15/5
f 18/16/6 3/17/6 4/18/6
f 5/19/7 10/20/7 2/21/7
usemtl Material.002
f 9/22/8 8/23/8 5/24/8
f 1/25/9 10/26/9 11/27/9
usemtl Material.013
f 6/28/10 17/29/10 14/30/10
f 17/1/11 8/31/11 15/2/11
usemtl Material.002
f 2/5/2 12/32/2 14/33/2
f 14/33/2 15/6/2 2/5/2
f 15/6/2 16/34/2 4/35/2
f 3/4/2 15/6/2 4/35/2
f 5/36/12 6/37/12 10/9/12
f 6/37/13 13/7/13 10/9/13
usemtl Material.013
f 15/10/14 8/38/14 9/11/14
f 9/13/15 18/39/15 4/14/15
f 18/16/16 7/40/16 3/17/16
f 10/20/17 1/41/17 2/21/17
f 2/21/7 3/42/7 5/19/7
f 3/42/18 7/43/18 5/19/18
usemtl Material.002
f 6/44/8 5/24/8 8/23/8
f 5/24/8 7/45/8 18/46/8
f 6/44/8 8/23/8 17/47/8
f 18/46/8 9/22/8 5/24/8
f 12/48/19 2/49/19 11/27/19
f 2/49/20 1/25/20 11/27/20
usemtl Material.013
f 14/30/21 12/50/21 13/51/21
f 12/50/21 11/52/21 13/51/21
f 13/51/10 6/28/10 14/30/10
