# Blender v2.79 (sub 0) OBJ File: 'Outpost01-WallPY.blend'
# www.blender.org
mtllib outpostFloor29posX-3_552128791809082posY-4_830413818359375.mtl
o Cube.004_Cube.005_Material.004_Cube.004_Cube.005_Material.0.737_Cube.004_Cube.005_Material.004_Cube.004_Cube.005_Material.0.884
v 5.491861 5.423324 0.480087
v 3.882500 2.452703 0.535472
v 3.387129 3.940259 1.186554
v 5.595912 4.192343 1.186555
v 4.003977 2.429897 0.229389
v 5.457808 5.380085 0.229389
v 5.457447 5.440414 0.229389
v 5.512954 2.757052 0.536571
v 5.517216 1.761353 0.532981
v 3.798456 2.757051 0.536570
v 5.597172 3.940258 1.186555
v 5.596054 4.168594 1.186555
v 3.209766 4.583752 1.186553
v 5.343843 5.295084 1.186555
v 5.440588 1.761353 0.532981
v 5.517385 1.727280 0.533029
v 4.492221 2.181910 0.534496
v 5.475044 1.777306 0.229389
v 3.918409 2.467914 0.229389
v 3.297995 4.720455 0.229389
v 5.444952 5.436331 0.229389
vt 0.768029 0.707254
vt 0.755085 0.748534
vt 0.755085 0.583740
vt 0.641099 0.995269
vt 0.646696 0.999730
vt 0.388014 0.999734
vt 0.621347 0.021768
vt 0.784407 0.381337
vt 0.621343 0.405152
vt 0.634386 0.432142
vt 0.620153 0.432142
vt 0.622521 0.426878
vt 0.722640 0.941402
vt 0.484452 0.961905
vt 0.426422 0.760362
vt 0.509073 0.248937
vt 0.120482 0.366679
vt 0.010486 0.000273
vt 0.010191 0.985797
vt 0.014498 0.934146
vt 0.190242 0.934120
vt 0.013246 0.933588
vt 0.000266 0.933583
vt 0.001046 0.764909
vt 0.868102 0.531140
vt 0.847651 0.583185
vt 0.755085 0.531140
vt 0.471958 0.383911
vt 0.609494 0.530608
vt 0.000266 0.530608
vt 0.000266 0.531140
vt 0.379636 0.566612
vt 0.375065 0.679580
vt 0.696522 0.432674
vt 0.861231 0.530608
vt 0.620153 0.530608
vt 0.684874 0.759830
vt 0.380167 0.531140
vt 0.754553 0.531140
vt 0.757289 0.748854
vt 0.380167 0.993583
vt 0.408216 0.962437
vt 0.784407 0.000266
vt 0.380167 0.918195
vt 0.791445 0.913369
vt 0.772042 0.961905
vt 0.000266 0.000286
vt 0.000947 0.002406
vt 0.620811 0.000266
vt 0.502564 0.263402
vt 0.282813 0.986155
vt 0.000266 0.934119
vt 0.291486 0.765010
vt 0.173927 0.862400
vt 0.277231 0.816563
vt 0.863512 0.583208
vt 0.619622 0.476210
vt 0.617987 0.478772
vt 0.205235 0.367212
vt 0.243844 0.367211
vt 0.010456 0.764377
vt 0.000266 0.722911
vt 0.000991 0.722740
vt 0.394434 0.759830
vn -0.3089 0.9451 0.1068
vn 0.9907 0.0059 -0.1356
vn -0.3145 0.9433 0.1060
vn 0.0000 0.0014 1.0000
vn -0.9564 -0.2635 -0.1257
vn 0.0000 -0.0000 -1.0000
vn -0.4037 -0.9101 -0.0936
vn 0.0000 -0.0036 1.0000
vn -0.4043 -0.9099 -0.0926
vn 0.9905 0.0047 -0.1374
vn -0.0000 0.0000 1.0000
vn 0.9469 0.2164 0.2377
vn -0.7450 -0.3996 0.5341
vn 0.7050 -0.1928 0.6825
vn -0.6550 -0.3385 0.6756
vn -0.3144 0.9434 0.1057
vn -0.9564 -0.2636 -0.1258
vn -0.9565 -0.2634 -0.1255
vn -0.9564 -0.2637 -0.1253
vn 0.9905 0.0047 -0.1373
vn 0.9906 0.0048 -0.1369
vn 0.9906 0.0048 -0.1370
vn 0.8090 -0.1736 0.5616
usemtl Material.013
s off
f 1/1/1 21/2/1 14/3/1
f 4/4/2 12/5/2 6/6/2
f 20/7/3 14/8/3 21/9/3
usemtl Material.010
f 15/10/4 16/11/4 9/12/4
usemtl Material.013
f 10/13/5 3/14/5 20/15/5
usemtl Material.002
f 5/16/6 20/17/6 6/18/6
usemtl Material.013
f 18/19/7 15/20/7 17/21/7
usemtl Material.010
f 15/22/8 9/23/8 8/24/8
usemtl Material.013
f 2/25/9 5/26/9 17/27/9
f 8/28/10 18/29/10 6/30/10
usemtl Material.002
f 14/31/11 13/32/11 3/33/11
usemtl Material.013
f 14/34/12 4/35/12 1/36/12
usemtl Material.001
s 13
f 10/37/13 11/38/14 3/39/15
usemtl Material.013
s off
f 1/1/1 7/40/1 21/2/1
f 7/41/2 1/42/2 6/6/2
f 1/42/2 4/4/2 6/6/2
f 20/7/16 13/43/16 14/8/16
f 13/44/17 20/15/17 3/14/17
f 20/15/18 19/45/18 10/13/18
f 19/45/19 2/46/19 10/13/19
usemtl Material.002
f 7/47/6 6/18/6 21/48/6
f 6/18/6 18/49/6 5/16/6
f 21/48/6 6/18/6 20/17/6
f 5/16/6 19/50/6 20/17/6
usemtl Material.013
f 17/21/7 5/51/7 18/19/7
f 18/19/7 16/52/7 15/20/7
usemtl Material.010
f 8/24/8 10/53/8 17/54/8
f 10/53/8 2/55/8 17/54/8
f 17/54/8 15/22/8 8/24/8
usemtl Material.013
f 2/25/9 19/56/9 5/26/9
f 9/57/20 16/58/20 18/29/20
f 6/30/21 12/59/21 11/60/21
f 8/28/20 9/57/20 18/29/20
f 6/30/22 11/60/22 8/28/22
usemtl Material.002
f 3/33/11 11/61/11 12/62/11
f 12/62/11 4/63/11 3/33/11
f 4/63/11 14/31/11 3/33/11
usemtl Material.001
s 13
f 10/37/13 8/64/23 11/38/14
