# Blender v2.79 (sub 0) OBJ File: 'Outpost01-WallPY.blend'
# www.blender.org
mtllib outpostFloor33posX-20_264923095703125posY-3_742471694946289.mtl
o Cube.004_Cube.005_Material.004_Cube.004_Cube.005_Material.0.733_Cube.004_Cube.005_Material.004_Cube.004_Cube.005_Material.0.880
v 3.485064 17.594090 1.186554
v 3.072535 17.583149 1.186553
v 4.656526 19.092133 1.186554
v 5.661364 20.619213 0.535330
v 5.689754 20.741524 0.534889
v 1.433708 20.681751 0.535103
v 5.478498 21.271038 0.532981
v 4.916164 21.730949 0.533630
v 3.125963 17.490215 0.229389
v 3.077971 17.488354 0.229389
v 3.057495 17.487812 0.229389
v 5.705682 20.789639 0.229389
v 1.424074 20.527237 0.229388
v 3.969389 22.128040 0.230300
v 2.261168 19.092133 1.186553
v 1.579769 20.275341 0.536569
v 5.392812 20.275337 0.536571
v 1.414688 20.582157 0.535462
v 1.416769 20.593433 0.535422
v 2.442129 21.271038 0.532980
v 5.758487 21.042084 0.533806
v 3.967646 22.162708 0.534240
v 1.448389 20.654163 0.229388
v 2.528721 21.285744 0.229389
v 5.755936 21.006817 0.229389
v 5.746344 20.964859 0.229389
v 5.414992 21.285744 0.229389
v 4.907220 21.701168 0.229838
vt 0.080844 0.851646
vt 0.267334 0.763665
vt 0.561955 0.897608
vt 0.419306 0.436280
vt 0.404015 0.444563
vt 0.246195 0.385864
vt 0.615026 0.370626
vt 0.604618 0.329391
vt 0.646338 0.329391
vt 0.752766 0.428958
vt 0.746790 0.426404
vt 0.752766 0.287488
vt 0.990859 0.445129
vt 0.748628 0.574885
vt 0.563952 0.486765
vt 0.009584 0.700018
vt 0.000283 0.659348
vt 0.038169 0.628368
vt 0.604618 0.245544
vt 0.664224 0.245554
vt 0.656306 0.286818
vt 0.099913 0.627801
vt 0.516241 0.445129
vt 0.424038 0.627801
vt 0.755907 0.616748
vt 0.516807 0.616915
vt 0.744787 0.575454
vt 0.631580 0.372113
vt 0.643714 0.412776
vt 0.626282 0.414161
vt 0.995170 0.000283
vt 0.673327 0.056496
vt 0.604618 0.000283
vt 0.625715 0.418959
vt 0.611018 0.379717
vt 0.625715 0.371193
vt 0.664945 0.891543
vt 0.999717 0.953776
vt 0.588854 0.953776
vt 0.912979 0.628367
vt 0.747369 0.831073
vt 0.588854 0.628367
vt 0.644280 0.371503
vt 0.645801 0.371193
vt 0.645801 0.413573
vt 0.660459 0.114824
vt 0.660063 0.244977
vt 0.604618 0.114824
vt 0.605204 0.328805
vt 0.744047 0.287488
vt 0.746223 0.328825
vt 0.522336 0.765633
vt 0.000283 0.897608
vt 0.021950 0.855516
vt 0.000283 0.085276
vt 0.027183 0.012734
vt 0.000283 0.026004
vt 0.005470 0.023428
vt 0.590591 0.000283
vt 0.597065 0.006022
vt 0.604051 0.010333
vt 0.609202 0.370606
vt 0.516807 0.486615
vt 0.523954 0.445129
vt 0.980459 0.574887
vt 0.449027 0.628367
vt 0.049764 0.763099
vt 0.585479 0.708106
vt 0.565715 0.763098
vt 0.588288 0.721535
vt 0.588053 0.721582
vt 0.013425 0.716568
vt 0.752997 0.245631
vt 0.754605 0.286921
vt 0.607365 0.286921
vt 0.000283 0.445130
vt 0.518971 0.575577
vt 0.914119 0.575454
vt 0.913950 0.617036
vt 0.643714 0.371193
vt 0.800228 0.114258
vt 0.604618 0.431096
vt 0.793293 0.833120
vt 0.803190 0.832554
vt 0.662835 0.244977
vt 0.604618 0.287488
vn 0.7679 -0.6004 -0.2231
vn -0.0000 0.0000 -1.0000
vn 0.9747 -0.2228 0.0176
vn 0.0386 -0.9949 0.0935
vn -0.8791 -0.4727 0.0610
vn 0.0000 0.0036 1.0000
vn 0.6304 0.7705 -0.0945
vn 0.6833 -0.2050 0.7007
vn -0.6753 -0.2476 0.6947
vn -0.6146 -0.0761 0.7851
vn -0.5020 0.8589 -0.1016
vn -0.9801 0.1878 -0.0640
vn 0.0000 0.0011 -1.0000
vn 0.9740 -0.2260 0.0152
vn -0.0000 -0.0014 1.0000
vn -0.0000 0.0000 1.0000
vn -0.9815 0.1809 -0.0626
vn 0.0264 -0.9948 0.0987
vn 0.4121 0.9055 -0.1009
vn 0.7679 -0.6005 -0.2229
vn 0.7679 -0.6005 -0.2233
vn -0.8792 -0.4729 0.0579
vn -0.8794 -0.4726 0.0582
vn -0.8791 -0.4727 0.0609
vn 0.6304 0.7706 -0.0941
vn 0.6302 0.7707 -0.0945
vn 0.6914 -0.4091 0.5955
vn -0.5021 0.8589 -0.1009
vn -0.5021 0.8588 -0.1016
vn 0.0263 -0.9948 0.0987
usemtl Material.013
s off
f 17/1/1 3/2/1 9/3/1
usemtl Material.002
f 13/4/2 23/5/2 24/6/2
usemtl Material.013
f 26/7/3 21/8/3 5/9/3
f 10/10/4 9/11/4 1/12/4
f 11/13/5 15/14/5 16/15/5
usemtl Material.010
f 5/16/6 21/17/6 7/18/6
usemtl Material.013
f 25/19/7 27/20/7 7/21/7
usemtl Material.001
s 8
f 3/22/8 16/23/9 15/24/10
usemtl Material.013
s off
f 20/25/11 22/26/11 24/27/11
f 19/28/12 23/29/12 13/30/12
usemtl Material.010
f 24/31/13 28/32/13 27/33/13
usemtl Material.013
f 12/34/14 5/35/14 4/36/14
usemtl Material.010
f 8/37/15 20/38/15 7/39/15
usemtl Material.002
f 15/40/16 1/41/16 3/42/16
usemtl Material.013
f 18/43/17 19/44/17 13/45/17
f 2/46/18 10/47/18 1/48/18
f 8/49/19 14/50/19 22/51/19
f 1/52/20 9/3/20 3/2/20
f 9/3/1 12/53/1 17/1/1
f 12/53/21 4/54/21 17/1/21
usemtl Material.002
f 24/6/2 27/55/2 12/56/2
f 27/55/2 25/57/2 26/58/2
f 12/56/2 27/55/2 26/58/2
f 12/56/2 9/59/2 24/6/2
f 9/59/2 10/60/2 24/6/2
f 10/60/2 11/61/2 24/6/2
f 11/61/2 13/4/2 24/6/2
usemtl Material.013
f 26/7/3 25/62/3 21/8/3
f 18/63/22 13/64/22 16/15/22
f 13/64/23 11/13/23 16/15/23
f 11/13/24 2/65/24 15/14/24
usemtl Material.010
f 7/18/6 20/66/6 17/67/6
f 20/66/6 6/68/6 16/69/6
f 16/69/6 6/68/6 19/70/6
f 19/70/6 18/71/6 16/69/6
f 16/69/6 17/67/6 20/66/6
f 17/67/6 4/72/6 7/18/6
f 4/72/6 5/16/6 7/18/6
usemtl Material.013
f 28/73/25 8/74/25 27/20/25
f 8/74/26 7/21/26 27/20/26
f 7/21/7 21/75/7 25/19/7
usemtl Material.001
s 8
f 3/22/8 17/76/27 16/23/9
usemtl Material.013
s off
f 22/26/28 14/77/28 24/27/28
f 24/27/29 23/78/29 20/25/29
f 23/78/29 6/79/29 20/25/29
f 19/28/12 6/80/12 23/29/12
usemtl Material.010
f 24/31/13 14/81/13 28/32/13
usemtl Material.013
f 12/34/14 26/82/14 5/35/14
usemtl Material.010
f 8/37/15 22/83/15 20/38/15
usemtl Material.002
f 15/40/16 2/84/16 1/41/16
usemtl Material.013
f 2/46/30 11/85/30 10/47/30
f 8/49/19 28/86/19 14/50/19
