# Blender v2.79 (sub 0) OBJ File: 'Outpost01-WallPY.blend'
# www.blender.org
mtllib outpostFloor77posX-22_36719512939453posY-1_3224411010742188.mtl
o Cube.004_Cube.005_Material.004_Cube.004_Cube.005_Material.0.689_Cube.004_Cube.005_Material.004_Cube.004_Cube.005_Material.0.836
v -0.551802 23.391542 0.535090
v -0.310122 22.766741 0.535091
v 3.811169 22.766741 0.535091
v 1.433027 20.683931 0.535094
v 2.438313 21.271036 0.532979
v 0.427349 21.649519 0.533513
v 2.524742 21.285742 0.229388
v -0.061075 22.105570 0.230274
v -0.245474 23.882776 0.232198
v 3.411121 24.289831 0.232639
v -0.232948 23.897116 0.535090
v 3.414869 24.302938 0.535091
v 0.821489 21.271036 0.532979
v -0.058382 22.116465 0.534173
v 3.966585 22.164129 0.534241
v 0.792614 21.285742 0.229387
v 1.447870 20.656561 0.229387
v -0.557222 23.388220 0.231663
v 0.008280 22.038897 0.230202
v 3.968418 22.129347 0.230301
vt 0.538578 0.473056
vt 0.497186 0.551989
vt 0.497260 0.470453
vt 0.497186 0.127843
vt 0.644083 0.042016
vt 0.733468 0.127843
vt 0.684785 0.335365
vt 0.683688 0.376834
vt 0.588569 0.377317
vt 0.717739 0.128284
vt 0.634318 0.208372
vt 0.497186 0.128284
vt 0.997860 0.041575
vt 0.497897 0.000220
vt 0.999780 0.000220
vt 0.897575 0.250730
vt 0.727442 0.250680
vt 0.738646 0.209056
vt 0.497186 0.378102
vt 0.538658 0.392031
vt 0.497186 0.470012
vt 0.293031 0.559493
vt 0.000220 0.476439
vt 0.000220 0.248348
vt 0.551883 0.615292
vt 0.595378 0.684258
vt 0.562410 0.769488
vt 0.616874 0.293491
vt 0.691415 0.293418
vt 0.621105 0.334924
vt 0.583611 0.769929
vt 0.549271 0.858634
vt 0.483011 0.922330
vt 0.713601 0.251173
vt 0.798494 0.251291
vt 0.803150 0.292762
vt 0.538578 0.552804
vt 0.497186 0.377661
vt 0.497186 0.336261
vt 0.497186 0.041513
vt 0.499351 0.250489
vt 0.497186 0.208813
vt 0.897452 0.208813
vt 0.538661 0.378907
vt 0.119430 0.044343
vt 0.262114 0.003800
vt 0.274741 0.000220
vt 0.496745 0.100815
vt 0.459953 0.030061
vt 0.000220 0.769488
vt 0.054280 0.559933
vt 0.769437 0.334813
vt 0.497186 0.334924
vt 0.501232 0.293203
vt 0.429246 0.973960
vt 0.208693 0.973960
vt 0.000220 0.852131
vt 0.021421 0.769929
vt 0.498789 0.292439
vt 0.497186 0.251171
vn -0.8458 0.5334 0.0097
vn 0.0000 0.0000 -1.0000
vn -0.9323 -0.3610 0.0212
vn -0.0000 0.0036 1.0000
vn -0.1105 0.9930 -0.0424
vn 0.5019 -0.8590 0.1013
vn -0.6927 -0.7206 0.0320
vn 0.0000 0.0011 -1.0000
vn 0.0000 0.0000 1.0000
vn -0.6923 -0.7210 0.0309
vn 0.0000 -0.0014 1.0000
vn 0.9681 0.2497 -0.0227
vn -0.8459 0.5332 0.0093
vn -0.9325 -0.3607 0.0206
vn -0.1105 0.9930 -0.0417
vn 0.9680 0.2497 -0.0228
usemtl Material.013
s off
f 9/1/1 1/2/1 11/3/1
usemtl Material.002
f 7/4/2 17/5/2 16/6/2
usemtl Material.013
f 8/7/3 14/8/3 2/9/3
usemtl Material.010
f 13/10/4 4/11/4 5/12/4
usemtl Material.013
f 11/13/5 10/14/5 9/15/5
f 17/16/6 7/17/6 5/18/6
f 14/19/7 19/20/7 6/21/7
usemtl Material.010
f 10/22/8 20/23/8 7/24/8
f 11/25/9 1/26/9 2/27/9
usemtl Material.013
f 13/28/10 6/29/10 16/30/10
usemtl Material.010
f 2/31/11 14/32/11 6/33/11
usemtl Material.013
f 3/34/12 15/35/12 20/36/12
f 9/1/13 18/37/13 1/2/13
f 1/38/14 18/39/14 2/9/14
f 18/39/14 8/7/14 2/9/14
f 11/13/15 12/40/15 10/14/15
f 20/41/6 15/42/6 7/17/6
f 15/42/6 5/18/6 7/17/6
f 5/18/6 4/43/6 17/16/6
f 14/19/7 8/44/7 19/20/7
usemtl Material.010
f 7/24/8 16/45/8 19/46/8
f 19/46/8 8/47/8 9/48/8
f 8/47/8 18/49/8 9/48/8
f 9/48/8 10/22/8 19/46/8
f 19/46/8 10/22/8 7/24/8
f 2/27/9 3/50/9 12/51/9
f 12/51/9 11/25/9 2/27/9
usemtl Material.013
f 6/29/10 19/52/10 16/30/10
f 16/30/10 17/53/10 13/28/10
f 17/53/10 4/54/10 13/28/10
usemtl Material.010
f 13/55/11 5/56/11 6/33/11
f 5/56/11 15/57/11 3/58/11
f 6/33/11 5/56/11 3/58/11
f 3/58/11 2/31/11 6/33/11
usemtl Material.013
f 20/36/16 10/59/16 3/34/16
f 10/59/16 12/60/16 3/34/16
