# Blender v2.79 (sub 0) OBJ File: 'Outpost01-WallPY.blend'
# www.blender.org
mtllib outpostFloor69posX-5_853008270263672posY-0_7857341766357422.mtl
o Cube.004_Cube.005_Material.004_Cube.004_Cube.005_Material.0.697_Cube.004_Cube.005_Material.004_Cube.004_Cube.005_Material.0.844
v 1.865501 3.940260 1.186553
v 0.801220 8.523320 1.186553
v 0.339960 8.352168 1.186553
v 0.810684 8.404799 0.229389
v 0.274002 3.940261 1.186553
v 0.664717 2.991473 0.665347
v 2.714003 4.760803 1.186554
v -0.813850 6.544841 1.186553
v 2.547050 4.989485 0.229389
v 0.608534 3.114828 0.229389
v -0.773685 6.425191 0.229389
v 0.390697 8.248689 0.229389
vt 0.617749 0.626068
vt 0.745196 0.349996
vt 0.745193 0.636563
vt 0.471312 0.682597
vt 0.496633 0.737511
vt 0.370889 0.823681
vt 0.000217 0.059175
vt 0.514468 0.000217
vt 0.145621 0.306112
vt 0.619877 0.209198
vt 0.747558 0.148319
vt 0.747562 0.207666
vt 0.497066 0.814706
vt 0.502227 0.682597
vt 0.658567 0.682597
vt 0.162209 0.342060
vt 0.536073 0.342060
vt 0.560342 0.682163
vt 0.830675 0.000217
vt 0.778924 0.143599
vt 0.619877 0.000217
vt 0.522251 0.999783
vt 0.000217 0.872863
vt 0.559273 0.872863
vt 0.617749 0.342060
vt 0.000217 0.872429
vt 0.000217 0.744553
vt 0.006996 0.000217
vt 0.619444 0.341626
vt 0.619877 0.144033
vt 0.860259 0.754535
vt 0.854250 0.814706
vt 0.617315 0.536573
vt 0.002845 0.640451
vt 0.000217 0.575338
vt 0.014779 0.999783
vn -0.8384 0.5354 -0.1021
vn -0.9227 -0.3854 0.0099
vn 0.0000 -0.0000 -1.0000
vn -0.3459 0.9307 -0.1190
vn 0.6671 -0.6898 -0.2812
vn -0.0000 -0.0000 1.0000
vn -0.5795 -0.3806 0.7206
vn -0.1531 -0.9654 0.2109
vn 0.5050 -0.6177 0.6028
vn 0.8904 0.4527 -0.0472
vn -0.8385 0.5353 -0.1023
vn -0.9227 -0.3854 0.0095
vn -0.9227 -0.3853 0.0098
vn -0.3454 0.9309 -0.1187
vn 0.6671 -0.6899 -0.2812
vn 0.8904 0.4527 -0.0473
usemtl Material.013
s off
f 8/1/1 12/2/1 11/3/1
f 10/4/2 6/5/2 5/6/2
usemtl Material.002
f 12/7/3 9/8/3 11/9/3
usemtl Material.013
f 3/10/4 4/11/4 12/12/4
f 9/13/5 7/14/5 1/15/5
usemtl Material.002
f 8/16/6 5/17/6 7/18/6
usemtl Material.001
s 7
f 5/19/7 6/20/8 1/21/9
usemtl Material.013
s off
f 9/22/10 2/23/10 7/24/10
f 8/1/11 3/25/11 12/2/11
f 8/26/12 11/27/12 5/6/12
f 11/27/13 10/4/13 5/6/13
usemtl Material.002
f 4/28/3 9/8/3 12/7/3
f 9/8/3 10/29/3 11/9/3
usemtl Material.013
f 3/10/14 2/30/14 4/11/14
f 6/31/15 10/32/15 1/15/15
f 10/32/5 9/13/5 1/15/5
usemtl Material.002
f 5/17/6 1/33/6 7/18/6
f 7/18/6 2/34/6 8/16/6
f 2/34/6 3/35/6 8/16/6
usemtl Material.013
f 9/22/16 4/36/16 2/23/16
