# Blender v2.79 (sub 0) OBJ File: 'Outpost01-WallPY.blend'
# www.blender.org
mtllib outpostFloor14posX-12_882158279418945posY-8_861937522888184.mtl
o Cube.004_Cube.005_Material.004_Cube.004_Cube.005_Material.0.752_Cube.004_Cube.005_Material.004_Cube.004_Cube.005_Material.0.899
v 11.665695 12.736335 0.229391
v 11.444975 13.910119 0.229391
v 6.422760 13.535268 1.186556
v 7.416372 10.980903 1.186556
v 9.355639 14.448754 1.186555
v 11.453625 13.127154 1.186556
v 11.234751 13.821980 1.186556
v 11.329048 13.790467 1.186555
v 9.450726 14.576510 0.229391
v 9.544504 14.545232 0.229391
v 6.470887 13.410377 1.186557
v 7.401532 10.998700 1.186556
v 7.295120 11.076890 0.229391
v 6.321938 13.602349 0.229391
v 7.341355 10.957078 0.229391
v 7.642084 10.596412 0.229391
vt 0.433597 0.257571
vt 0.834368 0.135138
vt 0.824652 0.257574
vt 0.439031 0.623605
vt 0.417205 0.500263
vt 0.672292 0.500263
vt 0.074935 0.002210
vt 0.416712 0.043761
vt 0.339232 0.453359
vt 0.997358 0.134645
vt 0.417689 0.000246
vt 0.999754 0.000246
vt 0.826722 0.377568
vt 0.830509 0.499770
vt 0.770728 0.499770
vt 0.417205 0.258067
vt 0.446827 0.380242
vt 0.429788 0.380242
vt 0.724001 0.499770
vt 0.754994 0.380735
vt 0.770235 0.386649
vt 0.590449 0.982306
vt 0.203073 0.664432
vt 0.590449 0.655610
vt 0.843115 0.762057
vt 0.824193 0.638695
vt 0.836778 0.638695
vt 0.770945 0.500263
vt 0.672785 0.623340
vt 0.685027 0.500266
vt 0.417205 0.135138
vt 0.426374 0.623605
vt 0.330714 0.463537
vt 0.145056 0.638202
vt 0.000246 0.592214
vt 0.000246 0.012479
vt 0.058718 0.000246
vt 0.417205 0.134602
vt 0.829672 0.377568
vt 0.761747 0.258067
vt 0.417205 0.380735
vt 0.587433 0.992364
vt 0.014681 0.915780
vt 0.000246 0.831714
vt 0.010031 0.823831
vt 0.590441 0.638695
vt 0.590942 0.762057
vt 0.824830 0.623340
vn -0.2959 0.9502 0.0978
vn 0.3131 0.9370 0.1551
vn 0.0000 -0.0000 -1.0000
vn 0.4256 -0.8005 0.4219
vn -0.7658 -0.6386 0.0759
vn -0.9306 -0.3586 0.0729
vn -0.9304 -0.3590 0.0741
vn 0.0000 -0.0000 1.0000
vn 0.3125 0.9370 0.1561
vn 0.9730 0.1827 0.1407
vn -0.2959 0.9502 0.0974
vn 0.4259 -0.8007 0.4213
vn 0.9730 0.1830 0.1409
usemtl Material.013
s off
f 5/1/1 14/2/1 3/3/1
f 7/4/2 2/5/2 10/6/2
usemtl Material.002
f 13/7/3 14/8/3 9/9/3
usemtl Material.013
f 16/10/4 6/11/4 4/12/4
f 4/13/5 15/14/5 16/15/5
f 14/16/6 11/17/6 3/18/6
f 12/19/7 13/20/7 15/21/7
usemtl Material.002
f 12/22/8 5/23/8 11/24/8
usemtl Material.013
f 5/25/9 10/26/9 9/27/9
f 6/28/10 2/29/10 8/30/10
f 5/1/11 9/31/11 14/2/11
f 7/4/2 8/32/2 2/5/2
usemtl Material.002
f 9/9/3 10/33/3 13/7/3
f 10/33/3 2/34/3 1/35/3
f 1/35/3 16/36/3 10/33/3
f 10/33/3 16/36/3 13/7/3
f 16/36/3 15/37/3 13/7/3
usemtl Material.013
f 16/10/12 1/38/12 6/11/12
f 4/13/5 12/39/5 15/14/5
f 14/16/6 13/40/6 11/17/6
f 12/19/7 11/41/7 13/20/7
usemtl Material.002
f 12/22/8 4/42/8 5/23/8
f 4/42/8 6/43/8 5/23/8
f 6/43/8 8/44/8 7/45/8
f 7/45/8 5/23/8 6/43/8
f 5/23/8 3/46/8 11/24/8
usemtl Material.013
f 5/25/9 7/47/9 10/26/9
f 6/28/13 1/48/13 2/29/13
