# Blender v2.79 (sub 0) OBJ File: 'Outpost01-WallPY.blend'
# www.blender.org
mtllib outpostFloor2posX-18_076417922973633posY17_012046813964844.mtl
o Cube.004_Cube.005_Material.004_Cube.004_Cube.005_Material.0.764_Cube.004_Cube.005_Material.004_Cube.004_Cube.005_Material.0.911
v -16.894936 15.511198 0.229385
v -20.468399 17.663322 1.186551
v -16.410812 20.446249 0.229385
v -20.561676 17.620638 0.229383
v -14.413857 16.717476 0.229386
v -17.091644 19.961508 1.186551
v -16.984104 15.658791 1.186551
v -14.577530 16.829559 1.186551
v -16.254330 19.961508 1.186551
v -16.463184 20.393932 0.975860
vt 0.292603 0.883406
vt 0.000191 0.894749
vt 0.000191 0.506296
vt 0.091557 0.999809
vt 0.008144 0.976768
vt 0.000191 0.895131
vt 0.525410 0.568218
vt 0.580213 0.463087
vt 0.987919 0.568218
vt 0.546545 0.052788
vt 0.569382 0.000191
vt 0.638101 0.052788
vt 0.536146 0.674040
vt 0.827067 0.780384
vt 0.525410 0.780384
vt 0.301617 0.011996
vt 0.000191 0.462700
vt 0.000191 0.000191
vt 0.987960 0.673658
vt 0.541909 0.568600
vt 0.981446 0.568600
vt 0.080906 0.463082
vt 0.525028 0.510348
vt 0.549245 0.895131
vt 0.538187 0.999809
vt 0.527749 0.486228
vt 0.968666 0.463082
vt 0.828779 0.674052
vt 0.546163 0.404614
vt 0.525410 0.673658
vn 0.0000 -0.0000 1.0000
vn -0.5625 0.8266 0.0185
vn 0.8776 0.4700 0.0945
vn 0.0000 0.4380 0.8990
vn 0.4303 -0.8851 0.1772
vn 0.0000 0.0000 -1.0000
vn -0.4968 -0.8635 0.0869
vn -0.5626 0.8265 0.0184
vn -0.5626 0.8266 0.0180
vn 0.8776 0.4699 0.0945
vn 0.8776 0.4699 0.0950
vn 0.4306 -0.8851 0.1766
usemtl Material.002
s off
f 7/1/1 8/2/1 9/3/1
usemtl Material.013
f 6/4/2 10/5/2 3/6/2
f 3/7/3 9/8/3 5/9/3
usemtl Material.002
f 9/10/4 10/11/4 6/12/4
usemtl Material.013
f 8/13/5 1/14/5 5/15/5
usemtl Material.002
f 1/16/6 3/17/6 5/18/6
usemtl Material.013
f 4/19/7 7/20/7 2/21/7
usemtl Material.002
f 9/3/1 6/22/1 7/1/1
f 6/22/1 2/23/1 7/1/1
usemtl Material.013
f 3/6/8 4/24/8 6/4/8
f 4/24/9 2/25/9 6/4/9
f 10/26/10 9/8/10 3/7/10
f 9/8/11 8/27/11 5/9/11
f 8/13/12 7/28/12 1/14/12
usemtl Material.002
f 1/16/6 4/29/6 3/17/6
usemtl Material.013
f 4/19/7 1/30/7 7/20/7
