# Blender v2.79 (sub 0) OBJ File: 'Outpost01-WallPY.blend'
# www.blender.org
mtllib outpostFloor87posX-19_994604110717773posY8_92413330078125.mtl
o Cube.004_Cube.005_Material.004_Cube.004_Cube.005_Material.0.679_Cube.004_Cube.005_Material.004_Cube.004_Cube.005_Material.0.826
v -10.259100 19.961508 1.186550
v -10.064802 21.256334 0.536563
v -10.064802 21.285742 0.229387
v -10.064800 21.271040 0.532979
v -9.867403 22.766745 0.235090
v -9.867403 22.766745 0.535091
v -8.567963 21.271040 0.532979
v -8.772774 21.694693 0.533577
v -7.343382 16.869707 0.229387
v -7.314512 16.883020 0.229387
v -7.203632 16.934801 0.229387
v -7.105074 18.007624 0.229387
v -7.150181 17.069544 1.186553
v -7.543724 19.181635 1.186552
v -7.619932 19.339266 1.186552
v -10.697533 21.285742 0.229387
v -12.303324 16.904692 0.229386
v -11.115946 19.961508 1.186550
v -8.350451 20.821218 0.534601
v -9.712683 22.903036 0.535091
v -9.606665 22.766745 0.535091
v -9.723257 22.893721 0.235091
v -8.813181 21.723352 0.229861
v -7.909184 19.926401 0.936310
v -8.588938 21.285742 0.229387
v -8.698187 21.526884 0.229648
v -8.760319 21.655405 0.229787
v -7.126078 18.057535 0.229387
v -7.742575 16.796331 1.186552
v -7.065882 17.992331 1.186553
v -7.465462 19.008928 1.186553
v -10.685976 21.258619 0.536563
v -10.687090 21.261698 0.504474
v -12.264620 16.827490 1.186550
v -7.580858 19.219606 0.229387
v -7.561100 19.169333 0.229387
vt 0.757008 0.286752
vt 0.753861 0.286643
vt 0.753840 0.226001
vt 0.763431 0.130904
vt 0.573234 0.000285
vt 0.824364 0.000285
vt 0.767141 0.749729
vt 0.621240 0.779370
vt 0.621281 0.750083
vt 0.688806 0.518367
vt 0.515780 0.518367
vt 0.547464 0.481281
vt 0.691764 0.309904
vt 0.662477 0.328657
vt 0.662477 0.308528
vt 0.515495 0.624724
vt 0.971004 0.624724
vt 0.650930 0.718365
vt 0.769112 0.329228
vt 0.761038 0.422722
vt 0.662477 0.329228
vt 0.607093 0.749729
vt 0.515495 0.843256
vt 0.516632 0.749731
vt 0.999715 0.624152
vt 0.554414 0.530416
vt 0.995883 0.530409
vt 0.619852 0.161040
vt 0.648862 0.142183
vt 0.672498 0.276136
vt 0.515780 0.480710
vt 0.603688 0.423293
vt 0.766910 0.480710
vt 0.689377 0.494586
vt 0.699727 0.481281
vt 0.714831 0.494586
vt 0.617182 0.276706
vt 0.642636 0.276706
vt 0.661907 0.422722
vt 0.753840 0.131475
vt 0.779137 0.225431
vt 0.776034 0.225431
vt 0.000285 0.762206
vt 0.210312 0.564935
vt 0.114081 0.947783
vt 0.796162 0.322543
vt 0.784536 0.319791
vt 0.796162 0.226001
vt 0.673069 0.279201
vt 0.753269 0.155243
vt 0.731267 0.296241
vt 0.602198 0.725151
vt 0.881142 0.749159
vt 0.527150 0.749159
vt 0.799021 0.482366
vt 0.769702 0.482482
vt 0.769683 0.465626
vt 0.135008 0.503427
vt 0.002285 0.217611
vt 0.515210 0.210664
vt 0.783965 0.226001
vt 0.783966 0.287771
vt 0.515780 0.037416
vt 0.768522 0.779369
vt 0.691764 0.328657
vt 0.976780 0.718365
vt 0.517593 0.654776
vt 0.516413 0.639759
vt 0.766325 0.422718
vt 0.620669 0.843256
vt 0.515495 0.624153
vt 0.527332 0.256787
vt 0.515780 0.243985
vt 0.636264 0.148273
vt 0.672498 0.131475
vt 0.515780 0.422722
vt 0.535775 0.381364
vt 0.817526 0.131475
vt 0.286502 0.530409
vt 0.514925 0.762800
vt 0.050397 0.947359
vt 0.005718 0.868702
vt 0.000285 0.743695
vt 0.000710 0.726608
vt 0.673069 0.131475
vt 0.515495 0.744951
vt 0.521095 0.718936
vt 0.559509 0.732816
vt 0.693659 0.743877
vt 0.860234 0.741503
vt 0.769683 0.333035
vt 0.799371 0.337632
vt 0.799369 0.329228
vt 0.004907 0.441823
vt 0.000285 0.211495
vt 0.009928 0.090147
vt 0.079438 0.000548
vt 0.064403 0.000285
vt 0.079440 0.000285
vt 0.190786 0.529838
vn 0.0037 0.9954 0.0953
vn 0.0276 0.2421 0.9698
vn 0.6296 0.5474 0.5512
vn -0.3967 0.2465 0.8842
vn -0.9912 0.1321 0.0000
vn -0.0000 0.0036 1.0000
vn -0.6610 0.7504 0.0000
vn -0.9369 0.3434 0.0655
vn 0.9302 0.3656 -0.0336
vn 0.9950 -0.0909 -0.0422
vn -0.0069 -0.9968 -0.0801
vn 0.0000 0.0011 -1.0000
vn 0.6747 0.5006 0.5423
vn 0.0000 -0.0000 1.0000
vn 0.0000 -0.0014 1.0000
vn 0.4165 -0.9031 0.1045
vn 0.4209 -0.9012 0.1034
vn 0.0016 0.4484 0.8938
vn 0.9001 0.4352 -0.0194
vn 0.7884 0.6133 -0.0468
vn 0.0000 0.0000 -1.0000
vn -0.0000 0.9962 0.0871
vn 0.6023 0.3743 0.7050
vn -0.9914 0.1308 0.0063
vn -0.9369 0.3434 0.0656
vn -0.9369 0.3434 0.0654
vn 0.9213 0.3877 -0.0315
vn 0.9949 -0.0914 -0.0427
vn -0.0070 -0.9968 -0.0793
vn -0.0023 0.0027 -1.0000
vn -0.0010 0.0040 -1.0000
vn 0.0000 0.4480 0.8940
vn 0.7884 0.6133 -0.0470
vn 0.7884 0.6134 -0.0470
vn 0.7885 0.6133 -0.0468
usemtl Material.002
s off
f 33/1/1 32/2/1 2/3/1
usemtl Material.001
s 2
f 1/4/2 24/5/3 4/6/4
usemtl Material.010
s off
f 3/7/5 6/8/5 5/9/5
f 4/10/6 19/11/6 7/12/6
f 22/13/7 6/14/7 20/15/7
usemtl Material.013
f 16/16/8 17/17/8 18/18/8
f 30/19/9 28/20/9 31/21/9
f 13/22/10 12/23/10 30/24/10
f 17/25/11 29/26/11 34/27/11
usemtl Material.010
f 23/28/12 26/29/12 3/30/12
usemtl Material.001
s 2
f 24/31/3 19/32/13 4/33/4
usemtl Material.010
s off
f 21/34/14 20/35/14 6/36/14
f 21/37/15 6/38/15 4/39/15
usemtl Material.013
f 13/40/16 9/41/16 10/42/16
usemtl Material.002
f 31/43/14 1/44/14 29/45/14
usemtl Material.013
f 10/46/17 11/47/17 13/48/17
usemtl Material.002
f 32/49/18 1/50/18 2/51/18
usemtl Material.013
f 19/52/19 14/53/19 26/54/19
f 22/55/20 20/56/20 21/57/20
usemtl Material.010
f 3/58/21 35/59/21 17/60/21
usemtl Material.002
f 2/3/1 3/61/1 33/1/1
f 3/61/22 16/62/22 33/1/22
usemtl Material.001
s 2
f 1/4/2 15/63/23 24/5/3
usemtl Material.010
s off
f 3/7/24 4/64/24 6/8/24
f 22/13/7 5/65/7 6/14/7
usemtl Material.013
f 34/66/25 18/18/25 17/17/25
f 18/18/26 32/67/26 33/68/26
f 16/16/25 18/18/25 33/68/25
f 30/19/27 12/69/27 28/20/27
f 13/22/28 11/70/28 12/23/28
f 17/25/29 9/71/29 29/26/29
usemtl Material.010
f 5/72/30 22/73/30 23/28/30
f 23/28/12 27/74/12 26/29/12
f 26/29/12 25/75/12 3/30/12
f 3/30/31 5/72/31 23/28/31
f 4/39/15 7/76/15 8/77/15
f 8/77/15 21/37/15 4/39/15
usemtl Material.013
f 13/40/16 29/78/16 9/41/16
usemtl Material.002
f 1/44/14 18/79/14 34/80/14
f 34/80/14 29/45/14 1/44/14
f 29/45/14 13/81/14 30/82/14
f 31/43/14 29/45/14 30/82/14
f 31/43/14 14/83/14 1/44/14
f 14/83/14 15/84/14 1/44/14
f 32/49/32 18/85/32 1/50/32
usemtl Material.013
f 27/86/19 8/87/19 26/54/19
f 8/87/19 7/88/19 26/54/19
f 19/52/19 24/89/19 14/53/19
f 24/89/19 15/90/19 14/53/19
f 7/88/19 19/52/19 26/54/19
f 21/57/33 8/91/33 23/92/33
f 8/91/34 27/93/34 23/92/34
f 23/92/35 22/55/35 21/57/35
usemtl Material.010
f 3/58/21 25/94/21 35/59/21
f 35/59/21 36/95/21 17/60/21
f 36/95/21 12/96/21 9/97/21
f 12/96/21 11/98/21 10/99/21
f 10/99/21 9/97/21 12/96/21
f 9/97/21 17/60/21 36/95/21
f 17/60/21 16/100/21 3/58/21
