# Blender v2.79 (sub 0) OBJ File: 'Outpost01-WallPY.blend'
# www.blender.org
mtllib outpostFloor65posX-18_928211212158203posY-1_0220890045166016.mtl
o Cube.004_Cube.005_Material.004_Cube.004_Cube.005_Material.0.701_Cube.004_Cube.005_Material.004_Cube.004_Cube.005_Material.0.848
v 1.832747 16.396147 1.186553
v 1.577097 20.275341 0.536568
v -0.128553 19.092129 1.186552
v 1.413073 20.580181 0.535469
v 3.054972 17.487089 0.229388
v -0.619783 17.951906 0.229388
v 0.521759 19.693516 0.229388
v 1.385588 20.489971 0.229388
v 3.070896 17.582598 1.186553
v 2.259060 19.092131 1.186553
v 0.572502 19.855083 0.767432
v 1.081728 20.275341 0.536568
v 1.151142 20.339293 0.536337
v -0.753042 17.994637 1.186552
v -0.743460 18.354158 1.186552
v 1.909166 16.388531 0.229388
v 1.422056 20.523535 0.229388
v -0.609316 18.336220 0.229388
vt 0.494873 0.340833
vt 0.922002 0.481695
vt 0.484724 0.481695
vt 0.180363 0.493571
vt 0.009263 0.470989
vt 0.191134 0.000248
vt 0.737544 0.753314
vt 0.783135 0.765161
vt 0.737562 0.760604
vt 0.585024 0.141788
vt 0.732774 0.212309
vt 0.484724 0.340337
vt 0.820504 0.660919
vt 0.737544 0.660919
vt 0.745490 0.558356
vt 0.737544 0.712327
vt 0.788256 0.674361
vt 0.801702 0.677806
vt 0.564563 0.657531
vt 0.581945 0.494069
vt 0.664904 0.494069
vt 0.816773 0.793750
vt 0.575973 0.934782
vt 0.564563 0.793750
vt 0.877537 0.636243
vt 0.824648 0.494854
vt 0.877537 0.494069
vt 0.177634 0.892109
vt 0.000248 0.712822
vt 0.125521 0.494069
vt 0.736405 0.000248
vt 0.988490 0.000248
vt 0.999752 0.141292
vt 0.941977 0.340833
vt 0.000248 0.469759
vt 0.422838 0.026241
vt 0.484229 0.458616
vt 0.439878 0.493573
vt 0.783135 0.712823
vt 0.657880 0.141788
vt 0.835882 0.340337
vt 0.741910 0.544944
vt 0.775522 0.494069
vt 0.737544 0.661415
vt 0.737048 0.743704
vt 0.603787 0.793254
vt 0.809433 0.934786
vt 0.821000 0.637079
vt 0.476554 0.503425
vt 0.564067 0.614333
vt 0.564067 0.667228
vt 0.492688 0.141291
vt 0.535636 0.096027
vt 0.484724 0.096189
vn -0.5255 -0.8501 -0.0352
vn 0.0000 -0.0000 -1.0000
vn -0.6691 0.7270 -0.1542
vn 0.6418 0.5459 0.5385
vn -0.4754 0.7503 0.4594
vn 0.5734 0.4369 0.6930
vn -0.6697 0.7263 -0.1549
vn -0.0000 0.0036 1.0000
vn -0.7628 0.6356 -0.1189
vn 0.6906 -0.7207 0.0604
vn -0.9899 0.0264 -0.1392
vn -0.0000 -0.0000 1.0000
vn 0.8790 0.4727 -0.0618
vn -0.4733 0.7472 0.4665
vn -0.5161 0.5357 0.6683
vn -0.7628 0.6356 -0.1188
vn 0.6908 -0.7205 0.0609
vn -0.9899 0.0270 -0.1390
vn 0.8790 0.4727 -0.0617
vn 0.8790 0.4728 -0.0617
usemtl Material.013
s off
f 1/1/1 6/2/1 16/3/1
usemtl Material.002
f 7/4/2 8/5/2 5/6/2
usemtl Material.013
f 8/7/3 4/8/3 17/9/3
usemtl Material.001
s 4
f 2/10/4 11/11/5 10/12/6
usemtl Material.013
s off
f 7/13/7 11/14/7 12/15/7
usemtl Material.010
f 2/16/8 13/17/8 12/18/8
usemtl Material.013
f 3/19/9 11/20/9 7/21/9
f 1/22/10 5/23/10 9/24/10
f 18/25/11 14/26/11 15/27/11
usemtl Material.002
f 1/28/12 9/29/12 10/30/12
usemtl Material.013
f 10/31/13 9/32/13 5/33/13
f 1/1/1 14/34/1 6/2/1
usemtl Material.002
f 8/5/2 17/35/2 5/6/2
f 5/6/2 16/36/2 7/4/2
f 16/36/2 6/37/2 7/4/2
f 6/37/2 18/38/2 7/4/2
usemtl Material.013
f 8/7/3 13/39/3 4/8/3
usemtl Material.001
s 4
f 12/40/14 11/11/5 2/10/4
f 11/11/5 3/41/15 10/12/6
usemtl Material.013
s off
f 13/42/7 8/43/7 12/15/7
f 8/43/7 7/13/7 12/15/7
usemtl Material.010
f 2/16/8 4/44/8 13/17/8
usemtl Material.013
f 7/21/9 18/45/9 3/19/9
f 18/45/16 15/46/16 3/19/16
f 1/22/17 16/47/17 5/23/17
f 18/25/18 6/48/18 14/26/18
usemtl Material.002
f 10/30/12 3/49/12 1/28/12
f 3/49/12 15/50/12 14/51/12
f 1/28/12 3/49/12 14/51/12
usemtl Material.013
f 5/33/19 17/52/19 2/53/19
f 17/52/20 4/54/20 2/53/20
f 2/53/13 10/31/13 5/33/13
