# Blender v2.79 (sub 0) OBJ File: 'scrap_metal.blend'
# www.blender.org
mtllib scrap_metal_00.mtl
o Cube_Cube_asteroid_Material.006
v -0.012333 0.056552 -0.141655
v -0.008121 -0.052646 -0.155221
v 0.069240 0.155679 -0.133346
v 0.174422 0.166293 -0.116474
v 0.088426 0.056798 -0.150236
v 0.099271 -0.049899 -0.145249
v 0.202582 0.059171 -0.139150
v 0.222761 -0.057466 -0.143557
v 0.224641 -0.163309 -0.079409
v -0.184849 0.146008 -0.115493
v -0.179088 0.052202 -0.133983
v -0.178891 -0.058336 -0.137054
v -0.181363 -0.159779 -0.121074
v -0.106368 0.152520 -0.105060
v -0.027021 0.159772 -0.137007
v -0.098733 0.058435 -0.124535
v -0.098406 -0.051104 -0.124394
v -0.101047 -0.154186 -0.112858
v -0.006234 -0.158441 -0.110057
v 0.101112 -0.158264 -0.082979
v 0.069240 0.155679 -0.103346
v 0.174422 0.166293 -0.086474
v 0.202582 0.059171 -0.109150
v 0.222761 -0.057466 -0.113557
v 0.224641 -0.163309 -0.049409
v -0.184849 0.146008 -0.085493
v -0.179088 0.052202 -0.103983
v -0.178891 -0.058336 -0.107054
v -0.181363 -0.159779 -0.091074
v -0.106368 0.152520 -0.075060
v -0.027021 0.159772 -0.107007
v -0.101047 -0.154186 -0.082858
v -0.006234 -0.158441 -0.080057
v 0.101112 -0.158264 -0.052979
vt 0.361812 0.077524
vt 0.316899 0.303035
vt 0.136681 0.269033
vt 0.252293 0.543024
vt 0.177475 0.759757
vt 0.053312 0.682351
vt 0.073468 0.510082
vt 0.501406 0.370881
vt 0.551511 0.155588
vt 0.708816 0.439904
vt 0.442121 0.599147
vt 0.373294 0.832650
vt 0.606454 0.925268
vt 0.657384 0.659074
vt 0.933371 0.509817
vt 0.749060 0.225326
vt 0.884038 0.727552
vt 0.835821 0.932501
vt 0.187076 0.098089
vt 0.945649 0.303392
vt 0.564638 0.087758
vt 0.357794 0.898380
vt 0.002899 0.720177
vt 0.000100 0.503227
vt 0.999900 0.509704
vt 0.938314 0.757340
vt 0.863127 0.987887
vt 0.067743 0.238414
vt 0.155230 0.035638
vt 0.602569 0.996042
vt 0.360813 0.000100
vt 0.782553 0.160779
vt 0.999900 0.267278
vt 0.151246 0.821481
vn -0.1179 0.8051 -0.5813
vn -0.0573 0.1231 -0.9907
vn -0.6410 0.0666 -0.7647
vn -0.0924 -0.0596 -0.9939
vn 0.0005 -0.7710 -0.6369
vn -0.5457 -0.6211 -0.5625
vn -0.6255 -0.0539 -0.7783
vn -0.1350 0.0690 -0.9884
vn -0.1652 0.6907 -0.7040
vn 0.0099 0.0596 -0.9982
vn -0.0463 -0.1332 -0.9900
vn 0.0644 -0.8189 -0.5703
vn 0.0331 -0.8720 -0.4885
vn 0.0273 -0.2577 -0.9658
vn 0.7109 0.2214 -0.6676
vn 0.0357 0.7483 -0.6624
vn 0.6771 -0.1484 -0.7208
vn 0.6078 -0.6936 -0.3866
vn -0.5976 0.5797 -0.5539
vn 0.5008 0.7316 -0.4625
vn -0.0308 0.9995 0.0000
vn -0.0197 -0.9998 -0.0000
vn -0.6220 -0.7830 0.0000
vn -0.9999 0.0118 0.0000
vn 0.9765 0.2156 0.0000
vn 0.9965 0.0840 0.0000
vn 0.5345 -0.8451 0.0000
vn -0.9994 -0.0335 -0.0000
vn -0.6847 0.7288 -0.0000
vn -0.0216 -0.9998 -0.0000
vn -0.0865 0.9963 0.0000
vn -0.0333 0.9994 0.0000
vn 0.5590 0.8292 0.0000
vn 0.0099 -1.0000 0.0000
usemtl None
s 1
f 14/1/1 16/2/2 11/3/3
f 17/4/4 18/5/5 13/6/6
f 17/4/4 12/7/7 16/2/2
f 1/8/8 16/2/2 14/1/1
f 1/8/8 15/9/9 5/10/10
f 1/8/8 2/11/11 16/2/2
f 17/4/4 2/11/11 18/5/5
f 19/12/12 2/11/11 20/13/13
f 1/8/8 5/10/10 6/14/14
f 7/15/15 5/10/10 3/16/16
f 7/15/15 8/17/17 5/10/10
f 9/18/18 20/13/13 6/14/14
f 10/19/19 14/1/1 11/3/3
f 12/7/7 17/4/4 13/6/6
f 12/7/7 11/3/3 16/2/2
f 15/9/9 1/8/8 14/1/1
f 15/9/9 3/16/16 5/10/10
f 2/11/11 17/4/4 16/2/2
f 2/11/11 19/12/12 18/5/5
f 2/11/11 6/14/14 20/13/13
f 2/11/11 1/8/8 6/14/14
f 4/20/20 7/15/15 3/16/16
f 8/17/17 6/14/14 5/10/10
f 8/17/17 9/18/18 6/14/14
f 14/1/1 31/21/21 15/9/9
f 20/13/13 33/22/22 19/12/12
f 18/5/5 29/23/23 13/6/6
f 13/6/6 28/24/24 12/7/7
f 4/20/20 23/25/25 7/15/15
f 9/18/18 24/26/26 25/27/27
f 10/19/19 27/28/28 26/29/29
f 9/18/18 34/30/30 20/13/13
f 7/15/15 24/26/26 8/17/17
f 14/1/1 26/29/29 30/31/31
f 4/20/20 21/32/32 22/33/33
f 11/3/3 28/24/24 27/28/28
f 3/16/16 31/21/21 21/32/32
f 19/12/12 32/34/34 18/5/5
f 14/1/1 30/31/31 31/21/21
f 20/13/13 34/30/30 33/22/22
f 18/5/5 32/34/34 29/23/23
f 13/6/6 29/23/23 28/24/24
f 4/20/20 22/33/33 23/25/25
f 9/18/18 8/17/17 24/26/26
f 10/19/19 11/3/3 27/28/28
f 9/18/18 25/27/27 34/30/30
f 7/15/15 23/25/25 24/26/26
f 14/1/1 10/19/19 26/29/29
f 4/20/20 3/16/16 21/32/32
f 11/3/3 12/7/7 28/24/24
f 3/16/16 15/9/9 31/21/21
f 19/12/12 33/22/22 32/34/34
