# Blender v2.79 (sub 0) OBJ File: ''
# www.blender.org
mtllib backgrounddeco.mtl
o Cube
v 1000000.000000 -1000000.000000 1.000000
v 1000000.000000 1000000.000000 1.000000
v -1000000.125000 999999.750000 1.000000
v -999999.562500 -1000000.375000 1.000000
v 1000000.500000 -999999.500000 -1.000000
v 999999.375000 1000000.625000 -1.000000
v -1000000.375000 999999.625000 -1.000000
v -999999.875000 -1000000.000000 -1.000000
vn 0.0000 0.0000 1.0000
vn 0.0000 0.0000 -1.0000
vn 0.9701 0.0000 0.2425
vn -0.0000 0.9503 0.3114
vn -0.9923 -0.0000 0.1240
vn 0.0000 -0.9673 -0.2536
vn 0.9545 0.0000 -0.2983
vn -0.0000 0.9982 -0.0594
vn -0.9880 -0.0000 0.1544
vn 0.0000 -0.9880 -0.1544
usemtl Material
s off
f 1//1 3//1 4//1
f 8//2 6//2 5//2
f 5//3 2//3 1//3
f 6//4 3//4 2//4
f 7//5 4//5 3//5
f 1//6 8//6 5//6
f 1//1 2//1 3//1
f 8//2 7//2 6//2
f 5//7 6//7 2//7
f 6//8 7//8 3//8
f 7//9 8//9 4//9
f 1//10 4//10 8//10
