# Blender v2.79 (sub 0) OBJ File: ''
# www.blender.org
mtllib waypoint_01.mtl
o Cube.001
v 1.000000 1.000000 -4.929320
v 0.000000 0.000000 -6.929320
v -1.000000 1.000000 -4.929320
v 1.000000 -1.000000 -4.929320
v -1.000000 -1.000000 -4.929320
v 0.250001 -0.250000 -4.989659
v 0.249999 0.250000 0.010340
v 0.249999 -0.250000 0.010340
v 0.250001 0.250000 -4.989659
v -0.250001 0.250000 0.010340
v -0.249999 0.250000 -4.989659
v -0.250001 -0.250000 0.010340
v -0.249999 -0.250000 -4.989659
vt 0.400403 0.000183
vt 0.699363 0.299143
vt 0.400403 0.598103
vt 0.998323 0.598103
vt 0.998323 0.000183
vt 0.400403 0.998323
vt 0.800256 0.598469
vt 0.800256 0.998323
vt 0.100146 0.999817
vt 0.000183 0.000183
vt 0.100146 0.000183
vt 0.400037 0.999817
vt 0.300072 0.000183
vt 0.400036 0.000183
vt 0.300073 0.999817
vt 0.200109 0.000183
vt 0.200110 0.999817
vt 0.900586 0.698799
vt 0.800622 0.798762
vt 0.800622 0.698799
vt 0.800622 0.698433
vt 0.900586 0.598469
vt 0.900586 0.698433
vt 0.000183 0.999817
vt 0.900586 0.798762
vt 0.800622 0.598469
vt 0.400403 0.598469
vn 0.0000 0.8944 -0.4472
vn -0.8944 0.0000 -0.4472
vn 0.0000 -0.8944 -0.4472
vn 0.8944 0.0000 -0.4472
vn 0.0000 0.0000 1.0000
vn 0.5773 -0.5773 -0.5773
vn 0.5773 0.5773 0.5773
vn 0.5773 -0.5773 0.5773
vn 0.5773 0.5773 -0.5773
vn -0.5773 0.5773 0.5773
vn -0.5773 0.5773 -0.5773
vn -0.5773 -0.5773 0.5773
vn -0.5773 -0.5773 -0.5773
usemtl None
s off
f 1/1/1 2/2/1 3/3/1
f 3/3/2 2/2/2 5/4/2
f 5/4/3 2/2/3 4/5/3
f 4/5/4 2/2/4 1/1/4
f 5/6/5 1/7/5 3/8/5
s 6
f 6/9/6 7/10/7 8/11/8
s 7
f 9/12/9 10/13/10 7/14/7
s 8
f 11/15/11 12/16/12 10/13/10
s 9
f 13/17/13 8/11/8 12/16/12
s 10
f 10/18/10 8/19/8 7/20/7
s 11
f 9/21/9 13/22/13 11/23/11
s 6
f 6/9/6 9/24/9 7/10/7
s 7
f 9/12/9 11/15/11 10/13/10
s 8
f 11/15/11 13/17/13 12/16/12
s 9
f 13/17/13 6/9/6 8/11/8
s 10
f 10/18/10 12/25/12 8/19/8
s 11
f 9/21/9 6/26/6 13/22/13
s off
f 5/6/5 4/27/5 1/7/5
