# Blender v2.79 (sub 0) OBJ File: 'stopSign.blend'
# www.blender.org
o Cube.000_Cube.002
v -0.353500 0.095295 -0.000001
v -0.353501 0.095295 -5.000000
v 0.000054 -0.134515 -0.000001
v 0.000052 -0.134515 -5.000000
v 0.353607 0.095295 -0.000000
v 0.353606 0.095295 -5.000000
v -0.923879 -0.140000 -6.298032
v -0.382683 -0.140000 -6.839228
v 0.382683 -0.140000 -6.839228
v 0.923880 -0.140000 -6.298032
v 0.923879 -0.140000 -5.532665
v 0.382683 -0.140000 -4.991468
v -0.382684 -0.140000 -4.991469
v -0.923880 -0.140000 -5.532666
v -0.923879 0.110000 -6.298032
v -0.382683 0.110000 -6.839228
v 0.382683 0.110000 -6.839228
v 0.923880 0.110000 -6.298032
v 0.923879 0.110000 -5.532665
v 0.382683 0.110000 -4.991468
v -0.382684 0.110000 -4.991469
v -0.923880 0.110000 -5.532666
vt 0.925456 0.881834
vt 0.999809 0.000191
vt 0.999809 0.881834
vt 0.850719 0.881832
vt 0.925074 0.000191
vt 0.925073 0.881832
vt 0.399462 0.881833
vt 0.524145 0.000191
vt 0.524145 0.881833
vt 0.619954 0.326003
vt 0.524526 0.095619
vt 0.754910 0.000191
vt 0.230575 0.422376
vt 0.326003 0.652760
vt 0.095619 0.748189
vt 0.399080 0.120757
vt 0.265700 0.051593
vt 0.283111 0.000191
vt 0.006018 0.134094
vt 0.142855 0.055912
vt 0.057165 0.151876
vt 0.116766 0.421995
vt 0.257601 0.365015
vt 0.283108 0.412969
vt 0.399080 0.289863
vt 0.349524 0.143067
vt 0.116619 0.008423
vt 0.000191 0.302297
vt 0.049904 0.280503
vt 0.133787 0.370461
vt 0.347290 0.272177
vt 0.925455 0.000191
vt 0.850721 0.000191
vt 0.399462 0.000191
vt 0.850338 0.095619
vt 0.850338 0.230575
vt 0.754910 0.326003
vt 0.524526 0.230575
vt 0.619954 0.000191
vt 0.000191 0.652760
vt 0.000191 0.517804
vt 0.095619 0.422376
vt 0.326003 0.517804
vt 0.230575 0.748189
vn -0.5450 -0.8384 0.0000
vn 0.5450 -0.8384 -0.0000
vn -0.0000 1.0000 0.0000
vn 0.0000 -1.0000 0.0000
vn -0.7071 0.0000 -0.7071
vn 0.7071 0.0000 -0.7071
vn -0.0000 0.0000 1.0000
vn -1.0000 0.0000 -0.0000
vn -0.0000 0.0000 -1.0000
vn 1.0000 0.0000 0.0000
vn 0.7071 0.0000 0.7071
vn -0.7071 0.0000 0.7071
usemtl None
s off
f 1/1/1 4/2/1 3/3/1
f 3/4/2 6/5/2 5/6/2
f 5/7/3 2/8/3 1/9/3
f 13/10/4 7/11/4 9/12/4
f 15/13/3 21/14/3 19/15/3
f 7/16/5 16/17/5 8/18/5
f 10/19/6 17/20/6 18/21/6
f 12/22/7 21/23/7 13/24/7
f 14/25/8 15/26/8 7/16/8
f 8/18/9 17/20/9 9/27/9
f 11/28/10 18/21/10 19/29/10
f 12/22/11 19/29/11 20/30/11
f 13/24/12 22/31/12 14/25/12
f 1/1/1 2/32/1 4/2/1
f 3/4/2 4/33/2 6/5/2
f 5/7/3 6/34/3 2/8/3
f 9/12/4 10/35/4 11/36/4
f 11/36/4 12/37/4 13/10/4
f 13/10/4 14/38/4 7/11/4
f 7/11/4 8/39/4 9/12/4
f 9/12/4 11/36/4 13/10/4
f 19/15/3 18/40/3 17/41/3
f 17/41/3 16/42/3 19/15/3
f 16/42/3 15/13/3 19/15/3
f 15/13/3 22/43/3 21/14/3
f 21/14/3 20/44/3 19/15/3
f 7/16/5 15/26/5 16/17/5
f 10/19/6 9/27/6 17/20/6
f 12/22/7 20/30/7 21/23/7
f 14/25/8 22/31/8 15/26/8
f 8/18/9 16/17/9 17/20/9
f 11/28/10 10/19/10 18/21/10
f 12/22/11 11/28/11 19/29/11
f 13/24/12 21/23/12 22/31/12
