# Blender v2.79 (sub 0) OBJ File: 'scrap_metal.blend'
# www.blender.org
mtllib scrap_metal_01.mtl
o Cube_Cube_asteroid_Material.004
v -0.100790 -0.066816 -0.030781
v -0.065544 -0.073046 -0.048529
v -0.022621 -0.077387 -0.054592
v 0.028088 -0.076738 -0.048864
v 0.083845 -0.086908 -0.050305
v 0.042681 -0.027031 -0.068600
v 0.106310 -0.031504 -0.058614
v 0.119968 0.033870 -0.064208
v -0.097350 -0.030875 -0.053832
v -0.093909 0.015203 -0.051764
v -0.061972 -0.037534 -0.032707
v -0.004734 -0.034379 -0.042009
v 0.051940 0.035548 -0.071246
v -0.041192 0.008487 -0.023530
v 0.004014 0.029227 -0.036931
v -0.088919 0.059352 -0.049903
v -0.043979 0.071384 -0.052104
v 0.000309 0.087340 -0.058721
v 0.057758 0.097732 -0.048484
v 0.126099 0.104074 -0.050985
v -0.100790 -0.066816 -0.015781
v -0.065544 -0.073046 -0.033529
v -0.022621 -0.077387 -0.039592
v 0.028088 -0.076738 -0.033864
v 0.083845 -0.086908 -0.035305
v 0.106310 -0.031504 -0.043614
v 0.119968 0.033870 -0.049208
v -0.097350 -0.030875 -0.038832
v -0.093909 0.015203 -0.036764
v -0.088919 0.059352 -0.034903
v -0.043980 0.071384 -0.037104
v 0.000309 0.087340 -0.043721
v 0.057758 0.097732 -0.033484
v 0.126099 0.104074 -0.035985
vt 0.081589 0.544451
vt 0.136271 0.352300
vt 0.277323 0.630356
vt 0.185124 0.192578
vt 0.322369 0.238230
vt 0.293325 0.433090
vt 0.222497 0.861781
vt 0.500315 0.695892
vt 0.458419 0.938431
vt 0.743029 0.759689
vt 0.663817 0.956367
vt 0.468336 0.320369
vt 0.358346 0.101972
vt 0.528226 0.129126
vt 0.705346 0.346833
vt 0.504865 0.488744
vt 0.723397 0.534840
vt 0.219780 0.052824
vt 0.057683 0.755660
vt 0.670645 0.181644
vt 0.079244 0.334012
vt 0.133398 0.157498
vt 0.769688 0.328949
vt 0.782518 0.531455
vt 0.797570 0.771564
vt 0.450234 0.999910
vt 0.548966 0.068458
vt 0.713414 0.144552
vt 0.700619 0.999911
vt 0.187609 0.914478
vt 0.000089 0.773917
vt 0.355867 0.042314
vt 0.188379 0.000089
vt 0.020305 0.535964
vn -0.0027 -0.8188 -0.5740
vn -0.1519 -0.6187 -0.7708
vn -0.1295 -0.1285 -0.9832
vn -0.1449 -0.6189 -0.7720
vn 0.2033 0.2219 -0.9536
vn -0.3531 0.2572 -0.8995
vn 0.7080 -0.3088 -0.6351
vn -0.1575 0.0673 -0.9852
vn 0.7266 -0.0585 -0.6846
vn -0.0849 0.8374 -0.5400
vn 0.5961 0.6340 -0.4927
vn 0.0163 -0.0175 -0.9997
vn -0.5239 0.0144 -0.8516
vn -0.5758 -0.0153 -0.8174
vn -0.1732 0.5445 -0.8207
vn -0.3846 -0.1176 -0.9156
vn -0.2987 0.6012 -0.7412
vn -0.7641 -0.5904 -0.2599
vn 0.3798 -0.7450 -0.5484
vn -0.6256 0.5374 -0.5656
vn -0.0444 -0.9990 -0.0000
vn -0.1438 -0.9896 0.0000
vn -0.2966 0.9550 -0.0000
vn -0.2586 0.9660 -0.0000
vn -0.1333 0.9911 0.0000
vn 0.9895 -0.1442 0.0000
vn -0.9956 0.0939 -0.0000
vn -0.7586 0.6516 -0.0000
vn 0.6397 0.7686 0.0000
vn 0.9548 -0.2973 0.0000
vn 0.4428 -0.8966 0.0000
vn -0.9963 0.0863 -0.0000
vn -0.7666 -0.6422 0.0000
vn -0.0865 -0.9963 -0.0000
usemtl None
s 1
f 4/1/1 3/2/2 6/3/3
f 2/4/4 11/5/5 12/6/6
f 4/1/1 6/3/3 7/7/7
f 13/8/8 8/9/9 6/3/3
f 13/8/8 19/10/10 20/11/11
f 14/12/12 11/5/5 9/13/13
f 14/12/12 10/14/14 17/15/15
f 14/12/12 15/16/16 11/5/5
f 13/8/8 6/3/3 12/6/6
f 14/12/12 17/15/15 18/17/17
f 15/16/16 18/17/17 13/8/8
f 1/18/18 9/13/13 2/4/4
f 9/13/13 11/5/5 2/4/4
f 3/2/2 12/6/6 6/3/3
f 3/2/2 2/4/4 12/6/6
f 5/19/19 4/1/1 7/7/7
f 8/9/9 7/7/7 6/3/3
f 8/9/9 13/8/8 20/11/11
f 10/14/14 14/12/12 9/13/13
f 10/14/14 16/20/20 17/15/15
f 15/16/16 12/6/6 11/5/5
f 15/16/16 13/8/8 12/6/6
f 18/17/17 19/10/10 13/8/8
f 15/16/16 14/12/12 18/17/17
f 2/4/4 23/21/21 22/22/22
f 16/20/20 31/23/23 17/15/15
f 19/10/10 32/24/24 33/25/25
f 20/11/11 27/26/26 8/9/9
f 16/20/20 29/27/27 30/28/28
f 17/15/15 32/24/24 18/17/17
f 4/1/1 23/21/21 3/2/2
f 19/10/10 34/29/29 20/11/11
f 5/19/19 26/30/30 25/31/31
f 1/18/18 28/32/32 9/13/13
f 10/14/14 28/32/32 29/27/27
f 1/18/18 22/22/22 21/33/33
f 4/1/1 25/31/31 24/34/34
f 7/7/7 27/26/26 26/30/30
f 2/4/4 3/2/2 23/21/21
f 16/20/20 30/28/28 31/23/23
f 19/10/10 18/17/17 32/24/24
f 20/11/11 34/29/29 27/26/26
f 16/20/20 10/14/14 29/27/27
f 17/15/15 31/23/23 32/24/24
f 4/1/1 24/34/34 23/21/21
f 19/10/10 33/25/25 34/29/29
f 5/19/19 7/7/7 26/30/30
f 1/18/18 21/33/33 28/32/32
f 10/14/14 9/13/13 28/32/32
f 1/18/18 2/4/4 22/22/22
f 4/1/1 5/19/19 25/31/31
f 7/7/7 8/9/9 27/26/26
