# Blender v2.79 (sub 0) OBJ File: 'scrap_metal.blend'
# www.blender.org
mtllib scrap_metal_03.mtl
o Cube_Cube_asteroid_Material.009
v -0.051033 -0.086819 -0.036132
v -0.002183 -0.039006 -0.048097
v -0.005675 -0.092032 -0.049353
v 0.046184 0.079477 -0.064071
v 0.086295 0.080814 -0.052143
v 0.046170 0.003972 -0.061979
v 0.090899 0.046058 -0.053498
v 0.093942 0.004957 -0.055329
v 0.044975 -0.042240 -0.058245
v 0.042058 -0.097055 -0.061296
v 0.097595 -0.044190 -0.059761
v 0.099961 -0.098969 -0.057368
v -0.047602 -0.035536 -0.036131
v 0.000102 0.004357 -0.051789
v 0.001244 0.042317 -0.060796
v 0.046578 0.044285 -0.061462
v -0.046404 0.003994 -0.049041
v 0.003327 0.078765 -0.065039
v -0.044559 0.041461 -0.059257
v -0.039876 0.080038 -0.060425
v -0.082820 0.083926 -0.048899
v -0.087387 0.046611 -0.040340
v -0.101572 -0.081409 -0.023617
v -0.097684 -0.032799 -0.033362
v -0.092535 0.009023 -0.036522
v -0.051033 -0.086819 -0.021132
v -0.005675 -0.092032 -0.034353
v 0.046184 0.079477 -0.049071
v 0.086295 0.080814 -0.037143
v 0.090899 0.046058 -0.038498
v 0.093942 0.004957 -0.040329
v 0.042058 -0.097055 -0.046296
v 0.097595 -0.044190 -0.044761
v 0.099960 -0.098969 -0.042368
v 0.003327 0.078765 -0.050039
v -0.039876 0.080038 -0.045425
v -0.082820 0.083926 -0.033899
v -0.087387 0.046611 -0.025340
v -0.101572 -0.081409 -0.008617
v -0.097684 -0.032799 -0.018361
v -0.092535 0.009023 -0.021522
vt 0.497920 0.293701
vt 0.313016 0.288196
vt 0.316910 0.068907
vt 0.508971 0.072822
vt 0.669966 0.305654
vt 0.084166 0.276488
vt 0.134375 0.084953
vt 0.837944 0.320743
vt 0.686966 0.098185
vt 0.838175 0.521340
vt 0.827784 0.711679
vt 0.679093 0.711381
vt 0.672824 0.509497
vt 0.499751 0.501924
vt 0.501746 0.711471
vt 0.301528 0.703558
vt 0.306511 0.493859
vt 0.067153 0.493815
vt 0.079848 0.704073
vt 0.692233 0.903797
vt 0.283401 0.919937
vt 0.108677 0.884625
vt 0.832918 0.156429
vt 0.823860 0.867619
vt 0.503456 0.928381
vt 0.874904 0.101891
vt 0.897039 0.728218
vt 0.869016 0.912391
vt 0.511223 0.999905
vt 0.713542 0.975399
vt 0.019715 0.245558
vt 0.095031 0.036719
vt 0.012065 0.707308
vt 0.911902 0.520632
vt 0.910944 0.303033
vt 0.274581 0.989136
vt 0.303336 0.000095
vt 0.508121 0.000096
vt 0.695368 0.025338
vt 0.068513 0.923824
vt 0.000095 0.474745
vn -0.1342 -0.2486 -0.9593
vn -0.1625 -0.1411 -0.9766
vn -0.7428 -0.0536 -0.6674
vn -0.8112 0.0300 -0.5840
vn -0.2143 -0.1187 -0.9695
vn -0.2594 -0.6904 -0.6754
vn -0.6813 -0.5574 -0.4745
vn -0.1282 0.6717 -0.7297
vn -0.8361 0.0425 -0.5470
vn -0.0102 0.6518 -0.7583
vn 0.0699 0.6579 -0.7499
vn 0.0572 -0.0568 -0.9967
vn -0.0178 -0.1725 -0.9849
vn -0.1362 -0.1505 -0.9792
vn -0.0565 -0.0049 -0.9984
vn -0.1080 -0.0202 -0.9939
vn -0.2373 -0.0120 -0.9714
vn -0.2560 -0.6779 -0.6891
vn -0.1034 -0.6595 -0.7446
vn 0.7742 0.0811 -0.6277
vn 0.6983 0.0274 -0.7152
vn 0.5929 -0.5820 -0.5565
vn -0.5758 0.5985 -0.5570
vn 0.5946 0.6521 -0.4704
vn 0.7547 0.1001 -0.6483
vn -0.7377 0.6751 0.0000
vn -0.0257 0.9997 0.0000
vn 0.7056 0.7086 0.0000
vn 0.9973 0.0740 0.0000
vn 0.9946 0.1034 0.0000
vn -0.1097 -0.9940 0.0000
vn -0.7799 -0.6259 0.0000
vn -0.0707 -0.9975 -0.0000
vn 0.0070 1.0000 0.0000
vn 0.0632 0.9980 0.0000
vn 0.9983 0.0589 0.0000
vn -0.9951 0.0992 0.0000
vn -0.9917 0.1286 -0.0000
vn -0.9916 0.1293 -0.0000
vn 0.7167 -0.6974 -0.0000
vn -0.1102 -0.9939 0.0000
usemtl None
s 1
f 17/1/1 13/2/2 24/3/3
f 17/1/1 25/4/4 19/5/5
f 1/6/6 23/7/7 13/2/2
f 20/8/8 19/5/5 22/9/9
f 20/8/8 18/10/10 19/5/5
f 4/11/11 16/12/12 15/13/13
f 17/1/1 19/5/5 15/13/13
f 17/1/1 14/14/14 13/2/2
f 6/15/15 9/16/16 2/17/17
f 6/15/15 14/14/14 16/12/12
f 2/17/17 3/18/18 13/2/2
f 2/17/17 9/16/16 10/19/19
f 7/20/20 16/12/12 4/11/11
f 6/15/15 16/12/12 7/20/20
f 11/21/21 9/16/16 6/15/15
f 11/21/21 12/22/22 9/16/16
f 25/4/4 17/1/1 24/3/3
f 25/4/4 22/9/9 19/5/5
f 23/7/7 24/3/3 13/2/2
f 21/23/23 20/8/8 22/9/9
f 18/10/10 15/13/13 19/5/5
f 18/10/10 4/11/11 15/13/13
f 14/14/14 17/1/1 15/13/13
f 14/14/14 2/17/17 13/2/2
f 14/14/14 6/15/15 2/17/17
f 14/14/14 15/13/13 16/12/12
f 3/18/18 1/6/6 13/2/2
f 3/18/18 2/17/17 10/19/19
f 5/24/24 7/20/20 4/11/11
f 8/25/25 6/15/15 7/20/20
f 8/25/25 11/21/21 6/15/15
f 12/22/22 10/19/19 9/16/16
f 22/9/9 37/26/26 21/23/23
f 5/24/24 28/27/27 29/28/28
f 7/20/20 31/29/29 8/25/25
f 5/24/24 30/30/30 7/20/20
f 23/7/7 26/31/31 39/32/32
f 12/22/22 32/33/33 10/19/19
f 20/8/8 35/34/34 18/10/10
f 21/23/23 36/35/35 20/8/8
f 4/11/11 35/34/34 28/27/27
f 8/25/25 33/36/36 11/21/21
f 23/7/7 40/37/37 24/3/3
f 24/3/3 41/38/38 25/4/4
f 25/4/4 38/39/39 22/9/9
f 12/22/22 33/36/36 34/40/40
f 3/18/18 32/33/33 27/41/41
f 1/6/6 27/41/41 26/31/31
f 22/9/9 38/39/39 37/26/26
f 5/24/24 4/11/11 28/27/27
f 7/20/20 30/30/30 31/29/29
f 5/24/24 29/28/28 30/30/30
f 23/7/7 1/6/6 26/31/31
f 12/22/22 34/40/40 32/33/33
f 20/8/8 36/35/35 35/34/34
f 21/23/23 37/26/26 36/35/35
f 4/11/11 18/10/10 35/34/34
f 8/25/25 31/29/29 33/36/36
f 23/7/7 39/32/32 40/37/37
f 24/3/3 40/37/37 41/38/38
f 25/4/4 41/38/38 38/39/39
f 12/22/22 11/21/21 33/36/36
f 3/18/18 10/19/19 32/33/33
f 1/6/6 3/18/18 27/41/41
