# Blender v2.79 (sub 0) OBJ File: 'enlarged-originalstations.blend'
# www.blender.org
mtllib hull_outpostRoboticArmHigh0posX3_6445796489715576posY-23_004030227661133.mtl
o Repair_platform_Repair_platform_Mesh_None.000
v 0.041956 0.049421 -1.437829
v 0.042706 0.062048 -1.447123
v -0.067437 0.057651 -1.418947
v 0.044039 -0.046116 -1.438922
v 0.046470 -0.058711 -1.446351
v -0.063744 -0.060824 -1.418190
v -0.040490 -0.048384 -1.394548
v -0.069053 0.057186 -1.490765
v -0.081092 0.060401 -1.455687
v 0.043098 0.061955 -1.463404
v 0.048101 -0.060979 -1.454567
v 0.046861 -0.058802 -1.462633
v -0.065356 -0.061376 -1.490007
v -0.077188 -0.064887 -1.454886
v 0.045296 -0.046280 -1.470765
v -0.045296 0.046282 -1.509476
v 0.044197 0.064308 -1.455367
v 0.042319 0.049257 -1.471375
v -0.042318 -0.049255 -1.508865
v -0.042573 0.047155 -1.393454
v 0.031327 -0.053070 -1.430580
v 0.048761 -0.032863 -1.439659
v 0.054197 -0.047541 -1.418123
v -0.030320 -0.048862 -1.373492
v -0.027580 -0.053991 -1.399473
v 0.053282 0.048035 -1.417027
v 0.030306 0.053409 -1.429360
v -0.031236 0.046713 -1.372397
v -0.036118 -0.064019 -1.354553
v 0.074716 -0.062285 -1.413082
v 0.078499 -0.047818 -1.373620
v 0.078100 0.067402 -1.354665
v 0.102637 0.040333 -1.367796
v 0.077583 0.047758 -1.372523
v 0.103405 -0.040024 -1.368717
v 0.079396 -0.067853 -1.356214
v -0.016968 0.038463 -1.304636
v 0.007041 0.066291 -1.317139
v -0.006934 0.046437 -1.327893
v 0.048120 0.033752 -1.438896
v 0.073516 0.063051 -1.411646
v -0.037318 0.061318 -1.353117
v 0.008336 -0.068964 -1.318690
v 0.155518 -0.068774 -1.212092
v 0.178757 0.039411 -1.223672
v 0.154223 0.066480 -1.210542
v -0.016198 -0.041894 -1.305557
v 0.059152 0.037542 -1.160514
v 0.193478 0.026708 -1.152805
v -0.006017 -0.049139 -1.328989
v 0.083163 0.065369 -1.173018
v 0.176287 0.045672 -1.143603
v -0.046035 0.032280 -1.389174
v -0.045397 -0.034335 -1.389937
v 0.126504 0.044894 -1.117315
v 0.179527 -0.040947 -1.224594
v 0.059922 -0.042815 -1.161435
v 0.084457 -0.069885 -1.174567
v -0.028601 0.052487 -1.398253
v 0.127413 -0.049865 -1.118400
v 0.177195 -0.049087 -1.144690
v 0.109684 0.025397 -1.108554
v 0.194016 -0.029591 -1.153450
v 0.191514 0.009474 -1.097279
v 0.110222 -0.030900 -1.109200
v 0.164348 -0.022011 -1.083131
v 0.163974 0.016952 -1.082684
v 0.157059 0.008935 -1.079083
v 0.191736 -0.013674 -1.097544
v 0.184446 0.017272 -1.093495
v 0.297772 0.006093 -0.888904
v 0.297955 -0.013032 -0.889122
v 0.184818 -0.021691 -1.093942
v 0.292241 -0.019654 -0.886146
v 0.275020 0.012270 -0.876847
v 0.275329 -0.019919 -0.877215
v 0.157281 -0.014213 -1.079349
v 0.269489 -0.013477 -0.874090
v 0.269308 0.005648 -0.873871
v 0.291934 0.012535 -0.885779
vt 0.868434 0.948483
vt 0.873039 0.968520
vt 0.724010 0.968520
vt 0.751062 0.998978
vt 0.734536 0.988786
vt 0.892792 0.988786
vt 0.193937 0.797771
vt 0.209077 0.753917
vt 0.349200 0.797771
vt 0.717330 0.955330
vt 0.712143 0.974041
vt 0.568302 0.955330
vt 0.639731 0.622995
vt 0.621196 0.577896
vt 0.784192 0.577896
vt 0.193937 0.995843
vt 0.197602 0.985405
vt 0.355511 0.995843
vt 0.735302 0.725498
vt 0.716965 0.770678
vt 0.568302 0.725498
vt 0.621196 0.670138
vt 0.639734 0.625039
vt 0.784193 0.670138
vt 0.899519 0.759493
vt 0.901536 0.770678
vt 0.737345 0.770678
vt 0.191893 0.965596
vt 0.188926 0.976568
vt 0.027702 0.965596
vt 0.728029 0.672182
vt 0.732493 0.723455
vt 0.568302 0.723454
vt 0.551042 0.227873
vt 0.549027 0.239059
vt 0.386852 0.227873
vt 0.221325 0.873152
vt 0.193937 0.841169
vt 0.342375 0.841169
vt 0.970862 0.937051
vt 0.988139 0.946440
vt 0.846011 0.946440
vt 0.675213 0.170329
vt 0.650080 0.136547
vt 0.795773 0.136547
vt 0.724010 0.879785
vt 0.751396 0.847803
vt 0.872446 0.879785
vt 0.055061 0.809426
vt 0.173510 0.849629
vt 0.027702 0.849629
vt 0.966899 0.327601
vt 0.842201 0.316647
vt 0.984297 0.316647
vt 0.402067 0.855640
vt 0.520788 0.815955
vt 0.548892 0.855640
vt 0.713355 0.816911
vt 0.594314 0.855325
vt 0.568302 0.816911
vt 0.568302 0.976084
vt 0.732492 0.976084
vt 0.730929 0.987037
vt 0.898724 0.986742
vt 0.734536 0.986742
vt 0.895756 0.976084
vt 0.402067 0.672182
vt 0.566258 0.672182
vt 0.406474 0.720744
vt 0.566258 0.985473
vt 0.402067 0.985473
vt 0.564696 0.974521
vt 0.048817 0.716257
vt 0.190261 0.763193
vt 0.027702 0.763193
vt 0.189299 0.978611
vt 0.031408 0.989356
vt 0.027702 0.978611
vt 0.213859 0.704420
vt 0.361692 0.751873
vt 0.193937 0.751873
vt 0.564628 0.722787
vt 0.423183 0.769722
vt 0.402067 0.722787
vt 0.001022 0.922698
vt 0.001022 0.771360
vt 0.020243 0.775510
vt 0.560320 0.998175
vt 0.402067 0.998175
vt 0.418592 0.987516
vt 0.193937 0.799814
vt 0.349314 0.799814
vt 0.334227 0.839125
vt 0.553402 0.972477
vt 0.402067 0.972477
vt 0.549253 0.953255
vt 0.911822 0.884728
vt 0.911822 0.847803
vt 0.941406 0.866266
vt 0.841946 0.755533
vt 0.868005 0.732359
vt 0.952137 0.755533
vt 0.925010 0.808087
vt 0.906041 0.837351
vt 0.799805 0.808087
vt 0.027702 0.662488
vt 0.191893 0.662488
vt 0.172402 0.714213
vt 0.301250 0.624224
vt 0.352103 0.624224
vt 0.326675 0.647958
vt 0.352102 0.622180
vt 0.301250 0.622180
vt 0.326677 0.598446
vt 0.321184 0.904115
vt 0.372035 0.904115
vt 0.346610 0.927849
vt 0.529314 0.923527
vt 0.529314 0.886602
vt 0.558900 0.905064
vt 0.193937 0.650652
vt 0.358127 0.650651
vt 0.213429 0.702376
vt 0.191894 0.660445
vt 0.027703 0.660444
vt 0.172403 0.608718
vt 0.191894 0.606675
vt 0.027703 0.606675
vt 0.172400 0.554948
vt 0.095436 0.239060
vt 0.001022 0.192507
vt 0.095436 0.001022
vt 0.288351 0.239060
vt 0.193937 0.192507
vt 0.288351 0.001022
vt 0.191894 0.454601
vt 0.086626 0.454601
vt 0.191893 0.241104
vt 0.492119 0.214518
vt 0.386852 0.214517
vt 0.492119 0.001022
vt 0.842201 0.352819
vt 0.868260 0.329644
vt 0.952392 0.352819
vt 0.844644 0.617433
vt 0.793795 0.617433
vt 0.837036 0.521478
vt 0.925009 0.806044
vt 0.799805 0.806044
vt 0.915041 0.772722
vt 0.027702 0.963553
vt 0.150827 0.940830
vt 0.175780 0.963553
vt 0.621196 0.575852
vt 0.744191 0.552434
vt 0.768494 0.575852
vt 0.744236 0.216562
vt 0.621039 0.238881
vt 0.597184 0.216562
vt 0.317062 0.958144
vt 0.193937 0.935421
vt 0.342016 0.935421
vt 0.352103 0.596403
vt 0.301250 0.596403
vt 0.326678 0.572668
vt 0.568302 0.857369
vt 0.693506 0.857369
vt 0.683538 0.890693
vt 0.406518 0.570624
vt 0.301250 0.570624
vt 0.390756 0.475664
vt 0.304128 0.960187
vt 0.278069 0.983361
vt 0.193937 0.960187
vt 0.840157 0.400541
vt 0.793795 0.421434
vt 0.793795 0.316185
vt 0.943199 0.698862
vt 0.923650 0.730188
vt 0.908327 0.698862
vt 0.849215 0.915152
vt 0.724010 0.915152
vt 0.839246 0.881829
vt 0.568302 0.670138
vt 0.568302 0.456643
vt 0.619152 0.670138
vt 0.595140 0.012803
vt 0.545674 0.220490
vt 0.545674 0.001022
vt 0.494163 0.208709
vt 0.543631 0.001022
vt 0.543631 0.220492
vt 0.566258 0.252886
vt 0.516791 0.460571
vt 0.516791 0.241104
vt 0.943147 0.921644
vt 0.911822 0.902095
vt 0.943147 0.886771
vt 0.402067 0.886602
vt 0.527270 0.886602
vt 0.412033 0.919925
vt 0.563152 0.567865
vt 0.516791 0.546974
vt 0.563152 0.462614
vt 0.844645 0.519434
vt 0.793795 0.519434
vt 0.837031 0.423477
vt 0.088045 0.456644
vt 0.191894 0.473880
vt 0.088045 0.552905
vt 0.193937 0.553650
vt 0.299206 0.553649
vt 0.283449 0.648608
vt 0.299205 0.551606
vt 0.193937 0.551606
vt 0.283445 0.456644
vt 0.724010 0.772722
vt 0.797762 0.772722
vt 0.776048 0.845759
vt 0.909778 0.919095
vt 0.874490 0.923999
vt 0.874490 0.847803
vt 0.525345 0.659610
vt 0.465281 0.616817
vt 0.525345 0.569930
vt 0.784193 0.740471
vt 0.750391 0.751729
vt 0.750391 0.672182
vt 0.360301 0.579867
vt 0.430993 0.600879
vt 0.360301 0.656063
vt 0.563152 0.638199
vt 0.529350 0.649455
vt 0.529350 0.569909
vt 0.867543 0.314142
vt 0.793795 0.314141
vt 0.845833 0.241104
vt 0.847104 0.390149
vt 0.842201 0.354862
vt 0.918398 0.354862
vt 0.861338 0.729885
vt 0.846688 0.729885
vt 0.860030 0.423477
vt 0.683768 0.547504
vt 0.653445 0.547504
vt 0.681136 0.241104
vt 0.015658 0.768677
vt 0.001022 0.769316
vt 0.001022 0.462615
vt 0.884235 0.314142
vt 0.869587 0.314081
vt 0.884232 0.007732
vt 0.651401 0.546023
vt 0.621198 0.548753
vt 0.621198 0.241104
vt 0.082738 0.548751
vt 0.052534 0.546021
vt 0.082738 0.241103
vt 0.878016 0.730178
vt 0.863382 0.729539
vt 0.878015 0.423477
vt 0.463238 0.656063
vt 0.433037 0.653334
vt 0.463238 0.348416
vt 0.529350 0.659724
vt 0.564032 0.659724
vt 0.553628 0.665903
vt 0.319141 0.933377
vt 0.193937 0.933377
vt 0.300173 0.904115
vt 0.985274 0.948483
vt 0.901142 0.971657
vt 0.875082 0.948483
vt 0.437836 0.813911
vt 0.402067 0.771765
vt 0.555733 0.771765
vt 0.181367 0.765236
vt 0.145600 0.807383
vt 0.027702 0.765236
vt 0.650080 0.214519
vt 0.685849 0.172372
vt 0.803747 0.214519
vt 0.568302 0.814867
vt 0.604069 0.772722
vt 0.721967 0.814867
vt 0.299207 0.241104
vt 0.299204 0.454601
vt 0.193937 0.241104
vt 0.514747 0.346372
vt 0.301250 0.346372
vt 0.514747 0.241104
vt 0.191894 0.239060
vt 0.097480 0.047576
vt 0.191894 0.001022
vt 0.384808 0.239059
vt 0.290394 0.047576
vt 0.384808 0.001022
vt 0.693506 0.922000
vt 0.568302 0.922001
vt 0.674536 0.892737
vt 0.849691 0.106270
vt 0.817208 0.015657
vt 0.849691 0.001022
vt 0.568302 0.953286
vt 0.587133 0.924044
vt 0.688258 0.953286
vt 0.402067 0.884559
vt 0.420639 0.857683
vt 0.566257 0.884559
vt 0.027702 0.879223
vt 0.047194 0.851672
vt 0.191892 0.879222
vt 0.191894 0.881267
vt 0.172400 0.907481
vt 0.027702 0.881267
vt 0.212508 0.902072
vt 0.193937 0.875196
vt 0.358128 0.875196
vt 0.861035 0.421434
vt 0.842201 0.392193
vt 0.962159 0.392193
vt 0.839902 0.755533
vt 0.786236 0.675624
vt 0.839902 0.625039
vt 0.027702 0.909525
vt 0.152905 0.909525
vt 0.046671 0.938787
vt 0.400023 0.777431
vt 0.367540 0.686817
vt 0.400023 0.672182
vt 0.724010 0.946440
vt 0.742844 0.917196
vt 0.843967 0.946440
vt 0.568302 0.241104
vt 0.619154 0.241104
vt 0.619155 0.454599
vt 0.050491 0.460571
vt 0.001022 0.448791
vt 0.050491 0.241103
vt 0.465281 0.348416
vt 0.514747 0.360200
vt 0.465281 0.567886
vt 0.648036 0.214517
vt 0.597184 0.214519
vt 0.597187 0.001022
vt 0.522025 0.921969
vt 0.503191 0.951212
vt 0.402067 0.921969
vt 0.849690 0.122953
vt 0.817208 0.213565
vt 0.817208 0.108314
vt 0.400021 0.884722
vt 0.367540 0.794110
vt 0.400021 0.779474
vt 0.759456 0.131519
vt 0.705790 0.051608
vt 0.759456 0.001022
vt 0.703747 0.051610
vt 0.650080 0.131518
vt 0.650080 0.001022
vt 0.815165 0.131518
vt 0.761499 0.051607
vt 0.815165 0.001022
vt 0.933023 0.624521
vt 0.908327 0.696605
vt 0.908327 0.606926
vt 0.865632 0.005650
vt 0.851735 0.080570
vt 0.851735 0.001022
vt 0.042401 0.480212
vt 0.017702 0.552295
vt 0.017702 0.462615
vt 0.365496 0.859021
vt 0.351597 0.784103
vt 0.365496 0.779474
vt 0.933025 0.513159
vt 0.908327 0.441075
vt 0.933025 0.423477
vt 0.865631 0.213565
vt 0.851733 0.138647
vt 0.865631 0.134019
vt 0.933024 0.604882
vt 0.908327 0.532797
vt 0.933024 0.515202
vt 0.426455 0.480294
vt 0.412555 0.555213
vt 0.412555 0.475664
vt 0.906283 0.730188
vt 0.894194 0.424005
vt 0.906283 0.423477
vt 0.737762 0.548753
vt 0.712810 0.243359
vt 0.737762 0.241104
vt 0.898369 0.314436
vt 0.886279 0.008260
vt 0.898369 0.007732
vt 0.912502 0.314429
vt 0.900413 0.008259
vt 0.912502 0.007732
vt 0.764757 0.548755
vt 0.739805 0.243359
vt 0.764757 0.241104
vt 0.710766 0.243359
vt 0.685811 0.548751
vt 0.685811 0.241104
vt 0.892150 0.424006
vt 0.880060 0.730174
vt 0.880059 0.423477
vt 0.791751 0.243357
vt 0.766800 0.548751
vt 0.766800 0.241104
vt 0.746280 0.221165
vt 0.793815 0.221165
vt 0.776096 0.238881
vt 0.553629 0.651498
vt 0.564032 0.657680
vt 0.529350 0.657680
vt 0.825676 0.221165
vt 0.843392 0.238880
vt 0.795859 0.238880
vt 0.949644 0.758951
vt 0.952630 0.770678
vt 0.903579 0.770678
vt 0.393110 0.935421
vt 0.347045 0.947150
vt 0.344060 0.935421
vt 0.846011 0.926158
vt 0.951063 0.935007
vt 0.863802 0.934221
vt 0.462746 0.224665
vt 0.425820 0.224665
vt 0.444755 0.217058
vt 0.400167 0.670042
vt 0.506031 0.662389
vt 0.525345 0.670041
vt 0.360301 0.658106
vt 0.397226 0.658106
vt 0.378877 0.667409
vt 0.027702 0.998560
vt 0.134249 0.992272
vt 0.152788 0.998560
vt 0.553086 0.227873
vt 0.590010 0.227873
vt 0.570123 0.237512
vt 0.672769 0.996792
vt 0.568302 0.989080
vt 0.693479 0.989080
vt 0.386852 0.224665
vt 0.407197 0.216561
vt 0.423777 0.224665
vt 0.426454 0.473620
vt 0.301250 0.348416
vt 0.426455 0.348416
vt 0.971096 0.926158
vt 0.418768 0.661653
vt 0.046989 0.991400
vt 0.585511 0.995745
vt 0.301250 0.473620
vn 0.7966 0.3730 0.4757
vn 0.6091 0.6494 0.4553
vn -0.5842 0.6476 0.4891
vn 0.7712 -0.2602 0.5809
vn 0.6411 -0.5852 0.4966
vn -0.5373 -0.6757 0.5047
vn -0.3639 -0.6300 0.6861
vn -0.5716 0.6251 -0.5315
vn -0.7686 0.6397 0.0041
vn 0.6158 0.6324 -0.4700
vn 0.7092 -0.7049 0.0149
vn 0.6542 -0.5987 -0.4621
vn -0.5313 -0.6663 -0.5232
vn -0.7273 -0.6862 0.0126
vn 0.6639 0.7478 0.0056
vn -0.0781 0.4402 -0.8945
vn 0.7077 0.2376 -0.6653
vn 0.7214 -0.2016 -0.6625
vn -0.0501 -0.4556 -0.8888
vn -0.4120 0.6278 0.6604
vn 0.2603 -0.9643 -0.0498
vn 0.8963 -0.2271 -0.3810
vn 0.2593 -0.5812 -0.7714
vn -0.7780 -0.5932 -0.2070
vn -0.1642 -0.9709 0.1743
vn 0.2480 0.6035 -0.7578
vn 0.2417 0.9699 -0.0277
vn -0.7893 0.5828 -0.1935
vn -0.6893 -0.7062 0.1615
vn 0.5370 -0.6830 -0.4952
vn 0.4945 -0.6735 -0.5494
vn 0.1029 0.8801 -0.4634
vn 0.5982 0.3336 -0.7286
vn 0.4814 0.6953 -0.5338
vn 0.6044 -0.3053 -0.7359
vn 0.1197 -0.8672 -0.4835
vn -0.9469 0.3095 0.0874
vn -0.4622 0.8713 -0.1650
vn -0.7290 0.6763 0.1054
vn 0.8916 0.2529 -0.3756
vn 0.5237 0.7043 -0.4793
vn -0.7027 0.6890 0.1775
vn -0.4454 -0.8760 -0.1851
vn 0.4192 -0.9064 -0.0517
vn 0.8742 0.3940 -0.2837
vn 0.4018 0.9152 -0.0309
vn -0.9408 -0.3295 0.0800
vn -0.7366 0.3688 0.5669
vn 0.9350 0.3546 -0.0081
vn -0.7159 -0.6924 0.0897
vn -0.2743 0.9046 0.3262
vn 0.4971 0.8377 0.2263
vn -0.8188 0.2262 0.5277
vn -0.8142 -0.2539 0.5222
vn -0.1138 0.8281 0.5489
vn 0.8815 -0.3706 -0.2925
vn -0.7293 -0.3957 0.5582
vn -0.2569 -0.9170 0.3053
vn -0.1828 0.9633 0.1965
vn -0.0978 -0.8425 0.5297
vn 0.5131 -0.8330 0.2071
vn -0.5423 0.3315 0.7720
vn 0.9416 -0.3363 -0.0160
vn 0.9233 0.3629 -0.1258
vn -0.5357 -0.3594 0.7641
vn -0.1549 -0.8867 0.4356
vn -0.1718 0.8733 0.4558
vn -0.6331 0.3385 0.6961
vn 0.9300 -0.3422 -0.1339
vn 0.4518 0.8831 0.1265
vn 0.9247 0.3009 0.2334
vn 0.9303 -0.2884 0.2267
vn 0.4686 -0.8770 0.1064
vn 0.5647 -0.7122 0.4171
vn 0.0298 0.7050 0.7086
vn 0.0435 -0.7203 0.6923
vn -0.6264 -0.3665 0.6880
vn -0.3302 -0.3081 0.8922
vn -0.3357 0.2812 0.8990
vn 0.5510 0.7131 0.4334
vn 0.0837 -0.3714 0.9247
vn -0.4164 -0.2790 -0.8653
vn -0.4632 -0.3521 -0.8133
vn -0.7322 -0.0325 -0.6803
vn -0.8247 0.0313 -0.5646
vn 0.0565 0.3685 0.9279
vn -0.4466 0.5062 -0.7378
vn -0.3647 0.5417 -0.7573
vn 0.6971 0.3395 0.6315
vn -0.0583 0.0453 -0.9973
vn 0.6975 -0.2955 0.6528
vn -0.0948 -0.0216 -0.9953
usemtl None.70084
s 1
f 1/1/1 2/2/2 3/3/3
f 4/4/4 5/5/5 2/6/2
f 6/7/6 7/8/7 3/9/3
f 5/10/5 4/11/4 6/12/6
f 8/13/8 9/14/9 10/15/10
f 11/16/11 12/17/12 10/18/10
f 9/19/9 8/20/8 13/21/13
f 14/22/14 13/23/13 12/24/12
f 2/25/2 17/26/15 9/27/9
f 17/28/15 2/29/2 11/30/11
f 3/31/3 9/32/9 14/33/14
f 11/34/11 5/35/5 14/36/14
f 16/37/16 8/38/8 18/39/17
f 18/40/17 10/41/10 15/42/18
f 19/43/19 13/44/13 16/45/16
f 13/46/13 19/47/19 15/48/18
f 20/49/20 1/50/1 3/51/3
f 1/52/1 4/53/4 2/54/2
f 7/55/7 20/56/20 3/57/3
f 4/58/4 7/59/7 6/60/6
f 9/61/9 17/62/15 10/63/10
f 17/64/15 11/65/11 10/66/10
f 14/67/14 9/68/9 13/69/13
f 11/70/11 14/71/14 12/72/12
f 3/73/3 2/74/2 9/75/9
f 2/76/2 5/77/5 11/78/11
f 6/79/6 3/80/3 14/81/14
f 5/82/5 6/83/6 14/84/14
f 8/85/8 10/86/10 18/87/17
f 10/88/10 12/89/12 15/90/18
f 13/91/13 8/92/8 16/93/16
f 12/94/12 13/95/13 15/96/18
usemtl None.70083
s 2
f 21/97/21 22/98/22 23/99/23
f 24/100/24 25/101/25 21/102/21
f 26/103/26 27/104/27 28/105/28
f 29/106/29 30/107/30 31/108/31
f 32/109/32 33/110/33 34/111/34
f 35/112/35 36/113/36 31/114/31
f 37/115/37 38/116/38 39/117/39
f 40/118/40 27/119/27 26/120/26
f 30/121/30 41/122/41 31/123/31
f 42/124/42 29/125/29 39/126/39
f 41/127/41 42/128/42 34/129/34
f 43/130/43 36/131/36 44/132/44
f 35/133/35 33/134/33 45/135/45
f 32/136/32 38/137/38 46/138/46
f 37/139/37 47/140/47 48/141/48
f 23/142/23 22/143/22 40/144/40
f 45/145/45 46/146/46 49/147/49
f 34/148/34 39/149/39 32/150/32
f 24/151/24 23/152/23 30/153/30
f 23/154/23 26/155/26 41/156/41
f 28/157/28 24/158/24 29/159/29
f 26/160/26 28/161/28 41/162/41
f 43/163/43 47/164/47 50/165/50
f 31/166/31 34/167/34 33/168/33
f 46/169/46 51/170/51 52/171/52
f 28/172/28 53/173/53 54/174/54
f 51/175/51 48/176/48 55/177/55
f 54/178/54 25/179/25 24/180/24
f 39/181/39 50/182/50 37/183/37
f 37/184/37 48/185/48 38/186/38
f 45/187/45 33/188/33 46/189/46
f 35/190/35 56/191/56 36/192/36
f 57/193/57 47/194/47 58/195/58
f 59/196/59 53/197/53 28/198/28
f 50/199/50 31/200/31 43/201/43
f 57/202/57 58/203/58 60/204/60
f 44/205/44 56/206/56 61/207/61
f 58/208/58 44/209/44 60/210/60
f 56/211/56 45/212/45 49/213/49
f 48/214/48 57/215/57 62/216/62
f 63/217/63 49/218/49 64/219/64
f 65/220/65 60/221/60 66/222/66
f 52/223/52 55/224/55 67/225/67
f 49/226/49 52/227/52 64/228/64
f 60/229/60 61/230/61 66/231/66
f 55/232/55 62/233/62 67/234/67
f 62/235/62 65/236/65 68/237/68
f 61/238/61 63/239/63 69/240/69
f 64/241/64 70/242/70 71/243/71
f 69/244/69 64/245/64 72/246/72
f 73/247/73 69/248/69 74/249/74
f 67/250/67 68/251/68 75/252/75
f 66/253/66 73/254/73 76/255/76
f 70/256/70 67/257/67 75/258/75
f 77/259/77 66/260/66 76/261/76
f 68/262/68 77/263/77 78/264/78
f 78/265/78 75/266/75 79/267/79
f 23/268/23 24/269/24 21/270/21
f 27/271/27 59/272/59 28/273/28
f 50/274/50 29/275/29 31/276/31
f 41/277/41 34/278/34 31/279/31
f 29/280/29 50/281/50 39/282/39
f 42/283/42 39/284/39 34/285/34
f 58/286/58 43/287/43 44/288/44
f 56/289/56 35/290/35 45/291/45
f 38/292/38 51/293/51 46/294/46
f 47/295/47 57/296/57 48/297/48
f 26/298/26 23/299/23 40/300/40
f 46/301/46 52/302/52 49/303/49
f 39/304/39 38/305/38 32/306/32
f 29/307/29 24/308/24 30/309/30
f 30/310/30 23/311/23 41/312/41
f 42/313/42 28/314/28 29/315/29
f 28/316/28 42/317/42 41/318/41
f 35/319/35 31/320/31 33/321/33
f 51/322/51 55/323/55 52/324/52
f 24/325/24 28/326/28 54/327/54
f 48/328/48 62/329/62 55/330/55
f 50/331/50 47/332/47 37/333/37
f 48/334/48 51/335/51 38/336/38
f 33/337/33 32/338/32 46/339/46
f 56/340/56 44/341/44 36/342/36
f 47/343/47 43/344/43 58/345/58
f 31/346/31 36/347/36 43/348/43
f 65/349/65 57/350/57 60/351/60
f 56/352/56 63/353/63 61/354/61
f 44/355/44 61/356/61 60/357/60
f 63/358/63 56/359/56 49/360/49
f 57/361/57 65/362/65 62/363/62
f 69/364/69 63/365/63 64/366/64
f 77/367/77 65/368/65 66/369/66
f 70/370/70 52/371/52 67/372/67
f 52/373/52 70/374/70 64/375/64
f 61/376/61 73/377/73 66/378/66
f 62/379/62 68/380/68 67/381/67
f 65/382/65 77/383/77 68/384/68
f 73/385/73 61/386/61 69/387/69
f 70/388/70 80/389/80 71/390/71
f 64/391/64 71/392/71 72/393/72
f 69/394/69 72/395/72 74/396/74
f 68/397/68 79/398/79 75/399/75
f 73/400/73 74/401/74 76/402/76
f 80/403/80 70/404/70 75/405/75
f 78/406/78 77/407/77 76/408/76
f 79/409/79 68/410/68 78/411/78
f 78/412/78 80/413/80 75/414/75
f 74/415/74 72/416/72 76/417/76
f 72/418/72 71/419/71 76/420/76
f 71/421/71 80/422/80 76/423/76
f 80/424/80 78/425/78 76/426/76
usemtl None.70084
s 3
f 7/427/81 21/428/82 25/429/83
usemtl None.70083
f 25/430/83 54/431/84 7/432/81
usemtl None.70084
f 7/433/81 53/434/85 20/435/86
usemtl None.70083
f 53/436/85 59/437/87 20/438/86
usemtl None.70084
f 20/439/86 27/440/88 1/441/89
usemtl None.70083
f 27/442/88 40/443/90 1/444/89
usemtl None.70084
f 40/445/90 4/446/91 1/447/89
usemtl None.70083
f 21/448/82 4/449/91 22/450/92
usemtl None.70084
s 1
f 15/451/18 16/452/16 18/453/17
s 3
f 7/427/81 4/454/91 21/428/82
f 7/433/81 54/455/84 53/434/85
f 20/439/86 59/456/87 27/440/88
f 40/445/90 22/457/92 4/446/91
s 1
f 15/451/18 19/458/19 16/452/16
