# Blender v2.79 (sub 0) OBJ File: 'destroyedShips.blend'
# www.blender.org
o Cube_Cube_Material.008_cell.014
v -0.267595 0.047046 0.080882
v -0.267628 0.086442 -0.051576
v -0.267557 -0.030157 -0.090919
v -0.267605 0.065688 0.032935
v -0.306916 0.065634 0.032935
v -0.306896 0.051010 0.051008
v -0.267585 0.051065 0.051008
v -0.267605 0.065688 -0.042971
v -0.267595 0.047046 -0.090919
v -0.267566 -0.023489 -0.061045
v -0.267547 -0.038295 -0.043542
v -0.267547 -0.038295 0.033505
v -0.267523 -0.053116 0.058203
v -0.267557 -0.030157 0.080882
v -0.267523 -0.053116 -0.068240
v -0.267585 0.051065 -0.061045
v -0.267628 0.086442 0.041539
v -0.267567 -0.023489 0.051008
v -0.306869 -0.026482 -0.039196
v -0.264674 -0.026434 -0.039196
v -0.306883 -0.018039 -0.049177
v -0.306878 -0.023544 0.051008
v -0.306858 -0.038350 0.033505
v -0.306916 0.065634 -0.042971
v -0.306858 -0.038350 -0.043542
v -0.306878 -0.023543 -0.061045
v -0.306896 0.051010 -0.061045
v -0.306891 0.045347 0.039140
v -0.306905 0.053766 0.028735
v -0.306905 0.053766 -0.038772
v -0.306869 -0.026482 0.029159
v -0.306891 0.045347 -0.049177
v -0.306883 -0.018039 0.039140
v -0.264687 -0.017990 -0.049177
v -0.264695 0.045395 -0.049177
v -0.264674 -0.026434 0.029159
v -0.264695 0.045395 0.039141
v -0.264709 0.053815 0.028735
v -0.264688 -0.017990 0.039141
v -0.264709 0.053815 -0.038772
v -0.047159 0.077040 -0.036389
v -0.073993 0.078185 0.035476
v -0.091606 0.040702 0.075544
v -0.082703 0.060275 0.055406
v -0.035214 0.038670 -0.075412
v -0.039767 0.054199 -0.060369
v -0.037397 0.001928 -0.076407
v -0.039589 -0.030327 -0.076546
v -0.093669 0.012957 0.075898
v -0.096710 -0.030285 0.075986
v -0.044910 -0.042572 -0.064611
v -0.049322 -0.052849 -0.054739
v -0.089751 -0.052898 0.053203
v -0.093713 -0.039851 0.066207
v -0.073993 0.078185 0.035476
v -0.047159 0.077040 -0.036389
v -0.091606 0.040702 0.075544
v -0.082703 0.060275 0.055406
v -0.035214 0.038670 -0.075412
v -0.039767 0.054199 -0.060369
v -0.037397 0.001928 -0.076407
v -0.039589 -0.030327 -0.076546
v -0.093669 0.012957 0.075898
v -0.096710 -0.030285 0.075986
v -0.044910 -0.042572 -0.064611
v -0.049322 -0.052849 -0.054739
v -0.089751 -0.052898 0.053203
v -0.093713 -0.039851 0.066207
v 0.201801 -0.008025 -0.042618
v 0.166201 -0.006538 -0.042618
v 0.201801 -0.008025 0.052182
v 0.166201 -0.015074 -0.042618
v 0.201801 -0.013587 -0.042618
v 0.166201 -0.015074 0.052182
v 0.201801 -0.013587 0.052182
v 0.166201 -0.006538 0.052182
v 0.193601 0.007123 -0.042618
v 0.158002 0.008611 -0.042618
v 0.193601 0.007123 0.050047
v 0.158002 0.000074 -0.042618
v 0.193601 0.001561 -0.042618
v 0.158002 0.000074 0.050047
v 0.193601 0.001561 0.050047
v 0.158002 0.008611 0.050047
v 0.186426 0.021730 -0.029138
v 0.150827 0.023217 -0.029138
v 0.186426 0.021730 0.037235
v 0.150827 0.014680 -0.029138
v 0.186426 0.016167 -0.029138
v 0.150827 0.014680 0.037235
v 0.186426 0.016167 0.037235
v 0.150827 0.023217 0.037235
v 0.205132 -0.023143 -0.042618
v 0.169533 -0.021656 -0.042618
v 0.205132 -0.023143 0.052182
v 0.169533 -0.030193 -0.042618
v 0.205132 -0.028706 -0.042618
v 0.169533 -0.030193 0.052182
v 0.205132 -0.028706 0.052182
v 0.127814 -0.030452 0.069552
v 0.105939 0.033582 0.069552
v 0.206702 -0.030512 -0.060951
v 0.182348 0.018770 -0.060951
v 0.217368 -0.027894 -0.052295
v 0.164075 0.054773 0.027918
v 0.181125 0.042720 0.024419
v 0.164075 0.054773 -0.021608
v 0.216810 -0.052522 0.044581
v 0.216810 -0.052522 -0.038272
v 0.226266 -0.045734 0.039886
v 0.214636 -0.022411 0.051122
v 0.169644 -0.002707 0.051122
v 0.182348 0.018770 0.067261
v 0.200038 0.005633 0.060935
v 0.094237 0.071011 -0.026649
v 0.105939 0.033582 -0.065992
v 0.127814 -0.030452 -0.065992
v 0.135339 -0.052622 -0.043313
v 0.206701 -0.030512 0.067261
v 0.217368 -0.027894 0.060935
v 0.144423 -0.030465 -0.064945
v 0.121632 0.033016 -0.064945
v 0.109439 0.070363 0.029733
v 0.109439 0.070363 -0.025602
v 0.152264 -0.052601 0.046397
v 0.152264 -0.052601 -0.042265
v 0.121632 0.033016 0.069076
v 0.181125 0.042719 -0.015779
v 0.200038 0.005632 -0.052295
v 0.226266 -0.045735 -0.031245
v 0.144423 -0.030465 0.069076
v 0.187103 0.030826 0.018141
v 0.204384 -0.002904 0.051122
v 0.202539 0.000755 -0.041500
v 0.221876 -0.036812 -0.025839
v 0.187103 0.030826 -0.011821
v 0.221876 -0.036812 0.034480
v 0.214636 -0.022411 -0.041500
v 0.169533 -0.036710 0.034480
v 0.169644 0.000953 -0.041500
v 0.169832 0.030928 0.018141
v 0.169533 -0.036710 -0.025839
v 0.169832 0.030928 -0.011821
v 0.120532 0.030636 -0.058852
v 0.109476 0.064673 -0.023240
v 0.094237 0.071011 0.030209
v 0.097775 0.065264 0.027278
v 0.097775 0.065264 -0.024188
v 0.141295 -0.027220 0.062459
v 0.148490 -0.047396 0.041930
v 0.120532 0.030636 0.062459
v 0.108625 0.031151 -0.059800
v 0.128316 -0.027209 -0.059800
v 0.109476 0.064673 0.026847
v 0.135798 -0.047415 -0.039272
v 0.148490 -0.047396 -0.038324
v 0.135339 -0.052622 0.046873
v 0.141295 -0.027221 -0.058852
v 0.135798 -0.047415 0.042361
v 0.108625 0.031151 0.062890
v 0.128316 -0.027209 0.062890
v 0.169533 -0.021656 0.052182
v -0.045744 0.076980 -0.036292
v -0.072556 0.078123 0.035431
v -0.090177 0.040651 0.075500
v -0.081335 0.060081 0.055508
v -0.033771 0.038618 -0.075316
v -0.038288 0.053990 -0.060427
v -0.035959 0.001646 -0.076317
v -0.038123 -0.030328 -0.076454
v -0.092250 0.012679 0.075857
v -0.095261 -0.030286 0.075944
v -0.043481 -0.042651 -0.064443
v -0.047860 -0.052847 -0.054649
v -0.088286 -0.052896 0.053162
v -0.092232 -0.039933 0.066082
v -0.143387 -0.051820 -0.046613
v -0.167548 -0.081857 -0.022453
v -0.167548 -0.081857 0.006776
v -0.167548 -0.051820 -0.022453
v -0.143387 -0.081857 -0.046613
v -0.143387 -0.051820 0.030937
v -0.167548 -0.051820 0.006776
v -0.143387 -0.081857 0.030937
v -0.054384 -0.081857 -0.046613
v -0.052294 -0.051820 -0.046613
v -0.081337 -0.051820 0.030937
v -0.083426 -0.081857 0.030937
vt 0.080623 0.174321
vt 0.108981 0.185111
vt 0.107557 0.180019
vt 0.230457 0.227997
vt 0.264775 0.193294
vt 0.250796 0.253783
vt 0.158536 0.185098
vt 0.065166 0.166880
vt 0.115501 0.173821
vt 0.000200 0.169028
vt 0.077431 0.170972
vt 0.143458 0.175027
vt 0.154504 0.208303
vt 0.150177 0.206119
vt 0.165641 0.203507
vt 0.182109 0.212492
vt 0.167978 0.201622
vt 0.195089 0.216674
vt 0.166209 0.219494
vt 0.155572 0.205422
vt 0.200013 0.215132
vt 0.172182 0.193332
vt 0.185509 0.196330
vt 0.112081 0.160207
vt 0.204926 0.182670
vt 0.169148 0.197032
vt 0.145772 0.199487
vt 0.148400 0.190495
vt 0.155865 0.193714
vt 0.222875 0.189679
vt 0.148378 0.205748
vt 0.142468 0.198570
vt 0.134106 0.199937
vt 0.835090 0.340362
vt 0.697546 0.395136
vt 0.243113 0.229479
vt 0.274679 0.372890
vt 0.164505 0.230965
vt 0.154743 0.148270
vt 0.263279 0.091514
vt 0.350674 0.035684
vt 0.232751 0.303546
vt 0.233502 0.182912
vt 0.461216 0.000200
vt 0.665678 0.078551
vt 0.216431 0.231059
vt 0.215557 0.159153
vt 0.135866 0.203510
vt 0.999800 0.238943
vt 0.832358 0.152797
vt 0.173332 0.794447
vt 0.201872 0.863310
vt 0.027203 0.931224
vt 0.448217 0.375712
vt 0.568945 0.395136
vt 0.211578 0.227516
vt 0.384570 0.841688
vt 0.502148 0.834789
vt 0.502148 0.841688
vt 0.384570 0.885880
vt 0.502148 0.885880
vt 0.384570 0.834789
vt 0.502148 0.790597
vt 0.620526 0.841686
vt 0.735456 0.834788
vt 0.735456 0.841686
vt 0.620526 0.885878
vt 0.735456 0.885878
vt 0.620526 0.834788
vt 0.735456 0.790597
vt 0.735856 0.885879
vt 0.818177 0.841688
vt 0.818177 0.885879
vt 0.735856 0.841688
vt 0.818177 0.834788
vt 0.735856 0.834788
vt 0.818177 0.790597
vt 0.745006 0.693746
vt 0.738013 0.701158
vt 0.728616 0.687694
vt 0.537159 0.395537
vt 0.660770 0.667151
vt 0.281332 0.424173
vt 0.643859 0.680694
vt 0.679497 0.699848
vt 0.669033 0.694311
vt 0.528948 0.790197
vt 0.607036 0.680433
vt 0.645378 0.690442
vt 0.787596 0.706032
vt 0.754600 0.705548
vt 0.762479 0.703102
vt 0.778521 0.682417
vt 0.814126 0.699200
vt 0.846855 0.727067
vt 0.916954 0.748618
vt 0.764914 0.700875
vt 0.707036 0.687486
vt 0.502548 0.834788
vt 0.620126 0.790597
vt 0.620126 0.834788
vt 0.764113 0.693531
vt 0.756087 0.698474
vt 0.682204 0.662094
vt 0.724425 0.639493
vt 0.737492 0.655701
vt 0.707192 0.683333
vt 0.802177 0.710830
vt 0.826538 0.718720
vt 0.798131 0.708074
vt 0.723943 0.670273
vt 0.596072 0.663197
vt 0.084666 0.553738
vt 0.650568 0.629095
vt 0.760780 0.701420
vt 0.829074 0.716647
vt 0.756675 0.672225
vt 0.792047 0.716416
vt 0.717457 0.678325
vt 0.741507 0.682282
vt 0.605088 0.757022
vt 0.717104 0.655664
vt 0.594352 0.474893
vt 0.636672 0.555944
vt 0.748016 0.689217
vt 0.777516 0.693874
vt 0.761802 0.689059
vt 0.765948 0.683585
vt 0.716134 0.696015
vt 0.659359 0.681959
vt 0.661065 0.666838
vt 0.784025 0.712236
vt 0.719591 0.698168
vt 0.699718 0.662947
vt 0.862279 0.718915
vt 0.780720 0.694900
vt 0.789476 0.687817
vt 0.756067 0.685830
vt 0.768645 0.687962
vt 0.624855 0.681448
vt 0.770537 0.694096
vt 0.683891 0.657434
vt 0.705251 0.666485
vt 0.642505 0.665361
vt 0.689003 0.674871
vt 0.696504 0.682512
vt 0.731907 0.663106
vt 0.502548 0.841688
vt 0.620126 0.841688
vt 0.750552 0.672058
vt 0.618189 0.663529
vt 0.663699 0.643763
vt 0.656937 0.693628
vt 0.502548 0.885879
vt 0.620126 0.885879
vt 0.646835 0.695922
vt 0.284347 0.714619
vt 0.144434 0.404812
vt 0.000200 0.395536
vt 0.172476 0.647109
vt 0.660036 0.630952
vt 0.332429 0.792298
vt 0.339859 0.863282
vt 0.313086 0.840624
vt 0.202543 0.851353
vt 0.275927 0.927320
vt 0.245215 0.971641
vt 0.344083 0.939370
vt 0.384170 0.841972
vt 0.371546 0.971641
vt 0.264257 0.790597
vt 0.284487 0.843342
vt 0.265138 0.871179
vt 0.186386 0.209159
vt 0.200455 0.908955
vt 0.180499 0.927734
vt 0.148689 0.955290
vt 0.053541 0.954191
vt 0.000594 0.906184
vt 0.000200 0.871677
vt 0.000200 0.817912
vt 0.013172 0.806362
vt 0.030424 0.790597
vt 0.202143 0.823212
vt 0.186375 0.807570
vt 0.384570 0.790597
vt 0.620526 0.790597
vt 0.735856 0.790597
vt 0.389060 0.753166
vt 0.502548 0.790597
vn 0.0009 -0.7774 -0.6290
vn -1.0000 -0.0005 -0.0002
vn 0.0012 -1.0000 0.0000
vn -0.0011 0.7774 0.6290
vn -1.0000 -0.0005 0.0002
vn -0.0009 0.7634 0.6459
vn 0.0014 -1.0000 0.0000
vn -1.0000 -0.0002 0.0003
vn -1.0000 -0.0021 -0.0006
vn -0.0014 1.0000 0.0000
vn 0.0000 0.0000 1.0000
vn 0.0011 -0.7635 0.6458
vn 0.0009 -0.7774 0.6291
vn -0.0011 0.7774 -0.6290
vn -0.0011 1.0000 0.0000
vn -0.0009 0.7635 -0.6458
vn 0.0629 0.0000 -0.9980
vn 0.0469 0.7059 0.7068
vn 0.0209 -0.7026 0.7113
vn -1.0000 -0.0001 0.0013
vn 0.0426 0.9991 0.0000
vn -1.0000 -0.0016 -0.0000
vn 0.0286 0.0000 0.9996
vn -1.0000 -0.0011 0.0000
vn -1.0000 -0.0021 0.0006
vn -0.0000 0.0000 -1.0000
vn -1.0000 -0.0003 0.0000
vn -1.0000 -0.0001 0.0004
vn 0.0674 0.0230 -0.9975
vn -1.0000 -0.0001 -0.0012
vn 0.0011 -0.7635 -0.6459
vn 0.0778 0.7338 -0.6749
vn 0.9345 -0.0650 0.3500
vn 0.0525 0.7313 0.6801
vn 0.0448 -0.7020 -0.7107
vn 0.0196 -0.7117 0.7022
vn 0.0307 0.0105 0.9995
vn 0.0725 0.7048 -0.7057
vn 0.0440 -0.7071 -0.7058
vn 1.0000 0.0000 0.0000
vn 0.0417 0.9991 0.0000
vn 0.0417 -0.9991 0.0000
vn 0.0418 0.9991 0.0000
vn 0.8935 0.4491 -0.0000
vn -1.0000 -0.0065 0.0000
vn -0.0042 -0.7036 0.7106
vn 0.0445 -0.7069 -0.7059
vn 0.5831 -0.8124 -0.0000
vn -0.9727 -0.0943 -0.2119
vn -0.0041 -0.7001 -0.7140
vn 0.9961 -0.0878 0.0000
vn 0.5772 0.8166 -0.0000
vn -0.0041 0.7443 0.6678
vn 0.5631 0.2783 -0.7781
vn 0.0015 -1.0000 0.0000
vn -0.0003 -0.0494 0.9988
vn 0.6360 0.6932 0.3390
vn 0.6228 -0.4042 0.6699
vn 0.4859 0.2511 0.8372
vn 0.0640 0.0230 -0.9977
vn 0.1930 0.7408 0.6434
vn 0.6171 0.6890 -0.3802
vn 0.6281 -0.4421 -0.6403
vn 0.0206 -0.7119 0.7020
vn 0.0019 1.0000 0.0000
vn 0.8973 0.4415 -0.0000
vn 0.8923 0.4515 -0.0058
vn 0.8905 0.4549 -0.0008
vn 0.8965 0.4431 -0.0034
vn 0.8949 0.4462 0.0002
vn 0.8851 0.4652 -0.0127
vn 0.0504 0.9987 0.0000
vn 0.8864 0.4629 -0.0108
vn 1.0000 -0.0056 0.0048
vn 1.0000 -0.0044 0.0000
vn 0.0338 0.0167 0.9993
vn 0.2621 0.7695 -0.5824
vn -0.0025 0.7618 -0.6478
vn -0.8601 -0.4806 0.1709
vn -0.9068 -0.3256 0.2678
vn 0.9111 0.3074 -0.2745
vn -0.8096 -0.5870 -0.0000
vn -0.9739 -0.1076 0.1997
vn 0.9679 0.1819 -0.1737
vn 0.0728 0.0246 -0.9970
vn 0.0562 0.7295 0.6817
vn 0.0250 -0.7079 0.7059
vn 0.0367 0.0132 0.9992
vn 0.0916 0.7339 -0.6730
vn 0.0511 -0.7033 -0.7091
vn -0.8557 -0.4859 -0.1777
vn 0.8681 0.4621 0.1814
vn -0.9007 -0.3232 -0.2903
vn 0.9225 0.3151 0.2229
vn 0.9700 0.1047 0.2195
vn 0.8701 0.4604 -0.1759
vn 0.2744 0.9616 0.0000
vn -0.0059 -1.0000 0.0000
vn 0.5921 0.3061 -0.7455
vn 0.5808 0.7020 0.4121
vn 0.5256 -0.5264 0.6683
vn 0.4555 0.2251 0.8613
vn 0.0742 0.0366 -0.9966
vn 0.2391 0.7691 0.5927
vn 0.6605 0.6809 -0.3163
vn 0.7036 -0.3270 -0.6309
vn 0.0199 -0.7130 0.7008
vn 0.8910 0.4540 -0.0004
vn 0.8925 0.4510 0.0072
vn 0.8940 0.4480 -0.0013
vn 0.8959 0.4441 0.0054
vn 0.8883 0.4592 0.0093
vn 0.8883 0.4592 0.0016
vn 1.0000 -0.0040 0.0016
vn 1.0000 -0.0047 -0.0042
vn 1.0000 -0.0039 -0.0024
vn 0.0291 0.0105 0.9995
vn 0.2156 0.7407 -0.6363
vn -0.8613 -0.4789 0.1697
vn -0.9065 -0.3253 0.2690
vn 0.9189 0.3139 -0.2389
vn -0.9739 -0.1068 0.2003
vn 0.9687 0.0933 -0.2302
vn -0.0003 -0.0559 -0.9984
vn 0.0806 0.0289 -0.9963
vn 0.0620 0.7311 0.6795
vn 0.0228 -0.7090 0.7048
vn 0.0332 0.0112 0.9994
vn 0.0855 0.7324 -0.6755
vn 0.0541 -0.7017 -0.7104
vn -0.8548 -0.4868 -0.1796
vn 0.8754 0.4534 0.1676
vn -0.9010 -0.3235 -0.2890
vn 0.9158 0.3090 0.2565
vn 0.9677 0.1902 0.1655
vn 0.8624 0.4692 -0.1899
vn 0.8516 0.5243 0.0000
vn -0.7071 0.0000 -0.7071
vn -1.0000 0.0000 0.0000
vn -0.7071 0.0000 0.7071
vn 0.0000 -1.0000 0.0000
vn -1.0000 -0.0003 0.0004
vn -1.0000 -0.0002 -0.0004
vn -0.0009 0.7635 0.6458
vn -1.0000 -0.0001 -0.0004
vn 0.0009 -0.7774 0.6290
vn -1.0000 -0.0015 0.0000
vn -1.0000 -0.0015 0.0001
vn -1.0000 -0.0014 -0.0001
vn -1.0000 -0.0010 0.0002
vn -1.0000 -0.0010 -0.0002
vn -1.0000 -0.0012 0.0001
vn -1.0000 -0.0009 0.0000
vn -1.0000 -0.0012 -0.0001
vn -1.0000 -0.0011 -0.0005
vn -1.0000 -0.0011 0.0005
vn -1.0000 -0.0002 -0.0003
vn 0.0010 -0.7635 -0.6458
vn -0.0042 -0.7035 0.7106
vn 0.0447 -0.7071 -0.7056
vn 0.5832 -0.8124 0.0000
vn -0.9727 -0.0939 -0.2123
vn -0.0040 -0.7002 -0.7140
vn 0.5773 0.8165 0.0000
vn 0.0014 0.7364 0.6765
vn -0.0250 -0.0131 0.9996
vn 0.0015 0.7565 -0.6540
vn -0.0237 -0.0125 -0.9996
usemtl None
s off
f 28/1/1 38/2/1 37/3/1
f 10/4/2 9/5/2 3/6/2
f 30/7/3 38/2/3 29/8/3
f 7/9/4 5/10/4 6/11/4
f 1/12/5 18/13/5 14/14/5
f 34/15/6 19/16/6 20/17/6
f 25/18/7 12/19/7 23/20/7
f 26/21/8 32/22/8 27/23/8
f 7/9/9 1/12/9 4/24/9
f 5/10/10 8/25/10 24/26/10
f 18/13/11 6/11/11 22/27/11
f 12/19/12 22/27/12 23/20/12
f 40/28/13 32/22/13 35/29/13
f 24/26/14 16/30/14 27/23/14
f 20/17/15 31/31/15 36/32/15
f 31/31/16 39/33/16 36/32/16
f 3/6/17 61/34/17 62/35/17
f 15/36/3 67/37/3 13/38/3
f 17/39/18 57/40/18 58/41/18
f 13/38/19 68/42/19 14/14/19
f 37/3/20 38/2/20 39/33/20
f 32/22/11 34/15/11 35/29/11
f 2/43/21 55/44/21 56/45/21
f 15/36/22 13/38/22 11/46/22
f 14/14/23 63/47/23 1/12/23
f 8/25/24 4/24/24 17/39/24
f 16/30/25 8/25/25 9/5/25
f 34/15/22 36/32/22 39/33/22
f 27/23/26 10/4/26 26/21/26
f 39/33/26 28/1/26 37/3/26
f 34/15/27 38/2/27 40/28/27
f 28/1/28 33/48/28 22/27/28
f 9/5/29 59/49/29 61/34/29
f 40/28/30 35/29/30 34/15/30
f 26/21/31 11/46/31 25/18/31
f 56/45/32 60/50/32 2/43/32
f 52/51/33 47/52/33 44/53/33
f 58/41/34 55/44/34 17/39/34
f 66/54/35 3/6/35 65/55/35
f 68/42/36 64/56/36 14/14/36
f 63/47/37 57/40/37 1/12/37
f 60/50/38 9/5/38 2/43/38
f 62/35/39 65/55/39 3/6/39
f 71/57/40 73/58/40 69/59/40
f 76/60/41 69/59/41 70/61/41
f 75/62/42 72/63/42 73/58/42
f 79/64/40 81/65/40 77/66/40
f 84/67/43 77/66/43 78/68/43
f 83/69/42 80/70/42 81/65/42
f 92/71/41 85/72/41 86/73/41
f 87/74/40 89/75/40 85/72/40
f 91/76/42 88/77/42 89/75/42
f 132/78/44 128/79/44 106/80/44
f 174/81/3 157/82/3 175/83/3
f 154/84/45 124/85/45 145/86/45
f 163/87/21 146/88/21 115/89/21
f 140/90/46 136/91/46 143/92/46
f 126/93/47 102/94/47 109/95/47
f 130/96/48 108/97/48 109/95/48
f 124/85/49 144/98/49 145/86/49
f 99/99/42 96/100/42 97/101/42
f 132/78/50 112/102/50 141/103/50
f 159/104/51 118/105/51 155/106/51
f 128/79/52 105/107/52 106/80/52
f 142/108/53 138/109/53 94/110/53
f 109/95/3 125/111/3 126/93/3
f 101/112/37 171/113/37 100/114/37
f 102/94/54 103/115/54 104/116/54
f 156/117/55 159/104/55 155/106/55
f 94/110/56 134/118/56 140/90/56
f 105/107/57 113/119/57 114/120/57
f 115/89/32 168/121/32 163/87/32
f 117/122/39 173/123/39 170/124/39
f 119/125/58 108/97/58 110/126/58
f 120/127/59 114/120/59 113/119/59
f 121/128/60 122/129/60 102/94/60
f 123/130/61 127/131/61 113/119/61
f 128/79/62 129/132/62 107/133/62
f 104/116/63 130/96/63 102/94/63
f 131/134/64 125/111/64 108/97/64
f 135/135/65 139/136/65 137/137/65
f 130/96/66 137/137/66 110/126/66
f 132/78/67 106/80/67 133/138/67
f 134/118/68 129/132/68 128/79/68
f 135/135/69 130/96/69 104/116/69
f 111/139/70 120/127/70 110/126/70
f 133/138/71 114/120/71 111/139/71
f 145/86/72 147/140/72 154/84/72
f 138/109/73 104/116/73 134/118/73
f 139/136/74 112/102/74 162/141/74
f 141/103/75 142/108/75 143/92/75
f 119/125/76 113/119/76 127/131/76
f 107/133/77 103/115/77 124/85/77
f 111/139/78 139/136/78 162/141/78
f 131/134/79 149/142/79 150/143/79
f 127/131/80 151/144/80 131/134/80
f 116/145/81 152/146/81 153/147/81
f 126/93/82 150/143/82 156/117/82
f 95/148/40 97/101/40 93/149/40
f 123/130/83 154/84/83 127/131/83
f 117/122/84 153/147/84 155/106/84
f 153/147/85 152/146/85 158/150/85
f 147/140/86 160/151/86 151/144/86
f 161/152/87 159/104/87 150/143/87
f 149/142/88 151/144/88 160/151/88
f 145/86/89 144/98/89 148/153/89
f 158/150/90 156/117/90 153/147/90
f 126/93/91 156/117/91 158/150/91
f 101/112/92 160/151/92 146/88/92
f 121/128/93 158/150/93 144/98/93
f 100/114/94 161/152/94 101/112/94
f 157/82/95 159/104/95 100/114/95
f 115/89/96 148/153/96 152/146/96
f 162/154/41 93/149/41 94/155/41
f 107/133/97 123/130/97 105/107/97
f 143/92/98 132/78/98 141/103/98
f 103/115/99 129/132/99 104/116/99
f 106/80/100 105/107/100 114/120/100
f 116/145/38 167/156/38 168/121/38
f 118/105/35 174/81/35 173/123/35
f 120/127/101 119/125/101 110/126/101
f 119/125/102 120/127/102 113/119/102
f 122/129/103 103/115/103 102/94/103
f 105/107/104 123/130/104 113/119/104
f 129/132/105 103/115/105 107/133/105
f 130/96/106 109/95/106 102/94/106
f 119/125/107 131/134/107 108/97/107
f 106/80/108 114/120/108 133/138/108
f 136/91/109 134/118/109 128/79/109
f 138/109/110 135/135/110 104/116/110
f 137/137/111 111/139/111 110/126/111
f 114/120/112 120/127/112 111/139/112
f 104/116/113 129/132/113 134/118/113
f 139/136/114 141/103/114 112/102/114
f 94/110/115 140/90/115 142/108/115
f 140/90/116 143/92/116 142/108/116
f 131/134/117 119/125/117 127/131/117
f 103/115/118 122/129/118 124/85/118
f 125/111/119 131/134/119 150/143/119
f 151/144/120 149/142/120 131/134/120
f 117/122/121 116/145/121 153/147/121
f 154/84/122 151/144/122 127/131/122
f 118/105/123 117/122/123 155/106/123
f 133/138/124 162/141/124 112/102/124
f 146/88/34 166/157/34 101/112/34
f 100/114/36 176/158/36 157/82/36
f 152/146/125 144/98/125 158/150/125
f 154/84/126 147/140/126 151/144/126
f 149/142/127 161/152/127 150/143/127
f 161/152/128 149/142/128 160/151/128
f 144/98/129 152/146/129 148/153/129
f 156/117/130 155/106/130 153/147/130
f 121/128/131 126/93/131 158/150/131
f 160/151/132 147/140/132 146/88/132
f 122/129/133 121/128/133 144/98/133
f 161/152/134 160/151/134 101/112/134
f 159/104/135 161/152/135 100/114/135
f 116/145/136 115/89/136 152/146/136
f 115/89/137 147/140/137 148/153/137
f 176/158/19 175/83/19 157/82/19
f 171/113/23 172/159/23 100/114/23
f 166/157/18 165/160/18 101/112/18
f 170/124/17 169/161/17 117/122/17
f 169/161/29 116/145/29 117/122/29
f 180/162/138 181/163/138 178/164/138
f 182/165/11 188/166/11 187/167/11
f 185/168/26 177/169/26 186/170/26
f 183/171/139 178/164/139 179/172/139
f 179/172/140 182/165/140 183/171/140
f 185/168/33 187/167/33 188/166/33
f 184/173/141 179/172/141 178/164/141
f 28/1/1 29/8/1 38/2/1
f 10/4/142 16/30/142 9/5/142
f 30/7/3 40/28/3 38/2/3
f 7/9/4 4/24/4 5/10/4
f 1/12/143 7/9/143 18/13/143
f 34/15/144 21/174/144 19/16/144
f 25/18/7 11/46/7 12/19/7
f 26/21/145 21/174/145 32/22/145
f 5/10/10 4/24/10 8/25/10
f 18/13/11 7/9/11 6/11/11
f 12/19/12 18/13/12 22/27/12
f 40/28/146 30/7/146 32/22/146
f 24/26/14 8/25/14 16/30/14
f 20/17/15 19/16/15 31/31/15
f 31/31/16 33/48/16 39/33/16
f 3/6/17 9/5/17 61/34/17
f 15/36/3 66/54/3 67/37/3
f 17/39/18 1/12/18 57/40/18
f 13/38/19 67/37/19 68/42/19
f 32/22/11 21/174/11 34/15/11
f 2/43/21 17/39/21 55/44/21
f 10/4/147 3/6/147 15/36/147
f 13/38/147 14/14/147 18/13/147
f 13/38/148 18/13/148 12/19/148
f 11/46/149 10/4/149 15/36/149
f 13/38/22 12/19/22 11/46/22
f 14/14/23 64/56/23 63/47/23
f 2/43/150 9/5/150 8/25/150
f 4/24/151 1/12/151 17/39/151
f 2/43/24 8/25/24 17/39/24
f 34/15/147 20/17/147 36/32/147
f 27/23/26 16/30/26 10/4/26
f 39/33/26 33/48/26 28/1/26
f 34/15/27 39/33/27 38/2/27
f 26/21/152 25/18/152 21/174/152
f 25/18/153 23/20/153 19/16/153
f 6/11/152 5/10/152 28/1/152
f 5/10/153 24/26/153 29/8/153
f 24/26/154 27/23/154 32/22/154
f 24/26/155 32/22/155 30/7/155
f 19/16/156 21/174/156 25/18/156
f 24/26/153 30/7/153 29/8/153
f 5/10/156 29/8/156 28/1/156
f 31/31/153 19/16/153 23/20/153
f 33/48/155 31/31/155 23/20/155
f 33/48/154 23/20/154 22/27/154
f 6/11/157 28/1/157 22/27/157
f 26/21/158 10/4/158 11/46/158
f 47/52/33 45/175/33 46/176/33
f 46/176/33 41/177/33 44/53/33
f 41/177/33 42/178/33 44/53/33
f 44/53/33 43/179/33 49/180/33
f 46/176/33 44/53/33 47/52/33
f 49/180/33 50/181/33 54/182/33
f 54/182/33 53/183/33 49/180/33
f 53/183/33 52/51/33 44/53/33
f 44/53/33 49/180/33 53/183/33
f 48/184/33 47/52/33 51/185/33
f 51/185/33 47/52/33 52/51/33
f 66/54/35 15/36/35 3/6/35
f 60/50/38 59/49/38 9/5/38
f 71/57/40 75/62/40 73/58/40
f 76/60/41 71/57/41 69/59/41
f 75/62/42 74/186/42 72/63/42
f 79/64/40 83/69/40 81/65/40
f 84/67/43 79/64/43 77/66/43
f 83/69/42 82/187/42 80/70/42
f 92/71/41 87/74/41 85/72/41
f 87/74/40 91/76/40 89/75/40
f 91/76/42 90/188/42 88/77/42
f 132/78/44 136/91/44 128/79/44
f 174/81/3 118/105/3 157/82/3
f 154/84/45 123/130/45 124/85/45
f 163/87/21 164/189/21 146/88/21
f 140/90/159 134/118/159 136/91/159
f 126/93/160 121/128/160 102/94/160
f 130/96/161 110/126/161 108/97/161
f 124/85/162 122/129/162 144/98/162
f 99/99/42 98/190/42 96/100/42
f 132/78/163 133/138/163 112/102/163
f 159/104/51 157/82/51 118/105/51
f 128/79/164 107/133/164 105/107/164
f 142/108/165 135/135/165 138/109/165
f 109/95/3 108/97/3 125/111/3
f 101/112/37 165/160/37 171/113/37
f 156/117/55 150/143/55 159/104/55
f 94/110/166 138/109/166 134/118/166
f 115/89/32 116/145/32 168/121/32
f 117/122/39 118/105/39 173/123/39
f 135/135/65 142/108/65 139/136/65
f 130/96/66 135/135/66 137/137/66
f 145/86/72 148/153/72 147/140/72
f 141/103/75 139/136/75 142/108/75
f 111/139/167 137/137/167 139/136/167
f 126/93/82 125/111/82 150/143/82
f 95/148/40 99/99/40 97/101/40
f 162/154/41 95/148/41 93/149/41
f 107/133/97 124/85/97 123/130/97
f 143/92/98 136/91/98 132/78/98
f 133/138/168 111/139/168 162/141/168
f 146/88/34 164/189/34 166/157/34
f 100/114/36 172/159/36 176/158/36
f 115/89/137 146/88/137 147/140/137
f 169/161/29 167/156/29 116/145/29
f 180/162/138 177/169/138 181/163/138
f 182/165/11 184/173/11 188/166/11
f 185/168/26 181/163/26 177/169/26
f 183/171/139 180/162/139 178/164/139
f 179/172/140 184/173/140 182/165/140
f 185/168/33 186/170/33 187/167/33
f 178/164/141 181/163/141 184/173/141
f 181/163/141 185/168/141 188/166/141
f 184/173/141 181/163/141 188/166/141
